<svg height="512" viewBox="0 0 56 49" width="512" xmlns="http://www.w3.org/2000/svg"><g id="Page-1" fill="none" fill-rule="evenodd"><g id="001---Certificate" fill="rgb(0,0,0)" fill-rule="nonzero"><path id="Shape" d="m44.455 32.962h-.006c-.2170086.1505049-.4113187.3313446-.577.537l-.109.136c-.190357.2166684-.4639724.3420244-.7523711.3446966-.2883987.0026721-.5642899-.1175926-.7586289-.3306966l-.136-.17c-.1674176-.197449-.3589082-.37315-.57-.523-.017-.012-.038-.019-.056-.031s-.011-.012-.019-.017-.019 0-.029-.01c-.7000162-.4542044-1.5566054-.5989596-2.367-.4l-.154.043c-.2841305.0726055-.5858466.0138773-.822-.16-.239753-.1737518-.3922693-.4430269-.418-.738l-.012-.242c-.0520787-.6678041-.3267387-1.2988178-.78-1.792-.019-.02-.033-.044-.052-.063-.2953167-.3181535-.6568058-.56768-1.059-.731l-.147-.053c-.2768204-.1158587-.4881045-.3483812-.577-.635-.0956427-.2959397-.0538195-.6191519.114-.881l.1-.168c.5979394-.9621101.6029678-2.1789812.013-3.146l-.123-.21c-.1583502-.2583216-.1949286-.5732616-.1-.861.0819272-.2726145.2761536-.4973934.534-.618l.24-.09c1.0528709-.4531964 1.7644438-1.4564989 1.844-2.6l.009-.187c.020628-.3030384.1739585-.5815217.419-.761.228055-.172984.5217857-.2343003.8-.167l.211.057c1.1127064.2753812 2.2847702-.1114193 3.015-.995l.109-.136c.190357-.2166684.4639724-.3420244.7523711-.3446966.2883987-.0026721.5642899.1175926.7586289.3306966l.131.163c.7386736.8908495 1.9255778 1.2746646 3.046.985l.154-.043c.284147-.0720261.585614-.0133464.822.16.239753.1737518.3922693.4430269.418.738l.012.238c.0595911.7567477.4019785 1.4633012.959 1.979.2724974.2554501.5871379.4618272.93.61l.147.053c.2768204.1158587.4881045.3483812.577.635.0956427.2959397.0538195.6191519-.114.881l-.1.168c-.5983497.9623529-.6033786 2.1797365-.013 3.147l.123.209c.1583502.2583216.1949286.5732616.1.861-.0819272.2726145-.2761536.4973934-.534.618l-.249.094c-.3535181.1536591-.6730238.3759535-.94.654-.006.006-.016.008-.023.014s-.012.016-.02.024l-.017.015c0 .006-.006.013-.011.019-.4815239.5100384-.7725334 1.1704605-.824 1.87l-.009.187c-.0203578.3031176-.1737471.5817077-.419.761-.228055.172984-.5217857.2343003-.8.167l-.196-.057c-.8434848-.2059744-1.7348288-.0375487-2.445.462zm-8.58-.363c.5113516 1.4485268 2.0434844 2.2675151 3.532 1.888l-2.563 4.438-.217-.79c-.1349533-.51726-.4737248-.9577713-.939-1.221-.4541792-.2621726-.9946124-.3309877-1.5-.191l-.81.216zm10.725 1.892c1.4853205.3663202 3.0083704-.4436753 3.535-1.88l2.494 4.325h-.01l-.782-.2c-.5115617-.1434175-1.0592453-.0761047-1.5208534.1869198-.461608.2630246-.7987294.6998742-.9361466 1.2130802l-.218.816-2.565-4.452zm-7.6-34.491h8c1.1045695 0 2 .8954305 2 2v14.948c-.7097363-.4850855-1.5934711-.6423881-2.427-.432l-.149.042c-.3639001.0933417-.7492368-.0279967-.994-.313l-.13-.165c-.5690677-.6868668-1.4155679-1.0831426-2.3075408-1.080239-.891973.0029035-1.7358753.4046819-2.3004592 1.095239l-.109.136c-.2350786.2870349-.6120954.416707-.974.335l-.206-.057c-.8260141-.2020876-1.6990076-.0424025-2.4.439v-14.948c-.0000012-1.10339899.8936023-1.9983449 1.997-2zm-13 49v-2c0-.5522847-.4477153-1-1-1s-1 .4477153-1 1v2h-14v-2c0-.5522847-.44771525-1-1-1s-1 .4477153-1 1v2h-3c-.55228475 0-1-.4477153-1-1v-1c.00330738-3.3123376 2.68766243-5.9966926 6-6h1.083c.4856527 2.8893814 2.9870881 5.0054594 5.917 5.0054594s5.4313473-2.116078 5.917-5.0054594h1.083c3.3123376.0033074 5.9966926 2.6876624 6 6v1c0 .5522847-.4477153 1-1 1zm-16.684-31.949c-.59297354-.1957365-1.14194335-.5055511-1.616-.912-.02852116-.0290382-.05928274-.0557874-.092-.08-2.008-1.807-2.539-5.159-2.645-7.468 2.623 1.81 6.8 1.631 10.879 1.454 3.342-.144 6.8-.293 8.643.812 4.222 2.534 1.605 9.721 1.578 9.793-.1147341.3070775-.0716779.6508892.1152372.9201906.1869151.2693013.4939512.4298915.8217628.4298094 1.1045695 0 2 .8954305 2 2s-.8954305 2-2 2c-.1152755-.0000145-.2302336-.0120801-.343-.036-.500949-.1111758-1.0047479.1748576-1.166.662-1.1577006 3.7347904-4.5815035 6.3049611-8.491 6.374-3.9094965-.0690389-7.33329944-2.6392096-8.491-6.374-.13526164-.408984-.5172295-.6853869-.948-.686-.07331891.0001262-.14640963.0081729-.218.024-.11276643.0239199-.22772455.0359855-.343.036-1.1045695 0-2-.8954305-2-2s.8954305-2 2-2c.55228475 0 1-.4477153 1-1v-2.319c.22311227.1013379.4514316.1907964.684.268.52467051.174522 1.09147799-.1093295 1.26599997-.634.17452193-.5246705-.10932948-1.091478-.63399997-1.266zm5.663 17.749c1.3336058.2719968 2.7083942.2719968 4.042 0-.3763215 2.0812814.3574765 4.2084242 1.937 5.615-.1997614 2.0362778-1.9119472 3.5887153-3.958 3.5887153s-3.7582386-1.5524375-3.958-3.5887153c1.5795235-1.4065758 2.3133215-3.5337186 1.937-5.615zm41.021 9.2c-.0033061 2.7600532-2.2399468 4.9966939-5 5h-19.184c.1184378-.320257.1806856-.6585603.184-1v-1c-.0049599-4.4162219-3.5837781-7.9950401-8-8h-1.619c-1.383147-1.2162736-1.8554511-3.1690767-1.181-4.883 2.6958572-1.1868491 4.8193134-3.3828223 5.915-6.117 1.935217-.0538255 3.5541199-1.4858245 3.8437664-3.3999997.2896466-1.9141752-.8331108-3.7610329-2.6657664-4.3850003.681-2.49 1.708-8.38-2.778-11.071-2.358-1.416-5.953-1.26-9.76-1.1-4.628.2-9.411.4-10.86-2.494-.1987834-.39869392-.63733449-.61780756-1.07551222-.53735906-.43817772.0804485-.77029344.44105494-.81448778.88435906-.037.37-.716 7.717 3 11.4v2.826c-1.93852373.4895655-3.21782425 2.3353182-2.9958384 4.3223438.22198585 1.9870257 1.87706915 3.5049558 3.8758384 3.5546562 1.09568661 2.7341777 3.2191428 4.9301509 5.915 6.117.6744511 1.7139233.202147 3.6667264-1.181 4.883h-1.619c-4.41622192.0049599-7.99504012 3.5837781-8 8v.974c-1.25456809-.936398-1.99543933-2.4085092-2-3.974v-36c.00330612-2.76005315 2.23994685-4.99669388 5-5h30v17.333l-.148.055c-.8099216.3440625-1.4310184 1.0221977-1.7027803 1.8591551-.2717618.8369574-.1675221 1.7506109.2857803 2.5048449l.124.212c.2056487.3371406.2002087.7622324-.014 1.094l-.1.17c-.4525784.7337784-.569385 1.6261985-.3209015 2.4517371.2484835.8255385.8384836 1.505213 1.6209015 1.8672629l-3.106 5.4c-.3992147.7004985-.3387688 1.5722074.1533081 2.2109021.4920768.6386947 1.3195437.9194589 2.0986919.7120979l.8-.212.218.793c.2076794.7819792.866046 1.3617996 1.668 1.469.089097.0127576.1789944.0191072.269.019.7123685-.0021571 1.3698174-.3830661 1.726-1l2.628-4.549c1.0625668.8122064 2.5374332.8122064 3.6 0l2.625 4.556c.3561421.613973 1.0122113.9919176 1.722.992.0899658-.0000531.1798292-.0060663.269-.018.7995624-.1070496 1.4565363-.683972 1.666-1.463l.222-.8.8.21c.7797121.2073648 1.6076639-.0740719 2.0994823-.7136544s.5511766-1.5120431.1505177-2.2123456l-3.1-5.389c.7767891-.3626737 1.3630643-1.0381041 1.6128997-1.8581747.2498355-.8200706.1397341-1.707653-.3028997-2.4418253l-.124-.212c-.2056487-.3371406-.2002087-.7622324.014-1.094l.1-.17c.4654787-.7608628.5730737-1.6878425.29425-2.5350968s-.9158922-1.5291721-1.74225-1.8649032l-.1-.038v-17.338c2.7600532.00330612 4.9966939 2.23994685 5 5z"/></g></g></svg>