<svg height="512" viewBox="0 0 58 60" width="512" xmlns="http://www.w3.org/2000/svg"><g id="Page-1" fill="none" fill-rule="evenodd"><g id="002---Light" fill="rgb(0,0,0)" fill-rule="nonzero" transform="translate(0 -1)"><path id="Shape" d="m49.91 21.02c-.935382-10.3687496-9.0106515-18.66232196-19.3507684-19.87388751-10.3401168-1.21156555-20.1138731 4.99061219-23.42085213 14.86227861-3.30697907 9.8716664.75829677 20.709879 9.74162053 25.9716089 1.9013366 1.0977268 3.29222 2.9019218 3.87 5.02h3.25v-7c0-.5522847.4477153-1 1-1s1 .4477153 1 1v7h4v-7c0-.5522847.4477153-1 1-1s1 .4477153 1 1v7h3.26c.5666043-2.1097955 1.9478167-3.9082492 3.84-5 7.3670019-4.3052404 11.5801382-12.4820768 10.81-20.98zm-28.38-13.74c-2.7071624 1.11886345-5.0801824 2.9167103-6.89 5.22-.1908221.241492-.4822197.381658-.79.38-.2239916-.0007915-.4416325-.0745086-.62-.21-.2089813-.1652201-.3433986-.4069976-.373436-.6717023s.0467883-.5304531.213436-.7382977c2.0243947-2.57134042 4.675956-4.57895112 7.7-5.83.2439361-.10144481.5182412-.10150116.7622189-.00015657s.4375128.29573456.5377811.54015657c.102641.24527313.1033783.52132438.0020488.76714225s-.2963823.44116177-.5420488.54285775zm4.47 28.72c0 .5522847-.4477153 1-1 1s-1-.4477153-1-1v-2c0-.5522847.4477153-1 1-1s1 .4477153 1 1zm6 0c0 .5522847-.4477153 1-1 1s-1-.4477153-1-1v-2c0-.5522847.4477153-1 1-1s1 .4477153 1 1z"/><path id="Shape" d="m35 49v3c0 .5522847-.4477153 1-1 1h-12c-.5522847 0-1-.4477153-1-1v-3z"/><path id="Shape" d="m22 55h4v4c0 1.1045695-.8954305 2-2 2s-2-.8954305-2-2z"/><path id="Shape" d="m30 55h4v4c0 1.1045695-.8954305 2-2 2s-2-.8954305-2-2z"/><path id="Shape" d="m5 59h-2c-.55228475 0-1 .4477153-1 1s.44771525 1 1 1h2c.55228475 0 1-.4477153 1-1s-.44771525-1-1-1z"/><path id="Shape" d="m18 59h-9c-.55228475 0-1 .4477153-1 1s.44771525 1 1 1h9c.5522847 0 1-.4477153 1-1s-.4477153-1-1-1z"/><path id="Shape" d="m53 59h-2c-.5522847 0-1 .4477153-1 1s.4477153 1 1 1h2c.5522847 0 1-.4477153 1-1s-.4477153-1-1-1z"/><path id="Shape" d="m47 59h-9c-.5522847 0-1 .4477153-1 1s.4477153 1 1 1h9c.5522847 0 1-.4477153 1-1s-.4477153-1-1-1z"/><path id="Shape" d="m52 5c.5522847 0 1-.44771525 1-1v-2c0-.55228475-.4477153-1-1-1s-1 .44771525-1 1v2c0 .55228475.4477153 1 1 1z"/><path id="Shape" d="m52 13c.5522847 0 1-.4477153 1-1v-2c0-.55228475-.4477153-1-1-1s-1 .44771525-1 1v2c0 .5522847.4477153 1 1 1z"/><path id="Shape" d="m49 6h-2c-.5522847 0-1 .44771525-1 1s.4477153 1 1 1h2c.5522847 0 1-.44771525 1-1s-.4477153-1-1-1z"/><path id="Shape" d="m57 6h-2c-.5522847 0-1 .44771525-1 1s.4477153 1 1 1h2c.5522847 0 1-.44771525 1-1s-.4477153-1-1-1z"/><path id="Shape" d="m6 42c-.55228475 0-1 .4477153-1 1v2c0 .5522847.44771525 1 1 1s1-.4477153 1-1v-2c0-.5522847-.44771525-1-1-1z"/><path id="Shape" d="m6 50c-.55228475 0-1 .4477153-1 1v2c0 .5522847.44771525 1 1 1s1-.4477153 1-1v-2c0-.5522847-.44771525-1-1-1z"/><path id="Shape" d="m4 48c0-.5522847-.44771525-1-1-1h-2c-.55228475 0-1 .4477153-1 1s.44771525 1 1 1h2c.55228475 0 1-.4477153 1-1z"/><path id="Shape" d="m9 49h2c.5522847 0 1-.4477153 1-1s-.4477153-1-1-1h-2c-.55228475 0-1 .4477153-1 1s.44771525 1 1 1z"/></g></g></svg>