<svg height="512" viewBox="0 0 56 56" width="512" xmlns="http://www.w3.org/2000/svg"><g id="Page-1" fill="none" fill-rule="evenodd"><g id="003---Folder" fill="rgb(0,0,0)" fill-rule="nonzero"><path id="Shape" d="m51 14h-40c-2.76005315.0033061-4.99669388 2.2399468-5 5v32c0 .5522847-.44771525 1-1 1s-1-.4477153-1-1v-32c.00440864-3.8641657 3.13583434-6.9955914 7-7h39v-1c0-1.1045695-.8954305-2-2-2h-17c-2.209139 0-4-1.790861-4-4-.0033061-2.76005315-2.2399468-4.99669388-5-5h-17c-2.76005315.00330612-4.99669388 2.23994685-5 5v46c.00330612 2.7600532 2.23994685 4.9966939 5 5h46c2.7600532-.0033061 4.9966939-2.2399468 5-5v-32c-.0033061-2.7600532-2.2399468-4.9966939-5-5zm-48-8c-.55228475 0-1-.44771525-1-1 0-1.65685425 1.34314575-3 3-3 .55228475 0 1 .44771525 1 1s-.44771525 1-1 1-1 .44771525-1 1-.44771525 1-1 1zm41 48h-22c-.5522847 0-1-.4477153-1-1s.4477153-1 1-1h22c.5522847 0 1 .4477153 1 1s-.4477153 1-1 1zm7 0h-2c-.5522847 0-1-.4477153-1-1s.4477153-1 1-1h2c.5522847 0 1 .4477153 1 1s-.4477153 1-1 1z"/></g></g></svg>