<svg height="512" viewBox="0 0 44 60" width="512" xmlns="http://www.w3.org/2000/svg"><g id="Page-1" fill="none" fill-rule="evenodd"><g id="004---Timer" fill="rgb(0,0,0)" fill-rule="nonzero"><path id="Shape" d="m41 6c1.6568542 0 3-1.34314575 3-3v-2c0-.55228475-.4477153-1-1-1h-42c-.55228475 0-1 .44771525-1 1v2c0 1.65685425 1.34314575 3 3 3h1v48h-1c-1.65685425 0-3 1.3431458-3 3v2c0 .5522847.44771525 1 1 1h42c.5522847 0 1-.4477153 1-1v-2c0-1.6568542-1.3431458-3-3-3h-1v-48zm-3 48h-32v-48h32z"/><path id="Shape" d="m13.59 52 3.46-3.46c2.7353257-2.7301467 7.1646743-2.7301467 9.9 0l3.46 3.46h2.59v-10c0-6.0751322-4.9248678-11-11-11s-11 4.9248678-11 11v10zm-.59-13c0-.5522847.4477153-1 1-1s1 .4477153 1 1v3c0 .5522847-.4477153 1-1 1s-1-.4477153-1-1z"/><path id="Shape" d="m18.46 49.95-2.05 2.05h11.18l-2.05-2.05c-1.9572931-1.9497573-5.1227069-1.9497573-7.08 0z"/><path id="Shape" d="m15 21c.5522847 0 1 .4477153 1 1s-.4477153 1-1 1h-2.79c1.8754862 3.6817819 5.6580554 6.00001 9.79 6.00001s7.9145138-2.3182281 9.79-6.00001h-11.79c-.5522847 0-1-.4477153-1-1s.4477153-1 1-1h12.57c.2854114-.9744321.4302063-1.9846293.43-3l.0000002-10h-22.0000004l.0000002 10c-.0002063 1.0153707.1445886 2.0255679.43 3zm-2-10c0-.5522847.4477153-1 1-1s1 .4477153 1 1v3c0 .5522847-.4477153 1-1 1s-1-.4477153-1-1z"/></g></g></svg>