<svg height="512" viewBox="0 0 56 56" width="512" xmlns="http://www.w3.org/2000/svg"><g id="Page-1" fill="none" fill-rule="evenodd"><g id="005---Home" fill="rgb(0,0,0)" fill-rule="nonzero"><path id="Shape" d="m55.989 22.789c-.0546165-.52809-.3181935-1.0123948-.732-1.345l-26-21c-.7349936-.58760309-1.7790064-.58760309-2.514 0l-26 21c-.55590527.4490828-.83000008 1.1606244-.71903555 1.8665939.11096452.7059695.59013022 1.2991134 1.25700001 1.5560001.66686979.2568866 1.42013028.1384889 1.97603554-.310594l24.115-19.477c.3664487-.29571555.8895513-.29571555 1.256 0l24.115 19.477c.8667457.6693033 2.1069027.5370434 2.813-.3.334204-.4116835.4900895-.9398222.433-1.467z"/><path id="Shape" d="m7 24.1v26.9c.00330612 2.7600532 2.23994685 4.9966939 5 5h7v-19c0-1.6568542 1.3431458-3 3-3h12c1.6568542 0 3 1.3431458 3 3v19h7c2.7600532-.0033061 4.9966939-2.2399468 5-5v-26.9l-21-16.958zm38 5.9c0-.5522847.4477153-1 1-1s1 .4477153 1 1v16c0 .5522847-.4477153 1-1 1s-1-.4477153-1-1zm0 20c0-.5522847.4477153-1 1-1s1 .4477153 1 1v1c0 .5522847-.4477153 1-1 1s-1-.4477153-1-1zm-12-33c0 .5522847-.4477153 1-1 1h-8c-.5522847 0-1-.4477153-1-1s.4477153-1 1-1h8c.5522847 0 1 .4477153 1 1zm-3-4c0 .5522847-.4477153 1-1 1h-2c-.5522847 0-1-.4477153-1-1s.4477153-1 1-1h2c.5522847 0 1 .4477153 1 1z"/><path id="Shape" d="m34 36h-12c-.5522847 0-1 .4477153-1 1v19h14v-19c0-.5522847-.4477153-1-1-1zm-1 14c0 .5522847-.4477153 1-1 1s-1-.4477153-1-1v-1c0-.5522847.4477153-1 1-1s1 .4477153 1 1zm0-5c0 .5522847-.4477153 1-1 1s-1-.4477153-1-1v-3c0-.5522847.4477153-1 1-1s1 .4477153 1 1z"/></g></g></svg>