<svg height="512" viewBox="0 0 56 56" width="512" xmlns="http://www.w3.org/2000/svg"><g id="Page-1" fill="none" fill-rule="evenodd"><g id="006---Printer" fill="rgb(0,0,0)" fill-rule="nonzero"><path id="Shape" d="m4 46h2v-6c0-.5522847.44771525-1 1-1s1 .4477153 1 1v11c-.07004728 2.6843769 2.043903 4.9199419 4.728 5h30.544c2.684097-.0800581 4.7980473-2.3156231 4.728-5v-11c0-.5522847.4477153-1 1-1s1 .4477153 1 1v6h2v-10h-48zm28-5h8c.5522847 0 1 .4477153 1 1s-.4477153 1-1 1h-8c-.5522847 0-1-.4477153-1-1s.4477153-1 1-1zm0 4h8c.5522847 0 1 .4477153 1 1s-.4477153 1-1 1h-8c-.5522847 0-1-.4477153-1-1s.4477153-1 1-1zm0 4h8c.5522847 0 1 .4477153 1 1s-.4477153 1-1 1h-8c-.5522847 0-1-.4477153-1-1s.4477153-1 1-1zm-16-8h8c.5522847 0 1 .4477153 1 1s-.4477153 1-1 1h-8c-.5522847 0-1-.4477153-1-1s.4477153-1 1-1zm0 4h8c.5522847 0 1 .4477153 1 1s-.4477153 1-1 1h-8c-.5522847 0-1-.4477153-1-1s.4477153-1 1-1zm0 4h8c.5522847 0 1 .4477153 1 1s-.4477153 1-1 1h-8c-.5522847 0-1-.4477153-1-1s.4477153-1 1-1z"/><path id="Shape" d="m46 5c-.0033061-2.76005315-2.2399468-4.99669388-5-5h-26c-2.7600532.00330612-4.9966939 2.23994685-5 5v9h36zm-30-1h-2c-.5522847 0-1-.44771525-1-1s.4477153-1 1-1h2c.5522847 0 1 .44771525 1 1s-.4477153 1-1 1zm23 0h-19c-.5522847 0-1-.44771525-1-1s.4477153-1 1-1h19c.5522847 0 1 .44771525 1 1s-.4477153 1-1 1z"/><path id="Shape" d="m53 16h-50c-1.65685425 0-3 1.3431458-3 3v24c.00525139 1.2667854.80564914 2.3937454 2 2.816v-11.816c0-.5522847.44771525-1 1-1s1 .4477153 1 1h48c0-.5522847.4477153-1 1-1s1 .4477153 1 1v11.816c1.1943509-.4222546 1.9947486-1.5492146 2-2.816v-24c0-1.6568542-1.3431458-3-3-3zm-49 14c0 .5522847-.44771525 1-1 1s-1-.4477153-1-1v-1c0-.5522847.44771525-1 1-1s1 .4477153 1 1zm1-9h-1c-.55228475 0-1-.4477153-1-1s.44771525-1 1-1h1c.55228475 0 1 .4477153 1 1s-.44771525 1-1 1zm4 10h-2c-.55228475 0-1-.4477153-1-1s.44771525-1 1-1h2c.55228475 0 1 .4477153 1 1s-.44771525 1-1 1zm1-10h-1c-.55228475 0-1-.4477153-1-1s.44771525-1 1-1h1c.5522847 0 1 .4477153 1 1s-.4477153 1-1 1zm33 10h-30c-.5522847 0-1-.4477153-1-1s.4477153-1 1-1h30c.5522847 0 1 .4477153 1 1s-.4477153 1-1 1zm6 0h-2c-.5522847 0-1-.4477153-1-1s.4477153-1 1-1h2c.5522847 0 1 .4477153 1 1s-.4477153 1-1 1zm5-1c0 .5522847-.4477153 1-1 1s-1-.4477153-1-1v-1c0-.5522847.4477153-1 1-1s1 .4477153 1 1z"/></g></g></svg>