<svg height="512" viewBox="0 0 56 52" width="512" xmlns="http://www.w3.org/2000/svg"><g id="Page-1" fill="none" fill-rule="evenodd"><g id="007---Camera" fill="rgb(0,0,0)" fill-rule="nonzero"><path id="Shape" d="m28 17c-8.2842712 0-15 6.7157288-15 15s6.7157288 15 15 15 15-6.7157288 15-15c-.0093685-8.2803876-6.7196124-14.9906315-15-15zm-3 17c-2.7614237 0-5-2.2385763-5-5s2.2385763-5 5-5 5 2.2385763 5 5c-.0033061 2.7600532-2.2399468 4.9966939-5 5zm7-1c1.6568542 0 3 1.3431458 3 3s-1.3431458 3-3 3-3-1.3431458-3-3 1.3431458-3 3-3zm-4 12c-4.8767712.0023105-9.3442367-2.7262241-11.5691051-7.0659088-2.2248685-4.3396847-1.8324946-9.5597604 1.0161051-13.5180912.2055045-.2981388.5561256-.4618915.9166495-.4281084.360524.0337831.6746193.2598234.8211581.5909505.1465389.3311272.1026246.715603-.1148076 1.0051579-3.3232963 4.6239436-2.5720053 11.0191202 1.7324413 14.7469737 4.3044467 3.7278535 10.7413615 3.5580016 14.84322-.3916704 4.1018586-3.949672 4.5148378-10.3755704.9523106-14.8178167-3.5625273-4.4422462-9.9247449-5.434672-14.6709719-2.2884866-.2976022.1979251-.6781899.2220466-.9983992.0632781s-.5313929-.4763064-.554-.833c-.0226071-.3566937.146797-.698353.4443992-.8962781 4.6370975-3.0762112 10.7178826-2.8598888 15.1246636.5380561 4.4067811 3.397945 6.1621605 9.2238685 4.3661341 14.4907498-1.7960263 5.2668812-6.7451105 8.8065574-12.3097977 8.8041941z"/><circle id="Oval" cx="32" cy="36" r="1"/><circle id="Oval" cx="25" cy="29" r="3"/><path id="Shape" d="m8 9c0-.55228475-.44771525-1-1-1h-2c-.55228475 0-1 .44771525-1 1v1h4z"/><path id="Shape" d="m53 12h-50c-1.65685425 0-3 1.3431458-3 3v34c0 1.6568542 1.34314575 3 3 3h9v-2c0-.5522847.4477153-1 1-1s1 .4477153 1 1v2h28v-2c0-.5522847.4477153-1 1-1s1 .4477153 1 1v2h9c1.6568542 0 3-1.3431458 3-3v-34c0-1.6568542-1.3431458-3-3-3zm-49 37c0 .5522847-.44771525 1-1 1s-1-.4477153-1-1v-14c0-.5522847.44771525-1 1-1s1 .4477153 1 1zm0-18c0 .5522847-.44771525 1-1 1s-1-.4477153-1-1v-2c0-.5522847.44771525-1 1-1s1 .4477153 1 1zm3-10h-4c-.55228475 0-1-.4477153-1-1s.44771525-1 1-1h4c.55228475 0 1 .4477153 1 1s-.44771525 1-1 1zm0-4h-4c-.55228475 0-1-.4477153-1-1s.44771525-1 1-1h4c.55228475 0 1 .4477153 1 1s-.44771525 1-1 1zm21 32c-9.3888407 0-17-7.6111593-17-17s7.6111593-17 17-17 17 7.6111593 17 17c-.010471 9.3845001-7.6154999 16.989529-17 17zm26 0c0 .5522847-.4477153 1-1 1s-1-.4477153-1-1v-14c0-.5522847.4477153-1 1-1s1 .4477153 1 1zm0-18c0 .5522847-.4477153 1-1 1s-1-.4477153-1-1v-2c0-.5522847.4477153-1 1-1s1 .4477153 1 1zm-5-7c-2.7614237 0-5-2.2385763-5-5s2.2385763-5 5-5 5 2.2385763 5 5c-.0033061 2.7600532-2.2399468 4.9966939-5 5z"/><circle id="Oval" cx="49" cy="19" r="3"/><path id="Shape" d="m41.092 8h-16.092c-.5522847 0-1-.44771525-1-1s.4477153-1 1-1h14.925l-3.21-5.5c-.1780913-.30846696-.5068158-.49892145-.863-.5h-15.7c-.3565418.00072257-.6857295.19122471-.864.5l-3.214 5.5h3.926c.5522847 0 1 .44771525 1 1s-.4477153 1-1 1h-5.092l-1.167 2h28.518z"/></g></g></svg>