<svg height="512" viewBox="0 0 60 56" width="512" xmlns="http://www.w3.org/2000/svg"><g id="Page-1" fill="none" fill-rule="evenodd"><g id="008---Alarm" fill="rgb(0,0,0)" fill-rule="nonzero" transform="translate(0 -1)"><path id="Shape" d="m7.331 6.753c-.40014927.00007629-.76181795-.23839424-.91939194-.60621197-.15757398-.36781774-.08071107-.79415624.19539194-1.08378803 1.00312465-1.05038659 2.08021527-2.02755474 3.223-2.924.279993-.2321302.6639419-.29393845 1.0026385-.16140516.3386967.1325333.5787306.43850841.626821.79901889s-.1033463.71870592-.3954595.93538627c-1.06706845.83750688-2.07265177 1.75051905-3.009 2.732-.18893938.19764975-.45057101.30931297-.724.309z"/><path id="Shape" d="m1 17c-.32523283-.0001641-.63007009-.1584822-.81725917-.4244459-.18718908-.2659636-.23334435-.6063459-.12374083-.9125541.958122-2.6753231 2.29216785-5.2006497 3.962-7.5.3244673-.44735063.95014935-.54696727 1.39749999-.22249998.44735064.32446728.54696729.95014933.22250001 1.39749998-1.55961211 2.1457132-2.80547075 4.502743-3.7 7-.14260623.3970808-.51908807.6619384-.941.662z"/><path id="Shape" d="m5.385 16.786c-.3372263-.0001737-.65165223-.1703015-.83628602-.4524929-.18463379-.2821913-.21460456-.6384341-.07971398-.9475071 1.60984158-3.6706145 4.03853054-6.92403155 7.1-9.511.2699777-.24968277.6552102-.33104385 1.0030939-.21185333.3478837.11919051.6022816.41969923.6624179.78248435.0601364.36278513-.0836928.72930516-.3745118.95436898-2.8289632 2.38924234-5.07302135 5.3947751-6.56 8.786-.15882856.3639232-.51792791.5993982-.915.6z"/><path id="Shape" d="m52.669 6.753c-.273429.00031297-.5350606-.11135025-.724-.309-.9363482-.98148095-1.9419315-1.89449312-3.009-2.732-.2921132-.21668035-.4435499-.57487579-.3954595-.93538627s.2881243-.66648559.626821-.79901889c.3386966-.13253329.7226455-.07072504 1.0026385.16140516 1.1427847.89644526 2.2198754 1.87361341 3.223 2.924.276103.28963179.3529659.71597029.1953919 1.08378803-.157574.36781773-.5192426.60628826-.9193919.60621197z"/><path id="Shape" d="m59 17c-.42217-.0002131-.7987287-.2655249-.941-.663-.8945293-2.497257-2.1403879-4.8542868-3.7-7-.3244673-.44735065-.2248506-1.07303269.2225-1.39749998.4473507-.32446728 1.0730327-.22485065 1.3975.22249998 1.6698322 2.2993503 3.003878 4.8246769 3.962 7.5.1100135.3063278.0640599.6470315-.1231799.9132662-.1872398.2662348-.4923363.4246862-.8178201.4247338z"/><path id="Shape" d="m54.615 16.786c-.398161.000591-.7587359-.2350788-.918-.6-1.4861141-3.3909245-3.7291268-6.3964315-6.557-8.786-.2856335-.22646217-.4254159-.59040663-.3648145-.94984937s.3119855-.65743724.656081-.77772824c.3440954-.12029101.7263872-.04382081.9977335.19957761 3.0614695 2.58696845 5.4901584 5.8403855 7.1 9.511.1348906.309073.1049198.6653158-.079714.9475071-.1846338.2821914-.4990597.4523192-.836286.4524929z"/><path id="Shape" d="m32.83 2.16c-1.1484998-1.13741301-2.8677209-1.47383771-4.3602378-.85323039s-2.4663324 2.07683057-2.4697622 3.69323039v.37c2.6438508-.49332463 5.3561492-.49332463 8 0v-.37c-.0014255-1.06367736-.4217645-2.08398732-1.17-2.84zm-7.73 50.84c.4731925 2.330324 2.5221184 4.0050126 4.9 4.0050126s4.4268075-1.6746886 4.9-4.0050126zm25.9-8h-6c-.5522847 0-1-.4477153-1-1s.4477153-1 1-1h5v-16c0-11.045695-8.954305-20-20-20s-20 8.954305-20 20v16h30c.5522847 0 1 .4477153 1 1s-.4477153 1-1 1h-31c-1.65685425 0-3 1.3431458-3 3s1.34314575 3 3 3h42c1.6568542 0 3-1.3431458 3-3s-1.3431458-3-3-3zm-6-6h2c.5522847 0 1 .4477153 1 1s-.4477153 1-1 1h-2c-.5522847 0-1-.4477153-1-1s.4477153-1 1-1zm-25.3-24.24c-3.6121113 3.0397426-5.6980628 7.5190489-5.7 12.24 0 .5522847-.4477153 1-1 1s-1-.4477153-1-1c-.0001271-5.3081935 2.3462122-10.3449529 6.41-13.76.2665979-.2656718.6597868-.3591526 1.0174266-.2418935.3576398.1172592.6191507.425396.6766927.7973434.0575421.3719474-.0986316.7447019-.4041193.9645501zm4.3-2.67c-.4847317.0047938-.9023732-.340431-.9888713-.8174068-.0864982-.4769757.1833237-.9468701.6388713-1.1125932.6450522-.25168248 1.306604-.45883506 1.98-.62.2572811-.0667762.5305617-.02837461.7594755.10672205s.3946234.35577125.4605245.61327795c.1279761.5373722-.1959632 1.0787503-.73 1.22-.6002871.1484215-1.1913106.3320729-1.77.55-.1123132.040112-.2307395.0604136-.35.06zm16 28.91h-14c-.5522847 0-1-.4477153-1-1s.4477153-1 1-1h14c.5522847 0 1 .4477153 1 1s-.4477153 1-1 1z"/></g></g></svg>