<svg height="512" viewBox="0 0 56 52" width="512" xmlns="http://www.w3.org/2000/svg"><g id="Page-1" fill="none" fill-rule="evenodd"><g id="009---Script" fill="rgb(0,0,0)" fill-rule="nonzero"><path id="Shape" d="m11 8h45v-5c0-1.65685425-1.3431458-3-3-3h-50c-1.65685425 0-3 1.34314575-3 3v5h5c.55228475 0 1 .44771525 1 1s-.44771525 1-1 1h-5v39c0 1.6568542 1.34314575 3 3 3h50c1.6568542 0 3-1.3431458 3-3v-39h-45c-.5522847 0-1-.44771525-1-1s.4477153-1 1-1zm30-5h11c.5522847 0 1 .44771525 1 1s-.4477153 1-1 1h-11c-.5522847 0-1-.44771525-1-1s.4477153-1 1-1zm-5 0h1c.5522847 0 1 .44771525 1 1s-.4477153 1-1 1h-1c-.5522847 0-1-.44771525-1-1s.4477153-1 1-1zm-24 0c.5522847 0 1 .44771525 1 1s-.4477153 1-1 1-1-.44771525-1-1 .4477153-1 1-1zm-8 2c-.55228475 0-1-.44771525-1-1s.44771525-1 1-1 1 .44771525 1 1-.44771525 1-1 1zm4-2c.55228475 0 1 .44771525 1 1s-.44771525 1-1 1-1-.44771525-1-1 .44771525-1 1-1zm40 47h-3c-.5522847 0-1-.4477153-1-1s.4477153-1 1-1h3c.5522847 0 1 .4477153 1 1s-.4477153 1-1 1zm4-2h1c.5522847 0 1 .4477153 1 1s-.4477153 1-1 1h-1c-.5522847 0-1-.4477153-1-1s.4477153-1 1-1zm-3.271-18.735-11.408-10.53c-.4059293-.3750013-.4310013-1.0080707-.056-1.414s1.0080707-.4310013 1.414-.056l11.408 10.535c.6153054.567924.9652568 1.3671599.9652568 2.2045s-.3499514 1.636576-.9652568 2.2045l-11.408 10.526c-.1849348.17061-.427388.2652346-.679.265-.4119729.0003845-.7820209-.2519194-.9321603-.6355597-.1501394-.3836404-.0496401-.8200951.2531603-1.0994403l11.408-10.53c.2052112-.1893156.3219329-.4558011.3219329-.735s-.1167217-.5456844-.3219329-.735zm-27.488 7.084 12-14c.36484-.3948857.9766102-.4306334 1.384959-.0809275.4083488.3497058.4671163.9596952.133041 1.3809275l-12 14c-.36484.3948857-.9766102.4306334-1.384959.0809275-.4083488-.3497058-.4671163-.9596952-.133041-1.3809275zm-5.92-17.238 2-1.846c.4059293-.3750013 1.0389987-.3499293 1.414.056s.3499293 1.0389987-.056 1.414l-2 1.846c-.1849348.17061-.427388.2652346-.679.265-.4119729.0003845-.7820209-.2519194-.9321603-.6355597-.1501394-.3836404-.0496401-.8200951.2531603-1.0994403zm-3.421 3.154c.4059293-.3750013 1.0389987-.3499293 1.414.056s.3499293 1.0389987-.056 1.414l-5.991 5.53c-.20521118.1893156-.32193289.4558011-.32193289.735s.11672171.5456844.32193289.735l11.408 10.53c.4059293.3750013.4310013 1.0080707.056 1.414s-1.0080707.4310013-1.414.056l-11.404-10.53c-.61530544-.567924-.96525683-1.3671599-.96525683-2.2045s.34995139-1.636576.96525683-2.2045z"/></g></g></svg>