<svg height="512" viewBox="0 0 56 56" width="512" xmlns="http://www.w3.org/2000/svg"><g id="Page-1" fill="none" fill-rule="evenodd"><g id="011---Wallet" fill="rgb(0,0,0)" fill-rule="nonzero"><path id="Shape" d="m53 27h-16c-1.6568542 0-3 1.3431458-3 3v6c0 1.6568542 1.3431458 3 3 3h16c1.6568542 0 3-1.3431458 3-3v-6c0-1.6568542-1.3431458-3-3-3zm-13 10c-2.209139 0-4-1.790861-4-4s1.790861-4 4-4 4 1.790861 4 4-1.790861 4-4 4z"/><path id="Shape" d="m32 36v-6c.0033061-2.7600532 2.2399468-4.9966939 5-5h13v-10c-.0033061-2.7600532-2.2399468-4.9966939-5-5h-40c-2.76005315.0033061-4.99669388 2.2399468-5 5v36c.00330612 2.7600532 2.23994685 4.9966939 5 5h40c2.7600532-.0033061 4.9966939-2.2399468 5-5v-6h-2c-.5522847 0-1-.4477153-1-1s.4477153-1 1-1h2v-2h-13c-2.7600532-.0033061-4.9966939-2.2399468-5-5zm10-24h3c1.6568542 0 3 1.3431458 3 3v7c0 .5522847-.4477153 1-1 1s-1-.4477153-1-1v-7c0-.5522847-.4477153-1-1-1h-3c-.5522847 0-1-.4477153-1-1s.4477153-1 1-1zm-5 0h1c.5522847 0 1 .4477153 1 1s-.4477153 1-1 1h-1c-.5522847 0-1-.4477153-1-1s.4477153-1 1-1zm-29 42h-3c-1.65685425 0-3-1.3431458-3-3v-12c0-.5522847.44771525-1 1-1s1 .4477153 1 1v12c0 .5522847.44771525 1 1 1h3c.55228475 0 1 .4477153 1 1s-.44771525 1-1 1zm5 0h-1c-.5522847 0-1-.4477153-1-1s.4477153-1 1-1h1c.5522847 0 1 .4477153 1 1s-.4477153 1-1 1zm26-11h5c.5522847 0 1 .4477153 1 1s-.4477153 1-1 1h-5c-.5522847 0-1-.4477153-1-1s.4477153-1 1-1z"/><path id="Shape" d="m37.111 1.166c-.12811-.27092816-.3717266-.46950645-.6629199-.54036348-.2911933-.07085704-.598812-.00641267-.8370801.17536348-2.622 2.015-7.831 5.08-14.4 3.842-7.392-1.392-10.47 1.557-11.628 3.357h30.824z"/><circle id="Oval" cx="40" cy="33" r="2"/></g></g></svg>