<svg height="512" viewBox="0 0 58 58" width="512" xmlns="http://www.w3.org/2000/svg"><g id="Page-1" fill="none" fill-rule="evenodd"><g id="012---media-grid" fill="rgb(0,0,0)" fill-rule="nonzero"><path id="Shape" d="m20 0h-14c-3.3137085 0-6 2.6862915-6 6v14c0 3.3137085 2.6862915 6 6 6h14c3.3137085 0 6-2.6862915 6-6v-14c0-3.3137085-2.6862915-6-6-6zm-10 5h-4c-.55228475 0-1 .44771525-1 1v2c0 .55228475-.44771525 1-1 1s-1-.44771525-1-1v-2c0-1.65685425 1.34314575-3 3-3h4c.5522847 0 1 .44771525 1 1s-.4477153 1-1 1zm6 0h-2c-.5522847 0-1-.44771525-1-1s.4477153-1 1-1h2c.5522847 0 1 .44771525 1 1s-.4477153 1-1 1zm5 18h-2c-.5522847 0-1-.4477153-1-1s.4477153-1 1-1h2c.5522847 0 1 .4477153 1 1s-.4477153 1-1 1z"/><path id="Shape" d="m52 0h-14c-3.3137085 0-6 2.6862915-6 6v14c0 3.3137085 2.6862915 6 6 6h14c3.3137085 0 6-2.6862915 6-6v-14c0-3.3137085-2.6862915-6-6-6zm-10 5h-4c-.5522847 0-1 .44771525-1 1v2c0 .55228475-.4477153 1-1 1s-1-.44771525-1-1v-2c0-1.65685425 1.3431458-3 3-3h4c.5522847 0 1 .44771525 1 1s-.4477153 1-1 1zm6 0h-2c-.5522847 0-1-.44771525-1-1s.4477153-1 1-1h2c.5522847 0 1 .44771525 1 1s-.4477153 1-1 1zm5 18h-2c-.5522847 0-1-.4477153-1-1s.4477153-1 1-1h2c.5522847 0 1 .4477153 1 1s-.4477153 1-1 1z"/><path id="Shape" d="m20 32h-14c-3.3137085 0-6 2.6862915-6 6v14c0 3.3137085 2.6862915 6 6 6h14c3.3137085 0 6-2.6862915 6-6v-14c0-3.3137085-2.6862915-6-6-6zm-10 5h-4c-.55228475 0-1 .4477153-1 1v2c0 .5522847-.44771525 1-1 1s-1-.4477153-1-1v-2c0-1.6568542 1.34314575-3 3-3h4c.5522847 0 1 .4477153 1 1s-.4477153 1-1 1zm6 0h-2c-.5522847 0-1-.4477153-1-1s.4477153-1 1-1h2c.5522847 0 1 .4477153 1 1s-.4477153 1-1 1zm5 18h-2c-.5522847 0-1-.4477153-1-1s.4477153-1 1-1h2c.5522847 0 1 .4477153 1 1s-.4477153 1-1 1z"/><path id="Shape" d="m52 32h-14c-3.3137085 0-6 2.6862915-6 6v14c0 3.3137085 2.6862915 6 6 6h14c3.3137085 0 6-2.6862915 6-6v-14c0-3.3137085-2.6862915-6-6-6zm-10 5h-4c-.5522847 0-1 .4477153-1 1v2c0 .5522847-.4477153 1-1 1s-1-.4477153-1-1v-2c0-1.6568542 1.3431458-3 3-3h4c.5522847 0 1 .4477153 1 1s-.4477153 1-1 1zm6 0h-2c-.5522847 0-1-.4477153-1-1s.4477153-1 1-1h2c.5522847 0 1 .4477153 1 1s-.4477153 1-1 1zm5 18h-2c-.5522847 0-1-.4477153-1-1s.4477153-1 1-1h2c.5522847 0 1 .4477153 1 1s-.4477153 1-1 1z"/></g></g></svg>