<svg height="512" viewBox="0 0 58 54" width="512" xmlns="http://www.w3.org/2000/svg"><g id="Page-1" fill="none" fill-rule="evenodd"><g id="013---Switches" fill="rgb(0,0,0)" fill-rule="nonzero"><path id="Shape" d="m12 5c-3.86599325 0-7 3.13400675-7 7 0 3.8659932 3.13400675 7 7 7 3.8659932 0 7-3.1340068 7-7-.0044086-3.86416566-3.1358343-6.99559136-7-7zm-2.4 5.2c-.33137086.4418278-.95817219.5313708-1.39999998.2-.4418278-.3313709-.53137085-.9581722-.20000002-1.4.94755881-1.25508444 2.4273972-1.99500362 4-2 .5522847 0 1 .44771525 1 1s-.4477153 1-1 1c-.9450934-.0034942-1.8357393.44182879-2.4 1.2zm6.558 4.572c-.9265424 1.3909012-2.4867472 2.2269129-4.158 2.228-.5522847 0-1-.4477153-1-1s.4477153-1 1-1c1.0046319.001043 1.9430993-.5008493 2.5-1.337.195718-.3038342.54015-.4784196.9009088-.4566519.3607589.0217677.6816999.2365008.839465.5616637.1577652.3251629.1278016.7101508-.0783738 1.0069882z"/><path id="Shape" d="m46 0h-34c-6.627417 0-12 5.372583-12 12s5.372583 12 12 12h34c6.627417 0 12-5.372583 12-12s-5.372583-12-12-12zm-1 11h4c.5522847 0 1 .4477153 1 1s-.4477153 1-1 1h-4c-.5522847 0-1-.4477153-1-1s.4477153-1 1-1zm-33 10c-4.84103663.0017599-8.81619296-3.8262136-8.99699294-8.6638731-.18079997-4.83765959 3.4975371-8.95167041 8.32520034-9.31126307 4.8276631-.35959266 9.0748993 3.164075 9.6127926 7.97513617h19.059c.5522847 0 1 .4477153 1 1s-.4477153 1-1 1h-19.059c-.5139027 4.5515157-4.3605692 7.9933379-8.941 8zm39.947-2.25c-1.6418229 1.4497938-3.7566839 2.2499346-5.947 2.25h-7c-.5522847 0-1-.4477153-1-1s.4477153-1 1-1h7c1.7031041-.00028 3.3474642-.6226049 4.624-1.75.2679492-.2363312.6416256-.311761.9802691-.1978758.3386434.1138852.5908057.3997836.6615.75.0706942.3502164-.0508199.7115446-.3187691.9478758zm1.8-3.75c-.0846924.0001354-.1690507-.0106194-.251-.032-.5345261-.1381848-.8559304-.6834082-.718-1.218.147499-.571638.2220912-1.1596391.222-1.75 0-.5522847.4477153-1 1-1s1 .4477153 1 1c.000193.7590132-.0955661 1.5150062-.285 2.25-.1138833.4410697-.5114656.7494324-.967.75z"/><path id="Shape" d="m46 35c-3.8659932 0-7 3.1340068-7 7s3.1340068 7 7 7 7-3.1340068 7-7c-.0044086-3.8641657-3.1358343-6.9955914-7-7zm0 12c-1.6706841-.0004183-3.2307703-.8352408-4.158-2.225-.2676333-.4561978-.1337442-1.0419093.3055172-1.3365166.4392615-.2946072 1.03197-.1962156 1.3524828.2245166.5569007.8361507 1.4953681 1.338043 2.5 1.337.5522847 0 1 .4477153 1 1s-.4477153 1-1 1zm3.8-6.6c-.4418278.3313708-1.0686292.2418278-1.4-.2-.5642607-.7581712-1.4549066-1.2034942-2.4-1.2-.5522847 0-1-.4477153-1-1s.4477153-1 1-1c1.5726028.0049964 3.0524412.7449156 4 2 .3313708.4418278.2418278 1.0686292-.2 1.4z"/><path id="Shape" d="m46 30h-34c-6.627417 0-12 5.372583-12 12s5.372583 12 12 12h34c6.627417 0 12-5.372583 12-12s-5.372583-12-12-12zm-37 11h4c.5522847 0 1 .4477153 1 1s-.4477153 1-1 1h-4c-.55228475 0-1-.4477153-1-1s.44771525-1 1-1zm-4.5 3.968c-.08097776.021127-.16431169.0318798-.248.032-.45553435-.0005676-.85311668-.3089303-.967-.75-.18943388-.7349938-.285193-1.4909868-.285-2.25.00000001-.5522847.44771526-1 1-1s.99999999.4477153 1 1c-.00041784.5903184.07383821 1.1783188.221 1.75.06613965.2571382.02730485.5300234-.10794378.7585017-.13524862.2284782-.35580711.3937914-.61305622.4594983zm14.5 6.032h-7c-2.19031608-.0000654-4.3051771-.8002062-5.947-2.25-.26794921-.2363312-.38946331-.5976594-.31876909-.9478758.07069421-.3502164.32285659-.6361148.66150002-.75.33864342-.1138853.71231988-.0384554.98026907.1978758 1.27653585 1.1273951 2.9208959 1.74972 4.624 1.75h7c.5522847 0 1 .4477153 1 1s-.4477153 1-1 1zm27 0c-4.5804308-.0066621-8.4270973-3.4484843-8.941-8h-19.059c-.5522847 0-1-.4477153-1-1s.4477153-1 1-1h19.059c.5378933-4.8110612 4.7851295-8.3347288 9.6127926-7.9751362 4.8276632.3595927 8.5060003 4.4736035 8.3252003 9.3112631-.1807999 4.8376595-4.1559563 8.665633-8.9969929 8.6638731z"/></g></g></svg>