<svg height="512" viewBox="0 0 46 56" width="512" xmlns="http://www.w3.org/2000/svg"><g id="Page-1" fill="none" fill-rule="evenodd"><g id="014---Bookmark" fill="rgb(0,0,0)" fill-rule="nonzero"><path id="Shape" d="m0 3v50c0 1.6568542 1.34314575 3 3 3h2v-56h-2c-1.65685425 0-3 1.34314575-3 3z"/><path id="Shape" d="m43 0h-1v19c0 .7575441-.4280048 1.4500704-1.1055728 1.7888544-.6775681.338784-1.4883919.2656721-2.0944272-.1888544l-5.8-4.35-5.8 4.35c-.6060353.4545265-1.4168591.5276384-2.0944272.1888544-.677568-.338784-1.1055728-1.0313103-1.1055728-1.7888544v-19h-17v56h2v-45c0-.5522847.44771525-1 1-1 .5522847 0 1 .4477153 1 1v45h32c1.6568542 0 3-1.3431458 3-3v-50c0-1.65685425-1.3431458-3-3-3zm-32 7c0 .55228475-.4477153 1-1 1-.55228475 0-1-.44771525-1-1v-3c0-.55228475.44771525-1 1-1 .5522847 0 1 .44771525 1 1zm21 47h-5c-.5522847 0-1-.4477153-1-1s.4477153-1 1-1h5c.5522847 0 1 .4477153 1 1s-.4477153 1-1 1zm12-3c0 1.6568542-1.3431458 3-3 3h-5c-.5522847 0-1-.4477153-1-1s.4477153-1 1-1h5c.5522847 0 1-.4477153 1-1v-4c0-.5522847.4477153-1 1-1s1 .4477153 1 1z"/><path id="Shape" d="m34.2 14.651 5.8 4.349v-19h-14v19l5.8-4.35c.7121046-.5307149 1.6883379-.5303081 2.4.001z"/></g></g></svg>