<svg height="512" viewBox="0 0 48 58" width="512" xmlns="http://www.w3.org/2000/svg"><g id="Page-1" fill="none" fill-rule="evenodd"><g id="015---Contacts" fill="rgb(0,0,0)" fill-rule="nonzero"><path id="Shape" d="m16 47c0-.5522847.4477153-1 1-1s1 .4477153 1 1v2h16v-2c0-.5522847.4477153-1 1-1s1 .4477153 1 1v2h3c.5522847 0 1-.4477153 1-1v-1c-.0033074-3.3123376-2.6876624-5.9966926-6-6h-2.083c-.4856527 2.8893814-2.9870881 5.0054594-5.917 5.0054594s-5.4313473-2.116078-5.917-5.0054594h-2.083c-3.3123376.0033074-5.9966926 2.6876624-6 6v1c0 .5522847.4477153 1 1 1h3z"/><path id="Shape" d="m26 44c2.0436409-.0065055 3.7521602-1.5557414 3.958-3.589-1.578178-1.4057659-2.3118474-3.5310209-1.937-5.611-1.3336058.2719968-2.7083942.2719968-4.042 0 .3763215 2.0812814-.3574765 4.2084242-1.937 5.615.207748 2.0316748 1.915741 3.5787073 3.958 3.585z"/><path id="Shape" d="m34.491 26.626c.1612521-.4871424.665051-.7731758 1.166-.662.1127664.0239199.2277245.0359855.343.036 1.1045695 0 2-.8954305 2-2s-.8954305-2-2-2c-.3278116.0000821-.6348477-.1605081-.8217628-.4298094-.1869151-.2693014-.2299713-.6131131-.1152372-.9201906.027-.072 2.644-7.259-1.578-9.793-1.842-1.1-5.3-.957-8.643-.812-4.074.177-8.256.357-10.879-1.454.106 2.312.632 5.661 2.648 7.468.0327173.0242126.0634788.0509618.092.08.4731663.4061107 1.0210875.7159087 1.613.912.5246705.174522.808522.7413295.634 1.266s-.7413295.808522-1.266.634c-.2326081-.0778577-.4609281-.167984-.684-.27v2.319c0 .5522847-.4477153 1-1 1-1.1045695 0-2 .8954305-2 2s.8954305 2 2 2c.1152755-.0000145.2302336-.0120801.343-.036.0715904-.0158271.1446811-.0238738.218-.024.4307705.0006131.8127384.277016.948.686 1.0984742 3.7759651 4.5584998 6.3728648 8.491 6.3728648s7.3925258-2.5968997 8.491-6.3728648z"/><path id="Shape" d="m44 0h-40c-2.209139 0-4 1.790861-4 4v50c0 2.209139 1.790861 4 4 4h1v-46c0-.5522847.44771525-1 1-1s1 .4477153 1 1v46h37c2.209139 0 4-1.790861 4-4v-50c0-2.209139-1.790861-4-4-4zm-37 8c0 .55228475-.44771525 1-1 1s-1-.44771525-1-1v-3c0-.55228475.44771525-1 1-1s1 .44771525 1 1zm26 47h-5c-.5522847 0-1-.4477153-1-1s.4477153-1 1-1h5c.5522847 0 1 .4477153 1 1s-.4477153 1-1 1zm-20-4c-1.6568542 0-3-1.3431458-3-3v-1c.0049599-4.4162219 3.5837781-7.9950401 8-8h2.619c1.383147-1.2162736 1.8554511-3.1690767 1.181-4.883-2.6958572-1.1868491-4.8193134-3.3828223-5.915-6.117-1.9953227-.0527021-3.6464178-1.5683084-3.869357-3.5518376-.2229392-1.9835293 1.0505171-3.8278412 2.984357-4.3221624v-2.826c-3.711-3.683-3.032-11.03-3-11.4.0441943-.44330412.3763101-.80391056.8144878-.88435906s.8767288.13866514 1.0755122.53735906c1.449 2.9 6.232 2.692 10.86 2.494 3.807-.164 7.4-.319 9.76 1.1 4.486 2.691 3.459 8.581 2.778 11.071 1.8276698.6264161 2.9463857 2.4696568 2.6584177 4.3801144-.2879679 1.9104577-1.900306 3.3420399-3.8314177 3.4018856-1.0956866 2.7341777-3.2191428 4.9301509-5.915 6.117-.6744511 1.7139233-.202147 3.6667264 1.181 4.883h2.619c4.4162219.0049599 7.9950401 3.5837781 8 8v1c0 1.6568542-1.3431458 3-3 3zm30 4h-6c-.5522847 0-1-.4477153-1-1s.4477153-1 1-1h6c.5522847 0 1 .4477153 1 1s-.4477153 1-1 1z"/></g></g></svg>