<svg height="512" viewBox="0 0 58 58" width="512" xmlns="http://www.w3.org/2000/svg"><g id="Page-1" fill="none" fill-rule="evenodd"><g id="016---Settings" fill="rgb(0,0,0)" fill-rule="nonzero"><path id="Shape" d="m56.321 33.544c-2.2200337-2.6225978-2.2200337-6.4654022 0-9.088v-.006c1.6981317-2.0101053 2.1325054-4.7998495 1.1259081-7.2310913-1.0065972-2.4312418-3.2858593-4.0974703-5.9079081-4.3189087h-.007c-3.4243004-.2855345-6.1414655-3.00269964-6.427-6.427v-.012c-.2187651-2.62469313-1.8853003-4.90734019-4.3186266-5.91520689s-5.2258045-.57211173-7.2363734 1.12920689h-.006c-2.6225978 2.22003366-6.4654022 2.22003366-9.088 0h-.006c-2.0106628-1.69840116-4.8012-2.13239227-7.2326982-1.12484677-2.4314983 1.0075455-4.0972101 3.28808273-4.3173018 5.91084677v.007c-.2835687 3.42797875-3.00402125 6.1484313-6.432 6.432h-.007c-2.62276404.2200917-4.90330127 1.8858035-5.91084677 4.3173018-1.0075455 2.4314982-.57355439 5.2220354 1.12484677 7.2326982v.006c2.22003366 2.6225978 2.22003366 6.4654022 0 9.088v.006c-1.70131862 2.0105689-2.13707359 4.8030471-1.12920689 7.2363734s3.29051376 4.0998615 5.91520689 4.3186266h.007c3.42643527.28282 6.1465155 3.0007857 6.432 6.427v.007c.2200917 2.622764 1.8858035 4.9033013 4.3173018 5.9108468 2.4314982 1.0075455 5.2220354.5735544 7.2326982-1.1248468h.006c2.6225978-2.2200337 6.4654022-2.2200337 9.088 0h.006c2.0105689 1.7013186 4.8030471 2.1370736 7.2363734 1.1292069s4.0998615-3.2905138 4.3186266-5.9152069v-.007c.2851352-3.4244855 3.0025145-6.1418648 6.427-6.427h.007c2.6246931-.2187651 4.9073402-1.8853003 5.9152069-4.3186266s.5721117-5.2258045-1.1292069-7.2363734zm-38.845-23.288c1.0034345-.61609564 2.0544376-1.15112743 3.143-1.6.3312711-.14110911.7128261-.09322696.998958.12536139.2861319.21858836.4326547.5741273.3836148.93084487-.0490399.35671754-.2860695.65952744-.6205728.79279374-.9897046.4086125-1.9450925.8958369-2.857 1.457-.157007.0975126-.338176.1491267-.523.149-.4477886.0006537-.8414245-.2964545-.9635503-.7272681-.1221259-.4308136.0570335-.8902964.4385503-1.1247319zm22 38.094c-9.0340348 4.8969535-20.2546747 2.8877415-27.0281244-4.8397624-6.77344977-7.727504-7.29523766-19.1146647-1.2568756-27.4292376.2069853-.2967503.5581192-.4585524.9181839-.4230982.3600648.0354543.672897.2626347.8180285.5940566s.0999245.7153897-.1182124 1.0040416c-5.49031539 7.5587321-5.01633315 17.9114314 1.1416955 24.9368622 6.1580286 7.0254308 16.3593794 8.8517612 24.5723045 4.3991378.4854583-.2634398 1.0925601-.0834582 1.356.402.2634398.4854583.0834583 1.0925602-.402 1.356zm-10.476-13.35c3.3137085 0 6-2.6862915 6-6s-2.6862915-6-6-6c-.889232-.0020337-1.7675482.1958437-2.57.579-.4987131.2374824-1.0955175.0257131-1.333-.473-.2374824-.4987131-.0257131-1.0955175.473-1.333 1.0709412-.5115021 2.2431798-.775683 3.43-.773 3.5610467.0002736 6.6932 2.3543024 7.6836939 5.7748251.990494 3.4205228-.3991615 7.0839492-3.4090565 8.9869957s-6.9153099 1.5874994-9.5806337-.7740897c-2.6653239-2.3615891-3.4488025-6.2005989-1.9220037-9.4177311.2374824-.4989893.8345107-.7109824 1.3335-.4735s.7109824.8345107.4735 1.3335c-.3835139.8023279-.5814099 1.6807266-.579 2.57.0033074 3.3123376 2.6876624 5.9966926 6 6zm11.182-1.636c-.1300447.3329715-.4278491.5712719-.7812332.6251357-.3533842.0538637-.7086606-.0848923-.932-.364-.2233395-.2791078-.2808115-.6561642-.1507668-.9891357 1.7372901-4.4563749.0735356-9.5189469-3.9686261-12.0759732s-9.3293999-1.8915747-12.6118794 1.5873307-3.6398675 8.7958582-.852493 12.682759c2.7873744 3.8869008 7.9379946 5.2539507 12.2859985 3.2608835.3247544-.149337.7045102-.1140757.9962171.0925014s.4510476.5530859.418.909-.2534627.6671616-.5782171.8164986c-5.2150339 2.3899784-11.392358.7500757-14.7353246-3.9118069-3.3429667-4.6618825-2.9143766-11.0387881 1.0223544-15.2114041 3.9367309-4.172616 10.2779418-4.9711514 15.1262584-1.9048179s6.8445154 9.1378905 4.7617118 14.4830289zm8.168 6.113c-.2634398.4854583-.8705417.6654398-1.356.402-.4854582-.2634399-.6654398-.8705417-.402-1.356 3.6721123-6.8042412 3.0969096-15.1149659-1.4775705-21.3484432s-12.3300726-9.27482358-19.9224295-7.8125568c-.3565121.08292459-.7298432-.03555616-.9732942-.30888564-.2434509-.27332947-.3181165-.65782771-.1946571-1.00240736.1234594-.34457964.4253141-.59417448.7869513-.650707 8.3532499-1.61548596 16.8894553 1.72827694 21.9230013 8.5875767 5.0335461 6.8592997 5.6627709 16.0054262 1.6159987 23.4894233z"/></g></g></svg>