<svg height="512" viewBox="0 0 59 58" width="512" xmlns="http://www.w3.org/2000/svg"><g id="Page-1" fill="none" fill-rule="evenodd"><g id="017---Share" fill="rgb(0,0,0)" fill-rule="nonzero"><path id="Shape" d="m23.439 20.992 4.95-3.43c.4539781-.3145262.5670262-.9375219.2525-1.3915s-.9375219-.5670262-1.3915-.2525l-4.95 3.43c-.013.009-.019.023-.031.032-4.1245185-5.0753655-11.5190548-5.9920412-16.75802955-2.0774363-5.2389748 3.9146049-6.45574852 11.265722-2.75754008 16.6596299 3.69820844 5.393908 10.99373233 6.9087647 16.53364073 3.4330772s7.3503394-10.7035364 4.1029289-16.3802708c.017-.009.034-.015.049-.023zm-18.439 7.008c-.55228475 0-1-.4477153-1-1s.44771525-1 1-1 1 .4477153 1 1-.44771525 1-1 1zm8-8c-2.5104782.0068691-4.82676517 1.3519698-6.077 3.529-.27614237.479107-.88839298.6436424-1.3675.3675s-.64364237-.888393-.3675-1.3675c1.60848123-2.7962906 4.58610302-4.5225641 7.812-4.529.5522847 0 1 .4477153 1 1s-.4477153 1-1 1z"/><path id="Shape" d="m39 18c4.9705627 0 9-4.0294373 9-9 0-4.97056275-4.0294373-9-9-9s-9 4.02943725-9 9c0 4.9705627 4.0294373 9 9 9zm-3.6-13.8c1.0368289-.78226335 2.3011789-1.20371333 3.6-1.2.5522847 0 1 .44771525 1 1s-.4477153 1-1 1c-.8660347-.0034346-1.709233.27763149-2.4.8-.4418278.33137085-1.0686292.2418278-1.4-.2s-.2418278-1.06862915.2-1.4zm-1.4 3.8c.5522847 0 1 .44771525 1 1s-.4477153 1-1 1-1-.44771525-1-1 .4477153-1 1-1z"/><path id="Shape" d="m45 30c-5.01154.0011055-9.6393849 2.6837372-12.131 7.032l-5.327-2.995c-.3119551-.1835732-.6987586-.1842418-1.0113464-.001748-.3125878.1824937-.5021586.5196589-.4956566.8815606s.2080617.6920398.527003.8631874l5.337 3c.033.018.068.026.1.041-2.2723977 5.711058-.5524662 12.2363715 4.2397503 16.0853501 4.7922164 3.8489785 11.5349227 4.1206266 16.6212383.6696314 5.0863155-3.4509953 7.3256005-9.8168011 5.5199925-15.6921526-1.8056079-5.8753514-7.2334395-9.8849056-13.3799811-9.8838289zm-10 15c-.5522847 0-1-.4477153-1-1s.4477153-1 1-1 1 .4477153 1 1-.4477153 1-1 1zm10-10c-3.2676628.0053999-6.2769957 1.7772608-7.867 4.632-.1712539.3175196-.5002545.5181843-.8609463.5251103-.3606919.006926-.6971534-.1809606-.8804706-.4916717s-.1850686-.6960741-.0045831-1.0084386c1.9433075-3.4875121 5.6206129-5.6515105 9.613-5.657.5522847 0 1 .4477153 1 1s-.4477153 1-1 1z"/></g></g></svg>