<svg height="56" viewBox="0 0 56 56" width="56" xmlns="http://www.w3.org/2000/svg"><g id="Page-1" fill="none" fill-rule="evenodd"><g id="018---Cloud-Upload" fill="rgb(0,0,0)" fill-rule="nonzero"><path id="Shape" d="m55.1 43.066c-.5651848-1.1581672-1.3727658-2.181285-2.368-3-.3443856-.3226913-.4398895-.8313708-.236-1.257.8700198-1.5540262 1.3763789-3.2850838 1.481-5.063.1390054-3.2426543-1.0163156-6.4076341-3.2116257-8.798187s-5.2506393-3.8107033-8.4933743-3.947813c-1.7497394-.0433286-3.4876537.2980414-5.091 1-.4017033.1517448-.8551635.0503646-1.154-.258-2.1931954-2.5202579-5.7215974-3.4122271-8.849-2.237-3.1673983 1.251897-5.2292726 4.3335589-5.178 7.739v4.756c0 .5522847-.4477153 1-1 1s-1-.4477153-1-1v-18c0-.5522847.4477153-1 1-1h2.584c.4043959-.0000863.7689341-.2437275.923678-.6173454.1547439-.373618.0692299-.8036603-.216678-1.0896546l-10.561-10.562c-.3903851-.38971594-1.0226149-.38971594-1.413 0l-10.617 10.569c-.28786951.2863164-.37404911.7182687-.21809306 1.0931335s.52308769.6182248.92909306.6158665l2.589-.009c.55228475 0 1 .4477153 1 1v10.461c3.29389172-1.0357563 6.8890784-.298951 9.51 1.949.2715219.2322226.3985291.5916604.3331793.9429165-.0653497.3512562-.3131283.6409665-.65.76-.3368716.1190335-.7116575.0493062-.9831793-.1829165-3.1588935-2.6889866-7.849176-2.5172037-10.80290022.3956592-2.95372421 2.9128629-3.19082371 7.6002975-.54609978 10.7963408.34368394.4040464.3120869 1.0061457-.072 1.372-1.80317274 1.7177453-2.81300664 4.106514-2.78874452 6.5967935s1.08044618 4.8589196 2.91674452 6.5412065c1.75647958 1.5601018 4.03400727 2.4050314 6.383 2.368h37.7c3.1001073-.0031085 5.9808415-1.5999364 7.626269-4.2273388 1.6454274-2.6274023 1.8243738-5.9162421.473731-8.7066612zm-33.1.934c0 .5522847-.4477153 1-1 1s-1-.4477153-1-1v-1c0-.5522847.4477153-1 1-1s1 .4477153 1 1zm0-5c0 .5522847-.4477153 1-1 1s-1-.4477153-1-1v-3c0-.5522847.4477153-1 1-1s1 .4477153 1 1z"/></g></g></svg>