<svg height="512" viewBox="0 0 56 56" width="512" xmlns="http://www.w3.org/2000/svg"><g id="Page-1" fill="none" fill-rule="evenodd"><g id="019---Cloud-Download" fill="rgb(0,0,0)" fill-rule="nonzero" transform="translate(-1)"><path id="Shape" d="m48 37h-25v-10c0-.5522847-.4477153-1-1-1s-1 .4477153-1 1v15c0 .5522847.4477153 1 1 1l2.585-.014c.4089573-.0061222.7804209.2374141.9378861.6148903.1574653.3774761.069188.8127947-.2228861 1.0991097l-10.616 10.569c-.3903851.3897159-1.0226149.3897159-1.413 0l-10.563-10.562c-.28590792-.2859943-.37142191-.7160366-.21667798-1.0896546.15474393-.3736179.51928208-.6172591.92367798-.6173454h2.585c.55228475 0 1-.4477153 1-1v-3.421c.97590382.2775194 1.98540551.4191861 3 .421h2c.5522847 0 1-.4477153 1-1s-.4477153-1-1-1h-2c-1.23927936-.0001947-2.465065-.2572692-3.6-.755l-.015-.008c-1.02391314-.4484551-1.95517744-1.0839938-2.746-1.874-2.77756364-2.8074121-3.44703523-7.0772068-1.662-10.6.47537685-.8632243 1.0957639-1.6382007 1.834-2.291.36462034-.3671681.38890997-.9518544.056-1.348-2.30697044-2.7575013-2.49105247-6.715265-.45-9.675 1.17598004-1.71926142 2.9827963-2.90511935 5.028-3.3 1.47672905-.28797706 3.0045577-.15739637 4.411.377.0553478.01434788.1119369.02338874.169.027-.3629494.92683643-.6309869 1.88808584-.8 2.869-.0449258.2615168.0159286.5301672.1691636.7467968.153235.2166297.3862856.3634754.6478364.4082032.0558793.0090889.1123868.01377.169.014.4867833-.00087.9022211-.3521345.984-.832.8777048-5.05650502 4.6537909-9.12027493 9.6323686-10.36621744s10.2236677.56018125 13.3796314 4.60721744c-.3848179.26777537-.5281712.76930274-.343 1.2.1065476.24299806.3052995.43369068.5524974.53009414.247198.09640345.5225749.09061385.7655026-.01609414.3-.131.6-.244.895-.351 3.2105854-1.10848167 6.740395-.80579508 9.7153878.83310943s5.1169957 4.46078307 5.8956122 7.76689057c.3395995 1.4756634.4016556 3.0016342.183 4.5-.416472-.2542879-.9561671-.1668157-1.271.206-.3523417.4252642-.2932445 1.0556345.132 1.408.9952342.818715 1.8028152 1.8418328 2.368 3 1.3455069 2.7894418 1.1639053 6.0744573-.4808738 8.6985906-1.6447791 2.6241334-4.5221358 4.219478-7.6191262 4.2244094z"/><path id="Shape" d="m22 19c-.5522847 0-1 .4477153-1 1v3c0 .5522847.4477153 1 1 1s1-.4477153 1-1v-3c0-.5522847-.4477153-1-1-1z"/><path id="Shape" d="m22 14c-.5522847 0-1 .4477153-1 1v1c0 .5522847.4477153 1 1 1s1-.4477153 1-1v-1c0-.5522847-.4477153-1-1-1z"/></g></g></svg>