<svg height="512" viewBox="0 0 58 60" width="512" xmlns="http://www.w3.org/2000/svg"><g id="Page-1" fill="none" fill-rule="evenodd"><g id="020---Plaster" fill="rgb(0,0,0)" fill-rule="nonzero"><path id="Shape" d="m53.628 5.251c-2.7925401-2.81217672-6.5918424-4.39370237-10.555-4.39370237s-7.7624599 1.58152565-10.555 4.39370237l-24.627 24.749h.009l14.069 14.144c.2520509.2533013.3498208.6218289.2564809.966762s-.3636092.6138682-.709.7055-.71343-.0079607-.9654809-.261262l-14.07-14.139-2.109 2.12c-5.82917967 5.8696375-5.82917967 15.3433625 0 21.213 2.79254014 2.8121767 6.5918424 4.3937024 10.555 4.3937024s7.7624599-1.5815257 10.555-4.3937024l24.627-24.749h-.009l-14.069-14.144c-.3896369-.3915699-.3880699-1.0248631.0035-1.4145s1.0248631-.3880699 1.4145.0035l14.07 14.139 2.109-2.12c5.8291797-5.8696375 5.8291797-15.3433625 0-21.213zm-32.363 28.283c-.7444524.7530514-1.7600908 1.1756636-2.819 1.173-1.0592334.0028195-2.0752402-.4197961-2.82-1.173-1.55089-1.5656103-1.55089-4.0883897 0-5.654.2522295-.2533013.6204338-.3527985.9659139-.261012.3454802.0917865.6157494.3609122.709.706s-.0046844.7137107-.2569139.967012c-.7772723.7836122-.7772723 2.0473878 0 2.831.3707937.3722614.8745797.5815195 1.4.5815195s1.0292063-.2092581 1.4-.5815195c.7768449-.7841779.7768449-2.0478221 0-2.832-.2522295-.2533013-.3501645-.6219242-.2569139-.967012s.3635198-.6142135.709-.706c.3454801-.0917865.7136844.0077107.9659139.261012 1.5512951 1.5653526 1.5526333 4.0880023.003 5.655zm4.922 16.266c-.1875683.187777-.4420908.2932867-.7075.2932867s-.5199317-.1055097-.7075-.2932867l-1.407-1.414c-.3896369-.3915699-.3880698-1.0248631.0035-1.4145.3915699-.3896368 1.0248631-.3880699 1.4145.0035l1.407 1.414c.3875585.3909791.3862175 1.0216724-.003 1.411zm4.929-6.367c-.7464206.7503304-1.7611336 1.1721919-2.8195 1.1721919s-2.0730794-.4218615-2.8195-1.1721919c-1.55089-1.5656103-1.55089-4.0883897 0-5.654.389913-.3929506 1.0245494-.395413 1.4175-.0055s.395413 1.0245494.0055 1.4175c-.5747104.5677907-.7495706 1.4264693-.442668 2.1737906.3069025.7473213 1.0347829 1.2352711 1.842668 1.2352711s1.5357655-.4879498 1.842668-1.2352711c.3069026-.7473213.1320424-1.6059999-.442668-2.1737906-.3896368-.3915699-.3880698-1.0248631.0035-1.4145.3915699-.3896368 1.0248631-.3880698 1.4145.0035 1.5503363 1.5661588 1.5494439 4.0889384-.002 5.654zm1.407-21.213c-.7458929.75132-1.7608036 1.1738664-2.8195 1.1738664s-2.0736071-.4225464-2.8195-1.1738664c-1.55089-1.5656103-1.55089-4.0883897 0-5.654.3918367-.379565 1.0155809-.3750451 1.4018758.0101585.3862949.3852037.3925793 1.0089326.0141242 1.4018415-.5747104.5677907-.7495706 1.4264693-.442668 2.1737906.3069025.7473213 1.0347829 1.2352711 1.842668 1.2352711s1.5357655-.4879498 1.842668-1.2352711c.3069026-.7473213.1320424-1.6059999-.442668-2.1737906-.389913-.3915699-.3885699-1.025087.003-1.415s1.025087-.3885699 1.415.003c1.5522754 1.5642384 1.5545063 4.0870186.005 5.654zm2.108-9.189c-.3904999.3903819-1.0235001.3903819-1.414 0l-1.407-1.417c-.3904653-.3915699-.3895699-1.0255347.002-1.416.3915699-.39046532 1.0255347-.38956989 1.416.002l1.407 1.414c.1878614.1881798.2930415.4434304.2922908.7093307-.0007506.2659004-.10737.5205531-.2962908.7076693zm2.1 13.435c.2520509-.2533013.6200901-.3528939.9654809-.261262.3453909.0916318.6156601.3605668.7090001.7055.0933399.3449331-.0044301.7134607-.256481.966762-.7772723.7836122-.7772723 2.0473878 0 2.831.3703987.3730027.8743326.5827738 1.4.5827738s1.0296013-.2097711 1.4-.5827738c.7772723-.7836122.7772723-2.0473878 0-2.831-.2520509-.2533013-.3498209-.6218289-.256481-.966762.09334-.3449332.3636092-.6138682.7090001-.7055.3453908-.0916319.71343.0079607.9654809.261262 1.55089 1.5656103 1.55089 4.0883897 0 5.654-.7450155.7528241-1.7608557 1.1753704-2.82 1.173-1.0591438.0028499-2.0749701-.4202009-2.819-1.174-1.5482929-1.5674111-1.5451699-4.0894281.007-5.653zm1.495-19.341c-.8015073.44930024-1.5365624 1.00799596-2.184 1.66-.2520509.25330133-.6200901.35289386-.9654809.26126205-.3453909-.0916318-.6156601-.36056689-.7090001-.70550002-.0933399-.34493312.0044301-.71346073.256481-.96676203.7779151-.78276734 1.6606625-1.45383037 2.623-1.994.4818684-.27034336 1.0916566-.09886841 1.362.38300002.2703433.48186843.0988684 1.09165658-.383 1.36199998zm13.293 1.664c-.1875683.18777704-.4420908.29328666-.7075.29328666s-.5199317-.10550962-.7075-.29328666c-2.0926726-2.10661384-5.0204133-3.16267076-7.976-2.877-.5497995.05246705-1.0380329-.35070053-1.0905-.9005s.3507005-1.03803295.9005-1.0905c3.5515151-.34382997 7.069736.92521111 9.584 3.457.3875585.39097914.3862175 1.02167241-.003 1.411z"/></g></g></svg>