<svg height="512" viewBox="0 0 56 56" width="512" xmlns="http://www.w3.org/2000/svg"><g id="Page-1" fill="none" fill-rule="evenodd"><g id="021---Battery" fill="rgb(0,0,0)" fill-rule="nonzero"><path id="Shape" d="m55.7 7.422c.3952024-.39553257.3952024-1.03646743 0-1.432l-5.69-5.69c-.3955326-.39520238-1.0364674-.39520238-1.432 0l-2.14 2.139 7.126 7.126z"/><path id="Shape" d="m14.414 30.19 11.396 11.396.001.001 5.701-5.703-11.396-11.396z"/><path id="Rectangle-path" d="m8.968 34.941h8.065v16.117h-8.065z" transform="matrix(.707 -.707 .707 .707 -26.597 21.787)"/><path id="Rectangle-path" d="m28.894 15.016h8.065v16.117h-8.065z" transform="matrix(.707 -.707 .707 .707 -6.672 30.041)"/><path id="Shape" d="m52.857 11.683-8.54-8.54-2.153-2.153c-.5626237-.56271905-1.3257625-.87885933-2.1215-.87885933s-1.5588763.31614028-2.1215.87885933l-37.042 37.042c-.56271905.5626237-.87885933 1.3257625-.87885933 2.1215s.31614028 1.5588763.87885933 2.1215l12.846 12.846c.5626237.562719 1.3257625.8788593 2.1215.8788593s1.5588763-.3161403 2.1215-.8788593l37.042-37.042c.562719-.5626237.8788593-1.3257625.8788593-2.1215s-.3161403-1.5588763-.8788593-2.1215zm-29.895 35.578-5.7 5.7c-.375096.375248-.8839266.5860729-1.4145.5860729s-1.039404-.2108249-1.4145-.5860729l-11.396-11.393c-.37524801-.375096-.58607293-.8839266-.58607293-1.4145s.21082492-1.039404.58607293-1.4145l5.7-5.7c.791167-.755814 2.036833-.755814 2.828 0l11.4 11.4c.7807639.7809997.7807639 2.0470003 0 2.828zm9.964-9.961-5.7 5.7c-.7807702.7794319-2.0452298.7794319-2.826 0l-11.4-11.4c-.7807639-.7809997-.7807639-2.0470003 0-2.828l5.7-5.7c.7809997-.7807639 2.0470003-.7807639 2.828 0l11.4 11.4c.7802118.7815518.7793165 2.0475526-.002 2.828zm9.964-9.964-5.7 5.7c-.375096.375248-.8839266.5860729-1.4145.5860729s-1.039404-.2108249-1.4145-.5860729l-11.398-11.394c-.375248-.375096-.5860729-.8839266-.5860729-1.4145s.2108249-1.039404.5860729-1.4145l5.7-5.7c.7809997-.7807639 2.0470003-.7807639 2.828 0l11.4 11.4c.7758336.7804666.7753868 2.0410837-.001 2.821zm9.962-9.962-5.7 5.7c-.7809997.7807639-2.0470003.7807639-2.828 0l-11.4-11.4c-.7807639-.7809997-.7807639-2.0470003 0-2.828l5.7-5.7c.375096-.37524801.8839266-.58607293 1.4145-.58607293s1.039404.21082492 1.4145.58607293l11.395 11.4c.7805381.7796665.7823279 2.0441271.004 2.826z"/><path id="Shape" d="m34.34 10.264 11.396 11.396.001.001 5.701-5.703-11.396-11.396z"/></g></g></svg>