<svg height="512" viewBox="0 0 56 56" width="512" xmlns="http://www.w3.org/2000/svg"><g id="Page-1" fill="none" fill-rule="evenodd"><g id="022---Battery" fill="rgb(0,0,0)" fill-rule="nonzero" transform="translate(-1)"><path id="Shape" d="m15.408 30.196 11.396 11.396 5.702-5.703-11.395-11.395z"/><path id="Shape" d="m56.7 7.428c.3914565-.39551777.3914565-1.03248223 0-1.428l-5.695-5.7c-.3963293-.39421885-1.0366707-.39421885-1.433 0l-2.139 2.141 7.126 7.126z"/><path id="Rectangle-path" d="m9.963 34.948h8.065v16.117h-8.065z" transform="matrix(.707 -.707 .707 .707 -26.311 22.492)"/><path id="Rectangle-path" d="m29.889 15.021h8.064v16.116h-8.064z" transform="matrix(.707 -.707 .707 .707 -6.384 30.746)"/><path id="Shape" d="m43.158 1c-1.1714996-1.17114582-3.0705004-1.17114582-4.242 0l-37.042 37.038c-1.17114581 1.1714996-1.17114581 3.0705004 0 4.242l12.846 12.846c1.1714996 1.1711458 3.0705004 1.1711458 4.242 0l37.038-37.042c1.1711458-1.1714996 1.1711458-3.0705004 0-4.242zm-19.2 46.27-5.7 5.7c-.7809997.7807639-2.0470003.7807639-2.828 0l-11.4-11.4c-.78076388-.7809997-.78076388-2.0470003 0-2.828l5.7-5.7c.7822521-.778679 2.0467479-.778679 2.829 0l11.4 11.4c.7778255.780815.7773782 2.0437361-.001 2.824zm9.962-9.97-5.7 5.7c-.7809997.7807639-2.0470003.7807639-2.828 0l-11.4-11.4c-.7807639-.7809997-.7807639-2.0470003 0-2.828l5.7-5.7c.7809997-.7807639 2.0470003-.7807639 2.828 0l11.4 11.4c.7807639.7809997.7807639 2.0470003 0 2.828zm9.963-9.963-5.7 5.7c-.7809997.7807639-2.0470003.7807639-2.828 0l-11.4-11.4c-.7807639-.7809997-.7807639-2.0470003 0-2.828l5.7-5.7c.7809997-.7807639 2.0470003-.7807639 2.828 0l11.4 11.4c.3758603.3751769.587074.8844363.587074 1.4155s-.2112137 1.0403231-.587074 1.4155z"/></g></g></svg>