<svg height="512" viewBox="0 0 48 56" width="512" xmlns="http://www.w3.org/2000/svg"><g id="Page-1" fill="none" fill-rule="evenodd"><g id="026---Shield" fill="rgb(0,0,0)" fill-rule="nonzero"><path id="Shape" d="m25 55.841c13.346-2.893 20.637-13.419 22.564-16.608.2849362-.4697502.4357277-1.0085878.436-1.558v-8.675h-23z"/><path id="Shape" d="m47.425 11.416c-2.943-1.359-10.225-5.146-14.279-10.942-.1881379-.28617603-.5036973-.46297887-.846-.474h-7.3v3c0 .55228475-.4477153 1-1 1s-1-.44771525-1-1v-3h-7.3c-.3427839.01032114-.6591158.18676565-.848.473-4.052 5.797-11.334 9.584-14.278 10.943-.35319865.162977-.5778976.5180327-.574.907v14.677h2c.55228475 0 1 .4477153 1 1s-.44771525 1-1 1h-2v8.675c.00003233.5498962.15120494 1.0892053.437 1.559 1.926 3.188 9.217 13.714 22.563 16.607v-26.841h-11c-.5522847 0-1-.4477153-1-1s.4477153-1 1-1h11v-14c0-.5522847.4477153-1 1-1s1 .4477153 1 1v14h23v-14.677c.0037192-.3892001-.2214109-.7443184-.575-.907zm-42.26 29.389c-.21365062.1578625-.48133289.2242292-.7439834.1844564-.26265052-.0397727-.49868268-.1824162-.6560166-.3964564-.753-1.022-1.3-1.871-1.622-2.4-.19306724-.3053689-.20640995-.6911321-.03490295-1.0091109s.50119257-.5187241.86241849-.525126.69781775.1825351.88048446.4942369c.3.5.814 1.3 1.523 2.258.32533909.4431248.2319871 1.0657692-.209 1.394zm.835-11.805c-.55228475 0-1-.4477153-1-1s.44771525-1 1-1h2c.55228475 0 1 .4477153 1 1s-.44771525 1-1 1zm12.38 21.15c.504236.2256083.7301083.817264.5045 1.3215s-.817264.7301083-1.3215.5045c-3.8496927-1.7539914-7.3357707-4.2153109-10.277-7.256-.37712453-.3958211-.3664667-1.0211343.02392761-1.4038738.39039431-.3827396 1.01579596-.3810141 1.40407239.0038738 2.7653354 2.8624979 6.0443172 5.179428 9.666 6.83zm6.62-41.15c0 .55228475-.4477153 1-1 1s-1-.44771525-1-1v-2c0-.55228475.4477153-1 1-1s1 .44771525 1 1zm15.707 11.707c-.3904999.3903819-1.0235001.3903819-1.414 0l-10-10c-.3789722-.3923789-.3735524-1.01608478.0121814-1.40181858.3857338-.38573379 1.0094397-.39115363 1.4018186-.01218142l10 10c.3903819.3904999.3903819 1.0235001 0 1.414zm1-6c-.3904999.3903819-1.0235001.3903819-1.414 0l-5-5c-.3789722-.39237889-.3735524-1.01608478.0121814-1.40181858.3857338-.38573379 1.0094397-.39115363 1.4018186-.01218142l5 5c.3903819.3904999.3903819 1.0235001 0 1.414z"/></g></g></svg>