<svg height="512" viewBox="0 0 56 52" width="512" xmlns="http://www.w3.org/2000/svg"><g id="Page-1" fill="none" fill-rule="evenodd"><g id="027---Script" fill="rgb(0,0,0)" fill-rule="nonzero"><path id="Shape" d="m11 8h45v-5c0-1.65685425-1.3431458-3-3-3h-50c-1.65685425 0-3 1.34314575-3 3v5h5c.55228475 0 1 .44771525 1 1s-.44771525 1-1 1h-5v39c0 1.6568542 1.34314575 3 3 3h50c1.6568542 0 3-1.3431458 3-3v-39h-45c-.5522847 0-1-.44771525-1-1s.4477153-1 1-1zm30-5h11c.5522847 0 1 .44771525 1 1s-.4477153 1-1 1h-11c-.5522847 0-1-.44771525-1-1s.4477153-1 1-1zm-5 0h1c.5522847 0 1 .44771525 1 1s-.4477153 1-1 1h-1c-.5522847 0-1-.44771525-1-1s.4477153-1 1-1zm-24 0c.5522847 0 1 .44771525 1 1s-.4477153 1-1 1-1-.44771525-1-1 .4477153-1 1-1zm-8 2c-.55228475 0-1-.44771525-1-1s.44771525-1 1-1 1 .44771525 1 1-.44771525 1-1 1zm3-1c0-.55228475.44771525-1 1-1s1 .44771525 1 1-.44771525 1-1 1-1-.44771525-1-1zm45 44h1c.5522847 0 1 .4477153 1 1s-.4477153 1-1 1h-1c-.5522847 0-1-.4477153-1-1s.4477153-1 1-1zm-3 1c0 .5522847-.4477153 1-1 1h-3c-.5522847 0-1-.4477153-1-1s.4477153-1 1-1h3c.5522847 0 1 .4477153 1 1zm-7-23.467v-6.066c-.1624471-1.5014795-1.4954181-2.597626-3-2.467-.5522847 0-1-.4477153-1-1s.4477153-1 1-1c2.6101146-.1354308 4.8416003 1.8581786 5 4.467v6.066c.1624471 1.5014795 1.4954181 2.597626 3 2.467.5522847 0 1 .4477153 1 1s-.4477153 1-1 1c-1.5045819-.130626-2.8375529.9655205-3 2.467v6.066c-.1583997 2.6088214-2.3898854 4.6024308-5 4.467-.5522847 0-1-.4477153-1-1s.4477153-1 1-1c1.5045819.130626 2.8375529-.9655205 3-2.467v-6.066c.0283482-1.3933673.7316197-2.6861786 1.886-3.467-1.1543803-.7808214-1.8576518-2.0736327-1.886-3.467zm-7 8.467c.5522847 0 1 .4477153 1 1s-.4477153 1-1 1-1-.4477153-1-1 .4477153-1 1-1zm-7 0c.5522847 0 1 .4477153 1 1s-.4477153 1-1 1-1-.4477153-1-1 .4477153-1 1-1zm-7 0c.5522847 0 1 .4477153 1 1s-.4477153 1-1 1-1-.4477153-1-1 .4477153-1 1-1zm-9-8.467v-6.066c.1583997-2.6088214 2.3898854-4.6024308 5-4.467.5522847 0 1 .4477153 1 1s-.4477153 1-1 1c-1.5045819-.130626-2.8375529.9655205-3 2.467v6.066c-.0283482 1.3933673-.7316197 2.6861786-1.886 3.467 1.1543803.7808214 1.8576518 2.0736327 1.886 3.467v6.066c.1624471 1.5014795 1.4954181 2.597626 3 2.467.5522847 0 1 .4477153 1 1s-.4477153 1-1 1c-2.6101146.1354308-4.8416003-1.8581786-5-4.467v-6.066c-.1624471-1.5014795-1.4954181-2.597626-3-2.467-.55228475 0-1-.4477153-1-1s.44771525-1 1-1c1.5045819.130626 2.8375529-.9655205 3-2.467z"/></g></g></svg>