<svg height="512" viewBox="0 0 56 56" width="512" xmlns="http://www.w3.org/2000/svg"><g id="Page-1" fill="none" fill-rule="evenodd"><g id="028---World" fill="rgb(0,0,0)" fill-rule="nonzero" transform="translate(-1)"><path id="Shape" d="m39.4 22.239c-.138-.007-.279-.007-.418 0-.565296.0348467-1.1314663-.0524663-1.66-.256-.3585439-.1736617-.6880991-.4016856-.977-.676-.1393434-.1328507-.2929424-.2498946-.458-.349-.0797201-.0388126-.1673362-.0586631-.256-.058-.1027599-.00301-.2038636.0263766-.289.084-.1151134.0883351-.1723582.2327918-.149.376.149595.2627327.3576263.4875298.608.657.2383699.1934073.462918.4032528.672.628.3346332.4037119.614393.8499153.832 1.327.076.152.152.3.235.45.231.41.486.674.7.723.269.065.7-.163 1.121-.589.3428154-.3074951.6001675-.6985188.747-1.135.100572-.2961219.0639121-.6216624-.1-.888-.1448917-.188485-.3702857-.2974749-.608-.294z"/><path id="Shape" d="m6.244 20.342c.288.279.576.558.853.844 1.95010465 2.1798896 3.6145072 4.5993724 4.953 7.2.561.989 2.054 3.62.618 5.675-.4364579.5589663-.9805016 1.0248037-1.6 1.37-.3889699.2109937-.7384663.4877488-1.033.818-.21929214.3145679-.29856931.7058857-.219 1.081.14996756.7655473.5862902 1.4450661 1.22 1.9.9110477.5612783 1.9039431.977262 2.943 1.233.509.156 1.02.313 1.515.5 2.323.857 3.823 2.366 4.114 4.139.079941.6693569.0620874 1.346783-.053 2.011-.03.236-.062.47-.079.706-.1003375.5016989.0332727 1.0217848.363 1.413.3619459.1809794.7857166.1912438 1.156.028 1.571-.531 2.537-2.3 3.392-4.068.4826667-1.008.9693333-2.0156667 1.46-3.023l1.012-2.091c.8539003-1.5010779 1.4110259-3.1524239 1.641-4.864.1712349-1.4814743-.5173748-2.930893-1.774-3.734-1.1834323-.400488-2.4593215-.4394783-3.665-.112-.6984825.1194279-1.4033531.1978953-2.111.235-2.0572705.1063904-4.0692528-.6290138-5.573-2.037-1.5671517-1.5149133-2.1752636-3.7683464-1.583-5.866.6946455-2.1901495 2.8098927-3.6102684 5.1-3.424.6725268.1100549 1.3297308.2990262 1.958.563.6462186.3628894 1.3987347.4891339 2.128.357.595-.249.868-.976 1.245-2.144.14-.431.285-.877.471-1.3.4445844-.9163303.9968135-1.7763979 1.645-2.562.911-1.2 1.7-2.232 1.589-3.387-.1849481-.8671535-.5790511-1.6759572-1.148-2.356-.3378385-.47143571-.6460975-.96338103-.923-1.473-1.257-2.408-1.012-5.173-.494-7.732-9.4341724 1.24916502-17.59279864 7.19355977-21.673 15.791.02275977.5625545.14780062 1.1162584.369 1.634.55502288 1.0196367 1.29534738 1.926814 2.183 2.675z"/><path id="Shape" d="m43.233 3.9c-.017.4-.008.817 0 1.231.007.227.013.452.015.673.0099049 2.98226641-.9817457 5.8815064-2.816 8.233l-.105.132c-.406.512-.866 1.091-.786 1.485.01.047.038.192.286.319.3866775.1769785.8297381.1842299 1.222.02.6508577-.3610939 1.2254747-.8450356 1.692-1.425.218-.234.437-.467.663-.688 1.344-1.327 2.81-1.84 4.132-1.436.2553285.0774397.4691222.2537043.5938229.4895841.1247008.2358797.1499666.511812.0701771.7664159-.426 1.357-.434 2.2-.024 2.561.344219.2294624.7387091.372508 1.15.417.3711826.0717288.736269.1720273 1.092.3 2.385.921 3.229 3.769 2.671 5.99-.65518 2.0141145-1.8926258 3.7888539-3.556 5.1l-.154.139c-1.433 1.282-2.914 2.608-2.906 4.186.0698192.9009877.4713923 1.7440417 1.127 2.366.749463.7064333 1.5862617 1.3140365 2.49 1.808l4.519 2.741c5.74709-12.979149.8552777-28.2050008-11.376-35.408z"/><path id="Shape" d="m46.161 36.15c-1.02318-.9845044-1.6277154-2.3253697-1.688-3.744-.012-2.482 1.975-4.261 3.572-5.691l.154-.138c1.3633612-1.0485413 2.3890686-2.4741007 2.95-4.1.34-1.354-.16-3.138-1.447-3.636-.2614482-.0877906-.528783-.1569635-.8-.207-.7590754-.0991281-1.4758856-.4064808-2.071-.888-.8451685-.8573507-1.1827841-2.0930008-.891-3.261-.4205079.210961-.8041277.4885451-1.136.822-.209.2-.406.415-.6.627-.6429701.7815184-1.4389358 1.4233274-2.339 1.886-.9462442.4088109-2.0239042.3836046-2.95-.069-.6839585-.3292406-1.1763941-.957253-1.333-1.7-.098313-1.1662499.335755-2.3144536 1.181-3.124l.1-.125c1.5558696-1.9952171 2.3971168-4.45487043 2.389-6.985 0-.2-.008-.416-.014-.63-.043232-.77307533-.0097349-1.54853231.1-2.315-3.8371057-1.89333894-8.059204-2.87614542-12.338-2.872-.519 0-1.034.017-1.547.045-.543 2.457-.881 4.966.185 7.007.239844.43708238.5070421.85858732.8 1.262.773903.95238948 1.2870071 2.0895578 1.489 3.3.184 1.933-.97 3.449-1.987 4.787-.5491887.6617368-1.0209187 1.3840942-1.406 2.153-.152.349-.274.733-.4 1.117-.4 1.225-.891 2.749-2.379 3.374-1.1964553.3710285-2.4912604.2519784-3.6-.331-.481748-.2052091-.9848476-.356139-1.5-.45-1.3300118-.0579644-2.5359121.7767638-2.95 2.042-.3722242 1.3773307.0400379 2.8478859 1.074 3.831 1.1095387 1.0284212 2.5920806 1.5571776 4.102 1.463.6298829-.035108 1.2572413-.1062242 1.879-.213 1.6078458-.4175109 3.3068493-.3124396 4.851.3 2.148 1.06 3 3.6 2.883 5.641-.237369 1.9760223-.8630289 3.8856274-1.841 5.619l-1.011 2.093c-.4866667 1.004-.9726667 2.0103333-1.458 3.019-1.041 2.152-2.249 4.315-4.553 5.094-.4054933.1397885-.8310956.2124111-1.26.215-.6272119.0133209-1.2416413-.1783811-1.75-.546-.8951066-.7855775-1.326626-1.9741416-1.144-3.151.019-.272.054-.544.089-.815.0861353-.4732537.1069961-.9560807.062-1.435-.241-1.477-2.063-2.3-2.834-2.584-.461-.171-.935-.316-1.406-.461-1.2455426-.3121158-2.4324947-.8233663-3.515-1.514-1.06947046-.7685607-1.79956894-1.921593-2.037-3.217-.1665794-.9039978.04447814-1.8367709.584-2.581.43541639-.5358395.96892639-.983825 1.572-1.32.3937283-.2123417.7460134-.4938311 1.04-.831.483-.691.255-1.818-.722-3.539-1.25918097-2.4524149-2.82140792-4.7369618-4.65-6.8-.262-.271-.534-.534-.806-.8-.91810892-.8143731-1.7112846-1.7595123-2.354-2.805-4.72447446 13.8213516 1.97258347 28.9520227 15.3799554 34.7479519 13.4073719 5.7959292 29.0175036.308527 35.8490446-12.6019519l-4.681-2.839c-1.0509111-.579762-2.0214766-1.2944909-2.887-2.126zm-4.124-12.211c-.2335884.7739484-.6683874 1.4720425-1.26 2.023-.6239423.7062359-1.504176 1.1339323-2.445 1.188-.1817333.0002547-.3629032-.0202108-.54-.061-.8799371-.2483209-1.6093112-.8653714-2-1.692-.1-.173-.189-.351-.278-.529-.1427442-.32105-.3244421-.6233202-.541-.9-.1457664-.1527967-.3017959-.2954619-.467-.427-.566563-.4019262-.9976068-.9665377-1.236-1.619-.2653476-.9579679.0912877-1.9800569.895-2.565.7688183-.5390289 1.7712826-.6131291 2.611-.193.3183348.1703205.6128647.3818038.876.629.1436247.1387004.3042357.2586546.478.357.273224.077177.5579089.1056117.841.084.171 0 .352 0 .528.008.8407788.0241758 1.6233934.4348547 2.121 1.113.5242898.7532758.6777221 1.7040408.417 2.584z"/></g></g></svg>