<svg height="512" viewBox="0 0 56 56" width="512" xmlns="http://www.w3.org/2000/svg"><g id="Page-1" fill="none" fill-rule="evenodd"><g id="029---World-Marker" fill="rgb(0,0,0)" fill-rule="nonzero" transform="translate(0 -1)"><path id="Shape" d="m26.879 8.2c.7795057.95401175 1.2965423 2.0949393 1.5 3.31.181 1.929-.97 3.443-1.984 4.778-.5501798.6624477-1.021975 1.3862474-1.406 2.157-.154.352-.277.738-.4 1.123-.4 1.227-.891 2.753-2.383 3.37-1.2023937.3719861-2.5033749.2503789-3.616-.338-.4790993-.2039331-.9790745-.3548311-1.491-.45-1.3319215-.0607613-2.5389279.7797152-2.944 2.05-.3764269 1.3761744.0329858 2.8479092 1.066 3.832 1.1201512 1.020233 2.6031868 1.5477267 4.116 1.464.6201323-.0356235 1.2377727-.1060679 1.85-.211 1.0024695-.1924641 2.0249662-.2596452 3.044-.2 0-.08-.008-.163-.008-.243 0-7.819 6.078-14.316 14.033-15.595 1.2996418-1.8923571 1.9948987-4.1343338 1.994-6.43 0-.2-.008-.413-.014-.626-.0422869-.77374649-.0087941-1.54977406.1-2.317-3.8337125-1.90104536-8.0568406-2.88493562-12.336-2.874-.7538777-.00510102-1.5075246.02827572-2.258.1l-.083.009c-.5027663 1.93915463-.3523386 3.98996172.428 5.835.2385323.43419475.5030116.85362151.792 1.256z"/><path id="Shape" d="m5.271 21.371c.28.268.557.536.825.811 1.94775283 2.1837811 3.6122274 4.6045601 4.954 7.205.56.99 2.052 3.62.62 5.675-.4394599.5596849-.9861199 1.0261137-1.608 1.372-.39060178.2124382-.74199946.4901066-1.039.821-.21630142.3139597-.29404246.7030264-.215 1.076.15199372.7676339.58984619 1.4488966 1.225 1.906.9064231.5561288 1.89343.9686747 2.926 1.223.515.158 1.03.316 1.53.5 1.363.506 3.712 1.716 4.117 4.131.0796419.6641309.0607717 1.3363825-.056 1.995-.032.244-.066.488-.083.733-.0953185.499368.0378552 1.0151869.363 1.406.3632634.1842162.7898753.1963213 1.163.033 1.566-.529 2.531-2.3 3.387-4.067.5573333-1.1613333 1.1176667-2.3236667 1.681-3.487l.88-1.825c.33-.689.655-1.4.92-2.1-1.1640725-2.4215501-1.988511-4.9921155-2.45-7.639-.975042-.1271122-1.9645226-.0892503-2.927.112-.6880728.1164603-1.3821809.1939173-2.079.232-.1 0-.192 0-.288 0-1.9643206.0338274-3.8648529-.6973396-5.3-2.039-1.5634746-1.5154409-2.1677672-3.7674199-1.573-5.862.690682-2.1934708 2.8081651-3.6163364 5.1-3.427.6678172.1117861 1.3204795.3003703 1.945.562.6498536.3660103 1.4075471.4923516 2.141.357.595-.246.868-.972 1.245-2.137.14-.434.285-.882.472-1.31.4477886-.914171 1.0026835-1.7718578 1.653-2.555.909-1.2 1.693-2.227 1.585-3.379-.1841866-.8699958-.5798419-1.6812265-1.152-2.362-.3360449-.46731905-.6429603-.95491053-.919-1.46-.9243962-2.03518591-1.176245-4.31198331-.719-6.5-9.1275758 1.45340105-16.94901376 7.31947951-20.9 15.675.02453573.5551174.14920643 1.1012293.368 1.612.55806021 1.0353725 1.30727866 1.9556082 2.208 2.712z"/><path id="Shape" d="m41.111 13c4.8901524-.03159 9.5657162 2.0057964 12.872 5.609-2.29695-5.7408454-6.4281435-10.56080551-11.75-13.709-.018.4-.008.819 0 1.235.006.226.012.45.014.669.0029469 2.1646101-.5193244 4.2976186-1.522 6.216.132-.005.257-.02.386-.02z"/><path id="Shape" d="m41.111 15c-8.21 0-14.888 6.208-14.888 13.839 0 9.763 12.405 24.74 14.892 27.643 2.485-2.903 14.885-17.882 14.885-27.643 0-7.631-6.679-13.839-14.889-13.839zm-7.674 4.332c2.2636487-1.5347908 4.9391439-2.3478289 7.674-2.332.5522847 0 1 .4477153 1 1s-.4477153 1-1 1c-2.3329129-.014913-4.6156924.6767539-6.548 1.984-.1652898.1137813-.3613344.1744784-.562.174-.4387288.0001448-.8263161-.2856962-.9557916-.7048847-.1294756-.4191886.0294016-.873817.3917916-1.1211153zm-2.522 6.052c-.4572311 1.0944642-.6924515 2.2688668-.692 3.455 0 .5522847-.4477153 1-1 1s-1-.4477153-1-1c-.0006646-1.4498234.2869092-2.8853133.846-4.223.1311453-.3386741.4356003-.5796221.7953462-.6294429.359746-.0498208.7182237.0993184.936473.3896053.2182494.2902868.2619573.6760826.1141808 1.0078376zm10.085 12.616c-4.4162219-.0049599-7.9950401-3.5837781-8-8-.0028849-1.1862994.2605937-2.3581126.771-3.429.1479795-.3313122.4638193-.5564679.8252761-.5883223s.7118076.1345913.9154519.4349157.2286244.6873978.065272 1.0114066c-1.2504283 2.6373958-.4214932 5.7920051 1.9639411 7.4740071s5.6352103 1.4033472 7.6994795-.6601984c2.0642691-2.0635456 2.3440632-5.3132238.6628975-7.6992476-1.6811656-2.3860238-4.8354841-3.2160647-7.4733181-1.9665611-.4987131.2374824-1.0955175.0257131-1.333-.473-.2374824-.4987131-.0257131-1.0955175.473-1.333 1.0711695-.5106172 2.2433558-.7741028 3.43-.771 4.418278 0 8 3.581722 8 8s-3.581722 8-8 8z"/><path id="Shape" d="m27.746 41.745-.885 1.833c-.56 1.1593333-1.1196667 2.3206667-1.679 3.484-1.042 2.153-2.25 4.316-4.552 5.095-.4073497.1393923-.8344765.2123246-1.265.216-.6285672.0119035-1.2435663-.1834905-1.75-.556-.8914057-.7828843-1.3219596-1.9663421-1.142-3.139.02-.284.057-.568.094-.851.0862631-.4651204.1084691-.9398581.066-1.411-.246-1.466-2.07-2.292-2.841-2.579-.466-.173-.942-.319-1.419-.465-1.239392-.3095633-2.42108034-.8160012-3.5-1.5-1.07100731-.7712498-1.80289457-1.9262202-2.043-3.224-.16560922-.9021092.04464367-1.832713.582-2.576.43684499-.5361345.97125834-.9847024 1.575-1.322.39526417-.2134834.74916764-.4959288 1.045-.834.481-.69.252-1.817-.724-3.539-1.261731-2.4508955-2.82374881-4.7351366-4.65-6.8-.249-.257-.513-.511-.776-.764-.93330042-.8269874-1.73635565-1.7901817-2.382-2.857-.99983794 2.9101793-1.50680667 5.9668628-1.5 9.044-.00045819 9.1314158 4.45181239 17.6894127 11.9294527 22.9303716 7.4776404 5.2409589 17.0411485 6.5063979 25.6245473 3.3906284-3.6113186-4.4162351-6.8021817-9.1601791-9.531-14.17-.093.198-.184.399-.277.594z"/></g></g></svg>