<svg height="512" viewBox="0 0 56 51" width="512" xmlns="http://www.w3.org/2000/svg"><g id="Page-1" fill="none" fill-rule="evenodd"><g id="030---Television" fill="rgb(0,0,0)" fill-rule="nonzero"><path id="Shape" d="m13.358 47.462c3.028 2.147 8.553 3.538 14.642 3.538s11.614-1.391 14.642-3.538c-4.224.307-9.204.538-14.642.538s-10.418-.231-14.642-.538z"/><path id="Shape" d="m34.838 6.726c-8.8656553-.96800164-17.8103447-.96800164-26.676 0-1.88302233.21346582-3.36308546 1.70976136-3.556 3.595-.406 4.155-.606 8.421-.606 12.679s.2 8.524.606 12.679c.19291454 1.8852386 1.67297767 3.3815342 3.556 3.595 8.8658727.9640008 17.8101273.9640008 26.676 0 1.8830223-.2134658 3.3630855-1.7097614 3.556-3.595.406-4.155.606-8.421.606-12.679s-.2-8.524-.606-12.679c-.1929145-1.88523864-1.6729777-3.38153418-3.556-3.595zm-24.838 5.274h-1c-.55228475 0-1-.4477153-1-1s.44771525-1 1-1h1c.5522847 0 1 .4477153 1 1s-.4477153 1-1 1zm16 0h-12c-.5522847 0-1-.4477153-1-1s.4477153-1 1-1h12c.5522847 0 1 .4477153 1 1s-.4477153 1-1 1z"/><path id="Shape" d="m54.675 5.4c-.3564998-2.20288281-2.1380841-3.89776009-4.356-4.144-14.8322876-1.6733313-29.8057124-1.6733313-44.638 0-2.21791585.24623991-3.99950017 1.94111719-4.356 4.144-.89137981 5.8241182-1.33434787 11.7080713-1.325 17.6-.00934787 5.8919287.43362019 11.7758818 1.325 17.6.35649983 2.2028828 2.13808415 3.8977601 4.356 4.144 7.4107187.8310436 14.8618321 1.2503545 22.319 1.256 7.4571494-.0053135 14.9082628-.4242905 22.319-1.255 2.218227-.2463494 3.9999063-1.941726 4.356-4.145.8913798-5.8241182 1.3343479-11.7080713 1.325-17.6.0093479-5.8919287-.4336202-11.7758818-1.325-17.6zm-14.291 30.472c-.2866693 2.825144-2.5034823 5.0686004-5.325 5.389-4.502633.4955482-9.0291809.7422566-13.559.739-4.5298191.0032566-9.056367-.2434518-13.559-.739-2.82151767-.3203996-5.03833065-2.563856-5.325-5.389-.409-4.219-.616-8.55-.616-12.872s.207-8.653.616-12.872c.28666935-2.825144 2.50348233-5.06860036 5.325-5.389 9.0127174-.98100016 18.1052826-.98100016 27.118 0 2.8215177.32039964 5.0383307 2.563856 5.325 5.389.409 4.219.616 8.55.616 12.872s-.207 8.653-.616 12.872zm9.616-1.872h-4c-.5522847 0-1-.4477153-1-1s.4477153-1 1-1h4c.5522847 0 1 .4477153 1 1s-.4477153 1-1 1zm2-4h-8c-.5522847 0-1-.4477153-1-1s.4477153-1 1-1h8c.5522847 0 1 .4477153 1 1s-.4477153 1-1 1zm0-4h-8c-.5522847 0-1-.4477153-1-1s.4477153-1 1-1h8c.5522847 0 1 .4477153 1 1s-.4477153 1-1 1zm0-4h-8c-.5522847 0-1-.4477153-1-1s.4477153-1 1-1h8c.5522847 0 1 .4477153 1 1s-.4477153 1-1 1zm-4-5c-2.7614237 0-5-2.2385763-5-5 0-2.76142375 2.2385763-5 5-5s5 2.23857625 5 5c-.0033061 2.7600532-2.2399468 4.9966939-5 5z"/><circle id="Oval" cx="48" cy="12" r="3"/></g></g></svg>