<svg height="512" viewBox="0 0 58 55" width="512" xmlns="http://www.w3.org/2000/svg"><g id="Page-1" fill="none" fill-rule="evenodd"><g id="031---Like" fill="rgb(0,0,0)" fill-rule="nonzero"><circle id="Oval" cx="9" cy="29" r="1"/><path id="Shape" d="m14 23h-10c-2.209139 0-4 1.790861-4 4v24c0 2.209139 1.790861 4 4 4h10c2.209139 0 4-1.790861 4-4v-24c0-2.209139-1.790861-4-4-4zm-9 27c0 .5522847-.44771525 1-1 1s-1-.4477153-1-1v-1c0-.5522847.44771525-1 1-1s1 .4477153 1 1zm0-5c0 .5522847-.44771525 1-1 1s-1-.4477153-1-1v-6c0-.5522847.44771525-1 1-1s1 .4477153 1 1zm4-13c-1.65685425 0-3-1.3431458-3-3s1.34314575-3 3-3c1.6568542 0 3 1.3431458 3 3s-1.3431458 3-3 3z"/><path id="Shape" d="m56.83 29.83c1.1453208-1.1440463 1.4881603-2.8656305.8684897-4.3611605-.6196705-1.49553-2.079663-2.4701135-3.6984897-2.4688395h-12.11c-1.3696421-.0020747-2.6429971-.7047831-3.3749111-1.8624642-.7319141-1.1576812-.8206132-2.6093576-.2350889-3.8475358 1.0351857-2.2973294 1.6191134-4.7722324 1.72-7.29 0-7.15-3.38-8.81-5.75-9.09-.5704844-.07187664-1.1443067.10525722-1.5750122.48619226-.4307054.38093504-.676623.92881556-.6749878 1.50380774v5.1c0 3.66-4.82 10-7.41 13.13-1.0293543 1.2544367-1.591341 2.8272924-1.59 4.45v21.42c0 4.418278 3.581722 8 8 8h16c2.209139 0 4-1.790861 4-4s-1.790861-4-4-4h3c2.209139 0 4-1.790861 4-4s-1.790861-4-4-4h2c2.209139 0 4-1.790861 4-4s-1.790861-4-4-4h2c1.0606427-.0018942 2.0776689-.4223608 2.83-1.17zm-28.83 18.17c0 .5522847-.4477153 1-1 1s-1-.4477153-1-1v-2c0-.5522847.4477153-1 1-1s1 .4477153 1 1zm0-6c0 .5522847-.4477153 1-1 1s-1-.4477153-1-1v-8c0-.5522847.4477153-1 1-1s1 .4477153 1 1zm15-12h1c.5522847 0 1 .4477153 1 1s-.4477153 1-1 1h-1c-.5522847 0-1-.4477153-1-1s.4477153-1 1-1zm-2 9c0-.5522847.4477153-1 1-1h1c.5522847 0 1 .4477153 1 1s-.4477153 1-1 1h-1c-.5522847 0-1-.4477153-1-1z"/></g></g></svg>