<svg height="512" viewBox="0 0 58 55" width="512" xmlns="http://www.w3.org/2000/svg"><g id="Page-1" fill="none" fill-rule="evenodd"><g id="032---Dislike" fill="rgb(0,0,0)" fill-rule="nonzero"><circle id="Oval" cx="9" cy="6" r="1"/><path id="Shape" d="m14 0h-10c-2.209139 0-4 1.790861-4 4v24c0 2.209139 1.790861 4 4 4h10c2.209139 0 4-1.790861 4-4v-24c0-2.209139-1.790861-4-4-4zm-9 27c0 .5522847-.44771525 1-1 1s-1-.4477153-1-1v-1c0-.5522847.44771525-1 1-1s1 .4477153 1 1zm0-5c0 .5522847-.44771525 1-1 1s-1-.4477153-1-1v-6c0-.5522847.44771525-1 1-1s1 .4477153 1 1zm4-13c-1.65685425 0-3-1.34314575-3-3s1.34314575-3 3-3c1.6568542 0 3 1.34314575 3 3 0 .79564947-.3160705 1.55871121-.8786797 2.12132034-.5626091.56260914-1.32567083.87867966-2.1213203.87867966z"/><path id="Shape" d="m56.83 25.17c-.7523311-.7476392-1.7693573-1.1681058-2.83-1.17h-2c2.209139 0 4-1.790861 4-4s-1.790861-4-4-4h-2c2.209139 0 4-1.790861 4-4s-1.790861-4-4-4h-3c2.209139 0 4-1.790861 4-4s-1.790861-4-4-4h-16c-4.418278 0-8 3.581722-8 8v21.42c-.001341 1.6227076.5606457 3.1955633 1.59 4.45 2.59 3.13 7.41 9.47 7.41 13.13v5.1c-.0016352.5749922.2442824 1.1228727.6749878 1.5038077.4307055.3809351 1.0045278.5580689 1.5750122.4861923 2.37-.28 5.75-1.94 5.75-9.09-.1008866-2.5177676-.6848143-4.9926706-1.72-7.29-.5855243-1.2381782-.4968252-2.6898546.2350889-3.8475358.731914-1.1576811 2.005269-1.8603895 3.3749111-1.8624642h12.11c1.6188267.001274 3.0788192-.9733095 3.6984897-2.4688395.6196706-1.49553.2768311-3.2171142-.8684897-4.3611605zm-15.83-9.17c0-.5522847.4477153-1 1-1h1c.5522847 0 1 .4477153 1 1s-.4477153 1-1 1h-1c-.5522847 0-1-.4477153-1-1zm3 9h-1c-.5522847 0-1-.4477153-1-1s.4477153-1 1-1h1c.5522847 0 1 .4477153 1 1s-.4477153 1-1 1z"/><path id="Shape" d="m27 29c-.5522847 0-1-.4477153-1-1v-2c0-.5522847.4477153-1 1-1s1 .4477153 1 1v2c0 .5522847-.4477153 1-1 1z"/><path id="Shape" d="m27 23c-.5522847 0-1-.4477153-1-1v-8c0-.5522847.4477153-1 1-1s1 .4477153 1 1v8c0 .5522847-.4477153 1-1 1z"/></g></g></svg>