<svg height="512" viewBox="0 0 56 56" width="512" xmlns="http://www.w3.org/2000/svg"><g id="Page-1" fill="none" fill-rule="evenodd"><g id="033---Mailbox-sync" fill="rgb(0,0,0)" fill-rule="nonzero"><path id="Shape" d="m28 30c8.2842712 0 15-6.7157288 15-15 0-8.28427125-6.7157288-15-15-15s-15 6.71572875-15 15c.0093685 8.2803876 6.7196124 14.9906315 15 15zm-7.414-20.762c2.0576207-2.46703872 5.2742164-3.65027565 8.4400386-3.10470019 3.1658222.54557545 5.8008124 2.7372334 6.9139614 5.75070019l.665-1.331c.1596977-.3197527.4778505-.5300187.8346134-.5515927.3567628-.02157411.6979349.1488213.895.447.1970651.2981786.2200843.67884.0603866.9985927l-2 4c-.1184679.2374485-.3264554.4180742-.5781614.5021012-.251706.0840271-.5264889.0645647-.7638386-.0541012l-4-2c-.4942949-.2468713-.6948713-.8477051-.448-1.342s.8477051-.6948713 1.342-.448l2.336 1.168c-.6490571-2.548891-2.6721657-4.51881232-5.2374402-5.09974859-2.5652746-.58093627-5.2396943.32517511-6.9235598 2.34574859-.2288286.27438-.5866549.4058389-.9386893.3448575-.3520343-.0609814-.6447942-.3051386-.768-.6405-.1232057-.33536137-.0581393-.71097753.1706893-.9853575zm-2.981 9.315 2-4c.1184679-.2374485.3264554-.4180742.5781614-.5021012.251706-.0840271.5264889-.0645647.7638386.0541012l4 2c.4942948.2468713.6948713.8477051.448 1.342-.2468713.4942948-.8477052.6948713-1.342.448l-2.336-1.168c.6490571 2.548891 2.6721657 4.5188123 5.2374402 5.0997486 2.5652746.5809363 5.2396943-.3251751 6.9235598-2.3457486.3537384-.4241547.9843453-.4812383 1.4085-.1275.4241547.3537384.4812384.9843453.1275 1.4085-2.0576207 2.4670387-5.2742164 3.6502757-8.4400386 3.1047002s-5.8008124-2.7372334-6.9139614-5.7507002l-.66 1.331c-.2468713.4942948-.8477051.6948713-1.342.448-.4942948-.2468713-.6948713-.8477052-.448-1.342z"/><path id="Shape" d="m55.368 41.531-11.957-15.377c-.4384957-.5548334-1.0603545-.9352521-1.754-1.073-.4946605.6788916-1.0388086 1.3203045-1.628 1.919h.971c.3147573 0 .6111456.1481942.8.4l12 16c.2143594.2858125.2599564.6642734.1196152.9928203-.1403411.3285469-.4452994.5572656-.8.6-.3547005.0427344-.7052558-.1070078-.9196152-.3928203l-11.7-15.6h-2.878c-7.54169 5.2082592-17.858295 3.4714674-23.279-3.919-.6943016.1387359-1.3166831.5197497-1.756 1.075l-11.958 15.378c-.40562564.5263058-.62667359 1.1715269-.629 1.836v9.63c0 1.6568542 1.34314575 3 3 3h50c1.6568542 0 3-1.3431458 3-3v-9.63c-.0025272-.6658504-.2246769-1.3122638-.632-1.839zm-10.368 3.469h-4.764c-.379067-.0012129-.7258235.2132797-.894.553l-1.895 3.789c-.5051529 1.0189304-1.5457301 1.6619706-2.683 1.658h-13.528c-1.1372699.0039706-2.1778471-.6390696-2.683-1.658l-1.895-3.789c-.1681765-.3397203-.514933-.5542129-.894-.553h-12.764c-.37877206 0-.72503518-.2140024-.89442719-.5527864-.16939202-.338784-.13283605-.744196.09442719-1.0472136l11.16-14.88c.2143594-.2858125.5649147-.4355547.9196152-.3928203.3547006.0427344.6596589.2714531.8.6.1403412.3285469.0947442.7070078-.1196152.9928203l-9.96 13.28h10.764c1.1372699-.0039706 2.1778471.6390696 2.683 1.658l1.895 3.789c.1681765.3397203.514933.5542129.894.553h13.528c.379067.0012129.7258235-.2132797.894-.553l1.895-3.789c.5051529-1.0189304 1.5457301-1.6619706 2.683-1.658h4.764c.5522847 0 1 .4477153 1 1s-.4477153 1-1 1z"/></g></g></svg>