<svg height="512" viewBox="0 0 56 49" width="512" xmlns="http://www.w3.org/2000/svg"><g id="Page-1" fill="none" fill-rule="evenodd"><g id="034---Gallery" fill="rgb(0,0,0)" fill-rule="nonzero"><path id="Shape" d="m4 25.045v18.955c0 .5522847.44771525 1 1 1h28.494c-7.522-17.193-24.163-19.625-29.494-19.955z"/><circle id="Oval" cx="30" cy="20" r="2"/><path id="Shape" d="m45 9h-40c-2.76005315.00330612-4.99669388 2.2399468-5 5v30c.00330612 2.7600532 2.23994685 4.9966939 5 5h40c2.7600532-.0033061 4.9966939-2.2399468 5-5v-30c-.0033061-2.7600532-2.2399468-4.99669388-5-5zm-6 38h-34c-1.65685425 0-3-1.3431458-3-3v-30c0-1.6568542 1.34314575-3 3-3 .55228475 0 1 .4477153 1 1s-.44771525 1-1 1-1 .4477153-1 1v9.042c5.607.328 23.823 2.9 31.663 21.958h3.337c.5522847 0 1 .4477153 1 1s-.4477153 1-1 1zm-13-27c0-2.209139 1.790861-4 4-4s4 1.790861 4 4-1.790861 4-4 4-4-1.790861-4-4zm22 24c0 1.6568542-1.3431458 3-3 3-.5522847 0-1-.4477153-1-1s.4477153-1 1-1 1-.4477153 1-1v-16.957c-5.4981367.3315167-10.8548216 1.875414-15.686 4.521-.4824316.2685929-1.0912549.0953468-1.36-.387-.2685929-.4824316-.0953468-1.0912549.387-1.36 5.1295404-2.8090856 10.8202812-4.4405748 16.659-4.776v-11.041c0-.5522847-.4477153-1-1-1h-34c-.5522847 0-1-.4477153-1-1s.4477153-1 1-1h34c1.6568542 0 3 1.3431458 3 3z"/><path id="Shape" d="m51 0h-40c-2.76005315.00330612-4.99669388 2.23994685-5 5v2h39c3.8641657.00440864 6.9955914 3.1358343 7 7v25.9c2.3264168-.4784327 3.9970017-2.5248992 4-4.9v-30c-.0033061-2.76005315-2.2399468-4.99669388-5-5z"/></g></g></svg>