<svg height="512" viewBox="0 0 58 50" width="512" xmlns="http://www.w3.org/2000/svg"><g id="Page-1" fill="none" fill-rule="evenodd"><g id="035---Mouse" fill="rgb(0,0,0)" fill-rule="nonzero"><path id="Shape" d="m3.22 25.31c-4.29153615 4.29504-4.29153615 11.25496 0 15.55l5.67 5.68c4.3036879 4.2800545 11.2563121 4.2800545 15.56 0l12.03-12.04-21.23-21.23zm23.36 3.53c.3900375-.3877236 1.0199625-.3877236 1.41 0l4.95 4.95c.2536586.2518722.3536765.619937.262378.9655479-.0912984.3456109-.3600429.6162614-.705.71-.344957.0937387-.7137194-.0036757-.967378-.2555479l-4.95-4.95c-.1918336-.1864103-.3000725-.4425137-.3000725-.71s.1082389-.5235897.3000725-.71zm-4.96-4.95c.3930079-.3899779 1.0269921-.3899779 1.42 0l2.12 2.12c.283349.2878511.3668381.717366.2119521 1.0904012-.1548859.3730351-.5180479.6170985-.9219521.6195988-.267019-.0022117-.5222963-.1100754-.71-.3l-2.12-2.12c-.3877236-.3900375-.3877236-1.0199625 0-1.41z"/><path id="Shape" d="m39.31 11.86-5.66 5.66c-.190164.1849909-.4447023.2889572-.71.29-.4044441-.0016958-.7680455-.2468472-.9212679-.6211476s-.0658935-.8040433.2212679-1.0888524l5.66-5.66-2.84-2.83c-1.8746264-1.87593617-4.4179516-2.92993631-7.07-2.92993631s-5.1953736 1.05400014-7.07 2.92993631l-4.25 4.25 10.62 10.62 10.61 10.61 4.25-4.25c3.90662-3.9077437 3.90662-10.2422563 0-14.15zm-8.49 8.49-.71.71c-.3921222.3893607-1.0256392.3871221-1.415-.005-.3893607-.3921222-.3871221-1.0256392.005-1.415l.71-.7c.1854846-.1931743.4421976-.3016446.71-.3.4020904.0064475.7616261.2519663.913975.624133.152349.3721668.0681764.7993205-.213975 1.085867z"/><path id="Shape" d="m57.707.539c-.3904999-.39038194-1.0235001-.39038194-1.414 0l-3.538 3.537c-.7919712.75670334-2.0390288.75670334-2.831 0-1.5642825-1.55978389-4.0957175-1.55978389-5.66 0l-3.534 3.534c-.3930079-.38997787-1.0269921-.38997787-1.42 0l-.71.71 2.83 2.83.71-.71c.3877236-.3900375.3877236-1.01996255 0-1.41l3.54-3.539c.7824839-.78000716 2.0485161-.78000716 2.831 0 .7502326.75080205 1.7681082 1.17264616 2.8295 1.17264616s2.0792674-.42184411 2.8295-1.17264616l3.538-3.537c.1876445-.18770093.2929743-.442298.2927868-.70770727-.0001876-.26540927-.1058771-.51985721-.2937868-.70729273z"/></g></g></svg>