<svg height="512" viewBox="0 0 58 58" width="512" xmlns="http://www.w3.org/2000/svg"><g id="Page-1" fill="none" fill-rule="evenodd"><g id="036---Wireless-Mouse" fill="rgb(0,0,0)" fill-rule="nonzero" transform="translate(0 -1)"><path id="Shape" d="m3.219 34.646c-4.28891983 4.2984649-4.28891983 11.2575351 0 15.556l5.572 5.572c4.2957273 4.2955344 11.2602727 4.2955344 15.556 0l11.941-11.941-21.128-21.133zm23.21 3.548c.3904999-.3903819 1.0235001-.3903819 1.414 0l4.931 4.932c.2599566.2510745.3642126.6228779.2726972.9725073-.0915155.3496295-.3645604.6226744-.7141899.7141899-.3496294.0915154-.7214328-.0127406-.9725073-.2726972l-4.931-4.932c-.3903819-.3904999-.3903819-1.0235001 0-1.414zm-4.929-4.931c.3904999-.3903819 1.0235001-.3903819 1.414 0l2.113 2.113c.3907414.3904653.3909653 1.0237585.0005 1.4145-.3904653.3907414-1.0237585.3909653-1.4145.0005l-2.113-2.114c-.3903819-.3904999-.3903819-1.0235001 0-1.414z"/><path id="Shape" d="m41.9 24.082-2.789-2.782-5.632 5.633c-.3904653.3907414-1.0237585.3909652-1.4144999.0004999-.3907415-.3904653-.3909654-1.0237584-.0005001-1.4144999l5.636-5.638-2.789-2.781c-3.9079645-3.8985388-10.2340355-3.8985388-14.142 0l-4.195 4.2 21.126 21.119 4.2-4.195c3.9051525-3.9052274 3.9051525-10.2367726 0-14.142zm-11.24 5.664-.7.705c-.3923789.3789722-1.0160848.3735524-1.4018186-.0121814s-.3911536-1.0094397-.0121814-1.4018186l.7-.7c.3923789-.3789722 1.0160848-.3735524 1.4018186.0121814s.3911536 1.0094397.0121814 1.4018186z"/><path id="Shape" d="m56.092 26.444c-.1070295-.0003187-.2133378-.0175305-.315-.051-.2519108-.0835525-.4602742-.2638198-.5791921-.501093-.118918-.2372732-.138635-.5120875-.0548079-.763907 2.0168986-6.0409235.4458395-12.7029139-4.0576338-17.20617543-4.5034733-4.50326152-11.1655376-6.07400724-17.2063662-4.05682457-.3394023.11236004-.7129663.03511601-.9799741-.202635s-.3868946-.59988897-.3145001-.95000001c.0723946-.35011104.3260719-.63500497.6654742-.74736499 6.7590918-2.25449448 14.211844-.49573976 19.2498892 4.54272899 5.0380452 5.03846881 6.7961735 12.49136881 4.5411108 19.25027101-.1353776.4093331-.5178612.6858176-.949.686z"/><path id="Shape" d="m49.657 24.385c-.336139-.0000371-.6497715-.1689507-.8347852-.4495917-.1850137-.2806411-.2166536-.6354594-.0842148-.9444083 1.55811-3.641327.7435827-7.8643383-2.0570395-10.6649605-2.8006222-2.80062221-7.0236335-3.61514946-10.6649605-2.0570395-.5078258.217324-1.0956759-.0181742-1.313-.52600002-.217324-.50782581.0181742-1.09567591.526-1.31299998 4.392865-1.87949652 9.4873503-.89669633 12.8658324 2.4820059 3.3784821 3.3787023 4.3609503 8.4732515 2.4811676 12.8659941-.1572769.3679955-.5188042.6067845-.919.607z"/></g></g></svg>