<svg height="512" viewBox="0 0 56 56" width="512" xmlns="http://www.w3.org/2000/svg"><g id="Page-1" fill="none" fill-rule="evenodd"><g id="037---Speaker" fill="rgb(0,0,0)" fill-rule="nonzero"><path id="Shape" d="m10 54c-2.55083581.0025009-4.94963168-1.2128012-6.45644129-3.2710272-1.50680961-2.0582261-1.94059889-4.7120926-1.16755871-7.1429728-.443-.726-.851-1.475-1.233-2.24-2.03194102 3.8781182-1.30750769 8.626806 1.78834315 11.7226569 3.09585084 3.0958508 7.84453865 3.8202841 11.72265685 1.7883431-.765-.382-1.514-.79-2.24-1.233-.780465.2490578-1.5947592.3758907-2.414.376z"/><path id="Shape" d="m52 46v-.019c-1.7126193 2.2799914-3.7390086 4.3063807-6.019 6.019h.019c3.3123376-.0033074 5.9966926-2.6876624 6-6z"/><path id="Shape" d="m53.624 43.586c.9051902 2.8467547.1472259 5.960683-1.9650456 8.0729544-2.1122714 2.1122715-5.2261997 2.8702358-8.0729544 1.9650456-.726.443-1.475.851-2.24 1.233 3.8781182 2.031941 8.626806 1.3075077 11.7226569-1.7883431 3.0958508-3.0958509 3.8202841-7.8445387 1.7883431-11.7226569-.382.765-.79 1.514-1.233 2.24z"/><path id="Shape" d="m10 52h.019c-2.27999141-1.7126193-4.30638067-3.7390086-6.019-6.019v.019c.00330738 3.3123376 2.68766243 5.9966926 6 6z"/><path id="Shape" d="m46 2c2.5508358-.00250089 4.9496317 1.2128012 6.4564413 3.27102723 1.5068096 2.05822604 1.9405989 4.71209258 1.1675587 7.14297277.443.726.851 1.475 1.233 2.24 2.031941-3.8781182 1.3075077-8.62680601-1.7883431-11.72265685-3.0958509-3.09585084-7.8445387-3.82028417-11.7226569-1.78834315.765.382 1.514.79 2.24 1.233.7804835-.24897955 1.5947654-.37581053 2.414-.376z"/><path id="Shape" d="m4 10v.019c1.71261933-2.27999141 3.73900859-4.30638067 6.019-6.019h-.019c-3.31233757.00330738-5.99669262 2.68766243-6 6z"/><path id="Shape" d="m46 4h-.019c2.2799914 1.71261933 4.3063807 3.73900859 6.019 6.019v-.019c-.0033074-3.31233757-2.6876624-5.99669262-6-6z"/><path id="Shape" d="m2.376 12.414c-.90519017-2.84675471-.14722592-5.96068295 1.96504557-8.07295443 2.11227148-2.11227149 5.22619972-2.87023574 8.07295443-1.96504557.726-.443 1.475-.851 2.24-1.233-3.8781182-2.03194102-8.62680601-1.30750769-11.72265685 1.78834315-3.09585084 3.09585084-3.82028417 7.84453865-1.78834315 11.72265685.382-.765.79-1.514 1.233-2.24z"/><circle id="Oval" cx="28" cy="28" r="8"/><path id="Shape" d="m28 4c-13.254834 0-24 10.745166-24 24s10.745166 24 24 24 24-10.745166 24-24c-.0154295-13.2484376-10.7515624-23.98457048-24-24zm-15.2 12.613c-.855857 1.1388479-1.581071 2.3702358-2.162 3.671-.1388263.3364166-.4494598.5708512-.81105019.6120981-.36159036.0412469-.717041-.117207-.92806552-.4137159-.21102453-.296509-.24430135-.684253-.08688429-1.0123822.64128493-1.4379478 1.4423235-2.7991767 2.388-4.058.3313709-.4418278.9581722-.5313708 1.4-.2.4418278.3313709.5313708.9581722.2 1.4zm3.2-3.6c-.4304304 0-.8125693-.2754301-.9486833-.6837722-.136114-.4083422.004339-.8579696.3486833-1.1162278 3.6269626-2.74312451 8.052529-4.22287937 12.6-4.213.5522847 0 1 .44771525 1 1s-.4477153 1-1 1c-4.1143079-.01126691-8.1188371 1.3267376-11.4 3.809-.1730962.1298221-.3836298.2-.6.2zm12 24.987c-5.5228475 0-10-4.4771525-10-10s4.4771525-10 10-10 10 4.4771525 10 10c-.0060624 5.5203344-4.4796656 9.9939376-10 10z"/><path id="Shape" d="m28 0c-15.463973 0-28 12.536027-28 28s12.536027 28 28 28 28-12.536027 28-28c-.0176345-15.4566626-12.5433374-27.98236546-28-28zm0 54c-14.3594035 0-26-11.6405965-26-26s11.6405965-26 26-26 26 11.6405965 26 26c-.0159821 14.3527783-11.6472217 25.9840179-26 26z"/></g></g></svg>