<svg height="512" viewBox="0 0 56 57" width="512" xmlns="http://www.w3.org/2000/svg"><g id="Page-1" fill="none" fill-rule="evenodd"><g id="038---Speaker-Volume" fill="rgb(0,0,0)" fill-rule="nonzero" transform="translate(-1)"><path id="Shape" d="m11 53h.043c-2.28846349-1.7205472-4.32283151-3.7552518-6.043-6.044v.044c.00330738 3.3123376 2.68766243 5.9966926 6 6z"/><path id="Shape" d="m3 29c0-14.3594035 11.6405965-26 26-26s26 11.6405965 26 26c0 .333-.031.666-.045 1h1.045c.3297794.003687.6566206.0624981.967.174.017-.39.033-.78.033-1.174.0091278-3.7445064-.7392088-7.4521745-2.2-10.9-.5976941-1.3962124-1.3076903-2.7416267-2.123-4.023-2.2374275-3.5257479-5.2255078-6.51416968-8.751-8.752-9.1027743-5.80437704-20.7452257-5.80437704-29.848 0-3.5257479 2.23742746-6.51416968 5.2255078-8.752 8.751-.8163393 1.2816225-1.52733893 2.6273716-2.126 4.024-2.93483722 6.9703386-2.93483722 14.8296614 0 21.8.59769414 1.3962124 1.3076903 2.7416267 2.123 4.023 2.23742746 3.5257479 5.2255078 6.5141697 8.751 8.752 1.2820576.8165039 2.6285123 1.5271886 4.026 2.125.947805.3899897 1.9158649.7288107 2.9 1.015v-2.1c-10.6972955-3.5010405-17.95004727-13.4594716-18-24.715z"/><path id="Shape" d="m29 56.989c.663 0 1.331-.017 2-.064v-2.014c-.652.053-1.317.089-2 .089z"/><path id="Shape" d="m27 53.949v-4.949c0-.5522847-.4477153-1-1-1h-2c-.5522847 0-1 .4477153-1 1v8h4z"/><path id="Shape" d="m11 55c-4.41622192-.0049599-7.99504012-3.5837781-8-8 .00016867-.8277903.13007839-1.6504394.385-2.438-.444-.722-.854-1.465-1.237-2.226-2.03698977 3.8795782-1.3139278 8.6330811 1.78449553 11.7315045 3.09842333 3.0984233 7.85192627 3.8214853 11.73150447 1.7844955-.76-.382-1.5-.792-2.227-1.236-.7873646.2541906-1.6096212.3837542-2.437.384z"/><path id="Shape" d="m47 3c4.4162219.00495988 7.9950401 3.58377808 8 8-.0001687.8277903-.1300784 1.6504394-.385 2.438.444.722.854 1.465 1.237 2.226 2.0369898-3.8795782 1.3139278-8.63308114-1.7844955-11.73150447-3.0984234-3.09842333-7.8519263-3.8214853-11.7315045-1.78449553.759.382 1.5.792 2.227 1.236.7873646-.25419063 1.6096212-.38375425 2.437-.384z"/><path id="Shape" d="m47 5c-.015 0-.028 0-.043 0 2.2882359 1.72080923 4.3225694 3.75547938 6.043 6.044 0-.015 0-.029 0-.044-.0033074-3.31233757-2.6876624-5.99669262-6-6z"/><path id="Shape" d="m5 11v.043c1.72074439-2.28795721 3.75504279-4.32225561 6.043-6.043-.015 0-.028 0-.043 0-3.31233757.00330738-5.99669262 2.68766243-6 6z"/><path id="Shape" d="m3.384 13.437c-.91756411-2.8522182-.16229756-5.97806431 1.95631906-8.09668094 2.11861663-2.11861662 5.24446274-2.87388317 8.09668094-1.95631906.724-.444 1.467-.854 2.227-1.236-3.101272-1.62862222-6.82825757-1.51763528-9.82712154.29264458-2.99886396 1.81027985-4.8332746 5.05645873-4.83687846 8.55935542-.00543955 1.6253877.38916086 3.2271426 1.149 4.664.382-.7606667.79366667-1.503 1.235-2.227z"/><path id="Shape" d="m46 38h-2c-.5522847 0-1 .4477153-1 1v18h4v-18c0-.5522847-.4477153-1-1-1z"/><path id="Shape" d="m29 5c-11.6863597-.00448196-21.67545598 8.4128463-23.65244241 19.9307692-1.97698642 11.5179229 4.63348329 22.784473 15.65244241 26.6772308v-2.608c0-1.6568542 1.3431458-3 3-3h2c1.6568542 0 3 1.3431458 3 3v3.978c.683 0 1.348-.031 2-.087v-8.891c0-1.6568542 1.3431458-3 3-3h2c1.6568542 0 3 1.3431458 3 3v6.791c.686-.314 1.3526667-.6576667 2-1.031v-10.76c0-1.6568542 1.3431458-3 3-3h2c1.6568542 0 3 1.3431458 3 3v3.226c.7732099-1.1579836 1.4424842-2.3820863 2-3.658v-5.568c.0036399-1.2470841.77841-2.3618612 1.946-2.8.023-.4.054-.8.054-1.2-.0154295-13.2484376-10.7515624-23.98457048-24-24zm-15.2 12.613c-.855857 1.1388479-1.581071 2.3702358-2.162 3.671-.1388263.3364166-.4494598.5708512-.8110502.6120981-.3615903.0412469-.717041-.117207-.92806551-.4137159-.21102453-.296509-.24430135-.684253-.08688429-1.0123822.6412849-1.4379478 1.4423235-2.7991767 2.388-4.058.3313709-.4418278.9581722-.5313708 1.4-.2.4418278.3313709.5313708.9581722.2 1.4zm3.2-3.6c-.4304304 0-.8125693-.2754301-.9486833-.6837722-.136114-.4083422.004339-.8579696.3486833-1.1162278 3.6269626-2.74312451 8.052529-4.22287937 12.6-4.213.5522847 0 1 .44771525 1 1s-.4477153 1-1 1c-4.1143079-.01126691-8.1188371 1.3267376-11.4 3.809-.1730962.1298221-.3836298.2-.6.2zm12 24.987c-5.5228475 0-10-4.4771525-10-10s4.4771525-10 10-10 10 4.4771525 10 10c-.0060624 5.5203344-4.4796656 9.9939376-10 10z"/><path id="Shape" d="m37 52.287v-8.287c0-.5522847-.4477153-1-1-1h-2c-.5522847 0-1 .4477153-1 1v13h4z"/><path id="Shape" d="m57 33c0-.5522847-.4477153-1-1-1h-2c-.5522847 0-1 .4477153-1 1v24h4z"/><circle id="Oval" cx="29" cy="29" r="8"/><path id="Shape" d="m39 55.132c.684-.26 1.3506667-.5466667 2-.86v-2.232c-.651.339-1.318.648-2 .932z"/><path id="Shape" d="m49 48.563c.7088209-.723364 1.376535-1.4858936 2-2.284v-3.443c-.6048325.9546777-1.2729979 1.8677256-2 2.733z"/></g></g></svg>