<svg height="512" viewBox="0 0 56 56" width="512" xmlns="http://www.w3.org/2000/svg"><g id="Page-1" fill="none" fill-rule="evenodd"><g id="039---Speaker-Alert" fill="rgb(0,0,0)" fill-rule="nonzero" transform="translate(-1)"><path id="Shape" d="m3.376 12.414c-.90519017-2.84675471-.14722592-5.96068295 1.96504557-8.07295443 2.11227148-2.11227149 5.22619973-2.87023574 8.07295443-1.96504557.726-.443 1.475-.851 2.24-1.233-3.8781182-2.03194102-8.62680601-1.30750769-11.72265685 1.78834315s-3.82028417 7.84453865-1.78834315 11.72265685c.382-.765.79-1.514 1.233-2.24z"/><path id="Shape" d="m38.685 33h-1.37c-.3855373-.0043822-.7553522.1526078-1.02.433-.2099857.2226763-.3157339.5239312-.291.829l.682 7.659c.0962618.6435427.6640254 1.1097656 1.314 1.079.6481474.0287184 1.2134208-.4364454 1.31-1.078l.69-7.661c.0245718-.3047478-.0811735-.6056312-.291-.828-.2655944-.2814235-.6370772-.4385056-1.024-.433z"/><path id="Rectangle-path" d="m37 49h2v2h-2z"/><path id="Shape" d="m47 2c2.5508358-.00250089 4.9496317 1.2128012 6.4564413 3.27102723 1.5068096 2.05822604 1.9405989 4.71209258 1.1675587 7.14297277.443.726.851 1.475 1.233 2.24 2.031941-3.8781182 1.3075077-8.62680601-1.7883431-11.72265685-3.0958509-3.09585084-7.8445387-3.82028417-11.7226569-1.78834315.765.382 1.514.79 2.24 1.233.7804835-.24897955 1.5947654-.37581053 2.414-.376z"/><path id="Shape" d="m11 52h.005c-2.27449784-1.6994519-4.29486004-3.7147632-6-5.985.01154887 3.3045303 2.690455 5.9789679 5.995 5.985z"/><path id="Shape" d="m5 10v.019c1.71234525-2.28022928 3.73877072-4.30665475 6.019-6.019h-.019c-3.31233757.00330738-5.99669262 2.68766243-6 6z"/><path id="Shape" d="m11 54c-2.54850908.0031137-4.94565937-1.2095549-6.45305595-3.264467s-1.94423064-4.7055857-1.17594405-7.135533c-.442-.728-.858-1.471-1.237-2.236-.75041144 1.4297315-1.13972389 3.0213122-1.134 4.636.00323428 3.4977997 1.83219888 6.7401664 4.824101 8.5521087 2.99190213 1.8119424 6.7126521 1.9305691 9.813899.3128913-.769-.382-1.514-.8-2.24-1.236-.7755856.2458765-1.5843734.3710059-2.398.371z"/><path id="Shape" d="m47 4h-.019c2.2802293 1.71234525 4.3066548 3.73877072 6.019 6.019v-.019c-.0033074-3.31233757-2.6876624-5.99669262-6-6z"/><path id="Shape" d="m54.374 44.007c-.185.308-.4.635-.637.97l2.616 4.509c.4207584-1.1144172.6398404-2.2948191.647-3.486.0052807-1.6211382-.3871873-3.2188228-1.143-4.653-.4476448.9119024-.9426535 1.7997806-1.483 2.66z"/><path id="Shape" d="m29 0c-13.1686486-.00441612-24.55955935 9.17083811-27.36008881 22.0382528-2.80052946 12.8674146 3.74676194 25.9468302 15.72608881 31.4157472.023-.043.031-.09.056-.133l.943-1.626c-9.8299313-4.4032436-15.92817236-14.4104957-15.33524924-25.1652409.59292312-10.7547453 7.75428784-20.03097808 18.00868674-23.32694635 10.2543989-3.29596827 21.4793875.07052393 28.2274833 8.46571935 6.7480959 8.3951953 7.6225854 20.0814654 2.1990792 29.3874679l1.154 1.989.057-.089c.8224807-1.2871452 1.5330832-2.6424423 2.124-4.051 3.6488838-8.6486842 2.7237723-18.5500596-2.4641081-26.3731018-5.1878804-7.8230421-13.9489821-12.52795056-23.3358919-12.5318982z"/><path id="Shape" d="m21 28c-.0113216 3.8621596 2.7500958 7.1757762 6.551 7.861l7.549-13.008c-2.1582508-2.5756292-5.698474-3.523725-8.8550824-2.3714509-3.1566085 1.152274-5.2535036 4.1581178-5.2449176 7.5184509z"/><path id="Shape" d="m36.482 21.389c.4655505-.2544618.9874461-.3882018 1.518-.389 1.1281269-.0093337 2.1737603.5899182 2.736 1.568l9.564 16.483c4.5529295-8.7421157 3.299425-19.378911-3.1610022-26.823146s-16.8147584-10.18294154-26.1108472-6.90628366c-9.2960888 3.27665787-15.64459597 11.90273146-16.00923295 21.75264486-.36463697 9.8499134 5.32870515 18.9217679 14.35708235 22.8767848l7.124-12.278c-4.1572139-1.0661265-7.169442-4.6676614-7.4837672-8.9478778-.3143251-4.2802164 2.139455-8.2831573 6.0963242-9.9451556 3.9568693-1.6619984 8.5330881-.6118583 11.369443 2.6090334zm-22.682-4.776c-.855857 1.1388479-1.581071 2.3702358-2.162 3.671-.1388263.3364166-.4494598.5708512-.8110502.6120981-.3615903.0412469-.717041-.117207-.92806551-.4137159-.21102453-.296509-.24430135-.684253-.08688429-1.0123822.6412849-1.4379478 1.4423235-2.7991767 2.388-4.058.3313709-.4418278.9581722-.5313708 1.4-.2.4418278.3313709.5313708.9581722.2 1.4zm15.2-7.613c-4.1143079-.01126691-8.1188371 1.3267376-11.4 3.809-.4418278.3313708-1.0686291.2418278-1.4-.2-.3313708-.4418278-.2418278-1.0686291.2-1.4 3.6274686-2.74169596 8.0529896-4.2200307 12.6-4.209.5522847 0 1 .44771525 1 1s-.4477153 1-1 1z"/><path id="Shape" d="m39.006 23.572c-.2111919-.3544901-.5933679-.5716629-1.006-.5716629s-.7948081.2171728-1.006.5716629l-8.022 13.828-.014.023-9.806 16.9c-.2007171.339198-.2007171.760802 0 1.1.206415.3604949.5916134.5812094 1.007.577h35.682c.4156824.0053459.8017196-.2146456 1.009-.575.2007171-.339198.2007171-.760802 0-1.1zm1.994 27.428c0 1.1045695-.8954305 2-2 2h-2c-1.1045695 0-2-.8954305-2-2v-2c0-1.1045695.8954305-2 2-2h2c1.1045695 0 2 .8954305 2 2zm.307-8.9c-.1773016 1.6812031-1.6170398 2.9437494-3.307 2.9-1.6873008.0400424-3.1228967-1.2215419-3.3-2.9l-.681-7.66c-.0774468-.8642602.2159197-1.7207302.807-2.356.6421562-.6926783 1.544455-1.0856442 2.489-1.084h1.37c.9482156-.00498 1.855072.3878702 2.5 1.083.5909205.6349623.8842842 1.4910606.807 2.355z"/></g></g></svg>