<svg height="512" viewBox="0 0 56 56" width="512" xmlns="http://www.w3.org/2000/svg"><g id="Page-1" fill="none" fill-rule="evenodd"><g id="040---Speaker-Error" fill="rgb(0,0,0)" fill-rule="nonzero" transform="translate(-1 -1)"><path id="Shape" d="m11 53h.014c-2.27937122-1.7093423-4.30427872-3.7339131-6.014-6.013v.013c.00330738 3.3123376 2.68766243 5.9966926 6 6z"/><path id="Shape" d="m11 55c-2.55248434.0035699-4.95301597-1.2127467-6.45975414-3.2730693-1.50673816-2.0603225-1.93827276-4.7165899-1.16124586-7.1479307-.44-.717-.849-1.465-1.234-2.237-2.03459403 3.8787061-1.31095084 8.6297707 1.78613924 11.7268608 3.09709008 3.09709 7.84815466 3.8207332 11.72686076 1.7861392-.7713333-.384-1.5166667-.7953333-2.236-1.234-.7828299.2510183-1.5999095.3788768-2.422.379z"/><path id="Shape" d="m5 11v.013c1.70998745-2.27885603 3.73485965-4.30339153 6.014-6.013h-.014c-3.31233757.00330738-5.99669262 2.68766243-6 6z"/><path id="Shape" d="m47 3c2.5524843-.00356994 4.953016 1.21274667 6.4597541 3.27306926 1.5067382 2.06032258 1.9382728 4.71658994 1.1612459 7.14793074.44.717.849 1.465 1.234 2.237 2.034594-3.8787061 1.3109508-8.62977068-1.7861392-11.72686076-3.0970901-3.09709008-7.8481547-3.82073327-11.7268608-1.78613924.7713333.384 1.5166667.79533333 2.236 1.234.7828299-.2510183 1.5999095-.37887676 2.422-.379z"/><path id="Shape" d="m28.97 54.992c-14.3422786-.0220532-25.96009149-11.6497078-25.97-25.992-.07210062-9.4184669 4.95514272-18.139453 13.1415645-22.79726544 8.1864218-4.65781243 18.251752-4.52401851 26.3114748.34974664 8.0597228 4.8737651 12.8533825 13.7252961 12.5309607 23.1385188.6780893.8323044 1.2804827 1.723512 1.8 2.663 1.3135852-10.7393075-3.6906625-21.2717569-12.846-27.037-7.749774-4.8839374-17.3966022-5.67433663-25.838-2.117-1.4020097.58789789-2.7512463 1.29446562-4.033 2.112-3.5331544 2.22698581-6.52320667 5.2163547-8.751 8.749-.81956193 1.2833314-1.52749199 2.6346213-2.116 4.039-5.33744449 12.6331891-.74077886 27.2731035 10.86 34.588 1.2861934.8140788 2.6374578 1.5204824 4.04 2.112 4.4986739 1.8856909 9.4106776 2.5680573 14.253 1.98-.9429247-.5190393-1.8374945-1.1214432-2.673-1.8-.237.003-.474.012-.71.012z"/><path id="Shape" d="m47 5h-.014c2.2793712 1.70934226 4.3042787 3.73391306 6.014 6.013v-.013c-.0033074-3.31233757-2.6876624-5.99669262-6-6z"/><path id="Shape" d="m3.379 13.42c-.25101916-.7821424-.37888019-1.5985638-.379-2.42-.00356994-2.55248434 1.21274667-4.95301597 3.27306926-6.45975414 2.06032258-1.50673816 4.71658994-1.93827276 7.14793074-1.16124586.7293333-.44666667 1.4736667-.85866667 2.233-1.236-3.10123-1.62479166-6.82602104-1.51104618-9.82233097.29994857s-4.82855909 5.05597081-4.83166903 8.55705143c-.00528066 1.6211382.38718733 3.2188228 1.143 4.653.377-.753.787-1.501 1.236-2.233z"/><path id="Shape" d="m41 25c-6.7208587-.0056078-12.7276025 4.1928581-15.0315928 10.5064626s-.4132083 13.3940727 4.7315928 17.7185374l.014.013c5.4112338 4.5478436 13.1660838 5.0042704 19.0734528 1.1226052 5.9073689-3.8816653 8.5661474-11.1807695 6.5394024-17.9525224s-8.2583101-11.4100307-15.3268552-11.4080828zm6.707 21.293c.2599566.2510745.3642126.6228779.2726972.9725073-.0915155.3496295-.3645604.6226744-.7141899.7141899-.3496294.0915154-.7214328-.0127406-.9725073-.2726972l-5.293-5.293-5.293 5.293c-.3923789.3789722-1.0160848.3735524-1.4018186-.0121814s-.3911536-1.0094397-.0121814-1.4018186l5.293-5.293-5.293-5.293c-.3789722-.3923789-.3735524-1.0160848.0121814-1.4018186s1.0094397-.3911536 1.4018186-.0121814l5.293 5.293 5.293-5.293c.3923789-.3789722 1.0160848-.3735524 1.4018186.0121814s.3911536 1.0094397.0121814 1.4018186l-5.293 5.293z"/><path id="Shape" d="m37.251 23.4c5.6041494-1.2044475 11.445963.3519562 15.708 4.185-.7631746-12.6768462-11.25921-22.57095526-23.959-22.585-9.7967389-.00428845-18.6118099 5.9487246-22.26759688 15.0378023-3.65578697 9.0890777-1.41769823 19.4878661 5.65359688 26.2681977 4.1006965 3.9698914 9.4943142 6.3296213 15.193 6.647-3.8291672-4.2608805-5.3835713-10.0991929-4.18-15.7-3.3384558-2.2504666-4.9975023-6.2866793-4.2067578-10.2344141.7907446-3.9477348 3.8763623-7.0335753 7.82404-7.8246048 3.9476778-.7910296 7.9840102.8677255 10.2347178 4.2060189zm-23.451-5.787c-.855857 1.1388479-1.581071 2.3702358-2.162 3.671-.1388263.3364166-.4494598.5708512-.8110502.6120981-.3615903.0412469-.717041-.117207-.92806551-.4137159-.21102453-.296509-.24430135-.684253-.08688429-1.0123822.6412849-1.4379478 1.4423235-2.7991767 2.388-4.058.3313709-.4418278.9581722-.5313708 1.4-.2.4418278.3313709.5313708.9581722.2 1.4zm15.2-7.613c-4.1143079-.01126691-8.1188371 1.3267376-11.4 3.809-.4418278.3313708-1.0686291.2418278-1.4-.2-.3313708-.4418278-.2418278-1.0686291.2-1.4 3.6274686-2.74169596 8.0529896-4.2200307 12.6-4.209.5522847 0 1 .44771525 1 1s-.4477153 1-1 1z"/><path id="Shape" d="m21 29c.0086526 2.4089373 1.101274 4.6859971 2.975 6.2 1.8090295-5.27336 5.95164-9.4159705 11.225-11.225-2.1272871-2.6352522-5.6854315-3.6421242-8.8781452-2.5123082-3.1927136 1.1298159-5.3255835 4.1505855-5.3218548 7.5373082z"/></g></g></svg>