<svg height="512" viewBox="0 0 56 56" width="512" xmlns="http://www.w3.org/2000/svg"><g id="Page-1" fill="none" fill-rule="evenodd"><g id="041---Disk-Alert" fill="rgb(0,0,0)" fill-rule="nonzero"><path id="Shape" d="m19 30c.0028383 3.8226372 3.0718001 6.9361154 6.894 6.994l6.118-10.546c-1.5977883-2.7209507-4.8209794-4.0333353-7.8649933-3.2023841-3.0440138.8309513-5.1533336 3.5989982-5.1470067 6.7543841zm8 0c0 .5522847-.4477153 1-1 1s-1-.4477153-1-1 .4477153-1 1-1 1 .4477153 1 1z"/><path id="Shape" d="m21.83 44h-11.83c-1.1045695 0-2 .8954305-2 2v4h10.349z"/><path id="Rectangle-path" d="m36 49h2.001v2h-2.001z"/><path id="Shape" d="m37.685 33h-1.37c-.3855373-.0043822-.7553522.1526078-1.02.433-.2097663.2228098-.3154791.5239641-.291.829l.681 7.659c.0975894.6432063.6651192 1.1088828 1.315 1.079.64821.0283098 1.2135274-.4365355 1.311-1.078l.689-7.66c.0244791-.3050359-.0812337-.6061902-.291-.829-.2655944-.2814235-.6370772-.4385056-1.024-.433z"/><path id="Shape" d="m55.848 54.325-17.841-30.754c-.2117205-.3544133-.594163-.5714354-1.007-.5714354s-.7952795.2170221-1.007.5714354l-17.841 30.754c-.2007171.339198-.2007171.760802 0 1.1.2069296.3597246.5920298.579618 1.007.575h35.682c.4156824.0053459.8017196-.2146456 1.009-.575.2001007-.3395629.1993342-.761167-.002-1.1zm-15.848-3.325c0 1.1045695-.8954305 2-2 2h-2c-1.1045695 0-2-.8954305-2-2v-2c0-1.1045695.8954305-2 2-2h2c1.1045695 0 2 .8954305 2 2zm.307-8.9c-.1773016 1.6812031-1.6170398 2.9437494-3.307 2.9-1.6873008.0400424-3.1228967-1.2215419-3.3-2.9l-.681-7.66c-.0775654-.864455.216224-1.7210985.808-2.356.6416311-.6928297 1.5437013-1.0858538 2.488-1.084h1.37c.9465794-.0040704 1.8515415.3887448 2.495 1.083.591776.6349015.8855654 1.491545.808 2.356z"/><path id="Shape" d="m22.99 42 1.794-3.092c-4.0333971-.5416214-7.2005376-3.7241038-7.722662-7.7600711-.5221243-4.0359672 1.7308826-7.9196424 5.4936658-9.4698388 3.7627831-1.5501964 8.0976437-.3805998 10.5699962 2.8519099l1.139-1.963c.5694329-.9707226 1.6105862-1.5670427 2.736-1.5670427s2.1665671.5963201 2.736 1.5670427l10.264 17.692v-37.259c0-1.65685425-1.3431458-3-3-3h-4v13c-.0033061 2.7600532-2.2399468 4.9966939-5 5h-17c-2.7600532-.0033061-4.9966939-2.2399468-5-5v-13h-7v13c0 1.6568542 1.3431458 3 3 3h1c.5522847 0 1 .4477153 1 1s-.4477153 1-1 1h-1c-2.76005315-.0033061-4.99669388-2.2399468-5-5v-13h-4c-1.65685425 0-3 1.34314575-3 3v44c0 1.6568542 1.34314575 3 3 3h3v-4c0-2.209139 1.790861-4 4-4zm22.01-39c0-.55228475.4477153-1 1-1s1 .44771525 1 1v2c0 .55228475-.4477153 1-1 1s-1-.44771525-1-1zm-41 44c0 .5522847-.44771525 1-1 1s-1-.4477153-1-1v-1c0-.5522847.44771525-1 1-1s1 .4477153 1 1zm0-4c0 .5522847-.44771525 1-1 1s-1-.4477153-1-1v-2c0-.5522847.44771525-1 1-1s1 .4477153 1 1zm1-38c0 .55228475-.44771525 1-1 1s-1-.44771525-1-1v-2c0-.55228475.44771525-1 1-1s1 .44771525 1 1z"/><path id="Shape" d="m21 16h17c1.6568542 0 3-1.3431458 3-3v-13h-23v13c0 1.6568542 1.3431458 3 3 3zm15-12h-1c-.5522847 0-1 .44771525-1 1v2c0 .55228475-.4477153 1-1 1s-1-.44771525-1-1v-2c0-1.65685425 1.3431458-3 3-3h1c1.6568542 0 3 1.34314575 3 3v6c0 1.6568542-1.3431458 3-3 3h-1c-1.6568542 0-3-1.3431458-3-3 0-.5522847.4477153-1 1-1s1 .4477153 1 1 .4477153 1 1 1h1c.5522847 0 1-.4477153 1-1v-6c0-.55228475-.4477153-1-1-1z"/></g></g></svg>