<svg height="512" viewBox="0 0 56 56" width="512" xmlns="http://www.w3.org/2000/svg"><g id="Page-1" fill="none" fill-rule="evenodd"><g id="042---Settings" fill="rgb(0,0,0)" fill-rule="nonzero"><path id="Shape" d="m43.865 12.167-.032-.032c-.3904999-.3903819-1.0235001-.3903819-1.414 0l-10.295 10.295 1.527 1.364 10.214-10.213c.3903819-.3904999.3903819-1.0235001 0-1.414z"/><path id="Shape" d="m17.4 40.017c-.2531227.2531227-.622057.3519784-.967829.259329-.345772-.0926493-.6158507-.362728-.7085-.7085-.0926494-.345772.0062063-.7147063.259329-.967829l5.794-5.794c.3755986-.3750642.3927191-.9782346.039-1.374l-1.006-1.123c-.177306-.198497-.4264271-.3181223-.6921996-.3323869-.2657724-.0142647-.5262666.0780084-.7238004.2563869l-17.5 15.8c-1.56754195 1.4160004-2.22688734 3.5807752-1.71483485 5.6301768.51205249 2.0494017 2.11210747 3.6496548 4.16144575 4.161961s4.2141946-.1467712 5.6303891-1.7141378l15.529-17.206c.3411183-.3800105.3411183-.9559895 0-1.336l-1.023-1.145c-.1830437-.2052618-.4425441-.3260773-.7174518-.3340237-.2749078-.0079465-.5409536.0976778-.7355482.2920237zm-8.579 12.863c-1.0127481 1.044878-2.51002636 1.4628242-3.91752353 1.093527-1.40749716-.3692972-2.50670625-1.4685063-2.87600347-2.8760035-.36929721-1.4074971.04864903-2.9047754 1.093527-3.9175235.39237889-.3789722 1.01608478-.3735524 1.40181858.0121814.38573379.3857338.39115363 1.0094397.01218142 1.4018186-.3816016.3806551-.59606289.8975027-.59606289 1.4365s.21446129 1.0558449.59606289 1.4365c.80425187.7666035 2.06874813.7666035 2.873 0 .791989-.7939232.791989-2.0790768 0-2.873-.25258678-.2527654-.35113785-.6210837-.25852998-.966213.09260788-.3451293.36230536-.6146361.70750001-.707.34519465-.0923638.7134432.0064476.96602997.259213 1.5704332 1.5758148 1.5695386 4.1252876-.002 5.7zm5.717-10-2.144 2.144c-.2527654.2525868-.6210837.3511379-.966213.25853s-.6146362-.3623054-.707-.7075c-.0923639-.3451947.0064476-.7134432.259213-.96603l2.144-2.143c.3923789-.3789722 1.0160848-.3735524 1.4018186.0121814s.3911536 1.0094397.0121814 1.4018186z"/><path id="Shape" d="m50.058 10.039c.2373956-.10206779.4532261-.24833033.636-.431l4.6-4.6c.3897159-.39038508.3897159-1.02261492 0-1.413l-2.878-2.883c-.1875683-.18777704-.4420908-.29328666-.7075-.29328666s-.5199317.10550962-.7075.29328666l-4.609 4.6c-.1834085.18237197-.3300672.39828605-.432.636l-1.378 3.217c-.1606169.3755529-.0766867.81104015.212 1.1l.947.946c.2889598.2886867.7244471.3726169 1.1.212z"/><path id="Shape" d="m53.793 44.461-30.175-26.944c-.3100647-.2770091-.4163738-.7169772-.267-1.105 1.4087885-3.6569303.9547815-7.77016115-1.2176599-11.03180525-2.1724415-3.2616441-5.7929614-5.26579632-9.7103401-5.37519475-.4080911-.00650017-.7791789.23565731-.9375616.61181617s-.0722716.81082117.2175616 1.09818383l6.224 6.259c.6470329.64475651.9650699 1.54917437.864 2.457l-.56 5.132c-.1523979 1.4055448-1.2624552 2.5156021-2.668 2.668l-5.132.56c-.90732039.0992675-1.81067384-.2185246-2.456-.864l-6.247-6.247c-.28642053-.2913361-.72126046-.3791416-1.09828619-.2217724-.37702574.1573692-.62040684.5282616-.61471381.9367724.09494948 3.9231914 2.09313903 7.5547648 5.35630441 9.7347185 3.26316537 2.1799536 7.38305769 2.6355573 11.04369559 1.2212815.3880228-.1493738.8279909-.0430647 1.105.267l3.426 3.837c.006.006.014.009.019.015s.008.015.013.021l23.487 26.3c1.6327907 1.8255291 4.1412529 2.5984095 6.5183085 2.0083513s4.232891-2.4462914 4.8224398-4.8234734c.5895487-2.377182-.1838693-4.8854784-2.0097483-6.5178779zm-13.966-4.634c-.3904999.3903819-1.0235001.3903819-1.414 0l-13.519-13.519c-.3789722-.3923789-.3735524-1.0160848.0121814-1.4018186s1.0094397-.3911536 1.4018186-.0121814l13.519 13.519c.3903819.3904999.3903819 1.0235001 0 1.414zm3.557 3.558c-.3904999.3903819-1.0235001.3903819-1.414 0l-.712-.712c-.3904653-.3907415-.3902414-1.0240347.0005-1.4145.3907415-.3904653 1.0240347-.3902414 1.4145.0005l.712.712c.3901059.3907759.3896582 1.0237763-.001 1.414zm8.539 8.538c-1.5709166 1.5663951-4.1130834 1.5663951-5.684 0-.3789722-.3923789-.3735524-1.0160848.0121814-1.4018186s1.0094397-.3911536 1.4018186-.0121814c.7885711.7881829 2.0667505.7879732 2.8550628-.0004686.7883124-.7884417.7883124-2.0666211 0-2.8550628-.7883123-.7884418-2.0664917-.7886515-2.8550628-.0004686-.3923789.3789722-1.0160848.3735524-1.4018186-.0121814s-.3911536-1.0094397-.0121814-1.4018186c1.5695933-1.5695932 4.1144067-1.5695931 5.6839999.0000001s1.5695933 4.1144066.0000001 5.6839999z"/></g></g></svg>