<svg height="512" viewBox="0 0 50 56" width="512" xmlns="http://www.w3.org/2000/svg"><g id="Page-1" fill="none" fill-rule="evenodd"><g id="043---Movie" fill="rgb(0,0,0)" fill-rule="nonzero"><path id="Shape" d="m37 19h-24c-.5522847 0-1 .4477153-1 1v16c0 .5522847.4477153 1 1 1h24c.5522847 0 1-.4477153 1-1v-16c0-.5522847-.4477153-1-1-1zm-7.018 11.029-6.469 4.571c-.6527737.4751934-1.5191451.5372711-2.233.16-.8043797-.4323903-1.2987285-1.2789626-1.28-2.192v-9.136c-.0175928-.9119676.4765942-1.7571046 1.28-2.189.7141086-.3760628 1.5798029-.3140336 2.233.16l6.469 4.569c.6406059.4774879 1.0180186 1.229519 1.0180186 2.0285s-.3774127 1.5510121-1.0180186 2.0285z"/><path id="Shape" d="m40 12c0 1.6568542-1.3431458 3-3 3h-19c-.5522847 0-1-.4477153-1-1s.4477153-1 1-1h19c.5522847 0 1-.4477153 1-1v-12h-26v12c0 .5522847.4477153 1 1 1s1 .4477153 1 1-.4477153 1-1 1c-1.6568542 0-3-1.3431458-3-3v-12h-2v56h2v-12c0-1.6568542 1.3431458-3 3-3h19c.5522847 0 1 .4477153 1 1s-.4477153 1-1 1h-19c-.5522847 0-1 .4477153-1 1v12h26v-12c0-.5522847-.4477153-1-1-1s-1-.4477153-1-1 .4477153-1 1-1c1.6568542 0 3 1.3431458 3 3v12h2v-56h-2zm-15.293-9.707c.3903819.39049985.3903819 1.02350015 0 1.414l-7 7c-.3923789.3789722-1.0160848.3735524-1.4018186-.0121814s-.3911536-1.00943971-.0121814-1.4018186l7-7c.3904999-.39038194 1.0235001-.39038194 1.414 0zm-9.414 2 2-2c.2510745-.25995658.6228779-.3642126.9725073-.27269716.3496295.09151544.6226744.3645604.7141899.71418984.0915154.34962943-.0127406.72143285-.2726972.97250732l-2 2c-.3923789.37897221-1.0160848.37355237-1.4018186-.01218142-.3857338-.3857338-.3911536-1.00943969-.0121814-1.40181858zm11.707 49.707c-.4043959-.0000863-.7689341-.2437275-.923678-.6173454-.1547439-.373618-.0692299-.8036603.216678-1.0896546l7-7c.3923789-.3789722 1.0160848-.3735524 1.4018186.0121814s.3911536 1.0094397.0121814 1.4018186l-7 7c-.1874927.1875494-.4418052.2929434-.707.293zm8.707-2.293-2 2c-.3923789.3789722-1.0160848.3735524-1.4018186-.0121814s-.3911536-1.0094397-.0121814-1.4018186l2-2c.3923789-.3789722 1.0160848-.3735524 1.4018186.0121814s.3911536 1.0094397.0121814 1.4018186zm4.293-15.707c0 1.6568542-1.3431458 3-3 3h-24c-1.6568542 0-3-1.3431458-3-3v-16c0-1.6568542 1.3431458-3 3-3h24c1.6568542 0 3 1.3431458 3 3z"/><path id="Shape" d="m22.359 23.036c-.0262042-.0212282-.0583476-.0338061-.092-.036-.0235578.0007152-.0465737.0072421-.067.019-.1378061.0901814-.2146994.248966-.2.413v9.136c-.0146994.164034.0621939.3228186.2.413.0508697.0303841.115704.0234522.159-.017l6.47-4.568c.1090835-.1026185.1709399-.2457343.1709399-.3955s-.0618564-.2928815-.1709399-.3955z"/><path id="Shape" d="m0 1v54c0 .5522847.44771525 1 1 1h5v-56h-5c-.55228475 0-1 .44771525-1 1zm2 2c0-.55228475.44771525-1 1-1s1 .44771525 1 1v1c0 .55228475-.44771525 1-1 1s-1-.44771525-1-1zm0 5c0-.55228475.44771525-1 1-1s1 .44771525 1 1v1c0 .55228475-.44771525 1-1 1s-1-.44771525-1-1zm0 5c0-.5522847.44771525-1 1-1s1 .4477153 1 1v1c0 .5522847-.44771525 1-1 1s-1-.4477153-1-1zm0 5c0-.5522847.44771525-1 1-1s1 .4477153 1 1v1c0 .5522847-.44771525 1-1 1s-1-.4477153-1-1zm0 5c0-.5522847.44771525-1 1-1s1 .4477153 1 1v1c0 .5522847-.44771525 1-1 1s-1-.4477153-1-1zm0 5c0-.5522847.44771525-1 1-1s1 .4477153 1 1v1c0 .5522847-.44771525 1-1 1s-1-.4477153-1-1zm0 5c0-.5522847.44771525-1 1-1s1 .4477153 1 1v1c0 .5522847-.44771525 1-1 1s-1-.4477153-1-1zm0 5c0-.5522847.44771525-1 1-1s1 .4477153 1 1v1c0 .5522847-.44771525 1-1 1s-1-.4477153-1-1zm0 5c0-.5522847.44771525-1 1-1s1 .4477153 1 1v1c0 .5522847-.44771525 1-1 1s-1-.4477153-1-1zm0 5c0-.5522847.44771525-1 1-1s1 .4477153 1 1v1c0 .5522847-.44771525 1-1 1s-1-.4477153-1-1zm0 5c0-.5522847.44771525-1 1-1s1 .4477153 1 1v1c0 .5522847-.44771525 1-1 1s-1-.4477153-1-1z"/><path id="Shape" d="m49 0h-5v56h5c.5522847 0 1-.4477153 1-1v-54c0-.55228475-.4477153-1-1-1zm-1 54c0 .5522847-.4477153 1-1 1s-1-.4477153-1-1v-1c0-.5522847.4477153-1 1-1s1 .4477153 1 1zm0-5c0 .5522847-.4477153 1-1 1s-1-.4477153-1-1v-1c0-.5522847.4477153-1 1-1s1 .4477153 1 1zm0-5c0 .5522847-.4477153 1-1 1s-1-.4477153-1-1v-1c0-.5522847.4477153-1 1-1s1 .4477153 1 1zm0-5c0 .5522847-.4477153 1-1 1s-1-.4477153-1-1v-1c0-.5522847.4477153-1 1-1s1 .4477153 1 1zm0-5c0 .5522847-.4477153 1-1 1s-1-.4477153-1-1v-1c0-.5522847.4477153-1 1-1s1 .4477153 1 1zm0-5c0 .5522847-.4477153 1-1 1s-1-.4477153-1-1v-1c0-.5522847.4477153-1 1-1s1 .4477153 1 1zm0-5c0 .5522847-.4477153 1-1 1s-1-.4477153-1-1v-1c0-.5522847.4477153-1 1-1s1 .4477153 1 1zm0-5c0 .5522847-.4477153 1-1 1s-1-.4477153-1-1v-1c0-.5522847.4477153-1 1-1s1 .4477153 1 1zm0-5c0 .5522847-.4477153 1-1 1s-1-.4477153-1-1v-1c0-.5522847.4477153-1 1-1s1 .4477153 1 1zm0-5c0 .55228475-.4477153 1-1 1s-1-.44771525-1-1v-1c0-.55228475.4477153-1 1-1s1 .44771525 1 1zm0-5c0 .55228475-.4477153 1-1 1s-1-.44771525-1-1v-1c0-.55228475.4477153-1 1-1s1 .44771525 1 1z"/></g></g></svg>