<svg height="512" viewBox="0 0 48 57" width="512" xmlns="http://www.w3.org/2000/svg"><g id="Page-1" fill="none" fill-rule="evenodd"><g id="044---Stop-watch" fill="rgb(0,0,0)" fill-rule="nonzero"><path id="Shape" d="m24 29c-2.209139 0-4 1.790861-4 4s1.790861 4 4 4 4-1.790861 4-4-1.790861-4-4-4zm0-11-1.53 9.21c1.0007873-.2799781 2.0592127-.2799781 3.06 0zm0 11c-2.209139 0-4 1.790861-4 4s1.790861 4 4 4 4-1.790861 4-4-1.790861-4-4-4zm0-11-1.53 9.21c1.0007873-.2799781 2.0592127-.2799781 3.06 0zm0 11c-2.209139 0-4 1.790861-4 4s1.790861 4 4 4 4-1.790861 4-4-1.790861-4-4-4zm0-11-1.53 9.21c1.0007873-.2799781 2.0592127-.2799781 3.06 0zm0 11c-2.209139 0-4 1.790861-4 4s1.790861 4 4 4 4-1.790861 4-4-1.790861-4-4-4zm0-11-1.53 9.21c1.0007873-.2799781 2.0592127-.2799781 3.06 0zm0 11c-2.209139 0-4 1.790861-4 4s1.790861 4 4 4 4-1.790861 4-4-1.790861-4-4-4zm0-11-1.53 9.21c1.0007873-.2799781 2.0592127-.2799781 3.06 0zm0 11c-2.209139 0-4 1.790861-4 4s1.790861 4 4 4 4-1.790861 4-4-1.790861-4-4-4zm0-11-1.53 9.21c1.0007873-.2799781 2.0592127-.2799781 3.06 0zm0 11c-2.209139 0-4 1.790861-4 4s1.790861 4 4 4 4-1.790861 4-4-1.790861-4-4-4zm0-11-1.53 9.21c1.0007873-.2799781 2.0592127-.2799781 3.06 0zm0 11c-2.209139 0-4 1.790861-4 4s1.790861 4 4 4 4-1.790861 4-4-1.790861-4-4-4zm1.53-1.79-1.53-9.21-1.53 9.21c1.0007873-.2799781 2.0592127-.2799781 3.06 0zm-1.53 1.79c-2.209139 0-4 1.790861-4 4s1.790861 4 4 4 4-1.790861 4-4-1.790861-4-4-4zm1.53-1.79-1.53-9.21-1.53 9.21c1.0007873-.2799781 2.0592127-.2799781 3.06 0zm-1.53-18.21c-13.254834 0-24 10.745166-24 24s10.745166 24 24 24 24-10.745166 24-24c-.0176281-13.2475253-10.7524747-23.98237187-24-24zm-7.63 8.78 1 1.73c.1786328.3108211.1778752.693331-.0019873 1.0034421s-.5115047.50071-.87.5-.6893799-.192621-.8680127-.5034421l-1-1.73c-.1786328-.3108211-.1778752-.693331.0019873-1.0034421s.5115047-.50071.87-.5.6893799.192621.8680127.5034421zm-5.99-2.05c.9876286-.775637 2.0378964-1.468011 3.14-2.07.2332561-.127958.5078865-.1576916.763124-.0826217.2552375.0750698.4700391.248754.596876.4826217.2577694.4867722.0802624 1.090296-.4 1.36-1.0063288.5420725-1.9633097 1.1711369-2.86 1.88-.1743477.1439918-.3938868.2218928-.62.22-.3047889.0008336-.5927951-.1394771-.78-.38-.1666477-.2078446-.24347345-.473593-.213436-.7382977.0300374-.2647047.1644547-.5064822.373436-.6717023zm-1.97 8.27c.27850142-.4774157.88902051-.6423004 1.37-.37l1.73 1c.3108211.1786328.5027321.5095174.5034421.8680127s-.1898889.6901375-.5.87-.692621.1806201-1.0034421.0019873l-1.73-1c-.47741568-.2785014-.64230039-.8890205-.37-1.37zm28.49 26.81c-3.7450669 2.7328417-8.2638553 4.2005722-12.9 4.19-12.1443251-.014327-21.985673-9.8556749-22-22-.01057218-4.6361447 1.4571583-9.1549331 4.19-12.9.33156888-.4216026.9367089-.506537 1.37152832-.1925008.43481942.3140363.54444906.9151932.24847168 1.3625008-5.77022528 7.9551335-4.90259948 18.9244234 2.04648856 25.8735114 6.94908804 6.9490881 17.91837794 7.8167139 25.87351144 2.0464886.4473076-.2959774 1.0484645-.1863477 1.3625008.2484717.3140362.4348194.2291018 1.0399594-.1925008 1.3715283zm-12.9-11.81c-2.5488885.0034689-4.8209954-1.6059399-5.6634239-4.0115913s-.0707708-5.0809478 1.9234239-6.6684087l1.76-10.64c.1605036-.9686011.9981907-1.6789009 1.98-1.6789009s1.8194964.7102998 1.98 1.6789009l1.76 10.64c1.9941947 1.5874609 2.7658524 4.2627573 1.9234239 6.6684087s-3.1145354 4.0150602-5.6634239 4.0115913zm1 9v2c0 .5522847-.4477153 1-1 1s-1-.4477153-1-1v-2c0-.5522847.4477153-1 1-1s1 .4477153 1 1zm6-2.88c.4809795-.2723004 1.0914986-.1074157 1.37.37l1 1.73c.2761424.4804877.1104877 1.0938576-.37 1.37-.4804877.2761423-1.0938576.1104877-1.37-.37l-1-1.73c-.2723004-.4809795-.1074157-1.0914986.37-1.37zm8.59-3.12c-.2795595.4760311-.8888033.6405714-1.37.37l-1.73-1c-.4804877-.2761424-.6461423-.8895123-.37-1.37.2761424-.4804877.8895123-.6461424 1.37-.37l1.73 1c.4774157.2785014.6423004.8890205.37 1.37zm3.83 0c-.1343143.0024792-.2675085-.0248427-.39-.08-.244422-.1002683-.438812-.2938034-.5401566-.5377811s-.1012882-.5182828.0001566-.7622189c2.9379575-7.1270912 1.5182388-15.3082528-3.6492294-21.0287682-5.1674681-5.7205153-13.1626666-7.9619005-20.5507706-5.7612318-.2546104.0777061-.5296954.0506869-.7643212-.0750725-.2346257-.1257594-.4094252-.3398783-.4856788-.5949275-.0780137-.2532933-.05099-.5273098.0749994-.7604842s.3403791-.4059528.5950006-.4795158c8.1261012-2.42350342 16.9216694.0390381 22.6080233 6.3296873 5.686354 6.2906492 7.2510892 15.2894122 4.0219767 23.1303127-.1516384.3748601-.515631.6201595-.92.62zm-19.42-24-1.53 9.21c1.0007873-.2799781 2.0592127-.2799781 3.06 0zm0 11c-2.209139 0-4 1.790861-4 4s1.790861 4 4 4 4-1.790861 4-4-1.790861-4-4-4zm0-11-1.53 9.21c1.0007873-.2799781 2.0592127-.2799781 3.06 0zm0 11c-2.209139 0-4 1.790861-4 4s1.790861 4 4 4 4-1.790861 4-4-1.790861-4-4-4zm0-11-1.53 9.21c1.0007873-.2799781 2.0592127-.2799781 3.06 0zm0 11c-2.209139 0-4 1.790861-4 4s1.790861 4 4 4 4-1.790861 4-4-1.790861-4-4-4zm0-11-1.53 9.21c1.0007873-.2799781 2.0592127-.2799781 3.06 0zm0 11c-2.209139 0-4 1.790861-4 4s1.790861 4 4 4 4-1.790861 4-4-1.790861-4-4-4zm0-11-1.53 9.21c1.0007873-.2799781 2.0592127-.2799781 3.06 0zm0 11c-2.209139 0-4 1.790861-4 4s1.790861 4 4 4 4-1.790861 4-4-1.790861-4-4-4zm0-11-1.53 9.21c1.0007873-.2799781 2.0592127-.2799781 3.06 0zm0 11c-2.209139 0-4 1.790861-4 4s1.790861 4 4 4 4-1.790861 4-4-1.790861-4-4-4zm0-11-1.53 9.21c1.0007873-.2799781 2.0592127-.2799781 3.06 0zm0 11c-2.209139 0-4 1.790861-4 4s1.790861 4 4 4 4-1.790861 4-4-1.790861-4-4-4zm0-11-1.53 9.21c1.0007873-.2799781 2.0592127-.2799781 3.06 0zm0 11c-2.209139 0-4 1.790861-4 4s1.790861 4 4 4 4-1.790861 4-4-1.790861-4-4-4zm-15-21c-2.76142375 0-5 2.2385763-5 5-.00126752.9080045.25160179 1.798243.73 2.57 2.2367506-2.4767332 4.92898309-4.5001513 7.93-5.96-.9436951-1.02134609-2.2694324-1.60452557-3.66-1.61zm13-3v1.021c-.0020072.2694961.1056114.52823294.298149.7168104.1925376.18857745.4534548.29079637.722851.2831896.326-.014.6523333-.021.979-.021s.653.00666667.979.02c.2693962.00760677.5303134-.09461215.722851-.2831896.1925376-.18857746.3001562-.4473143.298149-.7168104v-1.02c0-.55228475-.4477153-1-1-1h-2c-.5522847 0-1 .44771525-1 1zm-6-4v1c0 .55228475.4477153 1 1 1h14c.5522847 0 1-.44771525 1-1v-1c0-.55228475-.4477153-1-1-1h-14c-.5522847 0-1 .44771525-1 1zm23 7c-1.3905676.00547443-2.7163049.58865391-3.66 1.61 3.0010169 1.4598487 5.6932494 3.4832668 7.93 5.96.4783982-.771757.7312675-1.6619955.73-2.57 0-2.7614237-2.2385763-5-5-5z"/></g></g></svg>