<svg height="512" viewBox="0 0 56 56" width="512" xmlns="http://www.w3.org/2000/svg"><g id="Page-1" fill="none" fill-rule="evenodd"><g id="045---Settings" fill="rgb(0,0,0)" fill-rule="nonzero"><path id="Shape" d="m16 28c0-6.627417 5.372583-12 12-12s12 5.372583 12 12h8c-.0074632-5.9695987-2.6778605-11.6246035-7.2830565-15.4230682-4.605196-3.79846468-10.6649464-5.34427348-16.5269435-4.2159318-.358527.08835514-.7365666-.02805355-.9832902-.30278185-.2467237-.2747283-.3219743-.66306099-.1957287-1.01006279.1262457-.3470018.4334396-.59619414.7990189-.64815536 6.4478493-1.24282072 13.1139435.45658693 18.1798329 4.6346401 5.0658895 4.1780532 8.0030192 10.3988301 8.0101671 16.9653599h2.674c-.0094673-1.8981417.6585766-3.73739 1.884-5.187 1.4634376-1.7232428 1.8403956-4.1201424.9765455-6.2093954-.86385-2.089253-2.8234563-3.520046-5.0765455-3.7066046-.0491727-.0040106-.0979758-.0116988-.146-.023-3.8123374-.3658833-6.8280069-3.38700763-7.187-7.2-.0109693-.04395363-.0179971-.0887979-.021-.134-.1884253-2.24914441-1.61652-4.20500671-3.7014675-5.0693842-2.0849476-.86437748-4.4779995-.49268601-6.2025325.9633842-2.9887908 2.55275866-7.3892787 2.55614952-10.382.008-1.7232225-1.46402321-4.1205114-1.84133587-6.2101312-.97742124-2.0896199.86391464-3.5205776 2.82394498-3.7068688 5.07742124-.0034935.04712567-.0105132.09392333-.021.14-.3630067 3.8121203-3.3808797 6.8299933-7.193 7.193-.04595604.0113017-.09279257.0186617-.14.022-2.24536166.1854471-4.20021672 1.6067706-5.0689978 3.6855344s-.50665731 4.468426.9389978 6.1964656l.031.034c2.54590797 2.989402 2.54590797 7.384598 0 10.374-.023.027-.047.052-.073.078-1.41804613 1.7346512-1.75858961 4.1120466-.88452446 6.175025.87406514 2.0629783 2.81891095 3.4720751 5.05152446 3.659975.04915424.004164.09794624.0118504.146.023 3.81251719.3655023 6.8283882 3.3868285 7.187 7.2.0109693.0439536.0179971.0887979.021.134.1864236 2.2514309 1.6150826 4.2100417 3.701987 5.0752151 2.0869043.8651734 4.482295.4919088 6.207013-.9672151.374571-.3079274.7762045-.5813729 1.2-.817v-4.141c-10.4069432-1.9521205-17.96202538-11.0186387-18.005-21.607-.0140379-4.642858 1.45459951-9.1689378 4.192-12.919.2082133-.2946104.5589694-.454234.9178763-.417711.3589068.036523.6703188.26353.8149184.5940432.1445995.3305133.0999678.7132894-.1167947 1.0016678-2.48718108 3.4083271-3.8212822 7.5216888-3.808 11.741.03782098 9.4855793 6.7114207 17.6494773 16 19.573v-8.273c-4.7849114-1.6999373-7.9864487-6.2221087-8-11.3zm.475-18.743c1.0034283-.61610678 2.0544323-1.15113903 3.143-1.6.3315369-.14383732.7148862-.09760176 1.002717.12093719.2878309.21853895.4353537.57537423.3858717.93336503-.049482.35799079-.2882688.66142982-.6245887.79369778-.9897628.40926762-1.9451515.8971613-2.857 1.459-.4673113.2613821-1.0575853.1082932-1.3389574-.3472616-.281372-.4555548-.1539864-1.05190412.2889574-1.3527384z"/><path id="Shape" d="m55 30h-28c-.5522847 0-1 .4477153-1 1v24c0 .5522847.4477153 1 1 1h28c.5522847 0 1-.4477153 1-1v-24c0-.5522847-.4477153-1-1-1zm-19.241 17.65-4.285 5c-.1899843.2218162-.4674444.3494927-.7595.3494927s-.5695157-.1276765-.7595-.3494927l-1.714-2c-.2485449-.2690133-.3301409-.6523779-.2126907-.9992902.1174502-.3469124.415153-.6018621.7760016-.66456.3608485-.0626979.7271025.0768884.9546891.3638502l.955 1.114 3.527-4.114c.2275866-.2869618.5938406-.4265481.9546891-.3638502.3608486.0626979.6585514.3176476.7760016.66456.1174502.3469123.0358542.7302769-.2126907.9992902zm0-7-4.285 5c-.1899843.2218162-.4674444.3494927-.7595.3494927s-.5695157-.1276765-.7595-.3494927l-1.714-2c-.2485449-.2690133-.3301409-.6523779-.2126907-.9992902.1174502-.3469124.415153-.6018621.7760016-.66456.3608485-.0626979.7271025.0768884.9546891.3638502l.955 1.114 3.527-4.114c.2275866-.2869618.5938406-.4265481.9546891-.3638502.3608486.0626979.6585514.3176476.7760016.66456.1174502.3469123.0358542.7302769-.2126907.9992902zm0-7-4.285 5c-.1899843.2218162-.4674444.3494927-.7595.3494927s-.5695157-.1276765-.7595-.3494927l-1.714-2c-.2485449-.2690133-.3301409-.6523779-.2126907-.9992902.1174502-.3469124.415153-.6018621.7760016-.66456.3608485-.0626979.7271025.0768884.9546891.3638502l.955 1.114 3.527-4.114c.2275866-.2869618.5938406-.4265481.9546891-.3638502.3608486.0626979.6585514.3176476.7760016.66456.1174502.3469123.0358542.7302769-.2126907.9992902zm2.241 17.35h-1c-.5522847 0-1-.4477153-1-1s.4477153-1 1-1h1c.5522847 0 1 .4477153 1 1s-.4477153 1-1 1zm0-7h-1c-.5522847 0-1-.4477153-1-1s.4477153-1 1-1h1c.5522847 0 1 .4477153 1 1s-.4477153 1-1 1zm0-7h-1c-.5522847 0-1-.4477153-1-1s.4477153-1 1-1h1c.5522847 0 1 .4477153 1 1s-.4477153 1-1 1zm5 14h-1c-.5522847 0-1-.4477153-1-1s.4477153-1 1-1h1c.5522847 0 1 .4477153 1 1s-.4477153 1-1 1zm0-7h-1c-.5522847 0-1-.4477153-1-1s.4477153-1 1-1h1c.5522847 0 1 .4477153 1 1s-.4477153 1-1 1zm0-7h-1c-.5522847 0-1-.4477153-1-1s.4477153-1 1-1h1c.5522847 0 1 .4477153 1 1s-.4477153 1-1 1zm5 14h-1c-.5522847 0-1-.4477153-1-1s.4477153-1 1-1h1c.5522847 0 1 .4477153 1 1s-.4477153 1-1 1zm0-7h-1c-.5522847 0-1-.4477153-1-1s.4477153-1 1-1h1c.5522847 0 1 .4477153 1 1s-.4477153 1-1 1zm0-7h-1c-.5522847 0-1-.4477153-1-1s.4477153-1 1-1h1c.5522847 0 1 .4477153 1 1s-.4477153 1-1 1zm5 14h-1c-.5522847 0-1-.4477153-1-1s.4477153-1 1-1h1c.5522847 0 1 .4477153 1 1s-.4477153 1-1 1zm0-7h-1c-.5522847 0-1-.4477153-1-1s.4477153-1 1-1h1c.5522847 0 1 .4477153 1 1s-.4477153 1-1 1zm0-7h-1c-.5522847 0-1-.4477153-1-1s.4477153-1 1-1h1c.5522847 0 1 .4477153 1 1s-.4477153 1-1 1z"/><path id="Shape" d="m34 28c-.0033074-3.3123376-2.6876624-5.9966926-6-6-.8879491-.0039423-1.7651329.1944072-2.565.58-.4938578.2219565-1.0746654.0105414-1.3102843-.4769459-.2356189-.4874874-.0404548-1.0739555.4402843-1.3230541 1.0709789-.5172831 2.2456466-.7840199 3.435-.78 4.4162219.0049599 7.9950401 3.5837781 8 8h2c.0050702-4.9957376-3.6775159-9.2288084-8.6258657-9.9152877-4.9483498-.6864792-9.6441859 2.3842622-10.9992408 7.1927179-1.3550549 4.8084556 1.0464362 9.8792712 5.6251065 11.8775698v-2.255c-2.4630721-1.4274478-3.9852632-4.0532274-4-6.9-.0044875-1.1897256.262269-2.3648223.78-3.436.2407962-.4970563.8389437-.7047962 1.336-.464s.7047962.8389437.464 1.336c-.3861126.79933-.5844937 1.6763114-.58 2.564.0058745 1.7034843.7324767 3.3248972 2 4.463v-1.463c0-1.6568542 1.3431458-3 3-3z"/></g></g></svg>