<svg height="512" viewBox="0 0 58 58" width="512" xmlns="http://www.w3.org/2000/svg"><g id="Page-1" fill="none" fill-rule="evenodd"><g id="046---Compass" fill="rgb(0,0,0)" fill-rule="nonzero"><path id="Shape" d="m29 0c-16.0162577 0-29 12.9837423-29 29s12.9837423 29 29 29 29-12.9837423 29-29-12.9837423-29-29-29zm-9.634 10.313 1 1.733c.1814844.3095704.1831833.6926495.0044519 1.0038174-.1787315.311168-.5104885.5027136-.8693336.5019247s-.6897567-.1937913-.8671183-.5057421l-1-1.733c-.2716903-.47786-.1067416-1.0854205.3693057-1.36027453.4760473-.27485408 1.0846885-.11393908 1.3626943.36027453zm9.634 7.687c.9255566.0034077 1.8469314.1243759 2.742.36l10.441-5.26c.7765757-.4406258 1.7528452-.300395 2.374.341.6524849.6410265.7806522 1.6456927.31 2.43l-5.227 10.387c.9907677 3.7678528-.0938968 7.7784144-2.8487412 10.5332588s-6.765406 3.8395089-10.5332588 2.8487412l-10.441 5.26c-.2887196.1690711-.6174205.2578065-.952.257-.5347779-.0036769-1.0462282-.2194787-1.422-.6-.6524849-.6410265-.7806522-1.6456927-.31-2.43l5.227-10.385c-.8658501-3.2929321-.1515153-6.8012567 1.9329775-9.4934654s5.3021863-4.2622611 8.7070225-4.2485346zm-1-8v-2c0-.55228475.4477153-1 1-1s1 .44771525 1 1v2c0 .5522847-.4477153 1-1 1s-1-.4477153-1-1zm17.954 27.634 1.733 1c.3119508.1773616.5049532.5082732.5057421.8671183s-.1907567.6906021-.5019247.8693336c-.3111679.1787314-.694247.1770325-1.0038174-.0044519l-1.733-1c-.3119508-.1773616-.5049532-.5082732-.5057421-.8671183s.1907567-.6906021.5019247-.8693336c.3111679-.1787314.694247-.1770325 1.0038174.0044519zm-5.954 10.419c-.4782803.2761293-1.0898496.1122682-1.366-.366l-1-1.733c-.1814844-.3095704-.1831833-.6926495-.0044519-1.0038174.1787315-.311168.5104885-.5027136.8693336-.5019247s.6897567.1937913.8671183.5057421l1 1.733c.2761293.4782803.1122682 1.0898496-.366 1.366zm-10-.053v2c0 .5522847-.4477153 1-1 1s-1-.4477153-1-1v-2c0-.5522847.4477153-1 1-1s1 .4477153 1 1zm-16.584-39.8c.9844984-.74097377 2.0204447-1.41099709 3.1-2.005.3133219-.17184476.6945214-.16348061 1.0000043.02194176s.4888391.51973289.481.87700002c-.007839.35726712-.2056824.68321348-.5190043.85505822-.9961997.54863268-1.9522617 1.16718242-2.861 1.851-.2121732.15912989-.4788704.2274568-.7414214.18994949-.2625509-.03750727-.4994487-.1777763-.6585786-.38994949-.3315892-.44156649-.2425003-1.06832267.199-1.4zm-.37 10.433c.3119508.1773616.5049532.5082732.5057421.8671183s-.1907567.6906021-.5019247.8693336c-.3111679.1787314-.694247.1770325-1.0038174-.0044519l-1.733-1c-.3119508-.1773616-.50495322-.5082732-.5057421-.8671183-.00078889-.3588451.19075673-.6906021.5019247-.8693336.3111679-.1787314.694247-.1770325 1.0038174.0044519zm15.954 36.367c-10.146459.0044963-19.36767775-5.8965613-23.61410113-15.1116868-4.24642337-9.2151256-2.7414112-20.0589392 3.85410113-27.7693132.35898509-.4197364.9902636-.4689851 1.41-.11s.4689851.9902636.11 1.41c-7.69252545 9.0407353-7.59073406 22.3553327.2391188 31.2773979 7.8298528 8.9220653 21.0185128 10.7518491 30.9815579 4.2983558s13.6857333-19.2374855 8.7449884-30.0309503c-4.9407449-10.79346485-17.0498908-16.33038164-28.4456651-13.0068034-.342975.10003437-.7132646.00949498-.9713844-.23751288-.2581198-.24700785-.3648552-.61295779-.28-.96000001s.3484094-.62245275.6913844-.72248711c9.7651898-2.84380839 20.2919634.26752027 26.942097 7.963097 6.6501337 7.6955767 8.2024186 18.5622109 3.9728993 27.8119323-4.2295193 9.2497213-13.4641476 15.1839412-23.6349963 15.1879707z"/><path id="Shape" d="m29 38c4.9705627 0 9-4.0294373 9-9s-4.0294373-9-9-9-9 4.0294373-9 9c.0055111 4.9682782 4.0317218 8.9944889 9 9zm0-13c2.209139 0 4 1.790861 4 4 0 .5522847-.4477153 1-1 1s-1-.4477153-1-1c0-1.1045695-.8954305-2-2-2s-2 .8954305-2 2c0 .5522847-.4477153 1-1 1s-1-.4477153-1-1c0-2.209139 1.790861-4 4-4z"/><path id="Shape" d="m38.663 23.749 4.448-8.832-8.853 4.424c1.8597359 1.0177445 3.3885218 2.5475716 4.405 4.408z"/><path id="Shape" d="m19.337 34.251-4.448 8.832 8.853-4.424c-1.8597359-1.0177445-3.3885218-2.5475716-4.405-4.408z"/></g></g></svg>