<svg height="512" viewBox="0 0 60 60" width="512" xmlns="http://www.w3.org/2000/svg"><g id="Page-1" fill="none" fill-rule="evenodd"><g id="047---Marker" fill="rgb(0,0,0)" fill-rule="nonzero"><path id="Shape" d="m3 58h-2c-.55228475 0-1 .4477153-1 1s.44771525 1 1 1h2c.55228475 0 1-.4477153 1-1s-.44771525-1-1-1z"/><path id="Shape" d="m59 58h-2c-.5522847 0-1 .4477153-1 1s.4477153 1 1 1h2c.5522847 0 1-.4477153 1-1s-.4477153-1-1-1z"/><path id="Shape" d="m53 58h-22.16c3.2746409-4.0137619 6.3323384-8.1997365 9.16-12.54 5-7.72 10-17.33 10-24.9-.1257743-10.92236657-9.077538-19.67719148-20-19.56-10.922462-.11719148-19.8742257 8.63763343-20 19.56 0 13.28 15.38 32.83 19.16 37.44h-22.16c-.55228475 0-1 .4477153-1 1s.44771525 1 1 1h46c.5522847 0 1-.4477153 1-1s-.4477153-1-1-1zm-38-37c0 .5522847-.4477153 1-1 1s-1-.4477153-1-1c-.0002783-1.0703893.1001645-2.1384302.3-3.19.0489957-.3681564.2979933-.6788324.6466451-.8068233.3486518-.127991.7395184-.0522107 1.0150779.1968008.2755595.2490114.3904143.6302302.298277.9900225-.1721407.926783-.2591697 1.8673662-.26 2.81zm2.01-7.5c-.1702629.3254784-.5052613.5314125-.8725499.5363839s-.7077381-.1918202-.886748-.5125711c-.1790098-.3207508-.1677615-.7138237.0292979-1.0238128 3.0450361-5.25034502 8.6505516-8.48722556 14.72-8.5.5522847 0 1 .44771525 1 1s-.4477153 1-1 1c-5.3569717.00712786-10.305459 2.86422215-12.99 7.5zm3.99 7.5c0-4.9705627 4.0294373-9 9-9s9 4.0294373 9 9-4.0294373 9-9 9-9-4.0294373-9-9z"/><path id="Shape" d="m6 4c.55228475 0 1-.44771525 1-1v-2c0-.55228475-.44771525-1-1-1s-1 .44771525-1 1v2c0 .55228475.44771525 1 1 1z"/><path id="Shape" d="m7 11v-2c0-.55228475-.44771525-1-1-1s-1 .44771525-1 1v2c0 .5522847.44771525 1 1 1s1-.4477153 1-1z"/><path id="Shape" d="m3 5h-2c-.55228475 0-1 .44771525-1 1s.44771525 1 1 1h2c.55228475 0 1-.44771525 1-1s-.44771525-1-1-1z"/><path id="Shape" d="m9 7h2c.5522847 0 1-.44771525 1-1s-.4477153-1-1-1h-2c-.55228475 0-1 .44771525-1 1s.44771525 1 1 1z"/><path id="Shape" d="m50 44c0 .5522847.4477153 1 1 1s1-.4477153 1-1v-2c0-.5522847-.4477153-1-1-1s-1 .4477153-1 1z"/><path id="Shape" d="m51 49c-.5522847 0-1 .4477153-1 1v2c0 .5522847.4477153 1 1 1s1-.4477153 1-1v-2c0-.5522847-.4477153-1-1-1z"/><path id="Shape" d="m46 46c-.5522847 0-1 .4477153-1 1s.4477153 1 1 1h2c.5522847 0 1-.4477153 1-1s-.4477153-1-1-1z"/><path id="Shape" d="m57 47c0-.5522847-.4477153-1-1-1h-2c-.5522847 0-1 .4477153-1 1s.4477153 1 1 1h2c.5522847 0 1-.4477153 1-1z"/></g></g></svg>