<svg height="512" viewBox="0 0 58 44" width="512" xmlns="http://www.w3.org/2000/svg"><g id="Page-1" fill="none" fill-rule="evenodd"><g id="048---Volume" fill="rgb(0,0,0)" fill-rule="nonzero"><path id="Shape" d="m0 17v10c0 .5522847.44771525 1 1 1h1v-12h-1c-.55228475 0-1 .4477153-1 1z"/><path id="Shape" d="m34.441 3.165c-.3406422-.17396688-.7515073-.13291946-1.051.105l-9.39 7.222v13.508c0 .5522847-.4477153 1-1 1s-1-.4477153-1-1v-13h-15c-1.65685425 0-3 1.3431458-3 3v16c0 1.6568542 1.34314575 3 3 3h15v-2c0-.5522847.4477153-1 1-1s1 .4477153 1 1v2.508l9.39 7.222c.3018755.2323874.7095675.2730652 1.051408.1049052.3418405-.1681601.5584391-.5159423.558592-.8969052v-35.876c.0046845-.38246867-.2135824-.73271095-.559-.897zm-25.441 9.835h4c.5522847 0 1 .4477153 1 1s-.4477153 1-1 1h-4c-.55228475 0-1-.4477153-1-1s.44771525-1 1-1zm1 18h-2c-1.1045695 0-2-.8954305-2-2v-2c0-.5522847.44771525-1 1-1s1 .4477153 1 1v2h2c.5522847 0 1 .4477153 1 1s-.4477153 1-1 1zm5 0h-1c-.5522847 0-1-.4477153-1-1s.4477153-1 1-1h1c.5522847 0 1 .4477153 1 1s-.4477153 1-1 1zm4-16h-2c-.5522847 0-1-.4477153-1-1s.4477153-1 1-1h2c.5522847 0 1 .4477153 1 1s-.4477153 1-1 1zm14 9c0 .5522847-.4477153 1-1 1s-1-.4477153-1-1v-10c0-.5522847.4477153-1 1-1s1 .4477153 1 1zm0-14c0 .5522847-.4477153 1-1 1s-1-.4477153-1-1v-2c0-.55228475.4477153-1 1-1s1 .44771525 1 1z"/><path id="Shape" d="m46.741 44c-.4239829.0003121-.8020774-.2667783-.9434814-.6664863-.141404-.3997081-.0153775-.8451404.3144814-1.1115137 6.141094-4.8750031 9.7699573-12.2488757 9.8862141-20.0888486s-3.2923686-15.31820262-9.2862141-20.3731514c-.2715218-.23222263-.3985291-.59166038-.3331793-.94291651.0653498-.35125614.3131284-.6409665.65-.76s.7116575-.04930612.9831793.18291651c6.4453203 5.44151007 10.1102269 13.4869678 9.9856638 21.9212235s-4.0254614 16.3679762-10.6286638 21.6167765c-.1774904.1441678-.3993368.2225912-.628.222z"/><path id="Shape" d="m44.27 38c-.4106603-.000155-.7794799-.2513581-.9300143-.6334331-.1505345-.382075-.0521784-.8173416.2480143-1.0975669 3.9867723-3.6438596 6.303923-8.763857 6.4101514-14.1639293.1062285-5.4000724-2.0077696-10.6072379-5.8481514-14.4050707-.2834965-.24644875-.4049658-.63098544-.3144847-.99556798.0904811-.36458255.3776482-.647705.7434774-.73300587s.7486044.0416103.9910073.32857385c4.2204011 4.1816204 6.5427865 9.9100899 6.4258187 15.850128-.1169678 5.9400382-2.6630689 11.5726402-7.0448187 15.584872-.1850646.1716826-.4285683.266438-.681.265z"/><path id="Shape" d="m41.969 32c-.3787721 0-.7250352-.2140024-.8944272-.5527864s-.132836-.744196.0944272-1.0472136c3.7721474-4.9625456 3.7721474-11.8314544 0-16.794-.3330277-.4418278-.2448278-1.0699723.197-1.403s1.0699723-.2448278 1.403.197c4.3080863 5.6772418 4.3080863 13.5287582 0 19.206-.1907113.2488077-.4865102.3944887-.8.394z"/></g></g></svg>