<svg height="512" viewBox="0 0 58 44" width="512" xmlns="http://www.w3.org/2000/svg"><g id="Page-1" fill="none" fill-rule="evenodd"><g id="049---Volume" fill="rgb(0,0,0)" fill-rule="nonzero"><path id="Shape" d="m0 17v10c0 .5522847.44771525 1 1 1h1v-12h-1c-.55228475 0-1 .4477153-1 1z"/><path id="Shape" d="m34.441 3.165c-.3406422-.17396688-.7515073-.13291946-1.051.105l-9.39 7.222v13.508c0 .5522847-.4477153 1-1 1s-1-.4477153-1-1v-13h-15c-1.65685425 0-3 1.3431458-3 3v16c0 1.6568542 1.34314575 3 3 3h15v-2c0-.5522847.4477153-1 1-1s1 .4477153 1 1v2.508l9.39 7.222c.3018755.2323874.7095675.2730652 1.051408.1049052.3418405-.1681601.5584391-.5159423.558592-.8969052v-35.876c.0046845-.38246867-.2135824-.73271095-.559-.897zm-25.441 9.835h4c.5522847 0 1 .4477153 1 1s-.4477153 1-1 1h-4c-.55228475 0-1-.4477153-1-1s.44771525-1 1-1zm1 18h-2c-1.1045695 0-2-.8954305-2-2v-2c0-.5522847.44771525-1 1-1s1 .4477153 1 1v2h2c.5522847 0 1 .4477153 1 1s-.4477153 1-1 1zm5 0h-1c-.5522847 0-1-.4477153-1-1s.4477153-1 1-1h1c.5522847 0 1 .4477153 1 1s-.4477153 1-1 1zm4-16h-2c-.5522847 0-1-.4477153-1-1s.4477153-1 1-1h2c.5522847 0 1 .4477153 1 1s-.4477153 1-1 1zm14 9c0 .5522847-.4477153 1-1 1s-1-.4477153-1-1v-10c0-.5522847.4477153-1 1-1s1 .4477153 1 1zm0-14c0 .5522847-.4477153 1-1 1s-1-.4477153-1-1v-2c0-.55228475.4477153-1 1-1s1 .44771525 1 1z"/><path id="Shape" d="m47.432 2.4c.4060779.37349138 1.0379218.34753745 1.412-.058.3732315-.40634781.3468296-1.03820503-.059-1.412-.253-.235-.512-.463-.774-.687-.4212323-.33407529-1.0312217-.27530784-1.3809275.13304098-.3497059.40834881-.3139582 1.02011905.0809275 1.38495902.2426667.20866667.483.42166667.721.639z"/><path id="Shape" d="m53.275 35.468c-.4640673-.2974116-1.0812901-.1632328-1.38.3-.348.544-.716 1.077-1.1 1.584-.2143594.2858125-.2599564.6642734-.1196152.9928203.1403411.3285469.4452994.5572656.8.6.3547005.0427344.7052558-.1070078.9196152-.3928203.409-.547.8-1.12 1.179-1.705.2969202-.4636041.1632695-1.0800063-.299-1.379z"/><path id="Shape" d="m55.23 15.444c.1117558.4441726.5109841.7556449.969.756.0825722-.0001721.1648259-.010244.245-.03.2572913-.0646611.4783446-.2289097.6145052-.4565941.1361605-.2276844.176268-.5001428.1114948-.7574059-.169-.671-.363-1.341-.577-1.989-.1731413-.5246705-.7388295-.8096413-1.2635-.6365s-.8096413.7388295-.6365 1.2635c.2.606.38 1.225.537 1.85z"/><path id="Shape" d="m52.877 5.588c-.2054277-.29242189-.551256-.45303647-.9072146-.42134179-.3559586.03169467-.6679691.25088344-.8185.575s-.1167131.7039199.0887146.99634179c.37.528.724 1.071 1.049 1.616.1836345.30671251.516949.49215871.8743871.48648281.357438-.0056759.6846964-.20161159.8585-.514.1738035-.31238841.1677474-.6937703-.0158871-1.00048281-.351-.586-.731-1.171-1.129-1.738z"/><path id="Shape" d="m56.269 28.077c-.2555394-.0716094-.5290635-.0387059-.7603299.0914635-.2312665.1301695-.4013067.3469283-.4726701.6025365-.174.618-.371 1.234-.589 1.83-.1853929.5178396.0822188 1.0881909.5989767 1.2765779.5167578.188387 1.0886485-.0759191 1.2800233-.5915779.235-.644.448-1.308.636-1.976.0716458-.2554044.0388793-.5288104-.0910888-.7600523-.129968-.2312419-.3464876-.4013706-.6019112-.4729477z"/><path id="Shape" d="m57.993 21.108c-.0135667-.5424976-.4573329-.9751696-1-.975h-.024c-.2652417.0062894-.5171121.1177272-.7001637.3097814-.1830517.1920543-.2822784.4489805-.2758363.7142186 0 .194.007.389.007.583 0 .4493333-.0116667.8956667-.035 1.339-.0141655.2649785.0775674.5247225.2549989.7220352.1774314.1973128.4260112.3160139.6910011.3299648h.054c.532232.000748.9717922-.4155154 1-.947.0233333-.478.035-.9593333.035-1.444 0-.21-.0023333-.4206667-.007-.632z"/><path id="Shape" d="m46.85 41.6c-.242.21-.487.417-.737.617-.2805578.2232937-.4200877.5797093-.365694.9341301.0543936.3544208.294384.6525907.6289911.7814739.3346071.1288831.7126079.0687496.9907029-.157604.27-.2173333.5366667-.4396667.8-.667.4164227-.3636795.4591795-.9960773.0955-1.4125s-.9960773-.4591795-1.4125-.0955z"/><path id="Shape" d="m52 21.71c-.0109013-5.7869327-2.3244759-11.3315959-6.43-15.41-.2424029-.28696355-.6251781-.41387472-.9910073-.32857385s-.6529963.36842332-.7434774.73300587c-.0904811.36458254.0309882.74911923.3144847.99556798 3.8390955 3.7976997 5.9522721 9.003982 5.8460486 14.4030462-.1062235 5.3990641-2.4225467 10.5181986-6.4080486 14.1619538-.2758174.2398527-.3987963.6110822-.3207295.9681678.0780669.3570856.3447402.6431284.6954849.7460007.3507448.1028722.7296724.006182.9882446-.2521685 4.4924679-4.113794 7.0501992-9.9255661 7.049-16.017z"/><path id="Shape" d="m42.769 12.4c-.3330277-.4418278-.9611722-.5300277-1.403-.197s-.5300277.9611722-.197 1.403c3.7721474 4.9625456 3.7721474 11.8314544 0 16.794-.2154312.2858125-.2620186.6648452-.1222133.9943203s.4447635.5593374.8.603c.3552364.0436626.7067821-.1055078.9222133-.3913203 4.3080863-5.6772418 4.3080863-13.5287582 0-19.206z"/></g></g></svg>