<svg height="512" viewBox="0 0 58 44" width="512" xmlns="http://www.w3.org/2000/svg"><g id="Page-1" fill="none" fill-rule="evenodd"><g id="050---Volume" fill="rgb(0,0,0)" fill-rule="nonzero"><path id="Shape" d="m34.441 3.165c-.3406422-.17396688-.7515073-.13291946-1.051.105l-9.39 7.222v13.508c0 .5522847-.4477153 1-1 1s-1-.4477153-1-1v-13h-15c-1.65685425 0-3 1.3431458-3 3v16c0 1.6568542 1.34314575 3 3 3h15v-2c0-.5522847.4477153-1 1-1s1 .4477153 1 1v2.508l9.39 7.222c.3018755.2323874.7095675.2730652 1.051408.1049052.3418405-.1681601.5584391-.5159423.558592-.8969052v-35.876c.0046845-.38246867-.2135824-.73271095-.559-.897zm-25.441 9.835h4c.5522847 0 1 .4477153 1 1s-.4477153 1-1 1h-4c-.55228475 0-1-.4477153-1-1s.44771525-1 1-1zm1 18h-2c-1.1045695 0-2-.8954305-2-2v-2c0-.5522847.44771525-1 1-1s1 .4477153 1 1v2h2c.5522847 0 1 .4477153 1 1s-.4477153 1-1 1zm5 0h-1c-.5522847 0-1-.4477153-1-1s.4477153-1 1-1h1c.5522847 0 1 .4477153 1 1s-.4477153 1-1 1zm4-16h-2c-.5522847 0-1-.4477153-1-1s.4477153-1 1-1h2c.5522847 0 1 .4477153 1 1s-.4477153 1-1 1zm14 9c0 .5522847-.4477153 1-1 1s-1-.4477153-1-1v-10c0-.5522847.4477153-1 1-1s1 .4477153 1 1zm0-14c0 .5522847-.4477153 1-1 1s-1-.4477153-1-1v-2c0-.55228475.4477153-1 1-1s1 .44771525 1 1z"/><path id="Shape" d="m0 17v10c0 .5522847.44771525 1 1 1h1v-12h-1c-.55228475 0-1 .4477153-1 1z"/><path id="Shape" d="m48.108 2.663c-.2508005.00066895-.4924691-.09406797-.676-.265-.238-.216-.4786667-.429-.722-.639-.3948857-.36483997-.4306334-.97661021-.0809275-1.38495902.3497058-.40834882.9596952-.46711627 1.3809275-.13304098.262.224.521.452.774.687.3025321.27909757.4031474.71505871.2535244 1.09850896-.1496229.38345025-.5189167.63605206-.9305244.63649104z"/><path id="Shape" d="m51.6 38.955c-.3787721 0-.7250352-.2140024-.8944272-.5527864s-.132836-.744196.0944272-1.0472136c.379-.507.747-1.04 1.1-1.584.3010496-.4562408.912654-.5862179 1.3732247-.2918353s.5994287.9040321.3117753 1.3688353c-.374.585-.77 1.158-1.179 1.705-.1896968.2542562-.4887792.4034264-.806.402zm3.787-7.012c-.3263138.0000979-.632151-.1590213-.8193599-.4262919-.1872089-.2672705-.2322394-.609071-.1206401-.9157081.218-.6.415-1.212.589-1.83.0960405-.3443288.3685784-.6112042.7148475-.6999951.3462691-.088791.7135996.0140081.9634818.2696348.2498823.2556267.3443075.6251983.2476707.9693603-.188.668-.4 1.332-.636 1.976-.1440234.3944207-.5191067.6568592-.939.657zm1.578-7.811h-.054c-.2649899-.0139509-.5135697-.132652-.6910011-.3299648-.1774315-.1973127-.2691644-.4570567-.2549989-.7220352.0233333-.444.035-.8906667.035-1.34 0-.194 0-.389-.007-.583-.0064421-.2652381.0927846-.5221643.2758363-.7142186.1830516-.1920542.434922-.303492.7001637-.3097814.2669666-.013434.5277408.0833272.7213285.2676514.1935877.1843243.3030093.4400445.3026715.7073486.0046667.2106667.007.4213333.007.632 0 .4853333-.0123333.967-.037 1.445-.0281673.5307126-.4665406.946684-.998.947zm-.765-7.932c-.4580159-.0003551-.8572442-.3118274-.969-.756-.157-.625-.337-1.248-.536-1.85-.1731413-.5246705.1118295-1.0903587.6365-1.2635s1.0903587.1118295 1.2635.6365c.214.648.408 1.318.577 1.989.0647732.2572631.0246657.5297215-.1114948.7574059-.1361606.2276844-.3572139.391933-.6145052.4565941-.080499.0198355-.1630932.029908-.246.03zm-3.051-7.36c-.3519001.00042558-.6781235-.18414315-.859-.486-.325-.545-.679-1.088-1.049-1.616-.2054277-.29242189-.2392455-.67222523-.0887146-.99634179s.4625414-.54330533.8185-.575c.3559586-.03169468.7017869.1289199.9072146.42134179.4.567.778 1.152 1.129 1.738.185146.30898132.1898122.69366015.0122156 1.00704159-.1775966.31338145-.5100094.50703399-.8702156.50695841z"/><path id="Shape" d="m46.741 44c-.4243195.0004144-.8027018-.2670029-.9439474-.667124-.1412457-.400121-.0145978-.8458177.3159474-1.111876.25-.2.495-.407.737-.617.4164227-.3628511 1.0481489-.3194227 1.411.097.362851.4164227.3194227 1.0481489-.097 1.411-.2613333.228-.528.4503333-.8.667-.1762929.1427263-.3961743.2207259-.623.221z"/><path id="Shape" d="m44.27 38c-.4106603-.000155-.7794799-.2513581-.9300143-.6334331-.1505345-.382075-.0521784-.8173416.2480143-1.0975669.36-.3366667.7076667-.6843333 1.043-1.043.3792379-.3898472 1.0005129-.4051227 1.3984516-.0343842s.4266149.9915393.0645484 1.3973842c-.366.3933333-.747.774-1.143 1.142-.1844472.1731394-.4280219.2693532-.681.269zm4.515-5.995c-.1564528.0002863-.3107188-.0367376-.45-.108-.4924262-.2492624-.6898019-.850341-.441-1.343.286-.567.546-1.151.775-1.737.121908-.3434325.4209913-.5933558.7806188-.6523093.3596275-.0589536.7228522.082398.9480304.3689329s.2766528.6728803.1343508 1.0083764c-.251.646-.538 1.29-.853 1.914-.1703773.3371758-.5162228.5495574-.894.549zm2.152-7.653h-.081c-.2646212-.0209135-.5100698-.1461798-.6822633-.3481976-.1721934-.2020178-.2570012-.4642092-.2357367-.7288024.041-.514.062-1.036.062-1.562v-.341c-.0089106-.5519287.4310779-1.0066879.983-1.016h.017c.5457134-.0000789.9907229.4373655 1 .983v.366c0 .585-.022 1.164-.067 1.729-.0426603.5184967-.4757513.917671-.996.918zm-.912-7.9c-.4343834-.0000137-.8190787-.2804533-.952-.694-.193-.6-.418-1.2-.668-1.781-.1412986-.3283271-.0967034-.7070957.1169869-.9936274s.5640112-.4372954.919-.3955c.3549889.0417954.6607146.2698003.8020131.5981274.275.638.522 1.3.735 1.96.081105.2526176.0584953.5271117-.0628516.7630537-.121347.2359419-.3314832.4139895-.5841484.4949463-.0988635.0321323-.2020507.0489929-.306.05zm-3.825-6.971c-.2991405.00039195-.5827467-.13315612-.773-.364-.4-.483-.828-.959-1.279-1.412-.2591473-.25183039-.362276-.62387947-.269759-.97318804.092517-.34930856.3662863-.6215334.7161127-.71207261.3498264-.0905392.7212861.01469274.9716463.27526065.495.5.968 1.019 1.406 1.551.2455602.29873726.296867.71228089.1317544 1.06196875-.1651125.34968786-.5170456.57283324-.9037544.57303125z"/><path id="Shape" d="m41.969 32c-.3787721 0-.7250352-.2140024-.8944272-.5527864s-.132836-.744196.0944272-1.0472136c3.7721474-4.9625456 3.7721474-11.8314544 0-16.794-.3330277-.4418278-.2448278-1.0699723.197-1.403s1.0699723-.2448278 1.403.197c4.3080863 5.6772418 4.3080863 13.5287582 0 19.206-.1907113.2488077-.4865102.3944887-.8.394z"/></g></g></svg>