<svg height="512" viewBox="0 0 58 38" width="512" xmlns="http://www.w3.org/2000/svg"><g id="Page-1" fill="none" fill-rule="evenodd"><g id="051---Mute" fill="rgb(0,0,0)" fill-rule="nonzero"><path id="Shape" d="m0 14v10c0 .5522847.44771525 1 1 1h1v-12h-1c-.55228475 0-1 .4477153-1 1z"/><path id="Shape" d="m34.442.165c-.3406907-.17370894-.7514086-.13267623-1.051.105l-9.391 7.223v13.507c0 .5522847-.4477153 1-1 1s-1-.4477153-1-1v-13h-15c-1.65685425 0-3 1.34314575-3 3v16c0 1.6568542 1.34314575 3 3 3h15v-2c0-.5522847.4477153-1 1-1s1 .4477153 1 1v2.507l9.391 7.223c.3018781.2317839.7091585.2721108 1.0506295.1040282.3414709-.1680827.5579253-.5154313.5583705-.8960282v-35.876c.0051173-.38230917-.2127986-.73261486-.558-.897zm-25.442 9.835h4c.5522847 0 1 .4477153 1 1s-.4477153 1-1 1h-4c-.55228475 0-1-.4477153-1-1s.44771525-1 1-1zm1 18h-2c-1.1045695 0-2-.8954305-2-2v-2c0-.5522847.44771525-1 1-1s1 .4477153 1 1v2h2c.5522847 0 1 .4477153 1 1s-.4477153 1-1 1zm5 0h-1c-.5522847 0-1-.4477153-1-1s.4477153-1 1-1h1c.5522847 0 1 .4477153 1 1s-.4477153 1-1 1zm4-16h-2c-.5522847 0-1-.4477153-1-1s.4477153-1 1-1h2c.5522847 0 1 .4477153 1 1s-.4477153 1-1 1zm14 9c0 .5522847-.4477153 1-1 1s-1-.4477153-1-1v-10c0-.5522847.4477153-1 1-1s1 .4477153 1 1zm0-14c0 .55228475-.4477153 1-1 1s-1-.44771525-1-1v-2c0-.55228475.4477153-1 1-1s1 .44771525 1 1z"/><path id="Shape" d="m50.875 19 6.852-7.255c.3700021-.4027747.3477857-1.0280789-.0498677-1.4035797-.3976534-.37550076-1.0232038-.3618773-1.4041323.0305797l-6.773 7.172-6.773-7.172c-.3809285-.392457-1.0064789-.40608046-1.4041323-.0305797-.3976534.3755008-.4198698 1.000805-.0498677 1.4035797l6.852 7.255-6.852 7.255c-.3700021.4027747-.3477857 1.0280789.0498677 1.4035797s1.0232038.3618773 1.4041323-.0305797l6.773-7.172 6.773 7.172c.3809285.392457 1.0064789.4060805 1.4041323.0305797s.4198698-1.000805.0498677-1.4035797z"/></g></g></svg>