<svg height="512" viewBox="0 0 56 54" width="512" xmlns="http://www.w3.org/2000/svg"><g id="Page-1" fill="none" fill-rule="evenodd"><g id="052---Volume-Level" fill="rgb(0,0,0)" fill-rule="nonzero" transform="translate(-1)"><path id="Shape" d="m43 13.09v11.82c2.8857455-.4853307 4.9990438-2.9837271 4.9990438-5.91s-2.1132983-5.4246693-4.9990438-5.91z"/><path id="Shape" d="m5 14v10c0 .5522847.44771525 1 1 1h2v-12h-2c-.55228475 0-1 .4477153-1 1z"/><path id="Shape" d="m40.441.106c-.3405744-.17250869-.7503298-.13153315-1.05.105l-9.391 7.224v13.507c0 .5522847-.4477153 1-1 1s-1-.4477153-1-1v-13h-15c-1.6568542 0-3 1.34314575-3 3v16c0 1.6568542 1.3431458 3 3 3h15v-2c0-.5522847.4477153-1 1-1s1 .4477153 1 1v2.508l9.391 7.223c.3020211.2318933.7095292.2721397 1.0510775.1038067.3415483-.1683331.5578577-.5160295.5579225-.8968067v-35.88c.0030129-.38124819-.2149187-.72978276-.559-.894zm-25.441 9.836h4c.5522847 0 1 .4477153 1 1s-.4477153 1-1 1h-4c-.5522847 0-1-.4477153-1-1s.4477153-1 1-1zm1 18h-2c-1.1045695 0-2-.8954305-2-2v-2c0-.5522847.4477153-1 1-1s1 .4477153 1 1v2h2c.5522847 0 1 .4477153 1 1s-.4477153 1-1 1zm5 0h-1c-.5522847 0-1-.4477153-1-1s.4477153-1 1-1h1c.5522847 0 1 .4477153 1 1s-.4477153 1-1 1zm4-16h-2c-.5522847 0-1-.4477153-1-1s.4477153-1 1-1h2c.5522847 0 1 .4477153 1 1s-.4477153 1-1 1zm14 9c0 .5522847-.4477153 1-1 1s-1-.4477153-1-1v-10c0-.5522847.4477153-1 1-1s1 .4477153 1 1zm0-14c0 .55228475-.4477153 1-1 1s-1-.44771525-1-1v-2c0-.55228475.4477153-1 1-1s1 .44771525 1 1z"/><path id="Shape" d="m55 47h-19.29c.386641 1.3053037.386641 2.6946963 0 4h19.29c1.1011688-.0081672 1.9918328-.8988312 2-2-.0032948-1.1032019-.8967981-1.9967052-2-2zm-26-3c-2.7614237 0-5 2.2385763-5 5s2.2385763 5 5 5 5-2.2385763 5-5-2.2385763-5-5-5zm0 8c-1.6568542 0-3-1.3431458-3-3s1.3431458-3 3-3 3 1.3431458 3 3c-.0049422 1.6548028-1.3451972 2.9950578-3 3zm0-4c-.5522847 0-1 .4477153-1 1s.4477153 1 1 1 1-.4477153 1-1-.4477153-1-1-1zm0-4c-2.7614237 0-5 2.2385763-5 5s2.2385763 5 5 5 5-2.2385763 5-5-2.2385763-5-5-5zm0 8c-1.6568542 0-3-1.3431458-3-3s1.3431458-3 3-3 3 1.3431458 3 3c-.0049422 1.6548028-1.3451972 2.9950578-3 3zm-7-3c.0010618-.621727.0851381-1.2405285.25-1.84l-3.84 3.84h3.88c-.1893328-.6499087-.2869428-1.3230813-.29-2zm-19-2c-.75667658-.0032355-1.44985177.4225266-1.78909877 1.0989003s-.26598186 1.4865573.18909877 2.0910997l3.19-3.1900183zm4.41 0-4 4h2.18l4-4zm5 0-4 4h2.18l4-4zm5 0-4 4h2.18l4-4z"/></g></g></svg>