<svg height="512" viewBox="0 0 40 58" width="512" xmlns="http://www.w3.org/2000/svg"><g id="Page-1" fill="none" fill-rule="evenodd"><g id="053---Ear" fill="rgb(0,0,0)" fill-rule="nonzero" transform="translate(0 -1)"><path id="Shape" d="m39.972 19.923c-.573481-10.82818253-9.6712666-19.22704493-20.510691-18.93498899-10.83942434.29205594-19.47174289 9.16863579-19.461309 20.01198899v28c0 5.5228475 4.4771525 10 10 10s10-4.4771525 10-10c.0395207-4.1434658 2.7006749-7.8066174 6.629-9.125 8.385763-2.9485219 13.8209418-11.0758312 13.343-19.952zm-23.265 21.784c-.3904999.3903819-1.0235001.3903819-1.414 0-3.5-3.5-8.924-1.776-8.979-1.758-.33940231.1125387-.71306164.0354597-.98022413-.202202-.2671625-.2376617-.38723982-.5997996-.315-.95.07223981-.3502004.32582182-.6352593.66522413-.747798.269-.09 6.637-2.146 11.023 2.241.1883901.1876485.2942892.4426.2942892.7085s-.1058991.5208515-.2942892.7085zm.4-24.634c-.6207147.0605144-1.2362925.16545-1.842.314-.085131.0228513-.1728562.0346152-.261.035-.501298.0003766-.925411-.3704729-.9919129-.8673404-.0665018-.4968676.24516-.9661947.7289129-1.0976596.7097096-.178151 1.431709-.3031638 2.16-.374.5495233-.0568853 1.0411146.3424767 1.098.892.0568853.5495233-.3424767 1.0411147-.892 1.098zm8.893 7.349c-.5522847 0-1-.4477153-1-1 0-3.1-1.1-5.027-3.361-5.9-.5152817-.1993748-.7713748-.7787183-.572-1.294s.7787183-.7713748 1.294-.572c2.116.817 4.639 2.829 4.639 7.766 0 .5522847-.4477153 1-1 1zm7-2.422c-.5522847 0-1-.4477153-1-1-.0071648-6.624447-5.375553-11.99283515-12-12-3.5041603-.00615137-6.8351904 1.5228572-9.1150216 4.1839748-2.27983124 2.6611177-3.27967816 6.1872961-2.7359784 9.6490252.23568237 1.5949428.83476869 3.1143844 1.751 4.441.4981782.6898807 1.0466728 1.3419909 1.641 1.951.7174689.7321647 1.3705487 1.52476 1.952 2.369.6670889.9814027 1.1308754 2.0864658 1.364 3.25.099771.5421851-.2580713 1.0628457-.8 1.164-.0600032.0112304-.1209577.016589-.182.016-.4819164-.0007148-.8947736-.3450427-.982-.819-.1859692-.9019041-.5500815-1.757619-1.071-2.517-.5209238-.748042-1.1043476-1.4505592-1.744-2.1-.66525568-.6821077-1.27800114-1.4135245-1.833-2.188-1.08596696-1.5771526-1.79551102-3.3824872-2.074-5.277-.82093031-5.2059991 1.3513871-10.4319198 5.6208213-13.52194955 4.2694343-3.0900298 9.912473-3.52052214 14.601233-1.11388902 4.6887599 2.40663307 7.6286685 7.24255577 7.6069457 12.51283857 0 .5522847-.4477153 1-1 1z"/></g></g></svg>