<svg height="512" viewBox="0 0 44 56" width="512" xmlns="http://www.w3.org/2000/svg"><g id="Page-1" fill="none" fill-rule="evenodd"><g id="054---Ear-Error" fill="rgb(0,0,0)" fill-rule="nonzero"><path id="Shape" d="m31 28c1.4772221-.0000756 2.946259.2193195 4.359.651 1.9089927-3.2224895 2.8184061-6.9391471 2.613-10.679-.5954876-9.65261718-8.2913496-17.34805031-17.944-17.943-5.2097102-.28228623-10.30627332 1.59015552-14.0940976 5.17807315s-5.93358126 8.57557445-5.9339024 13.79292685v28c.00077713 3.6395631 2.1935475 6.9204065 5.55610898 8.3131018 3.36256147 1.3926954 7.23294272.6230694 9.80689102-1.9501018 1.0312761-1.0356722 1.7913632-2.3095824 2.213-3.709-2.319098-4.6450093-2.0655446-10.1600175.6699796-14.5726397 2.7355241-4.4126222 7.5622768-7.0925595 12.7540204-7.0813603zm-6-5.578c-.5522847 0-1-.4477153-1-1 0-3.1-1.1-5.027-3.361-5.9-.5152817-.1993748-.7713748-.7787183-.572-1.294s.7787183-.7713748 1.294-.572c2.116.817 4.639 2.829 4.639 7.766 0 .5522847-.4477153 1-1 1zm-18.276-10.164c2.49323987-4.4467977 7.1781038-7.21665292 12.276-7.258 7.7285595.00826732 13.9917327 6.2714405 14 14 0 .5522847-.4477153 1-1 1s-1-.4477153-1-1c-.0071648-6.624447-5.375553-11.99283515-12-12-3.5041603-.00615137-6.8351904 1.52285718-9.11502163 4.1839748-2.27983121 2.6611177-3.27967813 6.1872961-2.73597837 9.6490252.23568237 1.5949428.83476869 3.1143844 1.751 4.441.49817822.6898807 1.04667279 1.3419909 1.641 1.951.7174689.7321647 1.3705487 1.52476 1.952 2.369.6670889.9814027 1.1308754 2.0864658 1.364 3.25.099771.5421851-.2580713 1.0628457-.8 1.164-.0600032.0112304-.1209577.016589-.182.016-.4819164-.0007148-.8947736-.3450427-.982-.819-.1859692-.9019041-.5500815-1.757619-1.071-2.517-.5209238-.748042-1.10434763-1.4505592-1.744-2.1-.66525568-.6821077-1.27800114-1.4135245-1.833-2.188-1.08596696-1.5771526-1.79551102-3.3824872-2.074-5.277-.46077848-3.0452639.08447159-6.1577184 1.553-8.865zm7.351 25.868c-.1292298.2317326-.3452568.4026072-.6005196.4750036-.2552627.0723963-.528833.0403788-.7604804-.0890036-3.359-1.875-7.358-.577-7.4-.564-.33940231.1128959-.71325225.0361471-.98072416-.201336-.2674719-.237483-.38793042-.599621-.316-.95s.32532184-.6357681.66472416-.748664c.2-.067 4.886-1.588 9.006.714.2327121.1290636.4043856.3455573.4770194.6015586s.0402369.5303948-.0900194.7624414zm.186-22.739c-.085131.0228513-.1728562.0346152-.261.035-.501298.0003766-.925411-.3704729-.9919129-.8673404-.0665018-.4968676.24516-.9661947.7289129-1.0976596.7097096-.178151 1.431709-.3031638 2.16-.374.5495233-.0568853 1.0411146.3424767 1.098.892.0568853.5495233-.3424767 1.0411147-.892 1.098-.6207147.0605144-1.2362925.16545-1.842.314z"/><path id="Shape" d="m31 30c-7.1797017 0-13 5.8202983-13 13s5.8202983 13 13 13 13-5.8202983 13-13c-.008266-7.1762751-5.8237249-12.991734-13-13zm4.707 16.293c.2599566.2510745.3642126.6228779.2726972.9725073-.0915155.3496295-.3645604.6226744-.7141899.7141899-.3496294.0915154-.7214328-.0127406-.9725073-.2726972l-3.293-3.293-3.293 3.293c-.3923789.3789722-1.0160848.3735524-1.4018186-.0121814s-.3911536-1.0094397-.0121814-1.4018186l3.293-3.293-3.293-3.293c-.3789722-.3923789-.3735524-1.0160848.0121814-1.4018186s1.0094397-.3911536 1.4018186-.0121814l3.293 3.293 3.293-3.293c.3923789-.3789722 1.0160848-.3735524 1.4018186.0121814s.3911536 1.0094397.0121814 1.4018186l-3.293 3.293z"/></g></g></svg>