<svg height="512" viewBox="0 0 60 58" width="512" xmlns="http://www.w3.org/2000/svg"><g id="Page-1" fill="none" fill-rule="evenodd"><g id="055---Ear-Sound" fill="rgb(0,0,0)" fill-rule="nonzero" transform="translate(-1 -1)"><path id="Shape" d="m60.972 19.923c-.573481-10.82818253-9.6712666-19.22704493-20.510691-18.93498899-10.8394243.29205594-19.4717429 9.16863579-19.461309 20.01198899v28c0 5.5228475 4.4771525 10 10 10s10-4.4771525 10-10c.0395207-4.1434658 2.7006749-7.8066174 6.629-9.125 8.385763-2.9485219 13.8209418-11.0758312 13.343-19.952zm-23.265 21.784c-.3904999.3903819-1.0235001.3903819-1.414 0-3.5-3.5-8.924-1.776-8.979-1.758-.5246705.1739697-1.0910303-.1103295-1.265-.635s.1103295-1.0910303.635-1.265c.269-.09 6.636-2.146 11.023 2.241.1883901.1876485.2942892.4426.2942892.7085s-.1058991.5208515-.2942892.7085zm.4-24.634c-.6207147.0605144-1.2362925.16545-1.842.314-.0848031.022788-.1721896.0345515-.26.035-.5014894.0008805-.9260752-.3698191-.992851-.8668437-.0667759-.4970245.2449122-.9666434.728851-1.0981563.7097096-.178151 1.431709-.3031638 2.16-.374.5495233-.0568853 1.0411147.3424767 1.098.892s-.3424767 1.0411147-.892 1.098zm8.893 7.349c-.5522847 0-1-.4477153-1-1 0-3.1-1.1-5.027-3.361-5.9-.5152817-.1993748-.7713748-.7787183-.572-1.294s.7787183-.7713748 1.294-.572c2.116.817 4.639 2.829 4.639 7.766 0 .5522847-.4477153 1-1 1zm7-2.422c-.5522847 0-1-.4477153-1-1-.0071648-6.624447-5.375553-11.99283515-12-12-3.5041603-.00615137-6.8351904 1.5228572-9.1150216 4.1839748-2.2798312 2.6611177-3.2796782 6.1872961-2.7359784 9.6490252.2356824 1.5949428.8347687 3.1143844 1.751 4.441.4981782.6898807 1.0466728 1.3419909 1.641 1.951.7174689.7321647 1.3705487 1.52476 1.952 2.369.6670889.9814027 1.1308754 2.0864658 1.364 3.25.099771.5421851-.2580713 1.0628457-.8 1.164-.0600032.0112304-.1209577.016589-.182.016-.4819164-.0007148-.8947736-.3450427-.982-.819-.1859692-.9019041-.5500815-1.757619-1.071-2.517-.5209238-.748042-1.1043476-1.4505592-1.744-2.1-.6652557-.6821077-1.2780011-1.4135245-1.833-2.188-1.085967-1.5771526-1.795511-3.3824872-2.074-5.277-.8209303-5.2059991 1.3513871-10.4319198 5.6208213-13.52194955 4.2694343-3.0900298 9.912473-3.52052214 14.601233-1.11388902 4.6887599 2.40663307 7.6286685 7.24255577 7.6069457 12.51283857 0 .5522847-.4477153 1-1 1z"/><path id="Shape" d="m10.834 53.32c-.4133341-.0002087-.7839464-.2546936-.93259186-.6403744-.14864549-.3856808-.04468882-.8230697.26159186-1.1006256 4.9846757-4.4173004 7.8377433-10.7587047 7.837-17.419.0011012-6.6600848-2.8520547-13.0013212-7.837-17.418-.37726675-.3760576-.39352596-.9818394-.0369746-1.3775927.3565513-.3957533.9607421-.4425448 1.3739746-.1064073 5.3726778 4.8196632 8.459684 11.6844384 8.5 18.902-.041004 7.2168365-3.1279396 14.0807286-8.5 18.9-.182375.1657766-.4195454.2583657-.666.26z"/><path id="Shape" d="m6.417 49.08c-.41888273.0004514-.79365729-.2602154-.93897413-.6530843s-.03037717-.8346743.28797413-1.1069157c3.90192115-3.2643943 6.1797623-8.0729265 6.234-13.16-.0550436-5.0868877-2.33273315-9.8950998-6.234-13.16-.41973638-.3589851-.46898504-.9902636-.10999996-1.41.35898507-.4197364.99026355-.4689851 1.40999996-.11 4.3452034 3.6451666 6.8785778 9.0085839 6.934 14.68-.0551734 5.6712542-2.5881696 11.0346444-6.933 14.68-.18114184.1549056-.41165548.2400183-.65.24z"/><path id="Shape" d="m2 44.84c-.40801124.0016178-.77608686-.2448076-.93004341-.622661-.15395656-.3778534-.06291417-.8113467.23004341-1.095339 2.38809841-2.3683736 3.72175569-5.5987078 3.7-8.962.02099064-3.3625558-1.31259037-6.5919844-3.7-8.96-.39681659-.3865993-.40509932-1.0216834-.0185-1.4185s1.02168341-.4050993 1.4185-.0185c2.77256336 2.7468075 4.32242857 6.4942374 4.3 10.397.02267088 3.9036905-1.52716957 7.6521418-4.3 10.4-.18786656.1810851-.43907239.2815675-.7.28z"/></g></g></svg>