<svg height="512" viewBox="0 0 58 58" width="512" xmlns="http://www.w3.org/2000/svg"><g id="Page-1" fill="none" fill-rule="evenodd"><g id="056---Ear" fill="rgb(0,0,0)" fill-rule="nonzero" transform="translate(0 -1)"><path id="Shape" d="m18.42 26.5c.14685.2646338.3070567.5216321.48.77.4893848.6960972 1.038099 1.3485318 1.64 1.95.7149639.7342299 1.3672393 1.5269954 1.95 2.37.6620421.9836827 1.1241456 2.0879741 1.36 3.25.0496801.2613069-.0067906.5316395-.1569222.751207-.1501317.2195675-.3815524.3702762-.6430778.418793-.0596196.0083116-.1198266.0116565-.18.01-.4821144.003958-.8984114-.3366487-.99-.81-.1843255-.9031743-.5481887-1.7601232-1.07-2.52-.5159527-.7537879-1.0982712-1.4599328-1.74-2.11-.6641423-.6794418-1.2758906-1.4081911-1.83-2.18-1.058404-1.5351604-1.7589373-3.2882022-2.05-5.13l-5.86-5.86c-.22203691 1.1837121-.3325211 2.3856461-.33 3.59v28c0 5.5228475 4.4771525 10 10 10s10-4.4771525 10-10c.0106517-3.119054 1.5406394-6.0372256 4.1-7.82zm7.29 15.21c-.3943361.3867403-1.0256639.3867403-1.42 0-3.5-3.51-8.92-1.78-8.98-1.76-.3394023.1125387-.7130616.0354597-.9802241-.202202s-.3872398-.5997996-.315-.95.3258218-.6352593.6652241-.747798c.27-.09 6.64-2.14 11.03 2.24.3899779.3930079.3899779 1.0269921 0 1.42zm23.26-21.79c-.4395107-8.1279481-5.7611328-15.17867642-13.4571642-17.82967811-7.6960315-2.65100169-16.2309422-.37334275-21.5828358 5.75967811l4.27 4.27c2.6691447-3.21538843 6.6212331-5.08897107 10.8-5.12 7.7285595.00826732 13.9917327 6.2714405 14 14 0 .5522847-.4477153 1-1 1s-1-.4477153-1-1c-.0055141-6.6251317-5.3748683-11.99448595-12-12-3.6498769.02758853-7.0939844 1.6945659-9.38 4.54l22.53 22.53c4.6454327-4.0412249 7.1627462-10.002312 6.82-16.15zm-22.87-2.85c-.6211763.0552265-1.2366512.1622656-1.84.32-.0852471.0198359-.1724756.0299007-.26.03-.4940123-.0095643-.9069839-.3784974-.9719592-.8683115s.2375259-.9536569.7119592-1.0916885c.7091455-.1820761 1.4312921-.3091204 2.16-.38.5494401-.0521958 1.0372823.3506097 1.09.9.0293022.2631096-.0485404.5269388-.2159765.7320009-.167436.2050621-.4103688.3340928-.6740235.3579991zm8.9 7.35c-.5522847 0-1-.4477153-1-1 0-3.09-1.1-5.03-3.36-5.9-.247384-.0945446-.4467517-.2839922-.5537883-.5262331-.1070367-.2422409-.112873-.5172023-.0162117-.7637669.1985871-.5139997.7737225-.7725877 1.29-.58 2.12.82 4.64 2.84 4.64 7.77 0 .5522847-.4477153 1-1 1z"/><path id="Shape" d="m57.12 58.12c-.5617198.5632738-1.3245087.8798486-2.12.8798486s-1.5582802-.3165748-2.12-.8798486l-17.96-17.96h-.01l-17.81-17.82-2.07-2.07-5.15-5.15-9-9c-1.10143544-1.18203902-1.0689355-3.02403889.0735128-4.1664872 1.14244831-1.1424483 2.98444818-1.17494824 4.1664872-.0735128l7.56 7.56 4.33 4.33 1.46 1.46 38.65 38.65c1.1698135 1.1712702 1.1698135 3.0687298 0 4.24z"/></g></g></svg>