<svg height="512" viewBox="0 0 50 56" width="512" xmlns="http://www.w3.org/2000/svg"><g id="Page-1" fill="none" fill-rule="evenodd"><g id="057---Clock" fill="rgb(0,0,0)" fill-rule="nonzero" transform="translate(0 -1)"><path id="Shape" d="m25 8c-11.5979797 0-21 9.4020203-21 21s9.4020203 21 21 21 21-9.4020203 21-21c-.0132259-11.592497-9.407503-20.98677409-21-21zm-9.5 4.545c.4782803-.2761293 1.0898496-.1122682 1.366.366l1.5 2.6c.1814844.3095704.1831833.6926495.0044519 1.0038174-.1787315.311168-.5104885.5027136-.8693336.5019247s-.6897567-.1937913-.8671183-.5057421l-1.5-2.6c-.2761293-.4782803-.1122682-1.0898496.366-1.366zm-7.83 21.43c-.25901891.0597617-.53117328.0139351-.756338-.1273558-.22516472-.1412908-.38480837-.3664174-.443662-.6256442-.31407987-1.3853256-.47173271-2.8015176-.47-4.222 0-.5522847.44771525-1 1-1s1 .4477153 1 1c.00019141 1.2711382.14206732 2.5382947.423 3.778.1225804.5384731-.2145381 1.0743706-.753 1.197zm.875-14.475c.27615038-.4782682.88771969-.6421293 1.366-.366l2.6 1.5c.3119508.1773616.5049532.5082732.5057421.8671183s-.1907567.6906021-.5019247.8693336c-.3111679.1787314-.694247.1770325-1.0038174-.0044519l-2.6-1.5c-.47826816-.2761504-.64212934-.8877197-.366-1.366zm16.455 28.5c-5.887368.0144644-11.444714-2.7174321-15.029-7.388-.21864655-.2825971-.26992054-.6603741-.13450756-.9910261s.43694046-.5639451.79099996-.612c.3540596-.0480549.7068611.096429.9255076.3790261 3.2068469 4.1793176 8.1791339 6.6242319 13.447 6.612.5522847 0 1 .4477153 1 1s-.4477153 1-1 1zm-.707-18.293c-.1875494-.1874927-.2929434-.4418052-.293-.707v-15c0-.5522847.4477153-1 1-1s1 .4477153 1 1v14.586l6.707 6.707c.2599566.2510745.3642126.6228779.2726972.9725073-.0915155.3496295-.3645604.6226744-.7141899.7141899-.3496294.0915154-.7214328-.0127406-.9725073-.2726972zm10.207 15.748c-.4782803.2761293-1.0898496.1122682-1.366-.366l-1.5-2.6c-.1814844-.3095704-.1831833-.6926495-.0044519-1.0038174.1787315-.311168.5104885-.5027136.8693336-.5019247s.6897567.1937913.8671183.5057421l1.5 2.6c.2761293.4782803.1122682 1.0898496-.366 1.366zm6.088-6.455c-.1755887.0003718-.3481299-.0458692-.5-.134l-2.6-1.5c-.4742136-.2780058-.6351286-.886647-.3602745-1.3626943.274854-.4760473.8824145-.640996 1.3602745-.3693057l2.6 1.5c.3919413.2263139.5830208.6876562.4658809 1.1248223-.1171398.4371661-.5132928.7411578-.9658809.7411777z"/><path id="Shape" d="m47.082 13.492c1.8487792-2.0627625 2.4085343-4.97729813 1.4554374-7.57817873s-3.2635002-4.46364206-6.0073547-4.84342651-5.4733626.78538897-7.0970827 3.02960524c4.6859878 1.97787423 8.7222576 5.23211458 11.649 9.392z"/><path id="Shape" d="m14.568 4.1c-1.624132-2.24427107-4.3540203-3.40930575-7.09812841-3.02926892-2.74410812.38003683-5.05462555 2.24312702-6.00769983 4.84432036-.95307428 2.60119335-.39317338 5.51600156 1.45582824 7.57894856 2.92693368-4.16058407 6.96353459-7.41550501 11.65-9.394z"/><path id="Shape" d="m43.565 48.577c-.9798176.9301824-2.0277315 1.7858952-3.135 2.56l2.842 4.869c.5687143.9328695 1.7711896 1.2524423 2.728.725.4598585-.2645388.7951955-.7015866.9316685-1.2142519.136473-.5126654.0628063-1.0585911-.2046685-1.5167481z"/><path id="Shape" d="m50 29c0-13.8071187-11.1928813-25-25-25s-25 11.1928813-25 25 11.1928813 25 25 25c13.800722-.0154309 24.9845691-11.199278 25-25zm-25 23c-12.7025492 0-23-10.2974508-23-23s10.2974508-23 23-23 23 10.2974508 23 23c-.0137785 12.6968376-10.3031624 22.9862215-23 23z"/><path id="Shape" d="m3.273 53.994c-.26841244.4571203-.34345105 1.0024065-.20848914 1.5150365.1349619.51263.46878026.950275.92748914 1.2159635.95545266.5419198 2.16875346.2228403 2.734-.719l2.843-4.869c-1.10705214-.7747565-2.15494298-1.6307848-3.135-2.561z"/></g></g></svg>