<svg height="512" viewBox="0 0 53 56" width="512" xmlns="http://www.w3.org/2000/svg"><g id="Page-1" fill="none" fill-rule="evenodd"><g id="058---Stopwatch" fill="rgb(0,0,0)" fill-rule="nonzero"><path id="Shape" d="m25 10c-11.5979797 0-21 9.4020203-21 21s9.4020203 21 21 21 21-9.4020203 21-21c-.0132259-11.592497-9.407503-20.9867741-21-21zm-9.5 4.545c.4782803-.2761293 1.0898496-.1122682 1.366.366l1.5 2.6c.1814844.3095704.1831833.6926495.0044519 1.0038174-.1787315.311168-.5104885.5027136-.8693336.5019247s-.6897567-.1937913-.8671183-.5057421l-1.5-2.6c-.2761293-.4782803-.1122682-1.0898496.366-1.366zm-7.83 21.43c-.25901891.0597617-.53117328.0139351-.756338-.1273558-.22516472-.1412908-.38480837-.3664174-.443662-.6256442-.31407987-1.3853256-.47173271-2.8015176-.47-4.222 0-.5522847.44771525-1 1-1s1 .4477153 1 1c.00019141 1.2711382.14206732 2.5382947.423 3.778.1225804.5384731-.2145381 1.0743706-.753 1.197zm.875-14.475c.27615038-.4782682.88771969-.6421293 1.366-.366l2.6 1.5c.3119508.1773616.5049532.5082732.5057421.8671183s-.1907567.6906021-.5019247.8693336c-.3111679.1787314-.694247.1770325-1.0038174-.0044519l-2.6-1.5c-.47826816-.2761504-.64212934-.8877197-.366-1.366zm16.455 28.5c-5.887368.0144644-11.444714-2.7174321-15.029-7.388-.21864655-.2825971-.26992054-.6603741-.13450756-.9910261s.43694046-.5639451.79099996-.612c.3540596-.0480549.7068611.096429.9255076.3790261 3.2068469 4.1793176 8.1791339 6.6242319 13.447 6.612.5522847 0 1 .4477153 1 1s-.4477153 1-1 1zm-.707-18.293c-.1875494-.1874927-.2929434-.4418052-.293-.707v-15c0-.5522847.4477153-1 1-1s1 .4477153 1 1v14.586l6.707 6.707c.2599566.2510745.3642126.6228779.2726972.9725073-.0915155.3496295-.3645604.6226744-.7141899.7141899-.3496294.0915154-.7214328-.0127406-.9725073-.2726972zm10.207 15.748c-.4782803.2761293-1.0898496.1122682-1.366-.366l-1.5-2.6c-.1814844-.3095704-.1831833-.6926495-.0044519-1.0038174.1787315-.311168.5104885-.5027136.8693336-.5019247s.6897567.1937913.8671183.5057421l1.5 2.6c.2761293.4782803.1122682 1.0898496-.366 1.366zm6.955-6.955c-.2761504.4782682-.8877197.6421293-1.366.366l-2.6-1.5c-.4742136-.2780058-.6351286-.886647-.3602745-1.3626943.274854-.4760473.8824145-.640996 1.3602745-.3693057l2.6 1.5c.4782682.2761504.6421293.8877197.366 1.366z"/><path id="Shape" d="m27 4.078v-2.078c0-1.1045695-.8954305-2-2-2s-2 .8954305-2 2v2.082c.661-.049 1.327-.082 2-.082s1.337.03 2 .078z"/><path id="Shape" d="m45.184 16.261c-1.5185428-2.086554-3.354446-3.9224572-5.441-5.441-4.2704704-3.14574956-9.4389999-4.8355218-14.743-4.82-13.8071187 0-25 11.1928813-25 25s11.1928813 25 25 25 25-11.1928813 25-25c.0158973-5.3017282-1.672051-10.4682873-4.815-14.738zm-20.184 37.739c-12.7025492 0-23-10.2974508-23-23s10.2974508-23 23-23 23 10.2974508 23 23c-.0137785 12.6968376-10.3031624 22.9862215-23 23z"/><path id="Shape" d="m46.092 14.154 1.908-1.91-4.244-4.244-1.91 1.91c1.5707024 1.2501846 2.9950755 2.6738868 4.246 4.244z"/><path id="Shape" d="m52.707 11.293-8-8c-.3923789-.37897221-1.0160848-.37355237-1.4018186.01218142-.3857338.3857338-.3911536 1.00943969-.0121814 1.40181858l1.151 1.151c.007.006.016.008.023.015s.009.016.015.023l5.618 5.622c.007.006.016.008.023.015s.009.016.015.023l1.151 1.151c.3958895.3771429 1.0181105.3771429 1.414 0 .3914888-.3893946.3932795-1.0223967.004-1.414z"/></g></g></svg>