<svg height="512" viewBox="0 0 56 56" width="512" xmlns="http://www.w3.org/2000/svg"><g id="Page-1" fill="none" fill-rule="evenodd"><g id="059---Note" fill="rgb(0,0,0)" fill-rule="nonzero"><path id="Shape" d="m14.113 41.883 3.733-1.56c-.469608-.9396702-1.2318976-1.7012578-2.172-2.17z"/><path id="Shape" d="m27.551 38.349-.007.006c-.0471854.0378589-.0977285.0713311-.151.1-.0522993.0444234-.1093057.0829865-.17.115l-12.334 5.162c-.2472333.106794-.5136875.1619225-.783.162-.6733624-.0002145-1.301417-.3392555-1.671064-.9020859s-.4312609-1.2738896-.163936-1.8919141l5.158-12.326c.0324385-.0618422.0716817-.1198684.117-.173.0286365-.0523491.0621162-.1018991.1-.148l.006-.006 20.448-20.447h-33.1c-2.76005315.00330612-4.99669388 2.2399468-5 5v38c.00330612 2.7600532 2.23994685 4.9966939 5 5h38c2.7600532-.0033061 4.9966939-2.2399468 5-5v-33.1l-20.448 20.447zm16.449 11.651c0-.5522847.4477153-1 1-1s1 .4477153 1 1v2c0 .5522847-.4477153 1-1 1s-1-.4477153-1-1zm-35-40h15c.5522847 0 1 .4477153 1 1s-.4477153 1-1 1h-15c-.55228475 0-1-.4477153-1-1s.44771525-1 1-1zm-5 0h1c.55228475 0 1 .4477153 1 1s-.44771525 1-1 1h-1c-.55228475 0-1-.4477153-1-1s.44771525-1 1-1zm0 32h5c.55228475 0 1 .4477153 1 1s-.44771525 1-1 1h-5c-.55228475 0-1-.4477153-1-1s.44771525-1 1-1zm23 7h-23c-.55228475 0-1-.4477153-1-1s.44771525-1 1-1h23c.5522847 0 1 .4477153 1 1s-.4477153 1-1 1zm13 0h-7c-.5522847 0-1-.4477153-1-1s.4477153-1 1-1h7c.5522847 0 1 .4477153 1 1s-.4477153 1-1 1zm1-6c0 .5522847-.4477153 1-1 1h-16c-.5522847 0-1-.4477153-1-1s.4477153-1 1-1h16c.5522847 0 1 .4477153 1 1z"/><path id="Shape" d="m44.515 8.657-2.121-2.122-2.122 2.122 1.415 1.414c.3904653.3907415.3902414 1.0240347-.0005 1.4145-.3907415.3904653-1.0240347.3902414-1.4145-.0005l-1.414-1.414-17.808 17.808c1.0125632.4598466 1.6729782 1.4582388 1.7 2.57 1.5357721.0367122 2.7764659 1.2646877 2.829 2.8 1.10155.0367707 2.0866618.6958381 2.541 1.7l17.809-17.807-2.829-2.829c-.2597729-.2512596-.3637612-.6231337-.2719978-.9726946.0917635-.3495608.3649986-.6224097.7146889-.7136787s.721417.0132453.9723089.2733733l2.828 2.829 2.122-2.122-4.947-4.947zm-19.092 20.092c-.4043959-.0000863-.7689341-.2437275-.923678-.6173454-.1547439-.373618-.0692299-.8036603.216678-1.0896546l13.434-13.436c.3907415-.3904653 1.0240347-.3902414 1.4145.0005.3904653.3907415.3902414 1.0240347-.0005 1.4145l-13.434 13.435c-.1874927.1875494-.4418052.2929434-.707.293zm16.971-10.9-13.436 13.435c-.3923789.3789722-1.0160848.3735524-1.4018186-.0121814s-.3911536-1.0094397-.0121814-1.4018186l13.435-13.434c.3904653-.3907415 1.0237585-.3909653 1.4145-.0005s.3909653 1.0237585.0005 1.4145z"/><path id="Shape" d="m20.473 29.87c-.3532319-.347419-.9091578-.3794916-1.3-.075l-2.724 6.51c1.4238733.6752653 2.5708575 1.821543 3.247 3.245l6.511-2.721c.3117315-.415036.2503903-1.0002919-.1406219-1.3416726-.3910123-.3413808-.9791932-.3232026-1.3483781.0416726-.2844214.2843357-.711503.3706187-1.084.219-.124162-.0500309-.2367972-.1248942-.331-.22-.187777-.1875683-.2932867-.4420908-.2932867-.7075s.1055097-.5199317.2932867-.7075c.1885286-.1864266.294124-.4408648.293-.706-.0008514-.2656262-.10735-.5199996-.296-.707-.3951446-.3780366-1.0178554-.3780366-1.413 0-.3904653.3910176-1.0239824.3914653-1.415.001s-.3914653-1.0239824-.001-1.415c.1883486-.1873427.2944128-.4419304.294788-.707585s-.1049693-.5205409-.292788-.708415z"/><path id="Shape" d="m55.121 3.707-2.828-2.828c-.5626237-.56271905-1.3257625-.87885933-2.1215-.87885933s-1.5588763.31614028-2.1215.87885933l-4.242 4.242 1.414 1.414 1.414-1.414c.2510745-.25995658.6228779-.3642126.9725073-.27269716.3496295.09151544.6226744.3645604.7141899.71418984.0915154.34962943-.0127406.72143285-.2726972.97250732l-1.414 1.415 4.243 4.242 4.242-4.242c.562719-.56262374.8788593-1.32576248.8788593-2.1215s-.3161403-1.55887626-.8788593-2.1215zm-4.242 0c-.2859742.28606061-.7161158.37167172-1.0898272.21690842-.3737115-.1547633-.6173863-.51941869-.6173863-.92390842s.2436748-.76914512.6173863-.92390842c.3737114-.1547633.803853-.06915219 1.0898272.21690842.3903819.39049985.3903819 1.02350015 0 1.414z"/></g></g></svg>