<svg height="512" viewBox="0 0 58 54" width="512" xmlns="http://www.w3.org/2000/svg"><g id="Page-1" fill="none" fill-rule="evenodd"><g id="060---Eye" fill="rgb(0,0,0)" fill-rule="nonzero"><path id="Shape" d="m29 24c-1.6568542 0-3 1.3431458-3 3s1.3431458 3 3 3 3-1.3431458 3-3c-.0049422-1.6548028-1.3451972-2.9950578-3-3zm0 0c-1.6568542 0-3 1.3431458-3 3s1.3431458 3 3 3 3-1.3431458 3-3c-.0049422-1.6548028-1.3451972-2.9950578-3-3zm0 6c1.6568542 0 3-1.3431458 3-3s-1.3431458-3-3-3-3 1.3431458-3 3c.0049422 1.6548028 1.3451972 2.9950578 3 3zm27.32-7.42c-4.89-5.58-14.37-14.56-25.43-15.49h-.01c-.32-.03-.63-.05-.95-.06s-.62-.03-.93-.03-.62.01-.93.03c-11.47.47-21.36 9.81-26.39 15.55-2.24018228 2.520896-2.24018228 6.319104 0 8.84 5.17 5.89 15.46 15.58 27.32 15.58.12 0 .25 0 .38-.01.1234027.0065346.2471304.0031906.37-.01.26-.01.53-.02.8-.05h.04c11.19-.79 20.79-9.89 25.73-15.51 2.2401823-2.520896 2.2401823-6.319104 0-8.84zm-13.45 12.41c-.133628.2297442-.3532172.3968418-.6102702.4643886-.257053.0675467-.5304211.0299853-.7597298-.1043886-.0758608-.0451678-.146317-.0988488-.21-.16-.3137115-.320177-.378863-.8088131-.16-1.2 3.5871322-6.2251376 1.8797189-14.155137-3.9514692-18.35241-5.8311882-4.1972729-13.8930465-3.2991678-18.6575711 2.0784859-4.7645246 5.3776538-4.6849049 13.4889924.184264 18.7720832 4.8691689 5.2830909 12.9471034 6.0227702 18.6947763 1.7118409.174045-.1280008.3839635-.1979736.6-.2.3142786.0020134.6098221.1497852.8.4.3313708.4418278.2418278 1.0686292-.2 1.4-2.6767028 2.0219315-5.9259542 3.142363-9.28 3.2h-.32c-8.836556 0-16-7.163444-16-16s7.163444-16 16-16c.55 0 1.1.03 1.63.08 5.3940481.5566091 10.1399783 3.8051612 12.6109986 8.6321299 2.4710204 4.8269688 2.3314015 10.5765296-.3709986 15.2778701zm-13.87-12.99c2.7614237 0 5 2.2385763 5 5s-2.2385763 5-5 5-5-2.2385763-5-5 2.2385763-5 5-5zm-7.27-1.86c-.1922651.1965356-.4550661.308136-.73.31-.2557317-.0002291-.5020285-.0966061-.69-.27-.401264-.3819267-.4191277-1.0160904-.04-1.42 2.2621558-2.4104663 5.4243166-3.772405 8.73-3.76.5522847 0 1 .4477153 1 1s-.4477153 1-1 1c-2.7551711-.0129101-5.3905584 1.1253452-7.27 3.14zm-2.35 4.13c-.2514214.8882342-.3792899 1.8068683-.38 2.73 0 .5522847-.4477153 1-1 1s-1-.4477153-1-1c-.001344-1.1055248.1500883-2.2059324.45-3.27.1491169-.5329548.7020452-.8441169 1.235-.695s.8441169.7020452.695 1.235z"/><path id="Shape" d="m6 14c-.26519481-.0000566-.51950727-.1054506-.707-.293l-2-2c-.37897221-.3923789-.37355237-1.0160848.01218142-1.4018186.3857338-.38573377 1.00943969-.39115361 1.40181858-.0121814l2 2c.28590792.2859943.37142191.7160366.21667798 1.0896546-.15474393.3736179-.51928208.6172591-.92367798.6173454z"/><path id="Shape" d="m16 7c-.3808256.00207881-.7297741-.21233064-.9-.553l-1-2c-.1596977-.3197527-.1366785-.70041412.0603866-.99859276s.5382372-.46857408.895-.44700001c.3567629.02157408.6749157.23184005.8346134.55159277l1 2c.1545455.30926678.1383796.6764236-.0427493.97091061-.1811288.29448701-.5015228.47452363-.8472507.47608939z"/><path id="Shape" d="m52 14c-.4043959-.0000863-.7689341-.2437275-.923678-.6173454-.1547439-.373618-.0692299-.8036603.216678-1.0896546l2-2c.3923789-.37897221 1.0160848-.37355237 1.4018186.0121814.3857338.3857338.3911536 1.0094397.0121814 1.4018186l-2 2c-.1874927.1875494-.4418052.2929434-.707.293z"/><path id="Shape" d="m42 7c-.3464401-.00018496-.6681037-.17966784-.8501945-.47439433-.1820909-.29472648-.1986643-.66270321-.0438055-.97260567l1-2c.2468713-.49429485.8477051-.69487128 1.342-.448s.6948713.84770515.448 1.342l-1 2c-.1695854.33937432-.5166139.55355599-.896.553z"/><path id="Shape" d="m29 4c-.5522847 0-1-.44771525-1-1v-2c0-.55228475.4477153-1 1-1s1 .44771525 1 1v2c0 .55228475-.4477153 1-1 1z"/><path id="Shape" d="m4 44c-.4043959-.0000863-.76893405-.2437275-.92367798-.6173454-.15474393-.373618-.06922994-.8036603.21667798-1.0896546l2-2c.39237889-.3789722 1.01608478-.3735524 1.40181858.0121814.38573379.3857338.39115363 1.0094397.01218142 1.4018186l-2 2c-.18749273.1875494-.44180519.2929434-.707.293z"/><path id="Shape" d="m15 51c-.3464401-.000185-.6681037-.1796678-.8501945-.4743943-.1820909-.2947265-.1986643-.6627032-.0438055-.9726057l1-2c.2468713-.4942949.8477051-.6948713 1.342-.448s.6948713.8477051.448 1.342l-1 2c-.1695854.3393743-.5166139.553556-.896.553z"/><path id="Shape" d="m54 44c-.2651948-.0000566-.5195073-.1054506-.707-.293l-2-2c-.3789722-.3923789-.3735524-1.0160848.0121814-1.4018186s1.0094397-.3911536 1.4018186-.0121814l2 2c.2859079.2859943.3714219.7160366.216678 1.0896546-.1547439.3736179-.5192821.6172591-.923678.6173454z"/><path id="Shape" d="m43 51c-.3808256.0020788-.7297741-.2123306-.9-.553l-1-2c-.2468713-.4942949-.0462949-1.0951287.448-1.342s1.0951287-.0462949 1.342.448l1 2c.1545455.3092668.1383796.6764236-.0427493.9709106-.1811288.294487-.5015228.4745236-.8472507.4760894z"/><path id="Shape" d="m29 54c-.5522847 0-1-.4477153-1-1v-2c0-.5522847.4477153-1 1-1s1 .4477153 1 1v2c0 .5522847-.4477153 1-1 1z"/></g></g></svg>