<svg height="512" viewBox="0 0 58 59" width="512" xmlns="http://www.w3.org/2000/svg"><g id="Page-1" fill="none" fill-rule="evenodd"><g id="061---Invite" fill="rgb(0,0,0)" fill-rule="nonzero"><path id="Shape" d="m52 7h-3v-6c0-.55228475-.4477153-1-1-1s-1 .44771525-1 1v6h-36v-6c0-.55228475-.4477153-1-1-1-.55228475 0-1 .44771525-1 1v6h-3c-3.3137085 0-6 2.6862915-6 6v5h58v-5c0-3.3137085-2.6862915-6-6-6zm-41 6c0 .5522847-.4477153 1-1 1-.55228475 0-1-.4477153-1-1v-1c0-.5522847.44771525-1 1-1 .5522847 0 1 .4477153 1 1zm38 0c0 .5522847-.4477153 1-1 1s-1-.4477153-1-1v-1c0-.5522847.4477153-1 1-1s1 .4477153 1 1z"/><path id="Shape" d="m0 53c0 3.3137085 2.6862915 6 6 6h46c3.3137085 0 6-2.6862915 6-6v-33h-58zm51 1h2c.5522847 0 1 .4477153 1 1s-.4477153 1-1 1h-2c-.5522847 0-1-.4477153-1-1s.4477153-1 1-1zm-3 1c0 .5522847-.4477153 1-1 1h-7c-.5522847 0-1-.4477153-1-1s.4477153-1 1-1h7c.5522847 0 1 .4477153 1 1zm-33.91-16.02c1.4719353-1.6454204 3.9965183-1.7928739 5.65-.33l4.87 4.34 13.08-19.24c.5956262-.8785008 1.5170272-1.4831703 2.56-1.68.2504435-.0480678.5049898-.0715129.76-.07.7991117-.000803 1.5798468.2396913 2.24.69 1.8227515 1.2461235 2.2964208 3.730653 1.06 5.56-.1477328.2214369-.3785691.3738921-.6402251.422835-.261656.0489428-.5319911-.0097681-.7497749-.162835-.2203997-.1483028-.3727332-.3782067-.4233875-.6389823-.0506542-.2607756.0045341-.5309895.1533875-.7510177.2988601-.4350431.4105466-.9718589.31-1.49-.14859-.7944664-.7622843-1.420526-1.5536289-1.5849328-.7913446-.1644067-1.6036256.1653976-2.0563711.8349328l-13.72 20.17c-.1631929.2394268-.4222131.3962982-.71.43-.2851686.0324347-.5710639-.0544196-.79-.24l-5.72-5.09c-.397299-.3543386-.9183609-.5376087-1.45-.51-1.1005823.0744338-1.9376963 1.0184135-1.88 2.12.0310272.5307699.2721163 1.0273416.67 1.38l8.28 7.36c.4344616.3780112 1.0078867.5558455 1.58.49.5711155-.0722256 1.08234-.3899151 1.4-.87l12.71-18.68c.2000687-.2965305.543137-.4638005.8999742-.4388011.3568373.0249994.6732315.2384702.8300001.56.1567685.3215298.1300944.7022707-.0699743.9988011l-12.71 18.69c-.6500683.9509751-1.6769436 1.5772962-2.82 1.72-.1625991.019651-.3262181.0296685-.49.03-.9803835.0001647-1.9267926-.3591861-2.66-1.01l-8.28-7.36c-1.6454204-1.4719353-1.7928739-3.9965183-.33-5.65z"/></g></g></svg>