<svg height="512" viewBox="0 0 58 59" width="512" xmlns="http://www.w3.org/2000/svg"><g id="Page-1" fill="none" fill-rule="evenodd"><g id="062---Invite" fill="rgb(0,0,0)" fill-rule="nonzero"><path id="Shape" d="m52 7h-46c-3.3137085 0-6 2.6862915-6 6v5h58v-5c0-3.3137085-2.6862915-6-6-6zm-41 6c0 .5522847-.4477153 1-1 1-.55228475 0-1-.4477153-1-1v-1c0-.5522847.44771525-1 1-1 .5522847 0 1 .4477153 1 1zm38 0c0 .5522847-.4477153 1-1 1s-1-.4477153-1-1v-1c0-.5522847.4477153-1 1-1s1 .4477153 1 1z"/><path id="Shape" d="m0 20v33c0 3.3137085 2.6862915 6 6 6h46c.6069743.0022183 1.2106855-.0888443 1.79-.27 2.5028688-.7873531 4.2066025-3.1062116 4.21-5.73v-33zm29 22.95-7.04 7.74c-1.0876432 1.2004849-2.7919577 1.6264494-4.3165079 1.078838-1.5245502-.5476115-2.5682972-1.960667-2.6434921-3.578838-.0526208-1.0604797.3219709-2.0978106 1.04-2.88l7.55-8.31-7.55-8.31c-.7180291-.7821894-1.0926208-1.8195203-1.04-2.88.0751949-1.618171 1.1189419-3.0312265 2.6434921-3.578838 1.5245502-.5476114 3.2288647-.1216469 4.3165079 1.078838l7.04 7.74 7.04-7.74c.9559491-1.0775791 2.4174657-1.5579296 3.8262953-1.2575724s2.5473498 1.3350259 2.9806807 2.7087943.0945358 2.87443-.886976 3.9287781l-4.53 4.98c-.3778487.3706696-.9790941.3827003-1.3714683.0274426s-.439954-.9547383-.1085317-1.3674426l4.53-4.99c.3584307-.3914481.5456355-.9098613.52-1.44-.041358-.8072965-.56462-1.5103222-1.3260798-1.781647s-1.611382-.0575946-2.1539202.541647l-7.78 8.55c-.1936087.2011858-.4607867.3148701-.74.3148701s-.5463913-.1136843-.74-.3148701l-7.78-8.55c-.4651029-.5791703-1.2128787-.8528653-1.9419684-.7107838-.7290898.1420814-1.3193782.6765317-1.5329749 1.3879637-.2135966.7114319-.0153122 1.4826393.5149433 2.0028201l8.17 8.99c.3398628.3820174.3398628.9579826 0 1.34l-8.17 8.99c-.3584307.3914481-.5456355.9098613-.52 1.44.0282932.527194.2615612 1.0224399.65 1.38.8312718.7109761 2.0729592.6495499 2.83-.14l7.78-8.55c.1936087-.2011858.4607867-.3148701.74-.3148701s.5463913.1136843.74.3148701l7.78 8.55c.7570408.7895499 1.9987282.8509761 2.83.14.3884388-.3575601.6217068-.852806.65-1.38.0256355-.5301387-.1615693-1.0485519-.52-1.44l-8.17-8.99c-.3314223-.4127043-.2838425-1.0121849.1085317-1.3674426s.9936196-.343227 1.3714683.0274426l8.17 8.98c.7180291.7821894 1.0926208 1.8195203 1.04 2.88-.0751949 1.618171-1.1189419 3.0312265-2.6434921 3.578838-1.5245502.5476114-3.2288647.1216469-4.3165079-1.078838zm18 13.05h-7c-.5522847 0-1-.4477153-1-1s.4477153-1 1-1h7c.5522847 0 1 .4477153 1 1s-.4477153 1-1 1zm6 0h-2c-.5522847 0-1-.4477153-1-1s.4477153-1 1-1h2c.5522847 0 1 .4477153 1 1s-.4477153 1-1 1z"/><path id="Shape" d="m10 9c-.55228475 0-1-.44771525-1-1v-7c0-.55228475.44771525-1 1-1 .5522847 0 1 .44771525 1 1v7c0 .55228475-.4477153 1-1 1z"/><path id="Shape" d="m48 9c-.5522847 0-1-.44771525-1-1v-7c0-.55228475.4477153-1 1-1s1 .44771525 1 1v7c0 .55228475-.4477153 1-1 1z"/></g></g></svg>