<svg height="512" viewBox="0 0 58 56" width="512" xmlns="http://www.w3.org/2000/svg"><g id="Page-1" fill="none" fill-rule="evenodd"><g id="063---Mobile" fill="rgb(0,0,0)" fill-rule="nonzero"><path id="Shape" d="m9.166 41.32c-.24757021-.000099-.48630291-.0920289-.67-.258-5.37109224-4.8204553-8.4565801-11.6850847-8.496-18.902.04087917-7.2168636 3.12783646-14.08080396 8.5-18.9.41341456-.327871 1.01043595-.27811932 1.36388007.11365644.35344413.39177576.34167773.99075098-.02688007 1.36834356-4.98395088 4.41760629-7.83682794 10.7585442-7.83682794 17.4185s2.85287706 13.0008937 7.83682794 17.4185c.3062807.2775559.4102373.7149448.2615919 1.1006256-.14864553.3856808-.51925778.6401657-.9325919.6403744z"/><path id="Shape" d="m13.583 37.08c-.2383445.0000183-.4688582-.0850944-.65-.24-4.3448304-3.6453556-6.87782657-9.0087458-6.933-14.68.05517343-5.6712542 2.5881696-11.0346444 6.933-14.68.4197364-.35898508 1.0510149-.3097364 1.41.11000001s.3097364 1.0510149-.11 1.40999999c-3.9008938 3.2650895-6.17820498 8.0732742-6.233 13.16.05423768 5.0870735 2.3320788 9.8956057 6.234 13.16.3183513.2722414.433291.7140468.2879741 1.1069157-.1453168.3928689-.5200914.6535357-.9389741.6530843z"/><path id="Shape" d="m18 32.84c-.2612087.0010315-.5124527-.100184-.7-.282-5.7386753-5.743915-5.7386753-15.051085 0-20.795.3968166-.3865993 1.0319007-.3783166 1.4185.0185s.3783166 1.0319007-.0185 1.4185c-4.9282487 4.9583909-4.9282487 12.9656091 0 17.924.2914943.2842056.3815965.7167532.2278263 1.09371-.1537703.3769569-.5207131.6230642-.9278263.62229z"/><path id="Shape" d="m25.05 2h9.9c.552924-.00066824 1.081104-.22930508 1.46-.632l1.282-1.368h-15.383l1.282 1.368c.3780976.40323888.9062257.63200995 1.459.632z"/><path id="Shape" d="m43.88 10.75h.12v-8.75c-.0032948-1.10320187-.8967981-1.9967052-2-2h-1.57l-2.56 2.74c-.7591057.80302337-1.8149723 1.25863706-2.92 1.26h-9.9c-1.1050277-.00136294-2.1608943-.45697663-2.92-1.26l-2.56-2.74h-1.57c-1.1032019.0032948-1.9967052.89679813-2 2v8.25c.5472417-.4972176 1.2606115-.77186498 2-.77 1.2204138.00091398 2.318641.7410412 2.7775645 1.8718816.4589236 1.1308403.187066 2.4269825-.6875645 3.2781184-4.1199476 4.1746829-4.1199476 10.8853171 0 15.06 1.1137198 1.1478622 1.1311257 2.9675913.0395664 4.1365472s-2.9082174 1.2760544-4.1295664.2434528v5.93c.0032948 1.1032019.8967981 1.9967052 2 2h24c1.1032019-.0032948 1.9967052-.8967981 2-2v-8.23c-.0014032-.2476926-.0939572-.4861974-.26-.67l-.13-.15c-.1007235-.1070395-.1942608-.2206205-.28-.34-1.4853726-1.9322848-2.6162227-4.1127264-3.34-6.44-1.2058276-3.2446857-1.0544449-6.8382245.42-9.97.76-1.47 1.85-3.19 3.47-3.45zm-8.88 29.25h-4c-.5522847 0-1-.4477153-1-1s.4477153-1 1-1h4c.5522847 0 1 .4477153 1 1s-.4477153 1-1 1zm6-2c.5522847 0 1 .4477153 1 1s-.4477153 1-1 1h-2c-.5522847 0-1-.4477153-1-1s.4477153-1 1-1z"/><path id="Shape" d="m55.342 53.03c-1.3789773-2.1489567-1.2216694-4.940567.39-6.921 1.465197-1.6978349 2.2702734-3.8663586 2.268-6.109 0-5.942-3.836-11.347-7.22-16.114l-.467-.657c-.7496134-1.1128488-1.4151284-2.2800905-1.991-3.492l-.381-.75c-.749-1.466-1.453-2.939-2.1-4.38l-.1-.232c-.138-.325-.278-.66-.444-.964-.1252533-.2878717-.3469874-.5230442-.627-.665-.1561029-.0452719-.3209449-.0514535-.48-.018-.381.061-1.04.526-2.01 2.393-1.548 2.951-1.015 6.213-.3 8.431.65895 2.1157078 1.6856565 4.0987103 3.033 5.858.05.063.108.126.176.2l.149.166c.4865229.5508014.7572004 1.2591097.762 1.994v13.23c0 2.209139-1.790861 4-4 4h-10.495c1.2737074 1.8216287 2.0787853 3.9291192 2.344 6.136.0633419.4936407.4833122.8635229.981.864h20.56c.3642419.0014597.7004687-.1952461.8776794-.5134766.1772107-.3182304.1673733-.7076465-.0256794-1.0165234z"/><path id="Shape" d="m44 45v-1.556c-.6053465.3599241-1.2957468.5518554-2 .556h-24c-.7042532-.0041446-1.3946535-.1960759-2-.556v1.556c0 1.1045695.8954305 2 2 2h24c1.1045695 0 2-.8954305 2-2z"/></g></g></svg>