<svg height="56" viewBox="0 0 58 56" width="58" xmlns="http://www.w3.org/2000/svg"><g id="Page-1" fill="none" fill-rule="evenodd"><g id="064---Mobile" fill="rgb(0,0,0)" fill-rule="nonzero" transform="translate(-1)"><path id="Shape" d="m23.31 0 1.28 1.37c.3801369.40067595.9076935.62832021 1.46.63h9.9c.5523065-.00167979 1.0798631-.22932405 1.46-.63l1.28-1.37z"/><path id="Shape" d="m44.88 10.75h.12v-8.75c-.0032948-1.10320187-.8967981-1.9967052-2-2h-1.57l-2.56 2.74c-.7591057.80302337-1.8149723 1.25863706-2.92 1.26h-9.9c-1.1050277-.00136294-2.1608943-.45697663-2.92-1.26l-2.56-2.74h-1.57c-1.1032019.0032948-1.9967052.89679813-2 2v4.49c3.2347049 4.5867312 4.9802987 10.0574221 5 15.67-.0182133 5.6128121-1.7639464 11.0839397-5 15.67v2.17c.0032948 1.1032019.8967981 1.9967052 2 2h24c1.1032019-.0032948 1.9967052-.8967981 2-2v-8.23c-.0014032-.2476926-.0939572-.4861974-.26-.67l-.13-.15c-.1007235-.1070395-.1942608-.2206205-.28-.34-1.4853726-1.9322848-2.6162227-4.1127264-3.34-6.44-1.2058276-3.2446857-1.0544449-6.8382245.42-9.97.76-1.47 1.85-3.19 3.47-3.45zm-8.88 29.25h-4c-.5522847 0-1-.4477153-1-1s.4477153-1 1-1h4c.5522847 0 1 .4477153 1 1s-.4477153 1-1 1zm6-2c.5522847 0 1 .4477153 1 1s-.4477153 1-1 1h-2c-.5522847 0-1-.4477153-1-1s.4477153-1 1-1z"/><path id="Shape" d="m43 44h-24c-.7049876-.0027564-1.3960867-.1962641-2-.56v1.56c.0032948 1.1032019.8967981 1.9967052 2 2h24c1.1032019-.0032948 1.9967052-.8967981 2-2v-1.56c-.6039133.3637359-1.2950124.5572436-2 .56z"/><path id="Shape" d="m56.34 53.03c-1.3769022-2.1491468-1.219661-4.9391711.39-6.92 1.4674002-1.6970666 2.2733931-3.8665012 2.27-6.11 0-6.154-4.123-11.761-7.69-16.77-.8939613-1.3526609-1.6861436-2.7698984-2.37-4.24-2.477-4.855-2.57-6.01-3.26-6.24-.983-.369-1.965 1.358-2.49 2.37-1.55 2.95-1.02 6.21-.3 8.43 1.959 5.982 4.11 5.916 4.11 8.22v13.23c0 2.209139-1.790861 4-4 4h-10.5c1.2773313 1.8217445 2.0846014 3.9309523 2.35 6.14.0691849.4894949.4856655.8549779.98.86h20.56c.3638839.0007291.6994429-.1962627.8761609-.5143551s.1666987-.707072-.0261609-1.0156449z"/><path id="Shape" d="m10.834 41.32c-.4133341-.0002087-.7839464-.2546936-.93259186-.6403744-.14864549-.3856808-.04468882-.8230697.26159186-1.1006256 4.9846757-4.4173004 7.8377433-10.7587047 7.837-17.419.0011012-6.6600848-2.8520547-13.00132123-7.837-17.418-.37726675-.37605761-.39352596-.9818394-.0369746-1.37759271.3565513-.3957533.9607421-.44254478 1.3739746-.10640729 5.3726778 4.81966317 8.459684 11.6844384 8.5 18.902-.041004 7.2168365-3.1279396 14.0807286-8.5 18.9-.182375.1657766-.4195454.2583657-.666.26z"/><path id="Shape" d="m6.417 37.08c-.41888273.0004514-.79365729-.2602154-.93897413-.6530843s-.03037717-.8346743.28797413-1.1069157c3.90192115-3.2643943 6.1797623-8.0729265 6.234-13.16-.0550436-5.0868877-2.33273315-9.8950998-6.234-13.16-.41973639-.35898509-.46898506-.99026358-.10999998-1.40999998s.99026357-.46898509 1.40999998-.11000002c4.3452034 3.6451666 6.8785778 9.0085839 6.934 14.68-.0551734 5.6712542-2.5881696 11.0346444-6.933 14.68-.18114184.1549056-.41165548.2400183-.65.24z"/><path id="Shape" d="m2 32.84c-.40801124.0016178-.77608686-.2448076-.93004341-.622661-.15395656-.3778534-.06291417-.8113467.23004341-1.095339 2.38809841-2.3683736 3.72175569-5.5987078 3.7-8.962.02099064-3.3625558-1.31259037-6.5919844-3.7-8.96-.25669533-.2500859-.36047235-.6181202-.27223926-.9654678s.35507158-.6212383.7-.7185.71554393-.0031181.97223926.2469678c2.77256336 2.7468075 4.32242857 6.4942374 4.3 10.397.02267088 3.9036905-1.52716957 7.6521418-4.3 10.4-.18786656.1810851-.43907239.2815675-.7.28z"/></g></g></svg>