<svg height="512" viewBox="0 0 46 56" width="512" xmlns="http://www.w3.org/2000/svg"><g id="Page-1" fill="none" fill-rule="evenodd"><g id="065---Help" fill="rgb(0,0,0)" fill-rule="nonzero"><path id="Shape" d="m43 0h-36v56h2v-45c0-.5522847.44771525-1 1-1 .5522847 0 1 .4477153 1 1v45h32c1.6568542 0 3-1.3431458 3-3v-50c0-1.65685425-1.3431458-3-3-3zm-32 7c0 .55228475-.4477153 1-1 1-.55228475 0-1-.44771525-1-1v-3c0-.55228475.44771525-1 1-1 .5522847 0 1 .44771525 1 1zm12 39c0-2.209139 1.790861-4 4-4s4 1.790861 4 4-1.790861 4-4 4-4-1.790861-4-4zm9 8h-5c-.5522847 0-1-.4477153-1-1s.4477153-1 1-1h5c.5522847 0 1 .4477153 1 1s-.4477153 1-1 1zm-1.854-27.564c-3.1311681 1.2261843-5.1790897 4.2594642-5.146 7.622v.942c0 1.1045695.8954305 2 2 2s2-.8954305 2-2v-.942c-.0374964-1.6939671.9746332-3.2352368 2.544-3.874.3366643-.13419.7195834-.0757217 1.0008614.1528226.281278.2285444.4168848.5913892.3544445.9483921-.0624403.3570028-.3131535.6522798-.6553059.7717853-.7869811.3467142-1.2805356 1.1408486-1.243 2v.943c0 2.209139-1.790861 4-4 4s-4-1.790861-4-4v-.942c-.0330412-4.1984326 2.5332427-7.9799894 6.447-9.5 2.8186587-1.0543633 4.6479763-3.7922857 4.5432694-6.7998687-.1047069-3.0075829-2.1200023-5.6116579-5.0051616-6.4674467-2.8851594-.8557889-5.9944153.2282542-7.7221078 2.6923154-.7975884 1.222925-2.198129 1.914136-3.6539508 1.8033399-1.4558217-.110796-2.7356277-1.0059961-3.3389593-2.3355388-.6033315-1.3295427-.4343329-2.8821941.4409101-4.0508011 3.3481438-4.7652762 9.1519568-7.16181999 14.8867932-6.14714021 5.7348365 1.01467979 10.3639901 5.25715595 11.8737894 10.88196091 1.5097993 5.6248049-.3726874 11.615123-4.8285826 15.3651793-.422774.3553952-1.0536048.300774-1.409-.122s-.300774-1.0536048.122-1.409c3.8585603-3.2507234 5.4877641-8.4404556 4.1793976-13.3132235-1.3083664-4.8727679-5.3179838-8.54844386-10.2858741-9.429214-4.9678903-.88077015-9.9967447 1.19245174-12.9005235 5.3184375-.6336836.9041656-.4147968 2.1507906.489 2.785.4323761.3069891.9701249.4270094 1.492.333.5237974-.0908678.9896228-.3871385 1.294-.823 2.2226352-3.16612354 6.2198559-4.55777794 9.9281915-3.45655456 3.7083355 1.10122336 6.2981525 4.44895746 6.4325191 8.31501376s-2.2167779 7.3855158-5.8397106 8.7415408zm13.854 24.564c0 1.6568542-1.3431458 3-3 3h-5c-.5522847 0-1-.4477153-1-1s.4477153-1 1-1h5c.5522847 0 1-.4477153 1-1v-4c0-.5522847.4477153-1 1-1s1 .4477153 1 1z"/><path id="Shape" d="m0 3v50c0 1.6568542 1.34314575 3 3 3h2v-56h-2c-1.65685425 0-3 1.34314575-3 3z"/><circle id="Oval" cx="27" cy="46" r="2"/></g></g></svg>