<svg height="512" viewBox="0 0 56 56" width="512" xmlns="http://www.w3.org/2000/svg"><g id="Page-1" fill="none" fill-rule="evenodd"><g id="066---Comment-Note" fill="rgb(0,0,0)" fill-rule="nonzero"><path id="Shape" d="m24.335 33.163 3.307-1.523c.2195175-.2973377.2571355-.6915097.0978215-1.0250014s-.4895802-.5519198-.8588215-.5679986c-1.0116195-.0506117-1.8203883-.8593805-1.871-1.871-.0105524-.250428-.1147652-.4877618-.292-.665-.3532096-.3409327-.8988032-.3829014-1.3-.1l-1.53 3.3c1.0498899.5432634 1.9060226 1.3979988 2.451 2.447z"/><path id="Shape" d="m51 16h-4.874l-17.168 17.167c-.0830091.0832067-.1801989.1509348-.287.2l-8.038 3.723c-.2705053.1362865-.5691025.2075115-.872.208-.5301525-.0028301-1.0372831-.2169839-1.409-.595-.6174254-.6039479-.7694556-1.5396433-.375-2.308l3.71-8.011c.0494125-.1066021.1171002-.203734.2-.287l10.097-10.097h-26.984c-2.76005315.0033061-4.99669388 2.2399468-5 5v22c.00330612 2.7600532 2.23994685 4.9966939 5 5h15c.9423982-.0058351 1.832168.4338595 2.4 1.186 1.414 1.883 4.823 6.413 4.823 6.413.1862645.2421923.4744651.38412.78.38412s.5937355-.1419277.78-.38412l4.817-6.399c.5694278-.751977 1.4567617-1.1956439 2.4-1.2h15c2.7600532-.0033061 4.9966939-2.2399468 5-5v-22c-.0033061-2.7600532-2.2399468-4.9966939-5-5zm-46 5h-1c-.55228475 0-1-.4477153-1-1s.44771525-1 1-1h1c.55228475 0 1 .4477153 1 1s-.44771525 1-1 1zm3-1c0-.5522847.44771525-1 1-1h14c.5522847 0 1 .4477153 1 1s-.4477153 1-1 1h-14c-.55228475 0-1-.4477153-1-1zm38 25h-10c-.5522847 0-1-.4477153-1-1s.4477153-1 1-1h10c.5522847 0 1 .4477153 1 1s-.4477153 1-1 1zm6 0h-2c-.5522847 0-1-.4477153-1-1s.4477153-1 1-1h2c.5522847 0 1 .4477153 1 1s-.4477153 1-1 1z"/><path id="Shape" d="m19.778 35.262 2.737-1.262c-.3412959-.6192831-.852329-1.1282347-1.473-1.467z"/><path id="Shape" d="m48.051 5.59c.3950525-.35416228.9979298-.33815002 1.3736257.03648311.375696.37463314.393416.97746265.0403743 1.37351689l-.708.707 1.415 1.415 4.242-4.243c.7807639-.7809997.7807639-2.0470003 0-2.828l-1.414-1.41c-.791167-.75581397-2.036833-.75581397-2.828 0l-4.243 4.242 1.414 1.417zm2.828-2.828c.2859742-.28606061.7161158-.37167172 1.0898272-.21690842.3737115.1547633.6173863.51941869.6173863.92390842s-.2436748.76914512-.6173863.92390842c-.3737114.1547633-.803853.06915219-1.0898272-.21690842-.3903819-.39049985-.3903819-1.02350015 0-1.414z"/><path id="Shape" d="m43.808 10.833c-.2651948-.0000566-.5195073-.1054506-.707-.293l-1.415-1.414-16.4 16.4c.3142701.1361732.6009867.3286733.846.568.5207202.5230046.8298452 1.2199603.868 1.957 1.0971781.0523598 2.0735115.7123781 2.531 1.711l15.469-15.462.012-.012.919-.919c-.3789722-.3923789-.3735524-1.0160848.0121814-1.4018186s1.0094397-.3911536 1.4018186-.0121814l1.415-1.415-2.119-2.119-2.126-2.121-1.415 1.411 1.415 1.415c.2859079.28599425.3714219.71603662.216678 1.0896546-.1547439.3736179-.5192821.6172591-.923678.6173454zm-1.414 3.242-12.729 12.725c-.2510745.2599566-.6228779.3642126-.9725073.2726972-.3496295-.0915155-.6226744-.3645604-.7141899-.7141899-.0915154-.3496294.0127406-.7214328.2726972-.9725073l12.728-12.725c.2525868-.2527654.6208353-.3515768.96603-.259213.3451946.0923639.6148921.3618708.7075.707.0926078.3451293-.0059432.7134476-.25853.966213z"/></g></g></svg>