<svg height="512" viewBox="0 0 56 56" width="512" xmlns="http://www.w3.org/2000/svg"><g id="Page-1" fill="none" fill-rule="evenodd"><g id="067---Add-Printer" fill="rgb(0,0,0)" fill-rule="nonzero"><path id="Shape" d="m22 40c.0041382-1.3465169.1597842-2.6882921.464-4h-18.464v10h2v-6c0-.5522847.44771525-1 1-1s1 .4477153 1 1v11c-.06947975 2.6849222 2.0453565 4.9204784 4.73 5h19.062c-6.0035871-3.0778589-9.7830372-9.253431-9.792-16zm-6 1h3c.5522847 0 1 .4477153 1 1s-.4477153 1-1 1h-3c-.5522847 0-1-.4477153-1-1s.4477153-1 1-1zm0 4h3c.5522847 0 1 .4477153 1 1s-.4477153 1-1 1h-3c-.5522847 0-1-.4477153-1-1s.4477153-1 1-1zm5 6h-5c-.5522847 0-1-.4477153-1-1s.4477153-1 1-1h5c.5522847 0 1 .4477153 1 1s-.4477153 1-1 1z"/><path id="Shape" d="m40 24c-8.836556 0-16 7.163444-16 16s7.163444 16 16 16 16-7.163444 16-16c-.0104696-8.8322157-7.1677843-15.9895304-16-16zm6 17h-5v5c0 .5522847-.4477153 1-1 1s-1-.4477153-1-1v-5h-5c-.5522847 0-1-.4477153-1-1s.4477153-1 1-1h5v-5c0-.5522847.4477153-1 1-1s1 .4477153 1 1v5h5c.5522847 0 1 .4477153 1 1s-.4477153 1-1 1z"/><path id="Shape" d="m46 5c-.0033061-2.76005315-2.2399468-4.99669388-5-5h-26c-2.7600532.00330612-4.9966939 2.23994685-5 5v9h36zm-30-1h-2c-.5522847 0-1-.44771525-1-1s.4477153-1 1-1h2c.5522847 0 1 .44771525 1 1s-.4477153 1-1 1zm23 0h-19c-.5522847 0-1-.44771525-1-1s.4477153-1 1-1h19c.5522847 0 1 .44771525 1 1s-.4477153 1-1 1z"/><path id="Shape" d="m53 16h-50c-1.65685425 0-3 1.3431458-3 3v24c.00525139 1.2667854.80564914 2.3937454 2 2.816v-11.816c0-.5522847.44771525-1 1-1s1 .4477153 1 1h19.05c.3688265-1.0404678.8327898-2.0447175 1.386-3h-11.436c-.5522847 0-1-.4477153-1-1s.4477153-1 1-1h12.784c3.7552844-4.8772338 9.7474557-7.4905347 15.8767956-6.9241752 6.12934.5663594 11.5411983 4.2334083 14.3392044 9.7161752v-12.792c0-.7956495-.3160705-1.5587112-.8786797-2.1213203-.5626091-.5626092-1.3256708-.8786797-2.1213203-.8786797zm-49 14c0 .5522847-.44771525 1-1 1s-1-.4477153-1-1v-1c0-.5522847.44771525-1 1-1s1 .4477153 1 1zm1-9h-1c-.55228475 0-1-.4477153-1-1s.44771525-1 1-1h1c.55228475 0 1 .4477153 1 1s-.44771525 1-1 1zm4 10h-2c-.55228475 0-1-.4477153-1-1s.44771525-1 1-1h2c.55228475 0 1 .4477153 1 1s-.44771525 1-1 1zm1-10h-1c-.55228475 0-1-.4477153-1-1s.44771525-1 1-1h1c.5522847 0 1 .4477153 1 1s-.4477153 1-1 1z"/></g></g></svg>