<svg height="512" viewBox="0 0 56 56" width="512" xmlns="http://www.w3.org/2000/svg"><g id="Page-1" fill="none" fill-rule="evenodd"><g id="069---Search" fill="rgb(0,0,0)" fill-rule="nonzero"><rect id="Rectangle-path" height="4" rx="1" width="10" x="38" y="5"/><rect id="Rectangle-path" height="3" rx="1" width="14" x="6"/><rect id="Rectangle-path" height="4" rx="1" width="10" x="8" y="5"/><path id="Shape" d="m21 13h1v-1c0-.5522847-.4477153-1-1-1h-18c-.55228475 0-1 .4477153-1 1v1z"/><path id="Shape" d="m53 13h1v-1c0-.5522847-.4477153-1-1-1h-18c-.5522847 0-1 .4477153-1 1v1z"/><rect id="Rectangle-path" height="3" rx="1" width="14" x="36"/><path id="Shape" d="m37.383 50h15.234c.2955249-.0002203.5758183-.1311447.7656533-.3576347.1898349-.2264901.2697681-.5253483.2183467-.8163653l-2.294-13c-.0844343-.4778526-.4997452-.8261234-.985-.826h-10.644c-.4852548-.0001234-.9005657.3481474-.985.826l-2.294 13c-.0514214.291017.0285118.5898752.2183467.8163653.189835.22649.4701284.3574144.7656533.3576347zm12.417-5.1.2 2c.0278903.2654886-.0515274.531108-.2205699.7377155-.1690426.2066076-.4136759.3370505-.6794301.3622845-.035 0-.068.005-.1.005-.5131825-.0005068-.942682-.3893896-.994-.9l-.2-2c-.0552285-.5495233.3454767-1.0397715.895-1.095s1.0397715.3454767 1.095.895zm-1.9-8.895c.2647015-.0279374.5296188.0508068.7360835.218794s.3374387.4113545.3639165.676206l.4 3.96c.0264738.2646777-.0535944.5289965-.2224941.7344911-.1688997.2054947-.4127114.3352298-.6775059.3605089-.034 0-.067.005-.1.005-.5135653.0000065-.9436435-.389009-.995-.9l-.4-3.96c-.026525-.2638911.0528684-.5275107.2207141-.7328638.1678457-.2053532.4103941-.3356177.6742859-.3621362z"/><path id="Shape" d="m51 17h1v-1c0-.5522847-.4477153-1-1-1h-14c-.5522847 0-1 .4477153-1 1v12c0 .5522847.4477153 1 1 1h14c.5522847 0 1-.4477153 1-1v-4c0-.5522847-.4477153-1-1-1h-5c-.5522847 0-1-.4477153-1-1s.4477153-1 1-1h5c.5522847 0 1-.4477153 1-1v-1h-1c-.5522847 0-1-.4477153-1-1s.4477153-1 1-1zm-4 2h-4c-.5522847 0-1-.4477153-1-1s.4477153-1 1-1h4c.5522847 0 1 .4477153 1 1s-.4477153 1-1 1z"/><path id="Shape" d="m23 26h10c.5522847 0 1-.4477153 1-1v-6c0-.5522847-.4477153-1-1-1h-10c-.5522847 0-1 .4477153-1 1v6c0 .5522847.4477153 1 1 1zm6-5c0-.5522847.4477153-1 1-1s1 .4477153 1 1v1c0 .5522847-.4477153 1-1 1s-1-.4477153-1-1zm-4 0c0-.5522847.4477153-1 1-1s1 .4477153 1 1v1c0 .5522847-.4477153 1-1 1s-1-.4477153-1-1z"/><path id="Shape" d="m54 31h-20v1c0 .5522847.4477153 1 1 1h18c.5522847 0 1-.4477153 1-1z"/><path id="Shape" d="m4.693 35.826-2.294 13c-.05142144.291017.0285118.5898752.21834673.8163653.18983493.22649.47012832.3574144.76565327.3576347h15.234c.2955249-.0002203.5758183-.1311447.7656533-.3576347.1898349-.2264901.2697681-.5253483.2183467-.8163653l-2.294-13c-.0844343-.4778526-.4997452-.8261234-.985-.826h-10.644c-.48525479-.0001234-.90056568.3481474-.985.826zm3.302 11.274c-.05135653.510991-.48143467.9000065-.995.9-.033 0-.066 0-.1-.005-.26389175-.0265185-.50644023-.156783-.67428593-.3621362-.16784571-.2053531-.24723912-.4689727-.22071407-.7328638l.2-2c.05522849-.5495233.54547668-.9502284 1.095-.895.54952331.0552285.95022846.5454767.895 1.095zm.6-6.04c-.05154198.5129013-.48452193.9025832-1 .9-.033 0-.066 0-.1-.005-.26479449-.0252791-.50860618-.1550142-.67750589-.3605089-.1688997-.2054946-.24896789-.4698134-.22249411-.7344911l.4-3.96c.05522849-.5495233.54547668-.9502284 1.095-.895.54952331.0552285.95022846.5454767.895 1.095z"/><path id="Shape" d="m21 31h-19v1c0 .5522847.44771525 1 1 1h18c.5522847 0 1-.4477153 1-1v-1z"/><rect id="Rectangle-path" height="4" rx="1" width="22" x="34" y="52"/><path id="Shape" d="m10 23h-5c-.55228475 0-1 .4477153-1 1v4c0 .5522847.44771525 1 1 1h14c.5522847 0 1-.4477153 1-1v-12c0-.5522847-.4477153-1-1-1h-14c-.55228475 0-1 .4477153-1 1v1h1c.55228475 0 1 .4477153 1 1s-.44771525 1-1 1h-1v1c0 .5522847.44771525 1 1 1h5c.5522847 0 1 .4477153 1 1s-.4477153 1-1 1zm-1-4c-.55228475 0-1-.4477153-1-1s.44771525-1 1-1h4c.5522847 0 1 .4477153 1 1s-.4477153 1-1 1z"/><rect id="Rectangle-path" height="4" rx="1" width="22.001" y="52"/></g></g></svg>