<svg height="512" viewBox="0 0 58 58" width="512" xmlns="http://www.w3.org/2000/svg"><g id="Page-1" fill="none" fill-rule="evenodd"><g id="070---Alert" fill="rgb(0,0,0)" fill-rule="nonzero" transform="translate(0 -1)"><path id="Shape" d="m57.265 49.044-22.114-44.244c-1.1647718-2.32938954-3.5456289-3.80079659-6.15-3.80079659s-4.9852282 1.47140705-6.15 3.80079659l-22.116 44.244c-1.06635847 2.1321816-.95274683 4.6644689.30026462 6.6925915 1.25301146 2.0281226 3.46676418 3.262904 5.85073538 3.2634085h44.228c2.3839712-.0005045 4.5977239-1.2352859 5.8507354-3.2634085 1.2530114-2.0281226 1.3666231-4.5604099.3002646-6.6925915zm-35.936-34.491 1.5-3c.158024-.3224865.4768371-.5354742.8352525-.5580026.3584153-.0225283.7013887.1488625.8985495.4490237.1971608.3001611.2182297.6829949.055198 1.0029789l-1.5 3c-.158024.3224865-.4768371.5354742-.8352525.5580026-.3584153.0225283-.7013887-.1488625-.8985495-.4490237-.1971608-.3001611-.2182297-.6829949-.055198-1.0029789zm11.618 15.547c-.0205538.2657828-.1482782.5117888-.3538387.6815176-.2055604.1697288-.471291.2485939-.7361613.2184824-.5493903-.0527177-.9521958-.5405599-.9-1.09l.943-9.91h-5.8l1.809 19h2.182l.295-3.095c.0213704-.2654542.149318-.5109431.3546754-.6805043.2053574-.1695611.4706224-.2487432.7353246-.2194957.5493903.0527177.9521958.5405599.9 1.09l-.295 3.094c-.0928902 1.0285985-.9572242 1.8151858-1.99 1.811h-2.182c-1.0327758.0041858-1.8971098-.7824015-1.99-1.811l-1.81-19c-.0532317-.5607776.1324863-1.1180033.511506-1.5347156.3790198-.4167124.9161955-.6542704 1.479494-.6542844h5.8c.5632985.000014 1.1004742.237572 1.479494.6542844.3790197.4167123.5647377.973938.511506 1.5347156zm.053 16.9c0 2.209139-1.790861 4-4 4s-4-1.790861-4-4 1.790861-4 4-4 4 1.790861 4 4zm0 9h-26.113c-1.34418506-.0004691-2.59231479-.6968058-3.29875257-1.8403876-.70643779-1.1435818-.77047495-2.5713815-.16924743-3.7736124l14.411-28.833c.158024-.3224865.4768371-.5354742.8352525-.5580026.3584153-.0225283.7013887.1488625.8985495.4490237.1971608.3001611.2182297.6829949.055198 1.0029789l-14.411 28.833c-.29082775.5823127-.25975567 1.273629.08213943 1.8275031s.94596288.891492 1.59686057.8924969h26.113c.5522847 0 1 .4477153 1 1s-.4477153 1-1 1zm10 0h-4c-.5522847 0-1-.4477153-1-1s.4477153-1 1-1h4c.5522847 0 1 .4477153 1 1s-.4477153 1-1 1zm11.411-1.839c-.6980373 1.1517752-1.9512603 1.8505857-3.298 1.839h-3.113c-.5522847 0-1-.4477153-1-1s.4477153-1 1-1h3.113c.6511855-.0008324 1.2555671-.3385854 1.5975222-.8927604.3419552-.5541751.3727802-1.2458426.0814778-1.8282396l-22.113-44.241c-.3178851-.63607371-.9679158-1.03790048-1.679-1.03790048s-1.3611149.40182677-1.679 1.03790048c-.2493412.48938453-.8467164.68607425-1.3380295.44055502-.491313-.24551923-.6926529-.84134322-.4509705-1.33455502.6566113-1.31380186 1.9992544-2.14376459 3.468-2.14376459s2.8113887.82996273 3.468 2.14376459l22.113 44.241c.6128394 1.2006502.5482508 2.635277-.17 3.776z"/><circle id="Oval" cx="29" cy="47" r="2"/></g></g></svg>