<svg height="512" viewBox="0 0 56 56" width="512" xmlns="http://www.w3.org/2000/svg"><g id="Page-1" fill="none" fill-rule="evenodd"><g id="071---Eye" fill="rgb(0,0,0)" fill-rule="nonzero"><path id="Shape" d="m1.432 24.24c-1.90749923 2.1445422-1.90749923 5.3774578 0 7.522 4.996 5.69 15.091 15.238 26.568 15.238 3.7264089-.0623372 7.391766-.9568101 10.728-2.618l-28.441-28.441c-3.22525596 2.4591313-6.19217387 5.2397583-8.855 8.299zm14.76 1.613c.0637719-.3515493.3102489-.6423724.6465855-.762919s.7114353-.0525028.984.1785.4011864.5898697.3374145.941419c-.1066068.5907013-.1601536 1.1897558-.16 1.79 0 .5522847-.4477153 1-1 1s-1-.4477153-1-1c-.0005105-.7199762.0637484-1.4385387.192-2.147zm-3.653-1.976c.1496294-.5248486.6924394-.8327948 1.2197184-.6919687.5272789.140826.8442649.6784071.7122816 1.2079687-1.2847866 4.8271.0986838 9.9731007 3.6307916 13.5052084 3.5321077 3.5321078 8.6781084 4.9155782 13.5052084 3.6307916.3474118-.0990438.7212339-.0030122.9778941.2512123.2566603.2542246.3562519.6271141.2605251.9754544-.0957268.3483404-.3718878.6179699-.7224192.7053333-5.5172147 1.4721115-11.4008005-.1077094-15.4385455-4.1454545-4.0377451-4.037745-5.617566-9.9213308-4.1454545-15.4385455z"/><path id="Shape" d="m54.568 31.76c1.9074992-2.1445422 1.9074992-5.3774578 0-7.522-4.996-5.69-15.091-15.238-26.568-15.238-3.7264089.06233725-7.391766.95681013-10.728 2.618l28.441 28.441c3.225256-2.4591313 6.1921739-5.2397583 8.855-8.299zm-26.568-13.76c-.5996112.0001833-1.1980012.0540652-1.788.161-.0596278.0116026-.1202545.0172968-.181.017-.5177842.0004316-.9502617-.3944531-.9967882-.9101429-.0465264-.5156897.3082882-.9816053.8177882-1.0738571.7086712-.1294089 1.4276103-.194341 2.148-.194.5522847 0 1 .4477153 1 1s-.4477153 1-1 1zm15.462 14.124c-.1496294.5248486-.6924394.8327948-1.2197184.6919687-.5272789-.140826-.8442649-.6784071-.7122816-1.2079687 1.2955745-4.8702815-.1250754-10.0611108-3.7201652-13.5928929s-8.8103371-4.8599953-13.6568348-3.4781071c-.3436895.0980694-.7135911.0053331-.9703664-.243276-.2567754-.2486092-.3614142-.6153215-.2745-.962.0869141-.3466786.3521769-.6206546.6958664-.718724 5.5388482-1.5781831 11.4985313-.0595678 15.6067043 3.9768187s5.7316019 9.9683754 4.2512957 15.5341813z"/><path id="Shape" d="m3.413.587c-.78901967-.7262072-2.01037471-.70090294-2.76863882.05736118-.75826412.75826411-.78356838 1.97961915-.05736118 2.76863882l52 52c.7864539.7575118 2.0303298.7601583 2.82.006l.006-.006c.7794319-.7807702.7794319-2.0452298 0-2.826z"/></g></g></svg>