<svg height="512" viewBox="0 0 52 56" width="512" xmlns="http://www.w3.org/2000/svg"><g id="Page-1" fill="none" fill-rule="evenodd"><g id="072---Mobile-Alert" fill="rgb(0,0,0)" fill-rule="nonzero"><path id="Shape" d="m28.253 41.874c-3.191 2.572-7.389 3.142-10.479 3.142-.129 0-.255 0-.379 0-.7707535-.0053485-1.4673617-.460372-1.782-1.164-.3240323-.7208524-.1969683-1.5645573.325-2.158.9892232-1.203909 1.6683612-2.6318841 1.978-4.159.081356-.3443463-.0304277-.705729-.292-.944-3.4846825-2.8512305-5.5409929-7.0892629-5.624-11.591 0-9.1 8.886-16.532 20-16.959v-6.041c0-1.1045695-.8954305-2-2-2h-3.567l-2.564 2.735c-.7571716.80580401-1.8132755 1.26348524-2.919 1.265h-9.9c-1.10572447-.00151476-2.16182843-.45919599-2.919-1.265l-2.564-2.735h-3.567c-1.1045695 0-2 .8954305-2 2v47c0 1.1045695.8954305 2 2 2h28c1.1045695 0 2-.8954305 2-2v-7.038c-.9820905-.0311213-1.9616451-.1175918-2.934-.259-.2829746-.0554102-.5763236.0062905-.813.171zm-24.253-13.874c0 .5522847-.44771525 1-1 1s-1-.4477153-1-1v-16c0-.5522847.44771525-1 1-1s1 .4477153 1 1zm0-20c0 .55228475-.44771525 1-1 1s-1-.44771525-1-1v-2c0-.55228475.44771525-1 1-1s1 .44771525 1 1z"/><path id="Shape" d="m2 53c-.70425323-.0041446-1.39465346-.1960759-2-.556v1.556c0 1.1045695.8954305 2 2 2h28c1.1045695 0 2-.8954305 2-2v-1.556c-.6053465.3599241-1.2957468.5518554-2 .556z"/><path id="Rectangle-path" d="m32 33h2.001v2h-2.001z"/><path id="Shape" d="m33 10c-10.477 0-19 6.729-19 15 .088247 3.920305 1.8922941 7.6044359 4.935 10.078.8225972.7202147 1.1806596 1.8355539.931 2.9-.3814399 1.8459829-1.2096106 3.5703083-2.412 5.022 2.26.05 6.534-.254 9.545-2.68.6715341-.5194907 1.5303171-.7331888 2.367-.589 1.202939.1800858 2.4176563.2700029 3.634.269 10.477 0 19-6.729 19-15s-8.523-15-19-15zm3 25c0 1.1045695-.8954305 2-2 2h-2c-1.1045695 0-2-.8954305-2-2v-2c0-1.1045695.8954305-2 2-2h2c1.1045695 0 2 .8954305 2 2zm.06-7.867c-.0701317 1.052316-.9453522 1.8693344-2 1.867h-2.124c-1.0550085.0023002-1.9303718-.8152891-2-1.868l-.791-11.932c-.0553553-.8284819.2351345-1.6428537.8023244-2.2492712.5671898-.6064175 1.3603464-.9506386 2.1906756-.9507288h1.724c.8303292.0000902 1.6234858.3443113 2.1906756.9507288.5671899.6064175.8576797 1.4207893.8023244 2.2492712zm12.94-1.133c-.5522847 0-1-.4477153-1-1 0-3.593-2.425-6.974-6.488-9.044-.3294433-.1557308-.548097-.478336-.5707071-.8420305-.0226102-.3636946.1544029-.7108976.4620211-.9062332.3076182-.1953355.6971388-.2078777 1.016686-.0327363 4.747 2.418 7.58 6.465 7.58 10.825 0 .5522847-.4477153 1-1 1z"/><path id="Shape" d="m33.862 14h-1.724c-.277058-.0006041-.5419495.1137635-.7315043.3158289-.1895549.2020655-.2867822.4737166-.2684957.7501711l.798 11.934h2.128l.8-11.934c.0182865-.2764545-.0789408-.5481056-.2684957-.7501711-.1895548-.2020654-.4544463-.316433-.7315043-.3158289z"/><path id="Shape" d="m11.05 2h9.9c.552924-.00066824 1.081104-.22930508 1.46-.632l1.282-1.368h-15.383l1.282 1.368c.3780976.40323888.9062257.63200995 1.459.632z"/></g></g></svg>