<svg height="512" viewBox="0 0 52 56" width="512" xmlns="http://www.w3.org/2000/svg"><g id="Page-1" fill="none" fill-rule="evenodd"><g id="073---Mobile-Text" fill="rgb(0,0,0)" fill-rule="nonzero"><path id="Shape" d="m28.253 41.874c-3.191 2.572-7.389 3.142-10.479 3.142-.129 0-.255 0-.379 0-.7707535-.0053485-1.4673617-.460372-1.782-1.164-.3240323-.7208524-.1969683-1.5645573.325-2.158.9892232-1.203909 1.6683612-2.6318841 1.978-4.159.081356-.3443463-.0304277-.705729-.292-.944-3.4846825-2.8512305-5.5409929-7.0892629-5.624-11.591 0-9.1 8.886-16.532 20-16.959v-6.041c0-1.1045695-.8954305-2-2-2h-3.567l-2.564 2.735c-.7571716.80580401-1.8132755 1.26348524-2.919 1.265h-9.9c-1.10572447-.00151476-2.16182843-.45919599-2.919-1.265l-2.564-2.735h-3.567c-1.1045695 0-2 .8954305-2 2v47c0 1.1045695.8954305 2 2 2h28c1.1045695 0 2-.8954305 2-2v-7.038c-.9820905-.0311213-1.9616451-.1175918-2.934-.259-.2829754-.0555273-.5763701.006183-.813.171zm-24.253-13.874c0 .5522847-.44771525 1-1 1s-1-.4477153-1-1v-16c0-.5522847.44771525-1 1-1s1 .4477153 1 1zm0-20c0 .55228475-.44771525 1-1 1s-1-.44771525-1-1v-2c0-.55228475.44771525-1 1-1s1 .44771525 1 1z"/><circle id="Oval" cx="25" cy="25" r="1"/><path id="Shape" d="m2 53c-.70425323-.0041446-1.39465346-.1960759-2-.556v1.556c0 1.1045695.8954305 2 2 2h28c1.1045695 0 2-.8954305 2-2v-1.556c-.6053465.3599241-1.2957468.5518554-2 .556z"/><path id="Shape" d="m11.05 2h9.9c.552924-.00066824 1.081104-.22930508 1.46-.632l1.282-1.368h-15.383l1.282 1.368c.3780976.40323888.9062257.63200995 1.459.632z"/><circle id="Oval" cx="33" cy="25" r="1"/><circle id="Oval" cx="41" cy="25" r="1"/><path id="Shape" d="m33 10c-10.477 0-19 6.729-19 15 .088247 3.920305 1.8922941 7.6044359 4.935 10.078.8225972.7202147 1.1806596 1.8355539.931 2.9-.3814399 1.8459829-1.2096106 3.5703083-2.412 5.022 2.256.05 6.534-.254 9.545-2.68.6715341-.5194907 1.5303171-.7331888 2.367-.589 1.202939.1800858 2.4176563.2700029 3.634.269 10.477 0 19-6.729 19-15s-8.523-15-19-15zm-8 18c-1.6568542 0-3-1.3431458-3-3s1.3431458-3 3-3 3 1.3431458 3 3-1.3431458 3-3 3zm8 0c-1.6568542 0-3-1.3431458-3-3s1.3431458-3 3-3 3 1.3431458 3 3-1.3431458 3-3 3zm8 0c-1.6568542 0-3-1.3431458-3-3s1.3431458-3 3-3 3 1.3431458 3 3-1.3431458 3-3 3zm8-2c-.5522847 0-1-.4477153-1-1 0-3.593-2.425-6.974-6.488-9.044-.3294433-.1557308-.548097-.478336-.5707071-.8420305-.0226102-.3636946.1544029-.7108976.4620211-.9062332.3076182-.1953355.6971388-.2078777 1.016686-.0327363 4.747 2.418 7.58 6.465 7.58 10.825 0 .5522847-.4477153 1-1 1z"/></g></g></svg>