<svg height="512" viewBox="0 0 52 56" width="512" xmlns="http://www.w3.org/2000/svg"><g id="Page-1" fill="none" fill-rule="evenodd"><g id="074---Mobile-Call" fill="rgb(0,0,0)" fill-rule="nonzero"><path id="Shape" d="m28.253 41.874c-3.191 2.572-7.389 3.142-10.479 3.142-.129 0-.255 0-.379 0-.7707535-.0053485-1.4673617-.460372-1.782-1.164-.3240323-.7208524-.1969683-1.5645573.325-2.158.9892232-1.203909 1.6683612-2.6318841 1.978-4.159.081356-.3443463-.0304277-.705729-.292-.944-3.4846825-2.8512305-5.5409929-7.0892629-5.624-11.591 0-9.1 8.886-16.532 20-16.959v-6.041c0-1.1045695-.8954305-2-2-2h-3.567l-2.564 2.735c-.7571716.80580401-1.8132755 1.26348524-2.919 1.265h-9.9c-1.10572447-.00151476-2.16182843-.45919599-2.919-1.265l-2.564-2.735h-3.567c-1.1045695 0-2 .8954305-2 2v47c0 1.1045695.8954305 2 2 2h28c1.1045695 0 2-.8954305 2-2v-7.038c-.9820905-.0311213-1.9616451-.1175918-2.934-.259-.2829754-.0555273-.5763701.006183-.813.171zm-24.253-13.874c0 .5522847-.44771525 1-1 1s-1-.4477153-1-1v-16c0-.5522847.44771525-1 1-1s1 .4477153 1 1zm0-20c0 .55228475-.44771525 1-1 1s-1-.44771525-1-1v-2c0-.55228475.44771525-1 1-1s1 .44771525 1 1z"/><path id="Shape" d="m11.05 2h9.9c.552924-.00066824 1.081104-.22930508 1.46-.632l1.282-1.368h-15.383l1.282 1.368c.3780976.40323888.9062257.63200995 1.459.632z"/><path id="Shape" d="m2 53c-.70425323-.0041446-1.39465346-.1960759-2-.556v1.556c0 1.1045695.8954305 2 2 2h28c1.1045695 0 2-.8954305 2-2v-1.556c-.6053465.3599241-1.2957468.5518554-2 .556z"/><path id="Shape" d="m38.064 27.429c-.0574193-.0424567-.1311918-.0561046-.2-.037-.0692216.0161397-.1273551.0628672-.158.127l-1.106 2.218c-.0472697.0965653-.11049.1844652-.187.26-.4189334.4225671-.989968.6592673-1.585.657-.5932124.0019888-1.1625457-.2335229-1.581-.654l-5.265-5.282c-.8710722-.8783174-.8710722-2.2946826 0-3.173.075983-.0762523.1637794-.1397359.26-.188l2.211-1.108c.0643251-.0314158.1110036-.0902233.127-.16.0173543-.0690112.0034555-.1421627-.038-.2l-2.692-3.789c-.0401607-.058632-.1050742-.0955147-.176-.1h-.021c-.0628964-.000483-.1232465.0248134-.167.07l-1.6 1.6c-2.5147535 2.5320305-2.5147535 6.6189695 0 9.151l5.265 5.282c1.2063842 1.212361 2.8461837 1.893963 4.5565 1.893963s3.3501158-.681602 4.5565-1.893963l1.6-1.6c.050864-.0511569.0768212-.1219937.0710531-.1939027-.0057681-.0719089-.0426849-.1377024-.1010531-.1800973z"/><path id="Shape" d="m33 10c-10.477 0-19 6.729-19 15 .088247 3.920305 1.8922941 7.6044359 4.935 10.078.8225972.7202147 1.1806596 1.8355539.931 2.9-.3814399 1.8459829-1.2096106 3.5703083-2.412 5.022 2.261.05 6.534-.254 9.545-2.68.6715341-.5194907 1.5303171-.7331888 2.367-.589 1.202939.1800858 2.4176563.2700029 3.634.269 10.477 0 19-6.729 19-15s-8.523-15-19-15zm10.28 21.916-1.6 1.6c-1.5822065 1.5881546-3.7317122 2.4808722-5.9735 2.4808722s-4.3912935-.8927176-5.9735-2.4808722l-5.265-5.283c-3.2890289-3.3141482-3.2890289-8.6608518 0-11.975l1.6-1.6c.4623106-.4710544 1.1116842-.7096598 1.769-.65.6579403.0534065 1.25862.3949263 1.641.933l2.692 3.781c.3801046.5341068.5081285 1.2075251.3505358 1.8438538-.1575928.6363286-.5850997 1.1721646-1.1705358 1.4671462l-2.007 1.006c-.0342545.0912321-.0128368.194037.055.264l5.265 5.282c.0444037.0453273.1055605.0702967.169.069.0289223.0001876.0576657-.0045466.085-.014l1-2.013c.292064-.5874805.8271007-1.0173015 1.4637228-1.1758797s1.3107634-.0299551 1.8442772.3518797l3.775 2.702c.535205.3841351.8748731.9837905.9291525 1.6403405.0542795.65655-.1822986 1.3038459-.6471525 1.7706595zm5.72-5.916c-.5522847 0-1-.4477153-1-1 0-3.593-2.425-6.974-6.488-9.044-.3294433-.1557308-.548097-.478336-.5707071-.8420305-.0226102-.3636946.1544029-.7108976.4620211-.9062332.3076182-.1953355.6971388-.2078777 1.016686-.0327363 4.747 2.418 7.58 6.465 7.58 10.825 0 .5522847-.4477153 1-1 1z"/></g></g></svg>