<svg height="512" viewBox="0 0 46 58" width="512" xmlns="http://www.w3.org/2000/svg"><g id="Page-1" fill="none" fill-rule="evenodd"><g id="076---Microphone" fill="rgb(0,0,0)" fill-rule="nonzero"><path id="Shape" d="m45 25h-1v-2h1c.5522847 0 1 .4477153 1 1s-.4477153 1-1 1z"/><path id="Shape" d="m40 32c-.008266 7.1762751-5.8237249 12.991734-13 13h-2v-2c0-.5522847-.4477153-1-1-1h-2c-.5522847 0-1 .4477153-1 1v2h-2c-7.1762751-.008266-12.99173398-5.8237249-13-13v-2h-2v2c.00936852 8.2803876 6.7196124 14.9906315 15 15h2v4c0 .5522847.4477153 1 1 1h2c.5522847 0 1-.4477153 1-1v-4h2c8.2803876-.0093685 14.9906315-6.7196124 15-15v-2h-2z"/><path id="Shape" d="m34 28h-14c-.5522847 0-1-.4477153-1-1s.4477153-1 1-1h14v-19c-.0049584-3.86393756-3.1360624-6.99504164-7-7h-8c-3.8639376.00495836-6.9950416 3.13606244-7 7v19h3c.5522847 0 1 .4477153 1 1s-.4477153 1-1 1h-3v2h22zm-10-23c.5522847 0 1 .44771525 1 1s-.4477153 1-1 1-1-.44771525-1-1 .4477153-1 1-1zm0 4c.5522847 0 1 .44771525 1 1 0 .5522847-.4477153 1-1 1s-1-.4477153-1-1c0-.55228475.4477153-1 1-1zm0 4c.5522847 0 1 .4477153 1 1s-.4477153 1-1 1-1-.4477153-1-1 .4477153-1 1-1zm0 4c.5522847 0 1 .4477153 1 1s-.4477153 1-1 1-1-.4477153-1-1 .4477153-1 1-1zm0 4c.5522847 0 1 .4477153 1 1s-.4477153 1-1 1-1-.4477153-1-1 .4477153-1 1-1zm-4-18c.5522847 0 1 .44771525 1 1s-.4477153 1-1 1-1-.44771525-1-1 .4477153-1 1-1zm0 4c.5522847 0 1 .44771525 1 1s-.4477153 1-1 1-1-.44771525-1-1 .4477153-1 1-1zm0 4c.5522847 0 1 .4477153 1 1s-.4477153 1-1 1-1-.4477153-1-1 .4477153-1 1-1zm0 4c.5522847 0 1 .4477153 1 1s-.4477153 1-1 1-1-.4477153-1-1 .4477153-1 1-1zm0 4c.5522847 0 1 .4477153 1 1s-.4477153 1-1 1-1-.4477153-1-1 .4477153-1 1-1zm-4 4c-.5522847 0-1-.4477153-1-1s.4477153-1 1-1 1 .4477153 1 1-.4477153 1-1 1zm0-4c-.5522847 0-1-.4477153-1-1s.4477153-1 1-1 1 .4477153 1 1-.4477153 1-1 1zm0-4c-.5522847 0-1-.4477153-1-1s.4477153-1 1-1 1 .4477153 1 1-.4477153 1-1 1zm0-4c-.5522847 0-1-.4477153-1-1 0-.55228475.4477153-1 1-1s1 .44771525 1 1c0 .5522847-.4477153 1-1 1zm0-4c-.5522847 0-1-.44771525-1-1s.4477153-1 1-1 1 .44771525 1 1-.4477153 1-1 1z"/><path id="Shape" d="m0 24c0 .5522847.44771525 1 1 1h1v-2h-1c-.55228475 0-1 .4477153-1 1z"/><path id="Shape" d="m6 28c.55228475 0 1-.4477153 1-1v-.993-.007-5c0-.5522847-.44771525-1-1-1h-2c-.55228475 0-1 .4477153-1 1v6c0 .5522847.44771525 1 1 1z"/><path id="Rectangle-path" d="m8 23h2v2h-2z"/><path id="Shape" d="m30 54h-14c-1.1045695 0-2 .8954305-2 2v2h18v-2c-.0027483-1.1034291-.8965709-1.9972517-2-2z"/><path id="Shape" d="m19 40h8c3.8639376-.0049584 6.9950416-3.1360624 7-7v-1h-22v1c.0049584 3.8639376 3.1360624 6.9950416 7 7z"/><path id="Rectangle-path" d="m36 23h2v2h-2z"/><path id="Shape" d="m42 20h-2c-.5522847 0-1 .4477153-1 1v6c0 .5522847.4477153 1 1 1h2c.5522847 0 1-.4477153 1-1v-6c0-.5522847-.4477153-1-1-1z"/></g></g></svg>