<svg height="512" viewBox="0 0 58 58" width="512" xmlns="http://www.w3.org/2000/svg"><g id="Page-1" fill="none" fill-rule="evenodd"><g id="078---User" fill="rgb(0,0,0)" fill-rule="nonzero"><path id="Shape" d="m29 47c2.0438196-.0060445 3.7526016-1.5555186 3.958-3.589-1.5779792-1.4058655-2.311292-3.5311846-1.936-5.611-1.3342795.2719944-2.7097205.2719944-4.044 0 .3767663 2.0811175-.356675 4.2083247-1.936 5.615.2073076 2.0318976 1.9155627 3.5791675 3.958 3.585z"/><path id="Shape" d="m37.491 29.626c.1616848-.4872036.666003-.7728544 1.167-.661.1124324.0237866.2270802.0355195.342.035 1.1045695 0 2-.8954305 2-2s-.8954305-2-2-2c-.3278116.0000821-.6348477-.1605081-.8217628-.4298094-.1869151-.2693014-.2299713-.6131131-.1152372-.9201906.027-.073 2.644-7.259-1.578-9.793-1.842-1.106-5.3-.955-8.643-.812-4.079.176-8.256.354-10.879-1.454.105 2.311.632 5.656 2.644 7.465.0358399.0256162.0693076.0543984.1.086.4729266.4043698 1.0196465.7133855 1.61.91.3394023.1128959.5927937.398285.6647242.748664.0719304.350379-.0485282.712517-.3160001.95-.2674719.2374831-.6413218.3142319-.9807241.201336-.2327296-.0784203-.4613537-.1685349-.685-.27v2.318c0 .5522847-.4477153 1-1 1-1.1045695 0-2 .8954305-2 2s.8954305 2 2 2c.1149198.0005195.2295676-.0112134.342-.035.071801-.0166966.1452833-.025085.219-.025.4307705.0006131.8127384.277016.948.686 1.1579689 3.7346013 4.5816101 6.3046506 8.491 6.374 3.9093899-.0693494 7.3330311-2.6393987 8.491-6.374z"/><path id="Shape" d="m37 44h-2.083c-.4856527 2.8893814-2.9870881 5.0054594-5.917 5.0054594s-5.4313473-2.116078-5.917-5.0054594h-2.083c-2.7684818.0117861-5.1687074 1.9180786-5.807 4.612 8.2749564 5.8507 19.3390436 5.8507 27.614 0-.6382926-2.6939214-3.0385182-4.6002139-5.807-4.612z"/><path id="Shape" d="m29 0c-16.0162577 0-29 12.9837423-29 29s12.9837423 29 29 29 29-12.9837423 29-29-12.9837423-29-29-29zm-19.963 12.359c.66118725-.7915877 1.3680583-1.5438695 2.117-2.253.401511-.37969575 1.0348042-.36201099 1.4145.0395.3796957.401511.362011 1.0348042-.0395 1.4145-.6920237.6552417-1.3454546 1.3500755-1.957 2.081-.2280334.2774736-.58735268.4113507-.94135344.3507344-.35400077-.0606162-.64830735-.306415-.77103169-.6439496s-.05501557-.7149586.17738513-.9887848zm35.433 37.524c-.017.011-.03.023-.047.033-9.1647618 6.7786263-21.6812382 6.7786263-30.846 0-.017-.01-.03-.022-.047-.033-9.73920907-7.2033941-13.2067742-20.182078-8.358-31.283.12617922-.3515292.43773808-.603445.80789332-.653235.37015525-.04979.73720681.1108452.95178968.4165381s.24092888.7054884.068317 1.0366969c-4.24018465 9.7065613-1.60551172 21.0454129 6.48 27.888 1.1476877-3.166794 4.1516631-5.2791639 7.52-5.288h2.619c1.3828815-1.216434 1.8551416-3.1690554 1.181-4.883-2.6959863-1.1869932-4.8197118-3.3828736-5.916-6.117-1.993746-.0548748-3.6424201-1.5701146-3.8649691-3.5521605-.2225491-1.982046 1.0490385-3.82518 2.9809691-4.3208395v-2.827c-3.711-3.683-3.032-11.03-3-11.4.0441943-.44330412.3763101-.80391056.8144878-.88435906s.8767288.13866514 1.0755122.53735906c1.449 2.9 6.237 2.693 10.861 2.494 3.805-.162 7.4-.318 9.759 1.1 4.486 2.691 3.459 8.581 2.778 11.072 1.8261141.6272779 2.9434821 2.4694951 2.6558955 4.378805s-1.8980294 3.3406553-3.8278955 3.402195c-1.0953818 2.734406-3.2178879 4.9312158-5.913 6.12-.6737449 1.7124585-.2027787 3.66349 1.178 4.88h2.619c3.3671262.0106661 6.3691481 2.1231852 7.516 5.289 9.0869593-7.6963586 11.1532196-20.8933 4.8535125-30.9987666-6.2997071-10.10546665-19.0584696-14.06054871-29.9695125-9.2902334-.3294859.1561038-.7178184.12051515-1.0134419-.09287666-.2956236-.21339182-.4516812-.57076379-.4072679-.93264332.0444134-.36187952.2822581-.67090802.6207098-.80648002 3.2781616-1.43809177 6.8202823-2.1764877 10.4-2.168 11.2194569-.00369184 21.1749283 7.1922529 24.6905685 17.8466651s-.2021806 22.362138-9.2205685 29.0363349z"/></g></g></svg>