<svg height="512" viewBox="0 0 56 56" width="512" xmlns="http://www.w3.org/2000/svg"><g id="Page-1" fill="none" fill-rule="evenodd"><g id="079---Disk" fill="rgb(0,0,0)" fill-rule="nonzero"><circle id="Oval" cx="28" cy="33" r="1"/><path id="Shape" d="m28 24c-4.9705627 0-9 4.0294373-9 9s4.0294373 9 9 9 9-4.0294373 9-9c-.0055111-4.9682782-4.0317218-8.9944889-9-9zm-4 6c-.5522847 0-1-.4477153-1-1s.4477153-1 1-1 1 .4477153 1 1-.4477153 1-1 1zm1 3c0-1.6568542 1.3431458-3 3-3s3 1.3431458 3 3-1.3431458 3-3 3-3-1.3431458-3-3zm8.861 2.934c-.5579293 1.1134134-1.4212255 2.045038-2.489 2.686-.1551452.0944757-.3333531.1443047-.515.144-.4494307.0003074-.8438561-.2992511-.9641796-.7322756-.1203235-.4330246.0630173-.8931255.4481796-1.1247244.7432604-.4464422 1.3442885-1.0949838 1.733-1.87.1607695-.3192168.4796268-.5284158.8364614-.5487937.3568347-.0203779.6974349.1511611.8935001.45.1960651.2988389.217808.6795769.0570385.9987937z"/><path id="Shape" d="m53 0h-5v15c-.0033061 2.7600532-2.2399468 4.9966939-5 5h-21c-2.7600532-.0033061-4.9966939-2.2399468-5-5v-15h-7v15c0 1.6568542 1.3431458 3 3 3h1c.5522847 0 1 .4477153 1 1s-.4477153 1-1 1h-1c-2.7600532-.0033061-4.99669388-2.2399468-5-5v-15h-5c-1.65685425 0-3 1.34314575-3 3v50c0 1.6568542 1.34314575 3 3 3h4v-4c0-2.209139 1.790861-4 4-4h34c2.209139 0 4 1.790861 4 4 0 .5522847-.4477153 1-1 1s-1-.4477153-1-1c0-1.1045695-.8954305-2-2-2h-34c-1.1045695 0-2 .8954305-2 2v4h44c1.6568542 0 3-1.3431458 3-3v-50c0-1.65685425-1.3431458-3-3-3zm-48 53c0 .5522847-.44771525 1-1 1s-1-.4477153-1-1v-1c0-.5522847.44771525-1 1-1s1 .4477153 1 1zm0-4c0 .5522847-.44771525 1-1 1s-1-.4477153-1-1v-2c0-.5522847.44771525-1 1-1s1 .4477153 1 1zm0-44c0 .55228475-.44771525 1-1 1s-1-.44771525-1-1v-2c0-.55228475.44771525-1 1-1s1 .44771525 1 1zm23 39c-6.0751322 0-11-4.9248678-11-11s4.9248678-11 11-11 11 4.9248678 11 11c-.0071635 6.0721626-4.9278374 10.9928365-11 11zm25 9c0 .5522847-.4477153 1-1 1s-1-.4477153-1-1v-1c0-.5522847.4477153-1 1-1s1 .4477153 1 1zm0-4c0 .5522847-.4477153 1-1 1s-1-.4477153-1-1v-2c0-.5522847.4477153-1 1-1s1 .4477153 1 1zm0-44c0 .55228475-.4477153 1-1 1s-1-.44771525-1-1v-2c0-.55228475.4477153-1 1-1s1 .44771525 1 1z"/><path id="Shape" d="m22 18h21c1.6568542 0 3-1.3431458 3-3v-15h-27v15c0 1.6568542 1.3431458 3 3 3zm18-14h-2c-.5522847 0-1 .44771525-1 1v4c0 .55228475-.4477153 1-1 1s-1-.44771525-1-1v-4c0-1.65685425 1.3431458-3 3-3h2c1.6568542 0 3 1.34314575 3 3v8c0 1.6568542-1.3431458 3-3 3h-2c-1.6568542 0-3-1.3431458-3-3 0-.5522847.4477153-1 1-1s1 .4477153 1 1 .4477153 1 1 1h2c.5522847 0 1-.4477153 1-1v-8c0-.55228475-.4477153-1-1-1z"/></g></g></svg>