<svg height="512" viewBox="0 0 56 52" width="512" xmlns="http://www.w3.org/2000/svg"><g id="Page-1" fill="none" fill-rule="evenodd"><g id="081---Maximise-Window" fill="rgb(0,0,0)" fill-rule="nonzero"><path id="Shape" d="m11 8h45v-5c0-1.65685425-1.3431458-3-3-3h-50c-1.65685425 0-3 1.34314575-3 3v5h5c.55228475 0 1 .44771525 1 1s-.44771525 1-1 1h-5v39c0 1.6568542 1.34314575 3 3 3h50c1.6568542 0 3-1.3431458 3-3v-39h-45c-.5522847 0-1-.44771525-1-1s.4477153-1 1-1zm30-5h11c.5522847 0 1 .44771525 1 1s-.4477153 1-1 1h-11c-.5522847 0-1-.44771525-1-1s.4477153-1 1-1zm-5 0h1c.5522847 0 1 .44771525 1 1s-.4477153 1-1 1h-1c-.5522847 0-1-.44771525-1-1s.4477153-1 1-1zm-24 0c.5522847 0 1 .44771525 1 1s-.4477153 1-1 1-1-.44771525-1-1 .4477153-1 1-1zm-8 2c-.55228475 0-1-.44771525-1-1s.44771525-1 1-1 1 .44771525 1 1-.44771525 1-1 1zm4-2c.55228475 0 1 .44771525 1 1s-.44771525 1-1 1-1-.44771525-1-1 .44771525-1 1-1zm-3 29c0-.5522847.44771525-1 1-1s1 .4477153 1 1v3c0 .5522847-.44771525 1-1 1s-1-.4477153-1-1zm43 18h-3c-.5522847 0-1-.4477153-1-1s.4477153-1 1-1h3c.5522847 0 1 .4477153 1 1s-.4477153 1-1 1zm2-19c-.5522847 0-1-.4477153-1-1v-3c0-.5522847.4477153-1 1-1s1 .4477153 1 1v3c0 .5522847-.4477153 1-1 1zm2 17h1c.5522847 0 1 .4477153 1 1s-.4477153 1-1 1h-1c-.5522847 0-1-.4477153-1-1s.4477153-1 1-1zm-16-33h14c.5522847 0 1 .4477153 1 1v6c0 .5522847-.4477153 1-1 1s-1-.4477153-1-1v-5h-13c-.5522847 0-1-.4477153-1-1s.4477153-1 1-1zm-25.543 26.16 34-22c.4639192-.2998906 1.0831094-.1669192 1.383.297s.1669192 1.0831094-.297 1.383l-34 22c-.3001031.1939952-.680905.2131511-.9989613.0502518-.3180564-.1628993-.5250468-.4831055-.543-.84-.01795328-.3568945.1558582-.6962566.4559613-.8902518zm9.543 3.84c.5522847 0 1 .4477153 1 1s-.4477153 1-1 1h-14c-.55228475 0-1-.4477153-1-1v-6c0-.5522847.44771525-1 1-1s1 .4477153 1 1v5z"/></g></g></svg>