<svg height="512" viewBox="0 0 56 56" width="512" xmlns="http://www.w3.org/2000/svg"><g id="Page-1" fill="none" fill-rule="evenodd"><g id="082---Support" fill="rgb(0,0,0)" fill-rule="nonzero"><path id="Shape" d="m4.332 19.982 7.991 1.5c1.7152078-4.1480454 5.0101419-7.4433393 9.158-9.159l-1.5-7.989c-7.3558665 2.5147581-13.13377184 8.2922942-15.649 15.648z"/><path id="Shape" d="m23.677 13.184c.088569.4731349.5016465.8160355.983.816h6.68c.4813535.0000355.894431-.3428651.983-.816l2.028-10.816c.1094602-.58473514-.0470653-1.18784914-.4270689-1.64555431-.3800035-.45770517-.9440389-.72248957-1.5389311-.72244569h-8.77c-.5948922-.00004388-1.1589276.26474052-1.5389311.72244569-.3800036.45770517-.5365291 1.06081917-.4270689 1.64555431z"/><path id="Shape" d="m14 31.34v-6.68c-.000355-.4806641-.3426327-.8930772-.815-.982l-10.428-1.957-.383-.072c-.12338907-.022684-.24854458-.0343964-.374-.035-1.1045695 0-2 .8954305-2 2v8.77c-.00009967.595103.26481875 1.1593405.72276499 1.5393836.45794623.3800432 1.06134844.5364129 1.64623501.4266164l10.816-2.028c.4723673-.0889228.814645-.5013359.815-.982z"/><path id="Shape" d="m14.485 4.644c-2.7734638-2.33676521-6.87402149-2.16187576-9.43844862.40255138-2.56442714 2.56442713-2.73931659 6.66498482-.40255138 9.43844862 2.37528252-4.0752609 5.7657391-7.46571748 9.841-9.841z"/><path id="Shape" d="m51.356 14.485c2.3367652-2.7734638 2.1618758-6.87402149-.4025514-9.43844862-2.5644271-2.56442714-6.6649848-2.73931659-9.4384486-.40255138 4.0752609 2.37528252 7.4657175 5.7657391 9.841 9.841z"/><path id="Shape" d="m43.677 21.48 7.991-1.5c-2.515048-7.3566073-8.2933927-13.13495201-15.65-15.65l-1.5 7.989c4.1481174 1.7166567 7.443249 5.0125079 9.159 9.161z"/><path id="Shape" d="m34.257 53.153-1.85-9.9-.08-.44c-.0922926-.472133-.5059309-.8128503-.987-.813h-6.68c-.4825709.0013191-.8966526.3441519-.988.818l-.078.431-1.85 9.9-.09.481c-.109817.583322.0451424 1.1852865.4229659 1.6430788.3778235.4577922.9394716.7241098 1.5330341.7269212h8.78c.5924389-.0026003 1.1532373-.2677249 1.5312373-.7239119.3780001-.456187.5342971-1.0564845.4267627-1.6390881z"/><path id="Shape" d="m55.277 22.076c-.3581984-.2991946-.8102849-.462753-1.277-.462-.1244793.0002446-.2486711.0119608-.371.035l-10.814 2.028c-.4727374.0889925-.8151258.5019592-.815.983v6.68c.000355.4806641.3426327.8930772.815.982l10.43 1.957.383.072c.5853404.110807 1.1896079-.0450944 1.6482779-.4252568.4586699-.3801624.7239903-.9450071.7237221-1.5407432v-8.77c.0009097-.5952262-.2642739-1.1597041-.723-1.539z"/><path id="Shape" d="m51.669 36.018-7.992-1.5c-1.714959 4.147287-5.0090877 7.4421353-9.156 9.158l1.5 8c7.3566222-2.5188292 13.1338712-8.2997702 15.648-15.658zm-7.986 8.792c-1.2659705 1.182825-2.661091 2.2193536-4.159 3.09-.3093947.1932733-.6994872.2027314-1.017885.0246794-.3183978-.1780521-.5145747-.5153593-.5118929-.8801503s.2037967-.6991775.5247779-.8725291c1.3683918-.7953301 2.643059-1.7419382 3.8-2.822.2609825-.2440124.6323194-.3302566.9741316-.2262454.3418121.1040113.6021703.3824764.683.7305.0808296.3480237-.0301491.712733-.2911316.9567454zm1.917-5.357c.2-.306.3916667-.617.575-.933.1702629-.3254784.5052613-.5314125.8725499-.5363839s.7077381.1918202.886748.5125711c.1790098.3207508.1677615.7138237-.0292979 1.0238128-.2.348-.4103333.6893333-.631 1.024-.1872223.3163073-.5328779.5044098-.9001525.4898544-.3672746-.0145553-.6969603-.2294222-.8585637-.5595537s-.1290727-.7223077.0847162-1.0213007z"/><path id="Shape" d="m4.644 41.515c-2.33676521 2.7734638-2.16187576 6.8740215.40255138 9.4384486 2.56442713 2.5644272 6.66498482 2.7393166 9.43844862.4025514-4.0752609-2.3752825-7.46571748-5.7657391-9.841-9.841z"/><path id="Shape" d="m12.323 34.52-7.993 1.5c2.51518237 7.3597673 8.294358 13.1415273 15.653 15.66l1.5-8c-4.1488038-1.7154565-7.4445435-5.0111962-9.16-9.16z"/><path id="Shape" d="m41.515 51.356c2.7734638 2.3367652 6.8740215 2.1618758 9.4384486-.4025514 2.5644272-2.5644271 2.7393166-6.6649848.4025514-9.4384486-2.3752825 4.0752609-5.7657391 7.4657175-9.841 9.841z"/></g></g></svg>