<svg height="512" viewBox="0 0 56 60" width="512" xmlns="http://www.w3.org/2000/svg"><g id="Page-1" fill="none" fill-rule="evenodd"><g id="083---Weather-Rain" fill="rgb(0,0,0)" fill-rule="nonzero"><path id="Shape" d="m53.93 31.63c-1.3153403-1.4611079-3.1249048-2.3837008-5.08-2.59-.5451308-.0528021-.9463658-.5342841-.9-1.08.03-.32.05-.64.05-.96.0039891-2.6533858-1.0482983-5.1992433-2.9245275-7.0754725s-4.4220867-2.9285166-7.0754725-2.9245275c-1.8385374.0034787-3.6407855.5119825-5.21 1.47-.2372698.1370186-.519321.1739574-.7838728.1026597-.2645519-.0712977-.4898434-.2449671-.6261272-.4826597-3.2418473-6.0696714-10.5337509-8.72487861-16.9193872-6.1608711-6.3856362 2.5640074-9.81649462 9.5246967-7.9606128 16.1508711.07048358.2559398.03630723.5294024-.09499743.7601234-.13130466.2307211-.34896084.3997642-.60500257.4698766-.02.01-.03.01-.05.02-3.40442415 1.0001865-5.74454032 4.121698-5.75 7.67.0131792 4.4128075 3.58719254 7.9868208 8 8h40c3.1637801.00006 6.0303984-1.8643965 7.3131231-4.7564757s.7405643-6.2684323-1.3831231-8.6135243zm-22.01 4.29c-1.96094 1.9790936-4.6339593 3.0886488-7.42 3.08-.5522847 0-1-.4477153-1-1s.4477153-1 1-1c2.2557293.0072119 4.4203201-.8895986 6.01-2.49.3967603-.3397768.9881942-.3169323 1.3575632.0524368.3693691.369369.3922136.9608029.0524368 1.3575632zm7.08-27.92c-3.779535-.01593717-7.048344 2.6300424-7.82 6.33.5322954.6085844 1.0170547 1.257159 1.45 1.94 4.6515293-2.3312415 10.275983-1.3938325 13.92 2.32.2955819-.8316223.4477463-1.7074134.45-2.59-.0060592-4.4157658-3.5842342-7.99394081-8-8z"/><path id="Shape" d="m39 4c-.5522847 0-1-.44771525-1-1v-2c0-.55228475.4477153-1 1-1s1 .44771525 1 1v2c0 .55228475-.4477153 1-1 1z"/><path id="Shape" d="m32.5 5.741c-.3576137.00034843-.6881932-.19029718-.867-.5l-1-1.731c-.2716903-.47785996-.1067416-1.08542045.3693057-1.36027453s1.0846885-.11393908 1.3626943.36027453l1 1.731c.1785415.30924248.1786393.6902222.0002566.99955632-.1783827.30933411-.5081742.50007763-.8652566.50044368z"/><path id="Shape" d="m54 17h-2c-.5522847 0-1-.4477153-1-1s.4477153-1 1-1h2c.5522847 0 1 .4477153 1 1s-.4477153 1-1 1z"/><path id="Shape" d="m50.259 10.5c-.4525881-.0000199-.8487411-.3040116-.9658809-.74117767-.1171399-.43716609.0739396-.89850839.4658809-1.12482233l1.732-1c.47786-.27169029 1.0854205-.10674157 1.3602745.3693057.2748541.47604726.1139391 1.08468853-.3602745 1.3626943l-1.732 1c-.1518701.0881308-.3244113.1343718-.5.134z"/><path id="Shape" d="m45.5 5.741c-.3570824-.00036605-.6868739-.19110957-.8652566-.50044368-.1783827-.30933412-.1782849-.69031384.0002566-.99955632l1-1.731c.2780058-.47421361.886647-.63512861 1.3626943-.36027453s.640996.88241457.3693057 1.36027453l-1 1.731c-.1788068.30970282-.5093863.50034843-.867.5z"/><path id="Shape" d="m8 60c-.36855171-.0001904-.70712464-.2030844-.88108144-.5279989-.17395679-.3249145-.15509628-.7191757.04908144-1.0260011l1.331-2c.19704809-.2995147.53935907-.4706237.89719487-.4484755.3578358.0221481.67643343.2341638.83504223.5556918.1586089.3215279.1329556.7033616-.0672371 1.0007837l-1.33 2c-.18568776.2790408-.49882325.4464969-.834.446z"/><path id="Shape" d="m12 54c-.3687074-.0003134-.7073293-.2034902-.88111-.5286756s-.1545228-.719615.05011-1.0263244l2-3c.306518-.4595009.9274991-.583518 1.387-.277.4595009.3065181.583518.9274991.277 1.387l-2 3c-.1857211.2783647-.4983673.4453846-.833.445z"/><path id="Shape" d="m14 60c-.3685517-.0001904-.7071246-.2030844-.8810814-.5279989s-.1550963-.7191757.0490814-1.0260011l1.331-2c.1970481-.2995147.5393591-.4706237.8971949-.4484755.3578358.0221481.6764334.2341638.8350422.5556918.1586089.3215279.1329556.7033616-.0672371 1.0007837l-1.33 2c-.1856878.2790408-.4988232.4464969-.834.446z"/><path id="Shape" d="m18 54c-.3687074-.0003134-.7073293-.2034902-.88111-.5286756s-.1545228-.719615.05011-1.0263244l2-3c.306518-.4595009.9274991-.583518 1.387-.277s.583518.9274991.277 1.387l-2 3c-.1857211.2783647-.4983673.4453846-.833.445z"/><path id="Shape" d="m20 60c-.3685517-.0001904-.7071246-.2030844-.8810814-.5279989s-.1550963-.7191757.0490814-1.0260011l1.331-2c.1970481-.2995147.5393591-.4706237.8971949-.4484755.3578358.0221481.6764334.2341638.8350422.5556918.1586089.3215279.1329556.7033616-.0672371 1.0007837l-1.33 2c-.1856878.2790408-.4988232.4464969-.834.446z"/><path id="Shape" d="m24 54c-.3687074-.0003134-.7073293-.2034902-.88111-.5286756s-.1545228-.719615.05011-1.0263244l2-3c.306518-.4595009.9274991-.583518 1.387-.277s.583518.9274991.277 1.387l-2 3c-.1857211.2783647-.4983673.4453846-.833.445z"/><path id="Shape" d="m26 60c-.3685517-.0001904-.7071246-.2030844-.8810814-.5279989s-.1550963-.7191757.0490814-1.0260011l1.331-2c.1970481-.2995147.5393591-.4706237.8971949-.4484755.3578358.0221481.6764334.2341638.8350422.5556918.1586089.3215279.1329556.7033616-.0672371 1.0007837l-1.33 2c-.1856878.2790408-.4988232.4464969-.834.446z"/><path id="Shape" d="m30 54c-.3687074-.0003134-.7073293-.2034902-.88111-.5286756s-.1545228-.719615.05011-1.0263244l2-3c.306518-.4595009.9274991-.583518 1.387-.277.4595009.3065181.583518.9274991.277 1.387l-2 3c-.1857211.2783647-.4983673.4453846-.833.445z"/><path id="Shape" d="m32 60c-.3685517-.0001904-.7071246-.2030844-.8810814-.5279989s-.1550963-.7191757.0490814-1.0260011l1.331-2c.1970481-.2995147.5393591-.4706237.8971949-.4484755.3578358.0221481.6764334.2341638.8350422.5556918.1586089.3215279.1329556.7033616-.0672371 1.0007837l-1.33 2c-.1856878.2790408-.4988232.4464969-.834.446z"/><path id="Shape" d="m36 54c-.3687074-.0003134-.7073293-.2034902-.88111-.5286756s-.1545228-.719615.05011-1.0263244l2-3c.306518-.4595009.9274991-.583518 1.387-.277s.583518.9274991.277 1.387l-2 3c-.1857211.2783647-.4983673.4453846-.833.445z"/><path id="Shape" d="m38 60c-.3685517-.0001904-.7071246-.2030844-.8810814-.5279989s-.1550963-.7191757.0490814-1.0260011l1.331-2c.1970481-.2995147.5393591-.4706237.8971949-.4484755.3578358.0221481.6764334.2341638.8350422.5556918.1586089.3215279.1329556.7033616-.0672371 1.0007837l-1.33 2c-.1856878.2790408-.4988232.4464969-.834.446z"/><path id="Shape" d="m42 54c-.3687074-.0003134-.7073293-.2034902-.88111-.5286756s-.1545228-.719615.05011-1.0263244l2-3c.1982824-.297245.5400812-.4661283.8966441-.4430332s.6737195.23466.832.555c.1582805.3203401.1336383.7007882-.0646441.9980332l-2 3c-.1857211.2783647-.4983673.4453846-.833.445z"/></g></g></svg>