<svg height="512" viewBox="0 0 56 56" width="512" xmlns="http://www.w3.org/2000/svg"><g id="Page-1" fill="none" fill-rule="evenodd"><g id="085---Weather-Storm" fill="rgb(0,0,0)" fill-rule="nonzero"><path id="Shape" d="m39 8c-3.7755294-.01420563-7.0417718 2.6255197-7.82 6.32.5363445.6124002 1.0213185 1.2679512 1.45 1.96 4.6478716-2.3439981 10.2783763-1.4096256 13.92 2.31.2955819-.8316223.4477463-1.7074134.45-2.59-.0060592-4.4157658-3.5842342-7.99394081-8-8zm14.93 23.63c-1.3153403-1.4611079-3.1249048-2.3837008-5.08-2.59-.5451308-.0528021-.9463658-.5342841-.9-1.08.03-.32.05-.64.05-.96.002504-3.6172587-1.9499921-6.9534763-5.1049758-8.7228392-3.1549836-1.769363-7.0198444-1.6956079-10.1050242.1928392-.2372698.1370186-.519321.1739574-.7838728.1026597-.2645519-.0712977-.4898434-.2449671-.6261272-.4826597-3.2418473-6.0696714-10.5337509-8.72487861-16.9193872-6.1608711-6.3856362 2.5640074-9.81649462 9.5246967-7.9606128 16.1508711.01983591.0852471.02990074.1724756.03.26.00048809.4500406-.2974131.8458819-.73.97-3.42774535.9891386-5.79093535 4.1224026-5.8 7.69.0131792 4.4128075 3.58719254 7.9868208 8 8h7.93c.0463762-.1394435.113824-.2709666.2-.39l9.65-12.99c.2894718-.3888502.7452358-.6185849 1.23-.62h13.46c.6042698-.0056222 1.1542446.3479331 1.4.9.244087.5320366.1455802 1.15854-.25 1.59l-7.68 8.56h4.65c.682015-.0068535 1.284185.4437499 1.47 1.1.1777488.6440029-.0964371 1.3274216-.67 1.67l-.27.18h8.88c3.1637801.00006 6.0303984-1.8643965 7.3131231-4.7564757s.7405643-6.2684323-1.3831231-8.6135243z"/><path id="Shape" d="m39 4c-.5522847 0-1-.44771525-1-1v-2c0-.55228475.4477153-1 1-1s1 .44771525 1 1v2c0 .55228475-.4477153 1-1 1z"/><path id="Shape" d="m32.5 5.741c-.3576137.00034843-.6881932-.19029718-.867-.5l-1-1.731c-.2716903-.47785996-.1067416-1.08542045.3693057-1.36027453s1.0846885-.11393908 1.3626943.36027453l1 1.731c.1785415.30924248.1786393.6902222.0002566.99955632-.1783827.30933411-.5081742.50007763-.8652566.50044368z"/><path id="Shape" d="m54 17h-2c-.5522847 0-1-.4477153-1-1s.4477153-1 1-1h2c.5522847 0 1 .4477153 1 1s-.4477153 1-1 1z"/><path id="Shape" d="m50.26 10.5c-.4525881-.0000199-.8487411-.3040116-.9658809-.74117767-.1171399-.43716609.0739396-.89850839.4658809-1.12482233l1.731-1c.47786-.27169029 1.0854205-.10674157 1.3602745.3693057.2748541.47604726.1139391 1.08468853-.3602745 1.3626943l-1.731 1c-.1518701.0881308-.3244113.1343718-.5.134z"/><path id="Shape" d="m45.5 5.741c-.3570824-.00036605-.6868739-.19110957-.8652566-.50044368-.1783827-.30933412-.1782849-.69031384.0002566-.99955632l1-1.731c.2780058-.47421361.886647-.63512861 1.3626943-.36027453s.640996.88241457.3693057 1.36027453l-1 1.731c-.1788068.30970282-.5093863.50034843-.867.5z"/><path id="Shape" d="m32.84 44.05h2.474c.2206238-.0007131.4156381.1432606.4799214.3543127.0642834.2110521-.0173603.4392917-.2009214.5616873l-15.622 10.457c-.1969132.1334667-.460596.1097201-.6304948-.0567808-.1698989-.1665009-.198967-.4296502-.0695052-.6292192l4.777-7.4c.3108433-.4458187.3493376-1.0270832.1-1.51-.2605476-.5096479-.7856188-.8294078-1.358-.827h-3.456c-.189386 0-.3625176-.1070012-.4472136-.2763932s-.066418-.372098.0472136-.5236068l8.167-11c.0944272-.1259029.2426213-.2.4-.2h10.749c.1973232.0000318.3761727.1161122.4565538.2963213.0803811.1802092.0472581.3908384-.0845538.5376787l-6.922 7.716c-.3977313.4338846-.4998819 1.0625032-.26 1.6.2513954.5471986.7978176.89847 1.4.9z"/></g></g></svg>