<svg height="512" viewBox="0 0 58 59" width="512" xmlns="http://www.w3.org/2000/svg"><g id="Page-1" fill="none" fill-rule="evenodd"><g id="086---Weather-Rain" fill="rgb(0,0,0)" fill-rule="nonzero"><path id="Shape" d="m55.67 20.96c-1.4807892-1.6445152-3.5188867-2.6813795-5.72-2.91.03-.35.05-.7.05-1.05.0042282-3.9793193-2.1433452-7.64995615-5.6143362-9.59603477-3.4709909-1.94607862-7.7229102-1.86344186-11.1156638.21603477h-.01c-3.1532571-5.84215085-9.8713497-8.79661672-16.3083108-7.17202786-6.436961 1.62458885-10.94843153 7.41322178-10.9516892 14.05202786.00650091 1.2977754.18471458 2.5889839.53 3.84v.01c-4.30844163 1.2379463-7.04901225 5.4578449-6.42773327 9.8973485.62127898 4.4395037 4.41497504 7.7449751 8.89773327 7.7526515h40c3.558515-.0008741 6.7823824-2.0983822 8.225023-5.3513528 1.4426406-3.2529707.8331361-7.050518-1.555023-9.6886472zm-22.745 4.965c-1.9653356 1.974992-4.6387685 3.0821712-7.425 3.075-.5522847 0-1-.4477153-1-1s.4477153-1 1-1c2.2555564.0058458 4.419834-.8903257 6.011-2.489.2510745-.2599566.6228779-.3642126.9725073-.2726972.3496295.0915155.6226744.3645604.7141899.7141899.0915154.3496294-.0127406.7214328-.2726972.9725073z"/><path id="Shape" d="m7.669 52c-.36855171-.0001904-.70712464-.2030844-.88108144-.5279989-.17395679-.3249145-.15509628-.7191757.04908144-1.0260011l2.66-4c.19792513-.2976023.5395844-.4670063.8962781-.4443992s.6742315.2337907.833.554.1346471.700797-.0632781.9983992l-2.66 4c-.18568776.2790408-.49882325.4464969-.834.446z"/><path id="Shape" d="m3 59c-.36870742-.0003134-.70732929-.2034902-.88111002-.5286756s-.15452281-.719615.05011002-1.0263244l2-3c.1982824-.297245.5400812-.4661283.89664411-.4430332s.67371952.2346599.83200002.555c.15828049.3203401.13363829.7007882-.06464413.9980332l-2 3c-.18572108.2783647-.49836725.4453846-.833.445z"/><path id="Shape" d="m13 44c-.3687074-.0003134-.7073293-.2034902-.88111-.5286756s-.1545228-.719615.05011-1.0263244l2-3c.1982824-.297245.5400812-.4661282.8966441-.4430331s.6737195.2346599.832.555c.1582805.32034.1336383.7007881-.0646441.9980331l-2 3c-.1857211.2783647-.4983673.4453846-.833.445z"/><path id="Shape" d="m15.669 52c-.3685517-.0001904-.7071246-.2030844-.8810814-.5279989s-.1550963-.7191757.0490814-1.0260011l2.66-4c.3059658-.4600532.9269468-.5849657 1.387-.279.4600532.3059658.5849657.9269468.279 1.387l-2.66 4c-.1856878.2790408-.4988232.4464969-.834.446z"/><path id="Shape" d="m11 59c-.3687074-.0003134-.7073293-.2034902-.88111-.5286756-.17378075-.3251854-.15452283-.719615.05011-1.0263244l2-3c.3065181-.4595009.9274991-.583518 1.387-.277.4595009.3065181.583518.9274991.277 1.387l-2 3c-.1857211.2783647-.4983673.4453846-.833.445z"/><path id="Shape" d="m21 44c-.3687074-.0003134-.7073293-.2034902-.88111-.5286756s-.1545228-.719615.05011-1.0263244l2-3c.306518-.4595009.9274991-.583518 1.387-.277s.583518.9274991.277 1.387l-2 3c-.1857211.2783647-.4983673.4453846-.833.445z"/><path id="Shape" d="m23.669 52c-.3685517-.0001904-.7071246-.2030844-.8810814-.5279989s-.1550963-.7191757.0490814-1.0260011l2.66-4c.3059658-.4600532.9269468-.5849657 1.387-.2789999.4600531.3059657.5849657.9269467.279 1.3869999l-2.66 4c-.1856878.2790408-.4988232.4464969-.834.446z"/><path id="Shape" d="m19 59c-.3687074-.0003134-.7073293-.2034902-.88111-.5286756s-.1545228-.719615.05011-1.0263244l2-3c.306518-.4595009.9274991-.583518 1.387-.277.4595009.3065181.583518.9274991.277 1.387l-2 3c-.1857211.2783647-.4983673.4453846-.833.445z"/><path id="Shape" d="m29 44c-.3687074-.0003134-.7073293-.2034902-.88111-.5286756s-.1545228-.719615.05011-1.0263244l2-3c.306518-.4595009.9274991-.583518 1.387-.277s.583518.9274991.277 1.387l-2 3c-.1857211.2783647-.4983673.4453846-.833.445z"/><path id="Shape" d="m31.669 52c-.3685517-.0001904-.7071246-.2030844-.8810814-.5279989s-.1550963-.7191757.0490814-1.0260011l2.66-4c.1979251-.2976023.5395844-.4670063.8962781-.4443992s.6742315.2337907.833.554.1346471.700797-.0632781.9983992l-2.66 4c-.1856878.2790408-.4988232.4464969-.834.446z"/><path id="Shape" d="m27 59c-.3687074-.0003134-.7073293-.2034902-.88111-.5286756s-.1545228-.719615.05011-1.0263244l2-3c.306518-.4595009.9274991-.583518 1.387-.277.4595009.3065181.583518.9274991.277 1.387l-2 3c-.1857211.2783647-.4983673.4453846-.833.445z"/><path id="Shape" d="m37 44c-.3687074-.0003134-.7073293-.2034902-.88111-.5286756s-.1545228-.719615.05011-1.0263244l2-3c.306518-.4595009.9274991-.583518 1.387-.277s.583518.9274991.277 1.387l-2 3c-.1857211.2783647-.4983673.4453846-.833.445z"/><path id="Shape" d="m39.669 52c-.3685517-.0001904-.7071246-.2030844-.8810814-.5279989s-.1550963-.7191757.0490814-1.0260011l2.66-4c.1979251-.2976023.5395844-.4670063.8962781-.4443992s.6742315.2337907.833.554.1346471.700797-.0632781.9983992l-2.66 4c-.1856878.2790408-.4988232.4464969-.834.446z"/><path id="Shape" d="m35 59c-.3687074-.0003134-.7073293-.2034902-.88111-.5286756s-.1545228-.719615.05011-1.0263244l2-3c.1982824-.297245.5400812-.4661283.8966441-.4430332s.6737196.2346599.832.555c.1582805.3203401.1336383.7007882-.0646441.9980332l-2 3c-.1857211.2783647-.4983673.4453846-.833.445z"/><path id="Shape" d="m45 44c-.3687074-.0003134-.7073293-.2034902-.88111-.5286756s-.1545228-.719615.05011-1.0263244l2-3c.306518-.4595009.9274991-.583518 1.387-.277s.583518.9274991.277 1.387l-2 3c-.1857211.2783647-.4983673.4453846-.833.445z"/></g></g></svg>