<svg height="512" viewBox="0 0 58 52" width="512" xmlns="http://www.w3.org/2000/svg"><g id="Page-1" fill="none" fill-rule="evenodd"><g id="087---Weather-Snow" fill="rgb(0,0,0)" fill-rule="nonzero"><path id="Shape" d="m58 27c0 4.9705627-4.0294373 9-9 9h-14l4.82-2.78 2.89.77c.2538835.0715132.516241.1085124.78.11 1.5094219.0060255 2.7882668-1.1103735 2.9860978-2.6067871.1978309-1.4964135-.7469663-2.9067856-2.2060978-3.2932129l-1.2-.32.32-1.2c.4290456-1.6013984-.519442-3.2478297-2.12-3.68-.2553787-.0627394-.5170538-.0962875-.78-.1-1.3596594.0022064-2.5486693.916514-2.9 2.23l-.77 2.89-4.82 2.78v-5.56l2.12-2.12c.8026127-.7478823 1.1329967-1.8742222.8615422-2.9371556-.2714546-1.0629335-1.1014531-1.892932-2.1643866-2.1643866-1.0629334-.2714545-2.1892733.0589295-2.9371556.8615422l-.88.88-.88-.88c-.7478823-.8026127-1.8742222-1.1329967-2.9371556-.8615422-1.0629335.2714546-1.892932 1.1014531-2.1643866 2.1643866-.2714545 1.0629334.0589295 2.1892733.8615422 2.9371556l2.12 2.12v5.56l-4.82-2.78-.77-2.89c-.3513307-1.313486-1.5403406-2.2277936-2.9-2.23-.2629462.0037125-.5246213.0372606-.78.1-1.600558.4321703-2.5490456 2.0786016-2.12 3.68l.32 1.2-1.2.32c-1.4591315.3864273-2.4039287 1.7967994-2.2060978 3.2932129.197831 1.4964136 1.4766759 2.6128126 2.9860978 2.6067871.2629926-.0030523.524743-.03661.78-.1l2.89-.78 4.82 2.78h-14c-4.48275823-.0076764-8.27645429-3.3131478-8.89773327-7.7526515-.62127898-4.4395036 2.11929164-8.6594022 6.42773327-9.8973485v-.01c-.34528542-1.2510161-.52349909-2.5422246-.53-3.84.00325767-6.63880608 4.5147282-12.42743901 10.9516892-14.05202786 6.4369611-1.62458886 13.1550537 1.32987701 16.3083108 7.17202786h.01c3.3927536-2.07947663 7.6446729-2.16211339 11.1156638-.21603477 3.470991 1.94607862 5.6185644 5.61671547 5.6143362 9.59603477 0 .35-.02.7-.05 1.05 4.5760866.4880559 8.0478449 4.3479611 8.05 8.95z"/><path id="Shape" d="m43.231 39.937-3.7.99-8.531-4.927 8.534-4.927 3.7.99c.0846917.0233384.1721515.0351119.26.035.5017827-.0002717.9256677-.3723675.9909573-.8698845.0652897-.4975171-.2482351-.9663838-.7329573-1.0961155l-3.132-.839.839-3.132c.1398151-.5324122-.1769484-1.0777088-.7087028-1.2200053-.5317543-.1422966-1.0785222.1719204-1.2232972.7030053l-.99 3.7-8.537 4.924v-9.854l2.707-2.707c.3789722-.3923789.3735524-1.0160848-.0121814-1.4018186s-1.0094397-.3911536-1.4018186-.0121814l-2.293 2.293-2.293-2.293c-.3923789-.3789722-1.0160848-.3735524-1.4018186.0121814s-.3911536 1.0094397-.0121814 1.4018186l2.707 2.707v9.854l-8.534-4.927-.99-3.7c-.144775-.5310849-.6915429-.8453019-1.2232972-.7030053-.5317544.1422965-.8485179.6875931-.7087028 1.2200053l.839 3.132-3.132.839c-.3536999.0847163-.6335159.3547904-.7307072.7052677-.0971914.3504773.0035684.7260895.2631225.9808681.2595542.2547786.6369725.3485465.9855847.2448642l3.7-.99 8.531 4.93-8.534 4.927-3.7-.99c-.3486122-.1036823-.7260305-.0099144-.9855847.2448642-.2595541.2547786-.3603139.6303908-.2631225.9808681.0971913.3504773.3770073.6205514.7307072.7052677l3.132.839-.839 3.132c-.1424732.5331923.1739486 1.0810004.707 1.224.0846917.0233384.1721515.0351119.26.035.4524951-.0005181.8482565-.3048238.965-.742l.99-3.7 8.537-4.924v9.854l-2.707 2.707c-.2599566.2510745-.3642126.6228779-.2726972.9725073.0915155.3496295.3645604.6226744.7141899.7141899.3496294.0915154.7214328-.0127406.9725073-.2726972l2.293-2.293 2.293 2.293c.3923789.3789722 1.0160848.3735524 1.4018186-.0121814s.3911536-1.0094397.0121814-1.4018186l-2.707-2.707v-9.854l8.534 4.927.99 3.7c.1167435.4371762.5125049.7414819.965.742.0878485.0001119.1753083-.0116616.26-.035.5330514-.1429996.8494732-.6908077.707-1.224l-.839-3.132 3.132-.839c.3536999-.0847163.6335159-.3547904.7307072-.7052677.0971914-.3504773-.0035684-.7260895-.2631225-.9808681-.2595542-.2547786-.6369725-.3485465-.9855847-.2448642z"/></g></g></svg>