<svg height="512" viewBox="0 0 56 41" width="512" xmlns="http://www.w3.org/2000/svg"><g id="Page-1" fill="none" fill-rule="evenodd"><g id="088---Weather-Clouds" fill="rgb(0,0,0)" fill-rule="nonzero"><path id="Shape" d="m44.542 26.541c-.5451308-.0528021-.9463658-.5342841-.9-1.08.3275175-3.2553166-1.1302343-6.4333904-3.8111515-8.308767-2.6809172-1.8753765-6.1661668-2.1550706-9.1118485-.731233.3643444.8107204.6532316 1.6532803.863 2.517.0622664.2580683.0193614.5303047-.1192596.7567126-.1386209.226408-.36158.3884043-.6197404.4502874-.0770706.0177978-.1559012.0268549-.235.027-.4619791-.0006823-.8633592-.3177354-.971-.767-.241554-1.0085928-.6087578-1.9828755-1.093-2.9-2.6432643-4.9706562-8.3345771-7.4992749-13.7950528-6.1290653-5.4604757 1.3702095-9.2836648 6.2863238-9.2669472 11.9160653.00247513.7886105.08252732 1.5750647.239 2.348 1.09866708-.1845912 2.22134885-.17308 3.316.034.35101345.06663.63981656.3154622.75761999.6527637.11780342.3373016.04671002.7118285-.18650001.9825001-.23321003.2706715-.59310653.3963662-.94411998.3297362-2.70411302-.5371686-5.47888643.5058566-7.15959617 2.6912609-1.68070974 2.1854044-1.97646494 5.1349464-.76312098 7.610542 1.21334395 2.4755957 3.7257861 4.0487783 6.48271715 4.0591971h36.551c3.8471444-.0112582 7.0158083-3.025109 7.2196004-6.8668685.2037921-3.8417594-2.6282375-7.1739263-6.4526004-7.5921315zm-13.752 3.072c-1.6555953 2.3139023-4.3035508 3.7138217-7.148 3.779-.5522847 0-1-.4477153-1-1s.4477153-1 1-1c2.2247341-.0723703 4.2864219-1.1850449 5.568-3.005.3407675-.4289341.9632173-.503845 1.3960236-.1680092s.5148365.9573874.1839764 1.3940092z"/><path id="Shape" d="m54.128 18.88c-1.1870296-1.3206724-2.8226316-2.1529083-4.589-2.335-.5455543-.0527962-.9469451-.534911-.9-1.081.3402837-3.4194815-1.284579-6.73686939-4.1947874-8.56425389-2.9102083-1.82738451-6.6040872-1.84975262-9.5362126-.05774611-.2342085.14261102-.5167033.1827903-.7813867.11113674-.2646833-.07165357-.4883307-.24885277-.6186133-.49013674-2.4361498-4.55775332-7.4751195-7.09125272-12.5864542-6.32823297-5.1113346.76301976-9.1907054 4.6577045-10.1895458 9.72823297 6.6117458-3.7620034 15.0136657-1.64542865 19.054 4.8 3.4408817-1.6975883 7.5169402-1.4838178 10.7613724.5643843 3.2444322 2.0482022 5.1903988 5.6361215 5.1376276 9.4726157 1.9022282.4031027 3.6274029 1.3996213 4.927 2.846.683816.7622757 1.236937 1.6323346 1.637 2.575 1.7836679-.9984065 3.0670272-2.6989119 3.538-4.688.5841334-2.3243325-.0392354-4.7866206-1.659-6.553z"/></g></g></svg>