<svg height="512" viewBox="0 0 56 56" width="512" xmlns="http://www.w3.org/2000/svg"><g id="Page-1" fill="none" fill-rule="evenodd"><g id="089---Mobile-Charge" fill="rgb(0,0,0)" fill-rule="nonzero"><path id="Shape" d="m53 8c0-.55228475-.4477153-1-1-1s-1 .44771525-1 1v8h2z"/><path id="Shape" d="m45 8c0-.55228475-.4477153-1-1-1s-1 .44771525-1 1v8h2z"/><path id="Shape" d="m19 1c0-.55228475-.4477153-1-1-1h-6c-.5522847 0-1 .44771525-1 1v2h8z"/><path id="Shape" d="m46 49c0 1.6568542-1.3431458 3-3 3h-1c-1.6568542 0-3-1.3431458-3-3-.0049584-3.8639376-3.1360624-6.9950416-7-7h-6c-.5522847 0-1-.4477153-1-1s.4477153-1 1-1h4v-30c-.0033061-2.76005315-2.2399468-4.99669388-5-5h-20c-2.76005315.00330612-4.99669388 2.23994685-5 5v41c.00330612 2.7600532 2.23994685 4.9966939 5 5h20c2.7600532-.0033061 4.9966939-2.2399468 5-5v-3h-4c-.5522847 0-1-.4477153-1-1s.4477153-1 1-1h6c1.6568542 0 3 1.3431458 3 3 .0049584 3.8639376 3.1360624 6.9950416 7 7h1c3.8639376-.0049584 6.9950416-3.1360624 7-7v-17h-4zm-39 4h-2c-.55228475 0-1-.4477153-1-1s.44771525-1 1-1h2c.55228475 0 1 .4477153 1 1s-.44771525 1-1 1zm0-4h-2c-.55228475 0-1-.4477153-1-1s.44771525-1 1-1h2c.55228475 0 1 .4477153 1 1s-.44771525 1-1 1zm0-4h-2c-.55228475 0-1-.4477153-1-1s.44771525-1 1-1h2c.55228475 0 1 .4477153 1 1s-.44771525 1-1 1zm14 8h-10c-.5522847 0-1-.4477153-1-1s.4477153-1 1-1h10c.5522847 0 1 .4477153 1 1s-.4477153 1-1 1zm0-4h-10c-.5522847 0-1-.4477153-1-1s.4477153-1 1-1h10c.5522847 0 1 .4477153 1 1s-.4477153 1-1 1zm0-4h-10c-.5522847 0-1-.4477153-1-1s.4477153-1 1-1h10c.5522847 0 1 .4477153 1 1s-.4477153 1-1 1zm2.017-18.591-10.668 10.748c-.6715434.6774394-1.7280366.786347-2.52365593.2601489-.79561937-.5261981-1.10890311-1.541034-.74834407-2.4241489l2.848-6.993h-3.745c-.78016322-.0011182-1.48846563-.4557881-1.81432326-1.1646412-.32585762-.7088531-.20978416-1.5424862.29732326-2.1353588l9.625-11.186c.60312-.7006823 1.6078848-.8966738 2.4301241-.4740252.8222394.4226486 1.2476408 1.3537762 1.0288759 2.2520252l-1.885 7.708h3.738c.8073291.0005682 1.5351499.4864698 1.8452108 1.2318843s.1415529 1.6041511-.4272108 2.1771157z"/><path id="Shape" d="m47 21h9v-2c0-.5522847-.4477153-1-1-1h-14c-.5522847 0-1 .4477153-1 1v2h2c.5522847 0 1 .4477153 1 1s-.4477153 1-1 1h-2v2c.0033061 2.7600532 2.2399468 4.9966939 5 5h6c2.7600532-.0033061 4.9966939-2.2399468 5-5v-2h-9c-.5522847 0-1-.4477153-1-1s.4477153-1 1-1z"/><path id="Shape" d="m16.288 24.234c-.3805149-.4824108-.5167193-1.1136019-.369-1.71l1.881-7.711-9.621 11.187h5.233c.3328568.000071.64386.1657558.8296053.4419666.1857452.2762108.2218817.626737.0963947.9350334l-3.409 8.371 10.671-10.748h-3.738c-.6148613.0016788-1.1959338-.2811049-1.574-.766z"/></g></g></svg>