<svg height="512" viewBox="0 0 58 56" width="512" xmlns="http://www.w3.org/2000/svg"><g id="Page-1" fill="none" fill-rule="evenodd"><g id="090---Find" fill="rgb(0,0,0)" fill-rule="nonzero" transform="translate(0 -1)"><path id="Shape" d="m18 27c3.3003629-.0473485 6.5609744.724341 9.49 2.246.3166644.1755393.5122445.5099429.51.872v2.882c0 .5522847.4477153 1 1 1s1-.4477153 1-1v-2.882c-.0026115-.3624145.1930195-.6972887.51-.873 2.9294653-1.5203695 6.1898313-2.2916573 9.49-2.245 3.3020779-.058712 6.5660959.7121642 9.493 2.242.3158208.1755105.5103508.5097031.507.871v.887l.013 21.254c-3.1132767-1.5302673-6.5443048-2.302617-10.013-2.254-3.4633829-.0452049-6.8888794.7245042-10 2.247v-14.247c0-.5522847-.4477153-1-1-1s-1 .4477153-1 1v14.25c-3.1102788-1.525205-6.5361921-2.2960355-10-2.25-3.4639927-.0478071-6.8903131.723115-10 2.25l-.009-21.2c0-.016.009-.029.009-.045s-.008-.03-.009-.045v-.834c-.00343186-.3618379.19101966-.6966627.507-.873 2.9285467-1.5352404 6.1959292-2.3099629 9.502-2.253zm36 29c0 .5522847-.4477153 1-1 1h-48c-.55228475 0-1-.4477153-1-1v-23c0-.5522847.44771525-1 1-1h1v20.25c-.00102272.6947884.35861339 1.3403254.94993695 1.7051109.59132355.3647854 1.32959687.396545 1.95006305.0838891 2.8332185-1.3788762 5.9492896-2.0770816 9.1-2.039 3.6663969-.1080906 7.2834678.8657362 10.4 2.8.022.016.048.022.07.036s.052.041.082.057c.015.007.032 0 .048.011.1248478.0610084.2611303.0950791.4.1h.012c.1297695-.0036599.2575422-.0328845.376-.086.0345269-.0153164.0679416-.0330262.1-.053.0378443-.0162572.0745888-.0349635.11-.056 3.1158854-1.9383505 6.7339452-2.9153866 10.402-2.809 3.1531411-.0387891 6.271721.6597838 9.107 2.04.6148422.3140788 1.3491666.2837348 1.936-.08.5965429-.3629843.9595995-1.0117062.957-1.71v-20.25h1c.5522847 0 1 .4477153 1 1z"/><path id="Shape" d="m23.87 8.46c-.8170683-4.75880334-5.2384812-8.02890564-10.0279545-7.41673253-4.78947323.61217311-8.24623496 4.88923514-7.84008412 9.70056043.40615084 4.8113254 4.53098752 8.4483823 9.35530692 8.2490015 4.8243193-.1993808 8.6349754-4.164398 8.6427317-8.9928294-.0027259-.51595513-.0461943-1.03088926-.13-1.54zm-8.87-3.46c-2.7614237 0-5 2.23857625-5 5 0 .5522847-.44771525 1-1 1s-1-.4477153-1-1c.00440864-3.86416566 3.1358343-6.99559136 7-7 .5522847 0 1 .44771525 1 1s-.4477153 1-1 1z"/><path id="Shape" d="m43 1c-4.3741539.00763966-8.112698 3.15189434-8.87 7.46-.0838057.50911074-.1272741 1.02404487-.13 1.54 0 4.9705627 4.0294373 9 9 9s9-4.0294373 9-9c0-4.97056275-4.0294373-9-9-9zm0 4c-2.7614237 0-5 2.23857625-5 5 0 .5522847-.4477153 1-1 1s-1-.4477153-1-1c.0044086-3.86416566 3.1358343-6.99559136 7-7 .5522847 0 1 .44771525 1 1s-.4477153 1-1 1z"/><path id="Shape" d="m32.66 6.25c-.26403.72450977-.4484485 1.47559595-.55 2.24-.7575586-.9419523-1.9012117-1.48980409-3.11-1.48980409s-2.3524414.54785179-3.11 1.48980409c-.1015515-.76440405-.28597-1.51549023-.55-2.24 2.1553628-1.66675118 5.1646372-1.66675118 7.32 0z"/><path id="Shape" d="m4 10c-.00098663.6707552.0592634 1.3401999.18 2.0000277l-2.18-.0000277c-.53059053.0028231-1.0395388-.2101411-1.41-.59-.3798589-.3704612-.59282307-.8794095-.59-1.41.0032948-1.10320187.89679813-1.9967052 2-2h2.18c-.1207366.65980007-.18098663 1.32924484-.18 2z"/><path id="Shape" d="m58 10c-.0081672 1.1011688-.8988312 1.9918328-2 2h-2.18c.2400242-1.3225312.2400242-2.67746884 0-4h2.18c1.1032019.0032948 1.9967052.89679813 2 2z"/></g></g></svg>