<svg height="512" viewBox="0 0 56 54" width="512" xmlns="http://www.w3.org/2000/svg"><g id="Page-1" fill="none" fill-rule="evenodd"><g id="091---Users" fill="rgb(0,0,0)" fill-rule="nonzero"><path id="Shape" d="m4.509 17.626c-.13526164-.408984-.5172295-.6853869-.948-.686-.07331891.0001262-.14640963.0081729-.218.024-.11274208.0240736-.22771646.0361409-.343.036-1.1045695-.0129787-1.98947869-.9189305-1.9765-2.0235s.9189305-1.9894787 2.0235-1.9765c.5338486-.0251183.9535906-.4655611.953-1v-2.318c.22332988.10023668.45162638.18901865.684.266.33940231.1128959.71325225.03614711.98072416-.20133595.2674719-.23748307.38793042-.59962103.316-.95000002-.07193042-.350379-.32532184-.63576811-.66472416-.74866403-.59025083-.19684555-1.13692846-.50583725-1.61-.91-.03090939-.03137027-.06435636-.06013467-.1-.086-1.524-1.37-2.2-3.62-2.477-5.635-.04448037-.34593419.09635398-.68975176.37073579-.90507382.27438182-.21532205.64182415-.27037631.96726421-.14492618 2.573.972 6.011.824 9.375.678 3.343-.144 6.8-.294 8.643.812 4.222 2.534 1.605 9.72 1.578 9.793-.1147341.3070775-.0716779.6508892.1152372.9201906.1869151.2693013.4939512.4298915.8217628.4298094 1.1045695 0 2 .8954305 2 2s-.8954305 2-2 2c-.1152835.0001409-.2302579-.0119264-.343-.036-.500949-.1111758-1.0047479.1748576-1.166.662-1.1577006 3.7347904-4.5815035 6.3049611-8.491 6.374-3.90949654-.0690389-7.33329944-2.6392096-8.491-6.374zm6.47 8.17c1.3336058.2719968 2.7083942.2719968 4.042 0-.3759191 2.0812504.3578124 4.2082004 1.937 5.615-.1997614 2.0362778-1.9119472 3.5887153-3.958 3.5887153s-3.75823863-1.5524375-3.958-3.5887153c1.5778427-1.4059893 2.3114457-3.5310519 1.937-5.611zm15.021 13.204c0 .5522847-.4477153 1-1 1h-3v-2c0-.5522847-.4477153-1-1-1s-1 .4477153-1 1v2h-14v-2c0-.5522847-.44771525-1-1-1s-1 .4477153-1 1v2h-3c-.55228475 0-1-.4477153-1-1v-1c.00330738-3.3123376 2.68766243-5.9966926 6-6h1.083c.48565272 2.8893814 2.9870881 5.0054594 5.917 5.0054594s5.4313473-2.116078 5.917-5.0054594h1.083c3.3123376.0033074 5.9966926 2.6876624 6 6z"/><path id="Shape" d="m34.509 31.626c-.1352616-.408984-.5172295-.6853869-.948-.686-.0733189.0001262-.1464096.0081729-.218.024-.1127421.0240736-.2277165.0361409-.343.036-.7145312-.0083957-1.3703062-.3973515-1.7203009-1.0203516-.3499947-.623-.3410365-1.3853957.0235-2 .3645366-.6146043 1.0292697-.9880442 1.7438009-.9796484.5338486-.0251183.9535906-.4655611.953-1v-2.318c.2233299.1002367.4516264.1890187.684.266.3394023.1128959.7132523.0361471.9807242-.201336.2674719-.237483.3879304-.599621.316-.95-.0719305-.350379-.3253219-.6357681-.6647242-.748664-.5902508-.1968455-1.1369285-.5058373-1.61-.91-.0309094-.0313703-.0643564-.0601347-.1-.086-1.524-1.37-2.2-3.62-2.477-5.636-.0454987-.3461772.0947192-.690724.3690163-.9067561.2742972-.2160321.6421091-.2716015.9679837-.1462439 2.573.972 6.011.825 9.375.678 3.343-.143 6.8-.293 8.643.812 4.222 2.534 1.605 9.72 1.578 9.793-.1164711.3077054-.0741326.6530138.1132267.9234663.1873593.2704526.4957638.4314405.8247733.4305337 1.1045695 0 2 .8954305 2 2s-.8954305 2-2 2c-.1152835.0001409-.2302579-.0119264-.343-.036-.500949-.1111758-1.0047479.1748576-1.166.662-1.0984742 3.7759651-4.5584998 6.3728648-8.491 6.3728648s-7.3925258-2.5968997-8.491-6.3728648zm6.47 8.17c1.3336058.2719968 2.7083942.2719968 4.042 0-.3759191 2.0812504.3578124 4.2082004 1.937 5.615-.1997614 2.0362778-1.9119472 3.5887153-3.958 3.5887153s-3.7582386-1.5524375-3.958-3.5887153c1.5778427-1.4059893 2.3114457-3.5310519 1.937-5.611zm15.021 13.204c0 .5522847-.4477153 1-1 1h-3v-2c0-.5522847-.4477153-1-1-1s-1 .4477153-1 1v2h-14v-2c0-.5522847-.4477153-1-1-1s-1 .4477153-1 1v2h-3c-.5522847 0-1-.4477153-1-1v-1c.0033074-3.3123376 2.6876624-5.9966926 6-6h1.083c.4856527 2.8893814 2.9870881 5.0054594 5.917 5.0054594s5.4313473-2.116078 5.917-5.0054594h1.083c3.3123376.0033074 5.9966926 2.6876624 6 6z"/></g></g></svg>