<svg height="56" viewBox="0 0 56 56" width="56" xmlns="http://www.w3.org/2000/svg"><g id="Page-1" fill="none" fill-rule="evenodd"><g id="092---Mail-Note" fill="rgb(0,0,0)" fill-rule="nonzero"><path id="Shape" d="m36.808 10.833c-.2651948-.0000566-.5195073-.1054506-.707-.293l-1.415-1.415-16.393 16.394c.9966103.4596844 1.6546341 1.4357338 1.707 2.532 1.0974768.051461 2.0742342.711766 2.531 1.711l15.469-15.462.009-.009.921-.921c-.3789722-.3923789-.3735524-1.0160848.0121814-1.4018186s1.0094397-.3911536 1.4018186-.0121814l1.414-1.414-2.12-2.121-2.123-2.121-1.415 1.411 1.415 1.415c.2859079.28599425.3714219.71603662.216678 1.0896546-.1547439.3736179-.5192821.6172591-.923678.6173454zm-1.414 3.242-12.728 12.725c-.2525868.2527654-.6208353.3515768-.96603.259213-.3451946-.0923639-.6148921-.3618707-.7075-.707s.0059432-.7134476.25853-.966213l12.728-12.725c.3904653-.3907414 1.0237585-.3909653 1.4145-.0005.3907414.3904653.3909653 1.0237585.0005 1.4145z"/><path id="Shape" d="m41.05 5.59c.3944571-.35870714 1.0009669-.34485787 1.3786397.03148038.3776728.37633824.3936689.98279525.0363603 1.37851962l-.708.708 1.414 1.414 4.243-4.243c.7807639-.7809997.7807639-2.0470003 0-2.828l-1.414-1.41c-.7915033-.75594024-2.0374967-.75594024-2.829 0l-4.242 4.242 1.414 1.417zm2.829-2.828c.2859742-.28606061.7161158-.37167172 1.0898272-.21690842.3737115.1547633.6173863.51941869.6173863.92390842s-.2436748.76914512-.6173863.92390842c-.3737114.1547633-.803853.06915219-1.0898272-.21690842-.3903819-.39049985-.3903819-1.02350015 0-1.414z"/><path id="Shape" d="m17.335 33.163 3.307-1.523c.2196-.2974817.2571258-.6918617.0975703-1.0254206-.1595555-.333559-.4901489-.5518518-.8595703-.5675794-1.0121853-.0501996-1.8213412-.859788-1.871-1.872-.0158288-.3695974-.2344079-.7002618-.5682498-.859643s-.7283999-.1214379-1.0257502.098643l-1.529 3.3c1.0485398.5452329 1.903911 1.3999058 2.45 2.448z"/><path id="Shape" d="m55.051 18.093-19.973 17.907 19.973 17.907c.6147862-.844774.9469293-1.8622029.949-2.907v-30c-.0020707-1.0447971-.3342138-2.062226-.949-2.907z"/><path id="Shape" d="m12.779 35.262 2.736-1.262c-.3420537-.6187119-.8528971-1.1274745-1.473-1.467z"/><path id="Shape" d="m23.087 35.256 2.913 2.61c1.1388026 1.018576 2.8611974 1.018576 4 0l23.571-21.132c-.7734047-.4759642-1.6628811-.7299027-2.571-.734h-11.875l-17.164 17.164c-.083371.0827739-.1804796.1504454-.287.2l-8.04 3.726c-.2708582.1362985-.5697819.2075197-.873.208-.6911545-.0073449-1.3301563-.3689497-1.6923185-.9576662-.3621621-.5887164-.3967801-1.3221215-.0916815-1.9423338l3.71-8.011c.0488194-.1069416.1165764-.2041728.2-.287l10.097-10.1h-19.984c-.90811891.0040973-1.79759533.2580358-2.571.734l9.5 8.522c.2957109.2289965.4389169.6038679.3712019.9716981s-.3350308.6671273-.692905.7758033c-.3578741.108676-.7464792.0085629-1.0072969-.2595014l-9.651-8.651c-.61478625.844774-.94692934 1.8622029-.949 2.907v30c.00207066 1.0447971.33421375 2.062226.949 2.907l20.8-18.651c.3896559-.3170455.9483441-.3170455 1.338 0z"/><path id="Shape" d="m31.337 39.354c-1.8989792 1.7014064-4.7740208 1.7014064-6.673 0l-2.244-2.011-19.991 17.923c.77340467.4759642 1.66288109.7299027 2.571.734h46c.9081189-.0040973 1.7975953-.2580358 2.571-.734l-19.99-17.923z"/></g></g></svg>