<svg height="512" viewBox="0 0 60 58" width="512" xmlns="http://www.w3.org/2000/svg"><g id="Page-1" fill="none" fill-rule="evenodd"><g id="093---Computer" fill="rgb(0,0,0)" fill-rule="nonzero"><path id="Shape" d="m58 40v-2h-3c-.5522847 0-1-.4477153-1-1s.4477153-1 1-1h3v-30h-48c-.55228475 0-1-.44771525-1-1s.44771525-1 1-1h48v-1c-.0049422-1.6548028-1.3451972-2.9950578-3-3h-50c-1.6548028.0049422-2.9950578 1.3451972-3 3v1h3c.55228475 0 1 .44771525 1 1s-.44771525 1-1 1h-3v30h48c.5522847 0 1 .4477153 1 1s-.4477153 1-1 1h-48v2c0 2.7614237 2.23857625 5 5 5h46c2.7614237 0 5-2.2385763 5-5zm-28-39c.5522847 0 1 .44771525 1 1s-.4477153 1-1 1-1-.44771525-1-1 .4477153-1 1-1zm-25.71 10.29 3-3c.39212218-.39212215 1.02787781-.39212214 1.41999998.00000002.39212216.39212217.39212217 1.0278778.00000002 1.41999998l-3 3c-.3943361.3867403-1.0256639.3867403-1.42 0-.38997787-.3930079-.38997787-1.0269921 0-1.42zm10.42-1.58-9 9c-.3943361.3867403-1.0256639.3867403-1.42 0-.38997787-.3930079-.38997787-1.0269921 0-1.42l9-9c.3921222-.39212216 1.0278778-.39212216 1.42.00000001s.3921222 1.02787782 0 1.41999999zm15.29 34.29c-1.6548028-.0049422-2.9950578-1.3451972-3-3 0-.5522847.4477153-1 1-1s1 .4477153 1 1 .4477153 1 1 1 1-.4477153 1-1 .4477153-1 1-1 1 .4477153 1 1c-.0049422 1.6548028-1.3451972 2.9950578-3 3z"/><path id="Shape" d="m4 56h-3c-.55228475 0-1 .4477153-1 1s.44771525 1 1 1h3c.55228475 0 1-.4477153 1-1s-.44771525-1-1-1z"/><path id="Shape" d="m59 56h-21.46c-1.5433864-1.2098839-2.473113-3.0400544-2.54-5v-4h-10v4c-.066887 1.9599456-.9966136 3.7901161-2.54 5h-13.46c-.55228475 0-1 .4477153-1 1s.44771525 1 1 1h50c.5522847 0 1-.4477153 1-1s-.4477153-1-1-1z"/></g></g></svg>