<svg height="512" viewBox="0 0 60 49" width="512" xmlns="http://www.w3.org/2000/svg"><g id="Page-1" fill="none" fill-rule="evenodd"><g id="094---Computer" fill="rgb(0,0,0)" fill-rule="nonzero"><path id="Shape" d="m59 2c-.0032948-1.10320187-.8967981-1.9967052-2-2h-14c-1.1032019.0032948-1.9967052.89679813-2 2v2h18z"/><path id="Shape" d="m59 6h-18v8h18zm-4 5h-10c-.5522847 0-1-.4477153-1-1 0-.55228475.4477153-1 1-1h10c.5522847 0 1 .44771525 1 1 0 .5522847-.4477153 1-1 1z"/><path id="Shape" d="m37 36v-1h-27c-.55228475 0-1-.4477153-1-1s.44771525-1 1-1h27v-21c0-1.6568542-1.3431458-3-3-3h-30c-1.65685425 0-3 1.3431458-3 3v21h4c.55228475 0 1 .4477153 1 1s-.44771525 1-1 1h-4v1c0 1.6568542 1.34314575 3 3 3h30c1.6568542 0 3-1.3431458 3-3zm-32.707-19.707 4-4c.39237889-.3789722 1.01608478-.3735524 1.40181858.0121814.38573382.3857338.39115362 1.0094397.01218142 1.4018186l-4 4c-.39237889.3789722-1.01608478.3735524-1.40181858-.0121814-.38573379-.3857338-.39115363-1.0094397-.01218142-1.4018186zm1.414 7.414c-.39237889.3789722-1.01608478.3735524-1.40181858-.0121814-.38573379-.3857338-.39115363-1.0094397-.01218142-1.4018186l10-10c.3923789-.3789722 1.0160848-.3735524 1.4018186.0121814s.3911536 1.0094397.0121814 1.4018186z"/><path id="Shape" d="m3 47h-2c-.55228475 0-1 .4477153-1 1s.44771525 1 1 1h2c.55228475 0 1-.4477153 1-1s-.44771525-1-1-1z"/><path id="Shape" d="m59 47h-.279c.1805146-.3024878.2768429-.6477504.279-1v-1h-11c-.5522847 0-1-.4477153-1-1s.4477153-1 1-1h11v-27h-18v27h3c.5522847 0 1 .4477153 1 1s-.4477153 1-1 1h-3v1c.0021571.3522496.0984854.6975122.279 1h-16.816c-.9279906-1.1283737-1.4439884-2.5391673-1.463-4v-2h-8v2c-.0190116 1.4608327-.5350094 2.8716263-1.463 4h-5.537c-.55228475 0-1 .4477153-1 1s.44771525 1 1 1h51c.5522847 0 1-.4477153 1-1s-.4477153-1-1-1zm-11-15c-.5522847 0-1-.4477153-1-1s.4477153-1 1-1 1 .4477153 1 1-.4477153 1-1 1zm4 0c-.5522847 0-1-.4477153-1-1s.4477153-1 1-1 1 .4477153 1 1-.4477153 1-1 1zm2-5c.5522847 0 1 .4477153 1 1s-.4477153 1-1 1-1-.4477153-1-1 .4477153-1 1-1zm-2-3c.5522847 0 1 .4477153 1 1s-.4477153 1-1 1-1-.4477153-1-1 .4477153-1 1-1zm-2 3c.5522847 0 1 .4477153 1 1s-.4477153 1-1 1-1-.4477153-1-1 .4477153-1 1-1zm-2-3c.5522847 0 1 .4477153 1 1s-.4477153 1-1 1-1-.4477153-1-1 .4477153-1 1-1zm-2 3c.5522847 0 1 .4477153 1 1s-.4477153 1-1 1-1-.4477153-1-1 .4477153-1 1-1z"/></g></g></svg>