<svg height="512" viewBox="0 0 56 56" width="512" xmlns="http://www.w3.org/2000/svg"><g id="Page-1" fill="none" fill-rule="evenodd"><g id="095---Mail" fill="rgb(0,0,0)" fill-rule="nonzero"><path id="Shape" d="m33.935 18 4.365-4.682c.3766582-.4039963 1.0095037-.4261582 1.4135-.0495s.4261582 1.0095037.0495 1.4135l-3.094 3.318h10.331c.019538.0029379.0389003.0069439.058.012.0921272.0049325.1830624.0231196.27.054.031.011.062.019.092.033.1038072.0464283.1988586.1103596.281.189l.007.006 4.292 4.292v-17.586c-.0030706-.93169115-.2689188-1.8436164-.767-2.631l-2.5 2.686c-.3796451.38884325-1.000336.4033181-1.3976947.032595-.3973586-.3707231-.4259154-.99092566-.0643053-1.396595l2.59-2.781c-.836554-.592019-1.8361541-.90996243-2.861-.91h-42c-1.02394257.00087974-2.02256028.31838358-2.859.909l20.2 21.69c.7068657.7648497 1.6376256 1.2864113 2.659 1.49v-1.089c.0033061-2.7600532 2.2399468-4.9966939 5-5zm8.333-8.94 2-2.148c.2412612-.27043272.6099561-.38916833.9636911-.31034999.3537351.07881833.637142.34285357.7407662.69013277s.011246.72344449-.2414573.98321722l-2 2.148c-.3763821.4042724-1.0092276.426882-1.4135.0505-.4042724-.3763821-.426882-1.00922756-.0505-1.4135z"/><path id="Shape" d="m.767 2.369c-.49808121.7873836-.76392943 1.69930885-.767 2.631v32c.00330612 2.7600532 2.23994685 4.9966939 5 5h20v-15.888c-1.5818265-.2183205-3.0389653-.9785208-4.123-2.151z"/><path id="Shape" d="m51 30c-2.7600532-.0033061-4.9966939-2.2399468-5-5v-5h-16c-1.6568542 0-3 1.3431458-3 3v30c0 1.6568542 1.3431458 3 3 3h23c1.6568542 0 3-1.3431458 3-3v-23zm-15 3h8c.5522847 0 1 .4477153 1 1s-.4477153 1-1 1h-8c-.5522847 0-1-.4477153-1-1s.4477153-1 1-1zm-6 0h2c.5522847 0 1 .4477153 1 1s-.4477153 1-1 1h-2c-.5522847 0-1-.4477153-1-1s.4477153-1 1-1zm0 4h7c.5522847 0 1 .4477153 1 1s-.4477153 1-1 1h-7c-.5522847 0-1-.4477153-1-1s.4477153-1 1-1zm0 4h3c.5522847 0 1 .4477153 1 1s-.4477153 1-1 1h-3c-.5522847 0-1-.4477153-1-1s.4477153-1 1-1zm5 6h-5c-.5522847 0-1-.4477153-1-1s.4477153-1 1-1h5c.5522847 0 1 .4477153 1 1s-.4477153 1-1 1zm9 0h-5c-.5522847 0-1-.4477153-1-1s.4477153-1 1-1h5c.5522847 0 1 .4477153 1 1s-.4477153 1-1 1zm0-4h-7c-.5522847 0-1-.4477153-1-1s.4477153-1 1-1h7c.5522847 0 1 .4477153 1 1s-.4477153 1-1 1zm9 0h-5c-.5522847 0-1-.4477153-1-1s.4477153-1 1-1h5c.5522847 0 1 .4477153 1 1s-.4477153 1-1 1zm0-4h-12c-.5522847 0-1-.4477153-1-1s.4477153-1 1-1h12c.5522847 0 1 .4477153 1 1s-.4477153 1-1 1zm0-4h-5c-.5522847 0-1-.4477153-1-1s.4477153-1 1-1h5c.5522847 0 1 .4477153 1 1s-.4477153 1-1 1z"/><path id="Shape" d="m48 25c0 1.6568542 1.3431458 3 3 3h3.586l-2.292-2.292-4.294-4.294z"/></g></g></svg>