<svg height="512" viewBox="0 0 52 57" width="512" xmlns="http://www.w3.org/2000/svg"><g id="Page-1" fill="none" fill-rule="evenodd"><g id="096---Virus-Scan" fill="rgb(0,0,0)" fill-rule="nonzero"><path id="Shape" d="m25 55.842c.6-.129 1.19-.264 1.761-.423-.6098993-.3664063-1.1978986-.768089-1.761-1.203z"/><path id="Shape" d="m21.784 29h-9.784c-.5522847 0-1-.4477153-1-1s.4477153-1 1-1h11v-14c0-.5522847.4477153-1 1-1s1 .4477153 1 1v12.784c6.8520044-5.3458553 16.5551971-4.9923216 23 .838v-14.302c.0021845-.3858894-.2209472-.7375856-.571-.9-2.954-1.369-10.239-5.17-14.279-10.946-.1887026-.2875683-.5061745-.46460556-.85-.474h-7.3v3c0 .55228475-.4477153 1-1 1s-1-.44771525-1-1v-3h-7.3c-.3454637.00999765-.6641247.18856734-.853.478-4.037 5.772-11.322 9.573-14.266 10.939-.35361203.1598624-.58089199.5119312-.581.9v14.683h2c.55228475 0 1 .4477153 1 1s-.44771525 1-1 1h-2v8.68c.00112984.547858.15226174 1.0849468.437 1.553 1.93 3.187 9.231 13.714 22.563 16.606v-3.423c-6.1725634-6.4166402-6.6907174-16.3945129-1.216-23.416zm13.509-20.707c.3904999-.39038194 1.0235001-.39038194 1.414 0l5 5c.2599566.2510745.3642126.6228779.2726972.9725073-.0915155.3496295-.3645604.6226744-.7141899.7141899-.3496294.0915154-.7214328-.0127406-.9725073-.2726972l-5-5c-.3903819-.39049985-.3903819-1.02350015 0-1.414zm-6 1c.3904999-.39038194 1.0235001-.39038194 1.414 0l10 10c.2599566.2510745.3642126.6228779.2726972.9725073-.0915155.3496295-.3645604.6226744-.7141899.7141899-.3496294.0915154-.7214328-.0127406-.9725073-.2726972l-10-10c-.3903819-.3904999-.3903819-1.02350015 0-1.414zm-6.293-2.293c0-.55228475.4477153-1 1-1s1 .44771525 1 1v2c0 .55228475-.4477153 1-1 1s-1-.44771525-1-1zm-17.835 33.806c-.21377366.1577579-.48153842.2239617-.74419751.184-.26265908-.0399617-.49861902-.1828036-.65580249-.397-.756-1.027-1.3-1.873-1.621-2.4-.2880165-.4722035-.13870346-1.0884835.3335-1.3765s1.0884835-.1387035 1.3765.3335c.3.5.811 1.288 1.524 2.257.15744171.2137055.22345881.4812387.18350569.7436538s-.18259805.4981792-.39650569.6553462zm.835-11.806c-.55228475 0-1-.4477153-1-1s.44771525-1 1-1h2c.55228475 0 1 .4477153 1 1s-.44771525 1-1 1zm12.38 21.15c.4310299.1925982.6686462.6604069.5699412 1.1220758-.0987049.4616689-.5068389.791416-.9789412.7909242-.1404679-.0002953-.2793639-.0295724-.408-.086-3.8493245-1.7541199-7.3350516-4.2154313-10.276-7.256-.36013861-.3977586-.34216821-1.0088552.04072148-1.3847637s.99421342-.3826323 1.38527852-.0152363c2.7664173 2.8614267 6.0455767 5.1779033 9.667 6.829z"/><path id="Shape" d="m47.982 29.432-2.827 2.827c3.517644 4.1419539 3.8050414 10.1333677.7 14.593-.5790607.8172459-1.2553584 1.561039-2.014 2.215.1024976.3005101.1561781.6155034.159.933-.0042281 1.3048286-.85139 2.457289-2.0955099 2.8506857-1.24412.3933967-2.5998516-.0624982-3.3534901-1.1276857-.8376059.1855819-1.6930827.2784737-2.551.277-5.4966747-.0006009-10.2892085-3.7381096-11.629-9.069-1.3779061-.3007408-2.3602821-1.520656-2.3602821-2.931s.982376-2.6302592 2.3602821-2.931c1.0058146-4.0159661 4.0139899-7.2279091 7.9555163-8.4944068s8.2576219-.4080014 11.4144837 2.2704068l2.827-2.827c-6.3031582-5.5948807-15.8727687-5.314865-21.838.639-.0265472.0303786-.0549339.0590993-.085.086-6.1458584 6.1724139-6.2294803 16.1256796-.1881968 22.4004833 6.0412835 6.2748038 15.9905652 6.5685457 22.3915171.6610856 6.4009518-5.90746 6.9046827-15.8483224 1.1336797-22.3725689z"/><circle id="Oval" cx="25" cy="40" r="1"/><path id="Shape" d="m38.019 36.567c-.6095595-.3676011-1.3071846-.5635166-2.019-.567-2.209139 0-4 1.790861-4 4s1.790861 4 4 4 4-1.790861 4-4c-.0034834-.7118154-.1993989-1.4094405-.567-2.019l-2.726 2.726c-.3923789.3789722-1.0160848.3735524-1.4018186-.0121814s-.3911536-1.0094397-.0121814-1.4018186z"/><path id="Shape" d="m44.215 45.7c2.5462397-3.6648607 2.3515104-8.5743237-.477-12.026l-2.853 2.853c1.8146732 2.5499139 1.372382 6.0650555-1.0174106 8.0859442s-5.9295674 1.8731155-8.1426082-.3399254c-2.2130409-2.2130408-2.3608141-5.7528156-.3399254-8.1426082s5.5360303-2.8320838 8.0859442-1.0174106l2.853-2.853c-2.616126-2.1425104-6.138368-2.8164957-9.3606626-1.7911743-3.2222945 1.0253214-5.707383 3.6108156-6.6043374 6.8711743 1.0062286.5048287 1.6414679 1.5342345 1.6414679 2.66s-.6352393 2.1551713-1.6414679 2.66c1.1967024 4.3368004 5.1421186 7.3405712 9.641 7.34.681132-.0065851 1.3596255-.085698 2.024-.236.0741104-1.0454048.6928123-1.9746989 1.6287163-2.446342.935904-.4716432 2.0509328-.4160521 2.9352837.146342.6093847-.5224192 1.1554428-1.1144576 1.627-1.764z"/><circle id="Oval" cx="41" cy="50" r="1"/></g></g></svg>