<svg height="512" viewBox="0 0 52 56" width="512" xmlns="http://www.w3.org/2000/svg"><g id="Page-1" fill="none" fill-rule="evenodd"><g id="097---Virus-Schedule" fill="rgb(0,0,0)" fill-rule="nonzero"><path id="Shape" d="m25 55.84c.589-.129 1.176-.265 1.755-.424-.6079128-.3654145-1.193915-.7660998-1.755-1.2z"/><path id="Shape" d="m21.784 29h-9.784c-.5522847 0-1-.4477153-1-1s.4477153-1 1-1h11v-14c0-.5522847.4477153-1 1-1s1 .4477153 1 1v12.784c6.8520044-5.3458553 16.5551971-4.9923216 23 .838v-14.302c.0021845-.3858894-.2209472-.7375856-.571-.9-2.954-1.369-10.239-5.17-14.279-10.946-.1887026-.2875683-.5061745-.46460556-.85-.474h-7.3v3c0 .55228475-.4477153 1-1 1s-1-.44771525-1-1v-3h-7.3c-.3454637.00999765-.6641247.18856734-.853.478-4.037 5.772-11.322 9.573-14.266 10.939-.35361203.1598624-.58089199.5119312-.581.9v14.683h2c.55228475 0 1 .4477153 1 1s-.44771525 1-1 1h-2v8.68c.00112984.547858.15226174 1.0849468.437 1.553 1.93 3.187 9.231 13.714 22.563 16.606v-3.423c-6.1725634-6.4166402-6.6907174-16.3945129-1.216-23.416zm13.509-20.707c.3904999-.39038194 1.0235001-.39038194 1.414 0l5 5c.2599566.2510745.3642126.6228779.2726972.9725073-.0915155.3496295-.3645604.6226744-.7141899.7141899-.3496294.0915154-.7214328-.0127406-.9725073-.2726972l-5-5c-.3903819-.39049985-.3903819-1.02350015 0-1.414zm-6 1c.3904999-.39038194 1.0235001-.39038194 1.414 0l10 10c.2599566.2510745.3642126.6228779.2726972.9725073-.0915155.3496295-.3645604.6226744-.7141899.7141899-.3496294.0915154-.7214328-.0127406-.9725073-.2726972l-10-10c-.3903819-.3904999-.3903819-1.02350015 0-1.414zm-6.293-2.293c0-.55228475.4477153-1 1-1s1 .44771525 1 1v2c0 .55228475-.4477153 1-1 1s-1-.44771525-1-1zm-17.835 33.806c-.21377366.1577579-.48153842.2239617-.74419751.184-.26265908-.0399617-.49861902-.1828036-.65580249-.397-.756-1.027-1.3-1.873-1.621-2.4-.2880165-.4722035-.13870346-1.0884835.3335-1.3765s1.0884835-.1387035 1.3765.3335c.3.5.811 1.288 1.524 2.257.15744171.2137055.22345881.4812387.18350569.7436538s-.18259805.4981792-.39650569.6553462zm.835-11.806c-.55228475 0-1-.4477153-1-1s.44771525-1 1-1h2c.55228475 0 1 .4477153 1 1s-.44771525 1-1 1zm12.38 21.15c.4310299.1925982.6686462.6604069.5699412 1.1220758-.0987049.4616689-.5068389.791416-.9789412.7909242-.1404679-.0002953-.2793639-.0295724-.408-.086-3.8493245-1.7541199-7.3350516-4.2154313-10.276-7.256-.36013861-.3977586-.34216821-1.0088552.04072148-1.3847637s.99421342-.3826323 1.38527852-.0152363c2.7664173 2.8614267 6.0455767 5.1779033 9.667 6.829z"/><path id="Shape" d="m36 24c-8.836556 0-16 7.163444-16 16s7.163444 16 16 16 16-7.163444 16-16c-.0104696-8.8322157-7.1677843-15.9895304-16-16zm.707 16.707-4 4c-.3923789.3789722-1.0160848.3735524-1.4018186-.0121814s-.3911536-1.0094397-.0121814-1.4018186l3.707-3.707v-7.586c0-.5522847.4477153-1 1-1s1 .4477153 1 1v8c-.0000566.2651948-.1054506.5195073-.293.707zm.293 6.293v2c0 .5522847-.4477153 1-1 1s-1-.4477153-1-1v-2c0-.5522847.4477153-1 1-1s1 .4477153 1 1zm-7-7c0 .5522847-.4477153 1-1 1h-2c-.5522847 0-1-.4477153-1-1s.4477153-1 1-1h2c.5522847 0 1 .4477153 1 1zm-4.769-8.937c.6417408-.770841 1.3634459-1.4714279 2.153-2.09.4355346-.3174411 1.044286-.2326317 1.3764699.1917656s.2682913 1.0356981-.1444699 1.3822344c-.6777832.5327732-1.2969371 1.1361716-1.847 1.8-.3531861.4247069-.983793.482686-1.4085.1294999-.4247069-.353186-.4826861-.9837929-.1295-1.4084999zm10.769 22.937c-4.4783853.0001984-8.6865943-2.1421001-11.3213476-5.7634273-2.6347533-3.6213271-3.3780354-8.2845874-1.9996524-12.5455727.1881093-.5006383.736829-.7646547 1.245414-.5992307s.7969905.7017264.654586 1.2172307c-1.7052365 5.2761066.4264203 11.0335092 5.1564178 13.9269944 4.7299974 2.8934853 10.8265132 2.1695095 14.7472996-1.751277 3.9207865-3.9207864 4.6447623-10.0173022 1.751277-14.7472996-2.8934852-4.7299975-8.6508878-6.8616543-13.9269944-5.1564178-.5155043.1424045-1.0518067-.146001-1.2172307-.654586s.0985924-1.0573047.5992307-1.245414c5.2590485-1.7031051 11.0278518-.1521709 14.7238773 3.9584926 3.6960254 4.1106635 4.6271588 10.0112973 2.3765576 15.0603519s-7.2614916 8.3010489-12.7894349 8.3001555zm6-14c0-.5522847.4477153-1 1-1h2c.5522847 0 1 .4477153 1 1s-.4477153 1-1 1h-2c-.5522847 0-1-.4477153-1-1z"/></g></g></svg>