<svg height="512" viewBox="0 0 51 57" width="512" xmlns="http://www.w3.org/2000/svg"><g id="Page-1" fill="none" fill-rule="evenodd"><g id="098---Virus-Alert" fill="rgb(0,0,0)" fill-rule="nonzero"><path id="Shape" d="m25 33.985 2.849-4.985h-2.849z"/><path id="Shape" d="m47.565 39.23c.2835099-.4673849.4339261-1.0033508.435-1.55v-8.68h-9.849l7.477 13.085c.864-1.155 1.512-2.155 1.937-2.855z"/><path id="Shape" d="m23 29h-11c-.5522847 0-1-.4477153-1-1s.4477153-1 1-1h11v-14c0-.5522847.4477153-1 1-1s1 .4477153 1 1v14h3.991l1.409-2.457c.5343255-.9340072 1.5279548-1.5103074 2.604-1.5103074s2.0696745.5763002 2.604 1.5103074l1.401 2.457h10.991v-14.68c.0021845-.3858894-.2209472-.7375856-.571-.9-2.954-1.369-10.239-5.17-14.279-10.946-.1887026-.2875683-.5061745-.46460556-.85-.474h-7.3v3c0 .55228475-.4477153 1-1 1s-1-.44771525-1-1v-3h-7.3c-.3454637.00999765-.6641247.18856734-.853.478-4.037 5.772-11.322 9.573-14.266 10.939-.35361203.1598624-.58089199.5119312-.581.9v14.683h2c.55228475 0 1 .4477153 1 1s-.44771525 1-1 1h-2v8.68c.00112984.547858.15226174 1.0849468.437 1.553 3.4262756 5.5710602 8.21650488 10.1764674 13.918 13.381l8.645-15.129zm12.293-20.707c.3904999-.39038194 1.0235001-.39038194 1.414 0l5 5c.2599566.2510745.3642126.6228779.2726972.9725073-.0915155.3496295-.3645604.6226744-.7141899.7141899-.3496294.0915154-.7214328-.0127406-.9725073-.2726972l-5-5c-.3903819-.39049985-.3903819-1.02350015 0-1.414zm-6 1c.3904999-.39038194 1.0235001-.39038194 1.414 0l10 10c.2599566.2510745.3642126.6228779.2726972.9725073-.0915155.3496295-.3645604.6226744-.7141899.7141899-.3496294.0915154-.7214328-.0127406-.9725073-.2726972l-10-10c-.3903819-.3904999-.3903819-1.02350015 0-1.414zm-6.293-2.293c0-.55228475.4477153-1 1-1s1 .44771525 1 1v2c0 .55228475-.4477153 1-1 1s-1-.44771525-1-1zm-17.835 33.806c-.21377366.1577579-.48153842.2239617-.74419751.184-.26265908-.0399617-.49861902-.1828036-.65580249-.397-.756-1.027-1.3-1.873-1.621-2.4-.2880165-.4722035-.13870346-1.0884835.3335-1.3765s1.0884835-.1387035 1.3765.3335c.3.5.811 1.288 1.524 2.257.15744171.2137055.22345881.4812387.18350569.7436538s-.18259805.4981792-.39650569.6553462zm-.165-12.806c0-.5522847.44771525-1 1-1h2c.55228475 0 1 .4477153 1 1s-.44771525 1-1 1h-2c-.55228475 0-1-.4477153-1-1zm8.7 20.74c-.3159738.4527688-.9390998.5637855-1.392.248-1.8041996-1.2635236-3.48649908-2.692725-5.025-4.269-.3865993-.3948836-.37988355-1.0284007.01500003-1.415s1.02840064-.3798836 1.41499997.015c1.4506335 1.4874753 3.0372094 2.8360146 4.739 4.028.2177168.1517529.366183.3838248.412699.645102.046516.2612773-.0127336.5303295-.164699.747898z"/><path id="Rectangle-path" d="m32 50h2.001v2h-2.001z"/><path id="Shape" d="m33.642 34h-1.284c-.3271612.0005755-.6391901.1378729-.8606395.3786943-.2214493.2408214-.3321592.5632434-.3053605.8893057l.638 7.659c.0551509.6057639.5617365 1.0703506 1.17 1.073.6071116-.0041888 1.1119615-.4683739 1.167-1.073l.638-7.659c.0267587-.3255437-.0835538-.6474848-.3043423-.8882069s-.5320192-.3783826-.8586577-.3797931z"/><path id="Shape" d="m50.422 54.5-5.8-10.143-.011-.018-10.743-18.804c-.1781085-.3113357-.5093183-.5034358-.868-.5034358s-.6898915.1921001-.868.5034358l-16.5 28.874v.005l-.008.011-.045.079c-.1788102.3097067-.1786223.6913257.0004927 1.0008562.1791149.3095305.5098891.4998504.8675073.4991438h33.107c.3576182.0007066.6883924-.1896133.8675073-.4991438.179115-.3095305.1793029-.6911495.0004927-1.0008562zm-14.422-2.5c0 1.1045695-.8954305 2-2 2h-2c-1.1045695 0-2-.8954305-2-2v-2c0-1.1045695.8954305-2 2-2h2c1.1045695 0 2 .8954305 2 2zm.162-8.907c-.1455721 1.6399486-1.5156202 2.8995089-3.162 2.907-1.6452275-.0090343-3.0135368-1.2681908-3.159-2.907l-.641-7.659c-.0741359-.8834486.2251867-1.7575576.825302-2.4101212s1.4461442-1.0239066 2.332698-1.0238788h1.284c.8865538-.0000278 1.7325827.3713152 2.332698 1.0238788s.8994379 1.5266726.825302 2.4101212z"/></g></g></svg>