<svg height="512" viewBox="0 0 56 55" width="512" xmlns="http://www.w3.org/2000/svg"><g id="Page-1" fill="none" fill-rule="evenodd"><g id="099---Computers" fill="rgb(0,0,0)" fill-rule="nonzero"><path id="Shape" d="m32 18h-30c-1.10320187.0032948-1.9967052.8967981-2 2v21h3c.55228475 0 1 .4477153 1 1s-.44771525 1-1 1h-3v1c.0032948 1.1032019.89679813 1.9967052 2 2h30c1.1032019-.0032948 1.9967052-.8967981 2-2v-1h-26c-.55228475 0-1-.4477153-1-1s.44771525-1 1-1h26v-21c-.0032948-1.1032019-.8967981-1.9967052-2-2zm-29.71 6.29 4-4c.25365857-.2536586.62337399-.3527235.96987804-.259878.34650405.0928454.61715452.3634959.71.71.09284548.346504-.00621947.7162194-.25987804.969878l-4 4c-.3943361.3867403-1.0256639.3867403-1.42 0-.38997787-.3930079-.38997787-1.0269921 0-1.42zm11.42-2.58-10 10c-.3943361.3867403-1.0256639.3867403-1.42 0-.38997787-.3930079-.38997787-1.0269921 0-1.42l10-10c.2536586-.2536586.623374-.3527235.969878-.259878.3465041.0928454.6171546.3634959.71.71.0928455.346504-.0062194.7162194-.259878.969878z"/><path id="Shape" d="m54 0h-30c-1.1032019.0032948-1.9967052.89679813-2 2v14h10c2.209139 0 4 1.790861 4 4v3h20v-21c-.0032948-1.10320187-.8967981-1.9967052-2-2zm-29.71 6.29 4-4c.3921222-.39212217 1.0278778-.39212217 1.42 0s.3921222 1.02787783 0 1.42l-4 4c-.3943361.38674033-1.0256639.38674033-1.42 0-.3899779-.39300794-.3899779-1.02699206 0-1.42zm11.42-2.58-10 10c-.3943361.3867403-1.0256639.3867403-1.42 0-.3899779-.3930079-.3899779-1.0269921 0-1.42l10-10c.2536586-.25365859.623374-.35272356.9698781-.25987808.346504.09284548.6171545.36349596.71.71000002.0928455.34650407-.0062195.7162195-.2598781.96987806z"/><path id="Shape" d="m36 28h18c1.1032019-.0032948 1.9967052-.8967981 2-2v-1h-20z"/><path id="Shape" d="m26 53h-4.84c-.7581062-1.196378-1.1604153-2.5836508-1.16-4v-1h-6v1c.0004153 1.4163492-.4018938 2.803622-1.16 4h-4.84c-.55228475 0-1 .4477153-1 1s.44771525 1 1 1h18c.5522847 0 1-.4477153 1-1s-.4477153-1-1-1z"/><path id="Shape" d="m48 35h-4.84c-.7581062-1.196378-1.1604153-2.5836508-1.16-4v-1h-6v7h12c.5522847 0 1-.4477153 1-1s-.4477153-1-1-1z"/></g></g></svg>