<svg height="512" viewBox="0 0 58 58" width="512" xmlns="http://www.w3.org/2000/svg"><g id="Page-1" fill="none" fill-rule="evenodd"><g id="100---Users" fill="rgb(0,0,0)" fill-rule="nonzero"><path id="Shape" d="m18.9 31c-1.9949968-.0494197-3.6483744-1.5617232-3.8750542-3.5444161-.2266798-1.9826928 1.0426928-3.8291522 2.9750542-4.3275839v-2.076c-.614-.019-1.014-.05-1.083-.056-.5511802-.0458397-.9608396-.5298198-.915-1.081.0458397-.5511802.5298198-.9608396 1.081-.915.462.038 1.127.064 1.9.06h.022.022c2.575-.018 6.34-.4 8.06-1.983.595467-.5240138.9295253-1.2839689.913-2.077 0-.5522847.4477153-1 1-1s1 .4477153 1 1c-.016458.7952219.3195949 1.5570151.918 2.081 1.72 1.584 5.486 1.965 8.061 1.983h.021.021c.769 0 1.433-.022 1.9-.06.5511802-.0447351 1.0342649.3658198 1.079.917.044735.5511802-.3658198 1.0342649-.917 1.079-.069.006-.469.037-1.083.056v2.075c1.9270737.5026501 3.1908297 2.3463788 2.9645258 4.3250291-.2263038 1.9786502-1.8737234 3.4894195-3.8645258 3.5439709-.6508641 1.32312-1.5728344 2.4944925-2.706 3.438 1.438 3.626 6.089 3.922 8.829 3.755-1.017-2.019-.8-4.421-.541-7.2.34-3.695.761-8.293-1.592-13.585-3.655-8.224-13.575-7.45-14-7.41-.0591815.0060025-.1188185.0060025-.178 0-.421-.039-10.343-.812-14 7.41-2.353 5.292-1.932 9.89-1.592 13.585.255 2.78.476 5.182-.5 7.18 2.707.189 7.355-.107 8.793-3.734-1.1358078-.9430882-2.060211-2.1148621-2.713-3.439z"/><path id="Shape" d="m29 47c2.0562897-.0060867 3.7713725-1.5735564 3.962-3.621-1.4652523-1.5540742-2.2039022-3.6559384-2.033-5.785-.6190501.2311361-1.2693012.3679956-1.929.406-.6596988-.0380044-1.3099499-.1748639-1.929-.406.1709022 2.1290616-.5677477 4.2309258-2.033 5.785.1906275 2.0474436 1.9057103 3.6149133 3.962 3.621z"/><path id="Shape" d="m34.581 33.347.054-.04c1.2826629-.930455 2.2734005-2.2073825 2.856-3.681.1616848-.4872036.666003-.7728544 1.167-.661.1124324.0237866.2270802.0355195.342.035 1.1045695 0 2-.8954305 2-2s-.8954305-2-2-2c-.5522847 0-1-.4477153-1-1v-2.958c-2.662-.1-6.385-.6-8.436-2.488-.2046021-.1945242-.3932113-.4052048-.564-.63-.1707887.2247952-.3593979.4354758-.564.63-2.051 1.886-5.774 2.388-8.436 2.488v2.958c0 .5522847-.4477153 1-1 1-1.1045695 0-2 .8954305-2 2s.8954305 2 2 2c.1149198.0005195.2295676-.0112134.342-.035.500997-.1118544 1.0053152.1737964 1.167.661.5825995 1.4736175 1.5733371 2.750545 2.856 3.681l.054.04c1.6073958 1.3399586 3.5270295 2.2524811 5.581 2.653 2.0539705-.4005189 3.9736042-1.3130414 5.581-2.653z"/><path id="Shape" d="m37 44h-2.083c-.4856527 2.8893814-2.9870881 5.0054594-5.917 5.0054594s-5.4313473-2.116078-5.917-5.0054594h-2.083c-2.7684818.0117861-5.1687074 1.9180786-5.807 4.612 8.2749564 5.8507 19.3390436 5.8507 27.614 0-.6382926-2.6939214-3.0385182-4.6002139-5.807-4.612z"/><path id="Shape" d="m29 0c-16.0162577 0-29 12.9837423-29 29s12.9837423 29 29 29 29-12.9837423 29-29-12.9837423-29-29-29zm-19.963 12.359c.66118725-.7915877 1.3680583-1.5438695 2.117-2.253.401511-.37969575 1.0348042-.36201099 1.4145.0395.3796957.401511.362011 1.0348042-.0395 1.4145-.6920237.6552417-1.3454546 1.3500755-1.957 2.081-.2280334.2774736-.58735268.4113507-.94135344.3507344-.35400077-.0606162-.64830735-.306415-.77103169-.6439496s-.05501557-.7149586.17738513-.9887848zm35.433 37.524c-.017.011-.03.023-.047.033-9.1647618 6.7786263-21.6812382 6.7786263-30.846 0-.017-.01-.03-.022-.047-.033-9.73920907-7.2033941-13.2067742-20.182078-8.358-31.283.12617922-.3515292.43773808-.603445.80789332-.653235.37015525-.04979.73720681.1108452.95178968.4165381s.24092888.7054884.068317 1.0366969c-4.24018465 9.7065613-1.60551172 21.0454129 6.48 27.888 1.1476877-3.166794 4.1516631-5.2791639 7.52-5.288h2.577c1.3071095-1.4351686 1.8246255-3.4214728 1.384-5.312-.5875597-.3017668-1.1580871-.6356038-1.709-1-1.432 2.931-4.719 4.544-9.309 4.544-.418 0-.845-.013-1.285-.041-.6615129-.0423218-1.2572775-.4148156-1.585-.991-.3356445-.5900276-.3536632-1.3088979-.048-1.915.73-1.485.542-3.525.3-6.108-.36-3.926-.809-8.812 1.756-14.58 4.048-9.097 14.812-8.676 15.919-8.597 1.1-.074 11.872-.5 15.914 8.6 2.565 5.768 2.116 10.654 1.756 14.58-.237 2.583-.425 4.623.308 6.116.3031375.6041615.283996 1.3199044-.051 1.907-.325728.5738912-.9176436.9460919-1.576.991-5.272.329-9.037-1.306-10.6-4.505-.5518184.3666717-1.1237113.7021956-1.713 1.005-.4382638 1.8887992.0794977 3.8723678 1.385 5.306h2.577c3.3671262.0106661 6.3691481 2.1231852 7.516 5.289 9.0869593-7.6963586 11.1532196-20.8933 4.8535125-30.9987666-6.2997071-10.10546665-19.0584696-14.06054871-29.9695125-9.2902334-.3294859.1561038-.7178184.12051515-1.0134419-.09287666-.2956236-.21339182-.4516812-.57076379-.4072679-.93264332.0444134-.36187952.2822581-.67090802.6207098-.80648002 3.2781616-1.43809177 6.8202823-2.1764877 10.4-2.168 11.2194569-.00369184 21.1749283 7.1922529 24.6905685 17.8466651s-.2021806 22.362138-9.2205685 29.0363349z"/></g></g></svg>