<svg height="512" viewBox="0 0 58 58" width="512" xmlns="http://www.w3.org/2000/svg"><g id="Page-1" fill="none" fill-rule="evenodd"><g id="101---Upload" fill="rgb(0,0,0)" fill-rule="nonzero"><path id="Shape" d="m29 0c-16.0162577 0-29 12.9837423-29 29s12.9837423 29 29 29 29-12.9837423 29-29-12.9837423-29-29-29zm-19.963 12.359c.66156482-.7915677 1.3687674-1.543847 2.118-2.253.401511-.37941962 1.0345804-.36151101 1.414.04.3794196.401511.361511 1.0345804-.04 1.414-.6922525.6550136-1.3456963 1.3498611-1.957 2.081-.2280334.2774736-.58735268.4113507-.94135344.3507344-.35400077-.0606162-.64830735-.306415-.77103169-.6439496s-.05501557-.7149586.17738513-.9887848zm19.963 42.641c-14.3527783-.0159821-25.98401786-11.6472217-26-26-.00698492-3.5798739.73241089-7.1218897 2.171-10.4.12802221-.3490447.43911608-.598253.80768661-.6470143s.73376711.1109747.94815238.4147195c.21438527.3037447.24256445.7013501.07316101 1.0322948-1.32629731 3.0263257-2.00744034 6.2958123-2 9.6 0 9.7070939 5.8474123 18.4583648 14.8155976 22.1731088 8.9681854 3.714744 19.2910132 1.6614059 26.1549651-5.2025461 6.863952-6.8639519 8.9172901-17.1867797 5.2025461-26.1549651-3.714744-8.9681853-12.4660149-14.8155976-22.1731088-14.8155976-3.3042355-.00790911-6.5738177.67325385-9.6 2-.3294859.1561038-.7178184.12051515-1.0134419-.09287666-.2956236-.21339182-.4516812-.57076379-.4072679-.93264332.0444134-.36187952.2822581-.67090802.6207098-.80648002 3.2781885-1.43800748 6.8202912-2.17639967 10.4-2.168 14.3594035 0 26 11.6405965 26 26s-11.6405965 26-26 26zm9.676-24.151c-.3258149.7055276-1.0338875 1.1555505-1.811 1.151h-2.865c0 .5522847-.4477153 1-1 1s-1-.4477153-1-1c0-1.1045695.8954305-2 2-2h2.865l-7.865-9.437-7.865 9.437h2.865c1.1045695 0 2 .8954305 2 2v6h6v-2c0-.5522847.4477153-1 1-1s1 .4477153 1 1v2c0 1.1045695-.8954305 2-2 2h-6c-1.1045695 0-2-.8954305-2-2v-6h-2.865c-.7756323-.0006784-1.4809333-.4497545-1.8096989-1.1522636-.3287657-.7025091-.2217062-1.53176.2746989-2.1277364l7.866-9.439c.3913321-.436775.9500589-.6863603 1.5365-.6863603s1.1451679.2495853 1.5365.6863603l7.861 9.438c.5020655.5942976.6100123 1.4273656.276 2.13zm2.704 13.851c.2802749-.2216833.6575261-.2770023.9896469-.1451188s.5686541.4309332.6205.7845c.051846.3535668-.088872.7079355-.3691469.9296188-.9873511.7789592-2.038758 1.4730952-3.143 2.075-.4828285.2473329-1.0748051.0645887-1.334198-.4118694s-.0915885-1.0728417.378198-1.3441306c1.0042316-.5475652 1.9603113-1.1791532 2.858-1.888zm-7.142 5.672c-1.7144015.4191635-3.4731016.6300195-5.238.628-.5522847 0-1-.4477153-1-1s.4477153-1 1-1c1.6045354.001111 3.2033704-.1909373 4.762-.572.3522894-.1009376.731571-.0010928.9884992.2602195.2569282.2613122.3503421.6422287.243459.9927601-.1068831.3505313-.3969401.6145209-.7559582.6880204zm10.953-9.641c2.4843814-3.4060243 3.8186077-7.5151892 3.809-11.731 0-.5522847.4477153-1 1-1s1 .4477153 1 1c.0093772 4.6361142-1.4586179 9.1546388-4.191 12.9-.3285027.4346947-.9445425.5263997-1.385415.2062358s-.544294-.9343454-.232585-1.3812358z"/></g></g></svg>