<svg height="512" viewBox="0 0 57 58" width="512" xmlns="http://www.w3.org/2000/svg"><g id="Page-1" fill="none" fill-rule="evenodd"><g id="103---Task-View" fill="rgb(0,0,0)" fill-rule="nonzero"><path id="Shape" d="m10.23 1h-4.46c-1.08090065 1.20114223-1.01624924 3.04259885.14622758 4.16497869 1.16247682 1.12237983 3.00506802 1.12237983 4.16754482 0 1.1624768-1.12237984 1.2271283-2.96383646.1462276-4.16497869zm-2.23 3c-.55228475 0-1-.44771525-1-1s.44771525-1 1-1 1 .44771525 1 1c0 .26521649-.10535684.5195704-.29289322.70710678s-.44189029.29289322-.70710678.29289322z"/><path id="Shape" d="m11.99 0c1.5564936 2.06100813 1.2871477 4.96831638-.6214866 6.70829973-1.90863425 1.73998335-4.82839255 1.73998335-6.73702683 0s-2.17798018-4.6472916-.62148657-6.70829973h-4.01v10c0 2.209139 1.790861 4 4 4h33c2.209139 0 4-1.790861 4-4v-10zm4.01 2h14c.5522847 0 1 .44771525 1 1s-.4477153 1-1 1h-14c-.5522847 0-1-.44771525-1-1s.4477153-1 1-1zm2 7h-2c-.5522847 0-1-.44771525-1-1s.4477153-1 1-1h2c.5522847 0 1 .44771525 1 1s-.4477153 1-1 1zm17 0h-13c-.5522847 0-1-.44771525-1-1s.4477153-1 1-1h13c.5522847 0 1 .44771525 1 1s-.4477153 1-1 1z"/><path id="Shape" d="m37 18h-33c-2.209139 0-4 1.790861-4 4v14c0 2.209139 1.790861 4 4 4h33c2.209139 0 4-1.790861 4-4v-14c0-2.209139-1.790861-4-4-4zm-21 5h2c.5522847 0 1 .4477153 1 1s-.4477153 1-1 1h-2c-.5522847 0-1-.4477153-1-1s.4477153-1 1-1zm0 5h14c.5522847 0 1 .4477153 1 1s-.4477153 1-1 1h-14c-.5522847 0-1-.4477153-1-1s.4477153-1 1-1zm-8 6c-2.76142375 0-5-2.2385763-5-5s2.23857625-5 5-5c2.7614237 0 5 2.2385763 5 5 0 1.3260824-.5267842 2.597852-1.4644661 3.5355339s-2.20945145 1.4644661-3.5355339 1.4644661zm10 1h-2c-.5522847 0-1-.4477153-1-1s.4477153-1 1-1h2c.5522847 0 1 .4477153 1 1s-.4477153 1-1 1zm17 0h-13c-.5522847 0-1-.4477153-1-1s.4477153-1 1-1h13c.5522847 0 1 .4477153 1 1s-.4477153 1-1 1zm0-5h-1c-.5522847 0-1-.4477153-1-1s.4477153-1 1-1h1c.5522847 0 1 .4477153 1 1s-.4477153 1-1 1zm0-5h-13c-.5522847 0-1-.4477153-1-1s.4477153-1 1-1h13c.5522847 0 1 .4477153 1 1s-.4477153 1-1 1z"/><path id="Shape" d="m8 26c-1.65685425 0-3 1.3431458-3 3s1.34314575 3 3 3 3-1.3431458 3-3c-.0049422-1.6548028-1.3451972-2.9950578-3-3zm0 4c-.55228475 0-1-.4477153-1-1s.44771525-1 1-1 1 .4477153 1 1-.44771525 1-1 1zm0-4c-1.65685425 0-3 1.3431458-3 3s1.34314575 3 3 3 3-1.3431458 3-3c-.0049422-1.6548028-1.3451972-2.9950578-3-3zm0 4c-.55228475 0-1-.4477153-1-1s.44771525-1 1-1 1 .4477153 1 1-.44771525 1-1 1z"/><path id="Shape" d="m37 44h-33c-2.209139 0-4 1.790861-4 4v10h4.01c-1.55649361-2.0610081-1.28714771-4.9683164.62148657-6.7082997 1.90863428-1.7399834 4.82839258-1.7399834 6.73702683 0 1.9086343 1.7399833 2.1779802 4.6472916.6214866 6.7082997h29.01v-10c0-2.209139-1.790861-4-4-4zm-21 5h2c.5522847 0 1 .4477153 1 1s-.4477153 1-1 1h-2c-.5522847 0-1-.4477153-1-1s.4477153-1 1-1zm14 7h-14c-.5522847 0-1-.4477153-1-1s.4477153-1 1-1h14c.5522847 0 1 .4477153 1 1s-.4477153 1-1 1zm5 0h-1c-.5522847 0-1-.4477153-1-1s.4477153-1 1-1h1c.5522847 0 1 .4477153 1 1s-.4477153 1-1 1zm0-5h-13c-.5522847 0-1-.4477153-1-1s.4477153-1 1-1h13c.5522847 0 1 .4477153 1 1s-.4477153 1-1 1z"/><path id="Shape" d="m8 52c-1.181954.0023885-2.25234832.6985592-2.73378807 1.7780205-.48143974 1.0794613-.28418528 2.3410034.50378807 3.2219795h4.46c.7879734-.8809761.9852278-2.1425182.5037881-3.2219795-.4814398-1.0794613-1.5518341-1.775632-2.7337881-1.7780205zm0 4c-.55228475 0-1-.4477153-1-1s.44771525-1 1-1 1 .4477153 1 1-.44771525 1-1 1z"/><path id="Shape" d="m51 10c-3.3137085 0-6 2.6862915-6 6s2.6862915 6 6 6 6-2.6862915 6-6c-.0033074-3.3123376-2.6876624-5.9966926-6-6zm0 10c-2.209139 0-4-1.790861-4-4s1.790861-4 4-4 4 1.790861 4 4-1.790861 4-4 4z"/><path id="Shape" d="m52 8.069v-6.069c.0026276-.26092243-.1014015-.51160366-.288-.694-.185071-.19569197-.4426555-.30639544-.712-.306-.5522847 0-1 .44771525-1 1v6.069c.6634928-.09199843 1.3365072-.09199843 2 0z"/><path id="Shape" d="m50 23.931v32.069c0 .5522847.4477153 1 1 1s1-.4477153 1-1v-32.069c-.6634928.0919984-1.3365072.0919984-2 0z"/><circle id="Oval" cx="51" cy="16" r="2"/></g></g></svg>