<svg height="512" viewBox="0 0 56 56" width="512" xmlns="http://www.w3.org/2000/svg"><g id="Page-1" fill="none" fill-rule="evenodd"><g id="104---Clone-Drive" fill="rgb(0,0,0)" fill-rule="nonzero"><path id="Shape" d="m31 13h-26c-2.76005315.0033061-4.99669388 2.2399468-5 5v28.111c1.31319253-1.3500248 3.11664096-2.1114407 5-2.111h26c1.883359-.0004407 3.6868075.7609752 5 2.111v-28.111c-.0033061-2.7600532-2.2399468-4.9966939-5-5zm-27 26c0 .5522847-.44771525 1-1 1s-1-.4477153-1-1v-16c0-.5522847.44771525-1 1-1s1 .4477153 1 1zm0-20c0 .5522847-.44771525 1-1 1s-1-.4477153-1-1v-1c0-.5522847.44771525-1 1-1s1 .4477153 1 1z"/><circle id="Oval" cx="51" cy="38" r="1"/><path id="Shape" d="m31 46h-26c-2.76142375 0-5 2.2385763-5 5s2.23857625 5 5 5h26c2.7614237 0 5-2.2385763 5-5s-2.2385763-5-5-5zm0 8c-1.6568542 0-3-1.3431458-3-3s1.3431458-3 3-3 3 1.3431458 3 3-1.3431458 3-3 3z"/><circle id="Oval" cx="31" cy="51" r="1"/><path id="Shape" d="m51 0h-26c-2.7600532.00330612-4.9966939 2.23994685-5 5v6h2v-1c0-.55228475.4477153-1 1-1s1 .44771525 1 1v1h7c3.8641657.0044086 6.9955914 3.1358343 7 7v13h13c1.883359-.0004407 3.6868075.7609752 5 2.111v-28.111c-.0033061-2.76005315-2.2399468-4.99669388-5-5zm-27 6c0 .55228475-.4477153 1-1 1s-1-.44771525-1-1v-1c0-.55228475.4477153-1 1-1s1 .44771525 1 1z"/><path id="Shape" d="m51 33h-13v10h13c2.7593693-.0049535 4.9950465-2.2406307 5-5-.0033061-2.7600532-2.2399468-4.9966939-5-5zm0 8c-1.6568542 0-3-1.3431458-3-3s1.3431458-3 3-3 3 1.3431458 3 3-1.3431458 3-3 3z"/></g></g></svg>