<svg height="512" viewBox="0 0 60 60" width="512" xmlns="http://www.w3.org/2000/svg"><g id="Page-1" fill="none" fill-rule="evenodd"><g id="105---Diamond" fill="rgb(0,0,0)" fill-rule="nonzero"><path id="Shape" d="m22.12 26.4c-.0475269-.2328331-.2523657-.4000485-.49-.4h-7.522c-.1749822-.0000288-.3372477.0914191-.4278461.2411212-.0905983.149702-.0963456.3358734-.0151539.4908788l9.054 17.247c.1762621.317171.1668827.7049361-.0245079 1.0132142-.1913905.3082782-.5347575.4886913-.8972036.4714121-.3624461-.0172791-.6870929-.2295391-.8482885-.5546263l-9.787-18.641c-.0863149-.1647862-.2569765-.2680307-.443-.268h-7.088c-.19475541-.0001291-.37186362.1128391-.45385842.2894928-.08199481.1766537-.05395365.3848431.07185842.5335072l23.723 28.05c.1474313.1748379.3946971.2273581.6004661.1275413.205769-.0998169.3175839-.3265241.2715339-.5505413z"/><path id="Shape" d="m25.112 24h9.776c.1675318.0000571.3239587-.0837933.4166565-.2233427s.1093459-.31625.0443435-.4706573l-4.888-11.629c-.0779579-.185638-.2596572-.3064051-.461-.3064051s-.3830421.1207671-.461.3064051l-4.888 11.629c-.0650024.1544073-.0483543.3311079.0443435.4706573s.2491247.2233998.4166565.2233427z"/><path id="Shape" d="m22.794 22.564 5.406-12.87c.0647996-.15391828.0484759-.3300268-.0435106-.46941234-.0919864-.13938553-.2474896-.22364365-.4144894-.22458766h-10.669c-.1720765-.00018712-.3321583.08812338-.4237784.23378097-.09162.14565758-.101903.32819303-.0272216.48321903z"/><path id="Shape" d="m3.618 24h7.089c.1881971.0001878.3605586-.1053159.446-.273l2.647-5.182c.1625558-.318145.482492-.5254006.8392916-.5436957.3567996-.018295.6962562.1551501.8905.4550001.1942437.29985.2137643.6805506.0512084.9986956l-1.951 3.818c-.0790207.1550825-.0717067.3400993.0193097.48846.0910163.1483607.2526362.2387138.4266903.23854h6.394c.1720765.0001871.3321583-.0881234.4237784-.233781.09162-.1456576.101903-.328193.0272216-.483219l-6.128-12.757c-.0736038-.1528096-.2196567-.257886-.3879372-.2790978-.1682806-.0212119-.3358404.0443335-.4450628.1740978l-10.724 12.757c-.12517193.148695-.15282948.3564554-.07091668.532718.08191279.1762626.2585506.2890828.45291668.289282z"/><path id="Shape" d="m46.04 10.421c-.1092224-.1297643-.2767822-.1953097-.4450628-.1740978-.1682805.0212118-.3143334.1262882-.3879372.2790978l-6.128 12.757c-.0746814.155026-.0643984.3375614.0272216.483219.0916201.1456576.2517019.2339681.4237784.233781h16.852c.1943661-.0001992.3710039-.1130194.4529167-.289282s.0542552-.384023-.0709167-.532718z"/><path id="Shape" d="m37.206 22.564 6.172-12.847c.0746814-.155026.0643984-.33756145-.0272216-.48321903-.0916201-.14565759-.2517019-.23396809-.4237784-.23378097h-10.669c-.1675318-.00005707-.3239587.08379331-.4166565.22334271s-.1093459.31625001-.0443435.47065729z"/><path id="Shape" d="m56.369 26h-7.088c-.1860235-.0000307-.3566851.1032138-.443.268l-9.787 18.641c-.1611956.3250872-.4858424.5373472-.8482885.5546263-.3624461.0172792-.7058131-.1631339-.8972036-.4714121-.1913906-.3082781-.20077-.6960432-.0245079-1.0132142l9.054-17.247c.0811917-.1550054.0754444-.3411768-.0151539-.4908788-.0905984-.1497021-.2528639-.24115-.4278461-.2411212h-7.522c-.2372586.0004262-.4415486.1675346-.489.4l-4.86 23.8c-.1213886.5291594-.6428122.8648051-1.174741.7561928s-.880032-.6218031-.784259-1.1561928l4.738-23.2c.0300323-.1471275-.0076496-.2999625-.1026319-.4162673-.0949822-.1163048-.2372068-.1837633-.3873681-.1837327h-10.618c-.1501613-.0000306-.2923859.0674279-.3873681.1837327-.0949823.1163048-.1326642.2691398-.1026319.4162673 0 0 5.609 24.741 6.798 29.943.0434798.1835637.1865714.3270304.3700207.3709906.1834492.0439602.3760241-.0190703.4979793-.1629906l24.883-29.928c.1258121-.1486641.1538532-.3568535.0718584-.5335072s-.259103-.2896219-.4538584-.2894928z"/><path id="Shape" d="m7 58h-2c-.55228475 0-1 .4477153-1 1s.44771525 1 1 1h2c.55228475 0 1-.4477153 1-1s-.44771525-1-1-1z"/><path id="Shape" d="m20 58h-9c-.5522847 0-1 .4477153-1 1s.4477153 1 1 1h9c.5522847 0 1-.4477153 1-1s-.4477153-1-1-1z"/><path id="Shape" d="m55 58h-2c-.5522847 0-1 .4477153-1 1s.4477153 1 1 1h2c.5522847 0 1-.4477153 1-1s-.4477153-1-1-1z"/><path id="Shape" d="m49 58h-9c-.5522847 0-1 .4477153-1 1s.4477153 1 1 1h9c.5522847 0 1-.4477153 1-1s-.4477153-1-1-1z"/><path id="Shape" d="m54 4c.5522847 0 1-.44771525 1-1v-2c0-.55228475-.4477153-1-1-1s-1 .44771525-1 1v2c0 .55228475.4477153 1 1 1z"/><path id="Shape" d="m54 12c.5522847 0 1-.4477153 1-1v-2c0-.55228475-.4477153-1-1-1s-1 .44771525-1 1v2c0 .5522847.4477153 1 1 1z"/><path id="Shape" d="m49 7h2c.5522847 0 1-.44771525 1-1s-.4477153-1-1-1h-2c-.5522847 0-1 .44771525-1 1s.4477153 1 1 1z"/><path id="Shape" d="m59 5h-2c-.5522847 0-1 .44771525-1 1s.4477153 1 1 1h2c.5522847 0 1-.44771525 1-1s-.4477153-1-1-1z"/><path id="Shape" d="m6 46c.55228475 0 1-.4477153 1-1v-2c0-.5522847-.44771525-1-1-1s-1 .4477153-1 1v2c0 .5522847.44771525 1 1 1z"/><path id="Shape" d="m5 53c0 .5522847.44771525 1 1 1s1-.4477153 1-1v-2c0-.5522847-.44771525-1-1-1s-1 .4477153-1 1z"/><path id="Shape" d="m3 47h-2c-.55228475 0-1 .4477153-1 1s.44771525 1 1 1h2c.55228475 0 1-.4477153 1-1s-.44771525-1-1-1z"/><path id="Shape" d="m12 48c0-.5522847-.4477153-1-1-1h-2c-.55228475 0-1 .4477153-1 1s.44771525 1 1 1h2c.5522847 0 1-.4477153 1-1z"/></g></g></svg>