<svg height="512" viewBox="0 0 58 58" width="512" xmlns="http://www.w3.org/2000/svg"><g id="Page-1" fill="none" fill-rule="evenodd"><g id="106---Shuffle" fill="rgb(0,0,0)" fill-rule="nonzero"><path id="Shape" d="m29 0c-16.0162577 0-29 12.9837423-29 29s12.9837423 29 29 29 29-12.9837423 29-29-12.9837423-29-29-29zm-11.66 20.7 3.013-4.771c.3468478-.5788948.97215-.9331915 1.647-.9331915s1.3001522.3542967 1.647.9331915l3.013 4.771c.4306842.684564.4552 1.5491305.064 2.257-.3337492.6371574-.9917396 1.0382585-1.711 1.043-.5522847.0121503-1.0098497-.4257153-1.022-.978s.4257153-1.0098497.978-1.022c.0402779-.0713765.0402779-.1586235 0-.23l-2.969-4.699-2.97 4.7c-.0452532.0780506-.0397499.1755383.014.248.2614578-.0011543.5122633.103507.6953456.2901681.1830824.1866611.2828693.4394454.2766544.7008319-.0147233.5561909-.4736622.997307-1.03.99-.7186111-.0041538-1.3764424-.4040045-1.711-1.04-.3925187-.7087146-.3676029-1.5750168.065-2.26zm23.384 2.26c-.3345576.6359955-.9923889 1.0358462-1.711 1.04-.5522847 0-1-.4477153-1-1s.4477153-1 1-1c-.033 0 .021-.125-.044-.229l-2.969-4.7-2.97 4.7c-.0452532.0780506-.0397499.1755383.014.248.2614578-.0011543.5122633.103507.6953456.2901681.1830824.1866611.2828693.4394454.2766544.7008319-.0147233.5561909-.4736622.997307-1.03.99-.7186111-.0041538-1.3764424-.4040045-1.711-1.04-.3925187-.7087146-.3676029-1.5750168.065-2.26l3.013-4.771c.3468478-.5788948.97215-.9331915 1.647-.9331915s1.3001522.3542967 1.647.9331915l3.013 4.771c.4318603.6852979.456386 1.5513606.064 2.26zm.656 21.74c.4336897-.3339325 1.0552591-.257147 1.3946464.1722874s.2704641 1.0519247-.1546464 1.3967126c-.9863309.7793934-2.0371115 1.4735576-3.141 2.075-.484906.2645443-1.0924556.085906-1.3569999-.399-.2645444-.484906-.0859061-1.0924556.3989999-1.357 1.0048396-.547079 1.9612917-1.178692 2.859-1.888zm-4.38-20.7c.0058338 2.1229023-.8378494 4.1599129-2.343 5.657-.3923789.3789722-1.0160848.3735524-1.4018186-.0121814s-.3911536-1.0094397-.0121814-1.4018186c1.1286441-1.1230441 1.7612853-2.6508169 1.757-4.243 0-.5522847.4477153-1 1-1s1 .4477153 1 1zm0 14v3c0 .5522847-.4477153 1-1 1s-1-.4477153-1-1v-3c-.0033074-3.3123376-2.6876624-5.9966926-6-6-4.4162219-.0049599-7.9950401-3.5837781-8-8 0-.5522847.4477153-1 1-1s1 .4477153 1 1c.0033074 3.3123376 2.6876624 5.9966926 6 6 4.4162219.0049599 7.9950401 3.5837781 8 8zm-2.762 12.369c-1.7142783.4201741-3.4729801.6320376-5.238.631-.5522847 0-1-.4477153-1-1s.4477153-1 1-1c1.6045354.001111 3.2033704-.1909373 4.762-.572.3522894-.1009376.731571-.0010928.9884992.2602195.2569282.2613122.3503421.6422287.243459.9927601-.1068831.3505313-.3969401.6145209-.7559582.6880204zm-9.481-16.612c-1.1286441 1.1230441-1.7612853 2.6508169-1.757 4.243v3c0 .5522847-.4477153 1-1 1s-1-.4477153-1-1v-3c-.0058338-2.1229023.8378494-4.1599129 2.343-5.657.2510745-.2599566.6228779-.3642126.9725073-.2726972.3496295.0915155.6226744.3645604.7141899.7141899.0915154.3496294-.0127406.7214328-.2726972.9725073zm-15.72-21.4c.66118725-.7915877 1.3680583-1.5438695 2.117-2.253.401511-.37969575 1.0348042-.36201099 1.4145.0395.3796957.401511.362011 1.0348042-.0395 1.4145-.6920237.6552417-1.3454546 1.3500755-1.957 2.081-.2280334.2774736-.58735268.4113507-.94135344.3507344-.35400077-.0606162-.64830735-.306415-.77103169-.6439496s-.05501557-.7149586.17738513-.9887848zm19.963 42.643c-14.3527783-.0159821-25.98401786-11.6472217-26-26-.00722696-3.5800019.7325338-7.1221344 2.172-10.4.12617922-.3515292.43773808-.603445.80789332-.653235.37015525-.04979.73720681.1108452.95178968.4165381s.24092888.7054884.068317 1.0366969c-1.32694271 3.0261195-2.0081144 6.2957436-2 9.6 0 9.7070939 5.8474123 18.4583648 14.8155976 22.1731088 8.9681854 3.714744 19.2910132 1.6614059 26.1549651-5.2025461 6.863952-6.8639519 8.9172901-17.1867797 5.2025461-26.1549651-3.714744-8.9681853-12.4660149-14.8155976-22.1731088-14.8155976-3.3042564-.0081144-6.5738805.67305729-9.6 2-.3294859.1561038-.7178184.12051515-1.0134419-.09287666-.2956236-.21339182-.4516812-.57076379-.4072679-.93264332.0444134-.36187952.2822581-.67090802.6207098-.80648002 3.2781616-1.43809177 6.8202823-2.1764877 10.4-2.168 14.3594035 0 26 11.6405965 26 26s-11.6405965 26-26 26zm16.191-14.272c2.4840884-3.4050365 3.8183175-7.5131593 3.809-11.728 0-.5522847.4477153-1 1-1s1 .4477153 1 1c.0095163 4.6361361-1.4584925 9.1547028-4.191 12.9-.3285027.4346947-.9445425.5263997-1.385415.2062358s-.544294-.9343454-.232585-1.3812358z"/></g></g></svg>