<svg height="512" viewBox="0 0 60 47" width="512" xmlns="http://www.w3.org/2000/svg"><g id="Page-1" fill="none" fill-rule="evenodd"><g id="108---Headphones" fill="rgb(0,0,0)" fill-rule="nonzero"><path id="Shape" d="m0 38c0 3.461 2.167 6.336 5 6.9v-13.8c-2.833.563-5 3.439-5 6.9z"/><path id="Shape" d="m55 31.1v13.8c2.833-.559 5-3.434 5-6.9s-2.167-6.337-5-6.9z"/><path id="Shape" d="m49.273 12.536c.7808589-1.1105791.716412-2.60763577-.157-3.647-4.7501341-5.63596767-11.7452534-8.8885586-19.116-8.8885586s-14.3658659 3.25259093-19.116 8.8885586c-.8732473 1.0390453-.93769606 2.5357344-.157 3.646-.0646943.0525696-.122188.1134256-.171.181-2.32571847 3.6748366-3.55897411 7.9350482-3.556 12.284v21c0 .5522847.44771525 1 1 1h3v-6c0-.5522847.4477153-1 1-1s1 .4477153 1 1v6h1c.5522847 0 1-.4477153 1-1v-16c0-.5522847-.4477153-1-1-1h-1v2c0 .5522847-.4477153 1-1 1s-1-.4477153-1-1v-2h-2v-4c-.00257412-3.9705653 1.1227652-7.8601819 3.245-11.216.0149782-.0322942.0273509-.065734.037-.1 1.1527871.3603001 2.4092223-.0058318 3.188-.929 3.6101014-4.28464138 8.9272343-6.757488 14.53-6.757488s10.9198986 2.47284662 14.53 6.757488c.774229.9282032 2.0346539 1.2930735 3.185.922.0111383.03417.0245001.0675747.04.1 2.1235091 3.3578294 3.2489009 7.2500548 3.245 11.223v4h-2v2c0 .5522847-.4477153 1-1 1s-1-.4477153-1-1v-2h-1c-.5522847 0-1 .4477153-1 1v16c0 .5522847.4477153 1 1 1h1v-6c0-.5522847.4477153-1 1-1s1 .4477153 1 1v6h3c.5522847 0 1-.4477153 1-1v-21c.0029741-4.3489518-1.2302815-8.6091634-3.556-12.284-.0490966-.0670418-.1065624-.1275321-.171-.18zm-38.273 22.464c0-.5522847.4477153-1 1-1s1 .4477153 1 1v2c0 .5522847-.4477153 1-1 1s-1-.4477153-1-1zm38 2c0 .5522847-.4477153 1-1 1s-1-.4477153-1-1v-2c0-.5522847.4477153-1 1-1s1 .4477153 1 1z"/></g></g></svg>