<svg height="512" viewBox="0 0 60 59" width="512" xmlns="http://www.w3.org/2000/svg"><g id="Page-1" fill="none" fill-rule="evenodd"><g id="109---Wireless-Headphones" fill="rgb(0,0,0)" fill-rule="nonzero"><path id="Shape" d="m37.345 55.42c-4.6700684 2.1067283-10.0199316 2.1067283-14.69 0-.3251117-.1482652-.7046258-.1118229-.9955832.0955994-.2909573.2074224-.4491544.5543125-.415.9100001s.2554715.6661353.5805832.8144005c5.1973932 2.3466632 11.1526068 2.3466632 16.35 0 .3251117-.1482652.5464288-.4587129.5805832-.8144005.0341544-.3556877-.1240427-.7025777-.415-.9100001s-.6704715-.2438646-.9955832-.0955994z"/><path id="Shape" d="m22.707 52.142c-.2366315.4989904-.0239725 1.0953308.475 1.332 4.3176333 2.0346718 9.3183667 2.0346718 13.636 0 .4938824-.2395106.7023934-.8323479.4671832-1.3282928-.2352101-.4959448-.8262133-.7095992-1.3241832-.4787072-3.7769011 1.770052-8.1450989 1.770052-11.922 0-.4989904-.2366315-1.0953308-.0239725-1.332.475z"/><path id="Shape" d="m24.1 48.328c-.2553687.489606-.065552 1.0935277.424 1.349 3.4347635 1.7639578 7.5092365 1.7639578 10.944 0 .4898766-.2551556.6801555-.8591234.425-1.349-.2551556-.4898765-.8591234-.6801555-1.349-.425-2.8585285 1.4563532-6.2414715 1.4563532-9.1 0-.4886618-.2518416-1.0889779-.0620095-1.344.425z"/><circle id="Oval" cx="30" cy="39" r="5"/><path id="Shape" d="m0 38c0 3.461 2.167 6.336 5 6.9v-13.8c-2.833.563-5 3.439-5 6.9z"/><path id="Shape" d="m55 31.1v13.8c2.833-.559 5-3.434 5-6.9s-2.167-6.337-5-6.9z"/><path id="Shape" d="m49.273 12.536c.7808589-1.1105791.716412-2.60763577-.157-3.647-4.7501341-5.63596767-11.7452534-8.8885586-19.116-8.8885586s-14.3658659 3.25259093-19.116 8.8885586c-.8732473 1.0390453-.93769606 2.5357344-.157 3.646-.0646943.0525696-.122188.1134256-.171.181-2.32571847 3.6748366-3.55897411 7.9350482-3.556 12.284v21c0 .5522847.44771525 1 1 1h3v-6c0-.5522847.4477153-1 1-1s1 .4477153 1 1v6h1c.5522847 0 1-.4477153 1-1v-16c0-.5522847-.4477153-1-1-1h-1v2c0 .5522847-.4477153 1-1 1s-1-.4477153-1-1v-2h-2v-4c-.00257412-3.9705653 1.1227652-7.8601819 3.245-11.216.0149782-.0322942.0273509-.065734.037-.1 1.1527871.3603001 2.4092223-.0058318 3.188-.929 3.6101014-4.28464138 8.9272343-6.757488 14.53-6.757488s10.9198986 2.47284662 14.53 6.757488c.774229.9282032 2.0346539 1.2930735 3.185.922.0111383.03417.0245001.0675747.04.1 2.1235091 3.3578294 3.2489009 7.2500548 3.245 11.223v4h-2v2c0 .5522847-.4477153 1-1 1s-1-.4477153-1-1v-2h-1c-.5522847 0-1 .4477153-1 1v16c0 .5522847.4477153 1 1 1h1v-6c0-.5522847.4477153-1 1-1s1 .4477153 1 1v6h3c.5522847 0 1-.4477153 1-1v-21c.0029741-4.3489518-1.2302815-8.6091634-3.556-12.284-.0490966-.0670418-.1065624-.1275321-.171-.18zm-38.273 22.464c0-.5522847.4477153-1 1-1s1 .4477153 1 1v2c0 .5522847-.4477153 1-1 1s-1-.4477153-1-1zm38 2c0 .5522847-.4477153 1-1 1s-1-.4477153-1-1v-2c0-.5522847.4477153-1 1-1s1 .4477153 1 1z"/></g></g></svg>