<svg height="512" viewBox="0 0 58 59" width="512" xmlns="http://www.w3.org/2000/svg"><g id="Page-1" fill="none" fill-rule="evenodd"><g id="110---Mute-Microphone" fill="rgb(0,0,0)" fill-rule="nonzero"><path id="Shape" d="m57.12 57.12c-.5617198.5632738-1.3245087.8798486-2.12.8798486s-1.5582802-.3165748-2.12-.8798486l-52-52c-1.10143544-1.18203902-1.0689355-3.02403889.0735128-4.1664872 1.14244831-1.1424483 2.98444818-1.17494824 4.1664872-.0735128l17.17 17.17.66.66 2.07 2.07 1.2 1.2 11.02 11.02 2.58 2.58 4.24 4.24 1.45 1.45 11.61 11.61c1.1698135 1.1712702 1.1698135 3.0687298 0 4.24z"/><path id="Shape" d="m51 26h-1v-2h1c.5522847 0 1 .4477153 1 1s-.4477153 1-1 1z"/><path id="Shape" d="m37.94 45.02 1.52 1.52c-2.0180554.9607532-4.2249174 1.4595177-6.46 1.46h-2v4c0 .5522847-.4477153 1-1 1h-2c-.5522847 0-1-.4477153-1-1v-4h-2c-8.2801595-.0099183-14.9900817-6.7198405-15-15v-2h2v2c.0066157 7.1769596 5.8230404 12.9933843 13 13h2v-2c0-.5522847.4477153-1 1-1h2c.5522847 0 1 .4477153 1 1v2h2c1.6950166.00062 3.3735827-.3323749 4.94-.98z"/><path id="Shape" d="m48 31v2c-.0004823 2.2350826-.4992468 4.4419446-1.46 6.46l-1.52-1.52c.6476251-1.5664173.98062-3.2449834.98-4.94v-2z"/><path id="Shape" d="m18 25.08v1.92h1.92zm15-24.08h-8c-3.8641657.00440864-6.9955914 3.13583434-7 7v2.92l3.33 3.33c.186894-.1596849.424184-.2482259.67-.25.5522847 0 1 .4477153 1 1-.0017741.245816-.0903151.483106-.25.67l6.58 6.58c.186894-.1596849.424184-.2482259.67-.25.5522847 0 1 .4477153 1 1-.0017741.245816-.0903151.483106-.25.67l3.33 3.33h5.92v-19c-.0044086-3.86416566-3.1358343-6.99559136-7-7zm-11 11c-.5522847 0-1-.4477153-1-1s.4477153-1 1-1 1 .4477153 1 1-.4477153 1-1 1zm0-4c-.5522847 0-1-.44771525-1-1s.4477153-1 1-1 1 .44771525 1 1-.4477153 1-1 1zm4 10c-.5522847 0-1-.4477153-1-1s.4477153-1 1-1 1 .4477153 1 1-.4477153 1-1 1zm0-4c-.5522847 0-1-.4477153-1-1s.4477153-1 1-1 1 .4477153 1 1-.4477153 1-1 1zm0-4c-.5522847 0-1-.44771525-1-1s.4477153-1 1-1 1 .44771525 1 1-.4477153 1-1 1zm0-4c-.5522847 0-1-.44771525-1-1s.4477153-1 1-1 1 .44771525 1 1-.4477153 1-1 1zm4 14c-.5522847 0-1-.4477153-1-1s.4477153-1 1-1 1 .4477153 1 1-.4477153 1-1 1zm0-4c-.5522847 0-1-.4477153-1-1s.4477153-1 1-1 1 .4477153 1 1-.4477153 1-1 1zm0-4c-.5522847 0-1-.4477153-1-1s.4477153-1 1-1 1 .4477153 1 1-.4477153 1-1 1zm0-4c-.5522847 0-1-.44771525-1-1s.4477153-1 1-1 1 .44771525 1 1-.4477153 1-1 1zm6.08 21 2 2h1.92v-2zm-14.41-.25c-.186894.1596849-.424184.2482259-.67.25h-3v2h5.92z"/><path id="Shape" d="m6 25c0 .5522847.44771525 1 1 1h1v-2h-1c-.55228475 0-1 .4477153-1 1z"/><path id="Shape" d="m12 29c.5522847 0 1-.4477153 1-1v-.993-.007-5c0-.5522847-.4477153-1-1-1h-2c-.55228475 0-1 .4477153-1 1v6c0 .5522847.44771525 1 1 1z"/><path id="Rectangle-path" d="m14 24h2v2h-2z"/><path id="Shape" d="m36 55h-14c-1.1045695 0-2 .8954305-2 2v2h18v-2c-.0027483-1.1034291-.8965709-1.9972517-2-2z"/><path id="Shape" d="m25.92 33 7.94 7.94c-.284896.0402272-.5722781.0602771-.86.06h-8c-3.8641657-.0044086-6.9955914-3.1358343-7-7v-1z"/><path id="Rectangle-path" d="m42 24h2v2h-2z"/><path id="Shape" d="m48 21h-2c-.5522847 0-1 .4477153-1 1v6c0 .5522847.4477153 1 1 1h2c.5522847 0 1-.4477153 1-1v-6c0-.5522847-.4477153-1-1-1z"/></g></g></svg>