<svg height="512" viewBox="0 0 58 57" width="512" xmlns="http://www.w3.org/2000/svg"><g id="Page-1" fill="none" fill-rule="evenodd"><g id="113---Mailbox" fill="rgb(0,0,0)" fill-rule="nonzero"><path id="Shape" d="m57.157 40.917-11.957-15.373c-.7575692-.9738665-1.9221739-1.5436224-3.156-1.544h-26.088c-1.2338261.0003776-2.3984308.5701335-3.156 1.544l-11.957 15.373c-.54608836.7018723-.84271358 1.5657097-.843 2.455v9.628c0 2.209139 1.790861 4 4 4h50c2.209139 0 4-1.790861 4-4v-9.628c-.0002864-.8892903-.2969116-1.7531277-.843-2.455zm-11.157 4.083h-4.764c-.379067-.0012129-.7258235.2132797-.894.553l-1.895 3.789c-.5053354 1.0187641-1.5457972 1.6617331-2.683 1.658h-13.528c-1.1372028.0037331-2.1776646-.6392359-2.683-1.658l-1.895-3.789c-.1681765-.3397203-.514933-.5542129-.894-.553h-12.764c-.37877206 0-.72503518-.2140024-.89442719-.5527864-.16939202-.338784-.13283605-.744196.09442719-1.0472136l12-16c.3313708-.4418278.9581722-.5313708 1.4-.2s.5313708.9581722.2 1.4l-10.8 14.4h10.764c1.1372028-.0037331 2.1776646.6392359 2.683 1.658l1.895 3.789c.1681765.3397203.514933.5542129.894.553h13.528c.379067.0012129.7258235-.2132797.894-.553l1.895-3.789c.5053354-1.0187641 1.5457972-1.6617331 2.683-1.658h4.764c.5522847 0 1 .4477153 1 1s-.4477153 1-1 1zm8.6-.2c-.4418278.3313708-1.0686292.2418278-1.4-.2l-11.7-15.6h-19.5c-.5522847 0-1-.4477153-1-1s.4477153-1 1-1h20c.3147573 0 .6111456.1481942.8.4l12 16c.3313708.4418278.2418278 1.0686292-.2 1.4z"/><path id="Shape" d="m42 0c.064 0 .124.013.187.019l-11.863 10.481c-.7562853.6679898-1.8917147.6679898-2.648 0l-11.863-10.481c.063-.006.123-.019.187-.019zm-26 18c-.143316-.0005823-.2861479-.016676-.426-.048l5.887-5.2c.2679492-.2365098.389368-.5980031.3185191-.9483088-.0708489-.3503058-.3232019-.6362041-.662-.75-.3387982-.1137959-.7125699-.038201-.9805191.1983088l-6.037 5.336c-.0629225-.1898038-.0966406-.3880664-.1-.588v-14c-.0003333-.26658762.053063-.53050829.157-.776l12.195 10.776c1.5132028 1.3383365 3.7867972 1.3383365 5.3 0l12.2-10.771c.1001964.24457631.1505147.50670742.148.771v14c-.0033594.1999336-.0370775.3981962-.1.588l-6.039-5.337c-.4142136-.3656125-1.0463875-.3262136-1.412.088s-.3262136 1.0463875.088 1.412l5.887 5.2c-.1391627.0315174-.2813168.0479455-.424.049z"/></g></g></svg>