<svg height="512" viewBox="0 0 42 56" width="512" xmlns="http://www.w3.org/2000/svg"><g id="Page-1" fill="none" fill-rule="evenodd"><g id="114---Lock" fill="rgb(0,0,0)" fill-rule="nonzero"><path id="Shape" d="m10 13.529c.139839-5.94076214 5.0588062-10.64910806 11-10.529 5.9411938-.12010806 10.860161 4.58823786 11 10.529v7.471h3v-7c0-7.7319865-6.2680135-14-14-14s-14 6.2680135-14 14v7h3z"/><path id="Shape" d="m41 35h1v-10c0-1.1045695-.8954305-2-2-2h-38c-1.1045695 0-2 .8954305-2 2v10h1c.55228475 0 1 .4477153 1 1s-.44771525 1-1 1h-1v3h1c.55228475 0 1 .4477153 1 1s-.44771525 1-1 1h-1v3h1c.55228475 0 1 .4477153 1 1s-.44771525 1-1 1h-1v2c0 1.1045695.8954305 2 2 2h4c.55228475 0 1 .4477153 1 1s-.44771525 1-1 1h-2v1c0 1.1045695.8954305 2 2 2h30c1.1045695 0 2-.8954305 2-2v-1h-19c-.5522847 0-1-.4477153-1-1s.4477153-1 1-1h21c1.1045695 0 2-.8954305 2-2v-2h-1c-.5522847 0-1-.4477153-1-1s.4477153-1 1-1h1v-3h-1c-.5522847 0-1-.4477153-1-1s.4477153-1 1-1h1v-3h-1c-.5522847 0-1-.4477153-1-1s.4477153-1 1-1zm-35 12h-1c-.55228475 0-1-.4477153-1-1s.44771525-1 1-1h1c.55228475 0 1 .4477153 1 1s-.44771525 1-1 1zm0-5h-1c-.55228475 0-1-.4477153-1-1s.44771525-1 1-1h1c.55228475 0 1 .4477153 1 1s-.44771525 1-1 1zm0-5h-1c-.55228475 0-1-.4477153-1-1s.44771525-1 1-1h1c.55228475 0 1 .4477153 1 1s-.44771525 1-1 1zm8 16h-3c-.5522847 0-1-.4477153-1-1s.4477153-1 1-1h3c.5522847 0 1 .4477153 1 1s-.4477153 1-1 1zm17.5-12.7c-1.3664815 4.3458652-5.2704159 7.3997254-9.8174396 7.6797108-4.5470236.2799854-8.7961316-2.2718467-10.6854665-6.4172333-1.88933486-4.1453866-1.02789948-9.0264412 2.1662992-12.2746578 3.1941986-3.2482167 8.0601222-4.1913779 12.2366069-2.3718197.3384517.135572.5762964.4446005.6207098.80648.0444133.3618795-.1116443.7192515-.4072679.9326433-.2956235.2133919-.683956.2489805-1.0134419.0928767-3.4167215-1.4896165-7.3981172-.7189917-10.0122483 1.9379353-2.6141312 2.656927-3.3200087 6.6503105-1.7751113 10.0423947 1.5448973 3.3920841 5.0208561 5.480884 8.7411966 5.2528271 3.7203404-.228057 6.9151455-2.7257749 8.034163-6.2811571.1656855-.5268796.7271204-.8196854 1.254-.6539999.5268796.1656854.8196854.7271203.654 1.2539999zm-8.5.7c0 .5522847-.4477153 1-1 1 0 .5522847-.4477153 1-1 1s-1-.4477153-1-1v-4c0-.5522847.4477153-1 1-1h1v-2h-1c-.5522847 0-1-.4477153-1-1v-2c0-.5522847.4477153-1 1-1s1 .4477153 1 1v1h1c.5522847 0 1 .4477153 1 1v4c0 .5522847-.4477153 1-1 1h-1v1c.5522847 0 1 .4477153 1 1zm8-5.02c-.0658007.0135319-.1328227.0202341-.2.02-.4748929-.000378-.8840215-.3347017-.979-.8-.1917602-.9493848-.5365915-1.8612796-1.021-2.7-.2716903-.47786-.1067416-1.0854205.3693057-1.3602745.4760473-.2748541 1.0846885-.1139391 1.3626943.3602745.5933725 1.0249006 1.0162187 2.1394315 1.252 3.3.0530009.2604906.000104.5313642-.1470041.7527769-.1471082.2214128-.37632.3751415-.6369959.4272231zm6 11.02h-1c-.5522847 0-1-.4477153-1-1s.4477153-1 1-1h1c.5522847 0 1 .4477153 1 1s-.4477153 1-1 1zm0-5h-1c-.5522847 0-1-.4477153-1-1s.4477153-1 1-1h1c.5522847 0 1 .4477153 1 1s-.4477153 1-1 1zm0-5h-1c-.5522847 0-1-.4477153-1-1s.4477153-1 1-1h1c.5522847 0 1 .4477153 1 1s-.4477153 1-1 1z"/></g></g></svg>