<svg height="512" viewBox="0 0 56 51" width="512" xmlns="http://www.w3.org/2000/svg"><g id="Page-1" fill="none" fill-rule="evenodd"><g id="115---Delivery" fill="rgb(0,0,0)" fill-rule="nonzero"><path id="Shape" d="m45 41c-2.7614237 0-5 2.2385763-5 5s2.2385763 5 5 5 5-2.2385763 5-5c-.0033061-2.7600532-2.2399468-4.9966939-5-5zm0 8c-1.2133867 0-2.3072956-.7309265-2.7716386-1.8519497s-.2076757-2.4113767.6503183-3.2693706c.8579939-.857994 2.1483474-1.1146613 3.2693706-.6503183s1.8519497 1.5582519 1.8519497 2.7716386c0 1.6568542-1.3431458 3-3 3z"/><circle id="Oval" cx="45" cy="46" r="1"/><circle id="Oval" cx="14" cy="46" r="1"/><path id="Shape" d="m31 34h5v-29c-.0033061-2.76005315-2.2399468-4.99669388-5-5h-26c-2.76005315.00330612-4.99669388 2.23994685-5 5v26c0 1.6568542 1.34314575 3 3 3zm-25-30h-2c-.55228475 0-1-.44771525-1-1s.44771525-1 1-1h2c.55228475 0 1 .44771525 1 1s-.44771525 1-1 1zm18 0h-13c-.5522847 0-1-.44771525-1-1s.4477153-1 1-1h13c.5522847 0 1 .44771525 1 1s-.4477153 1-1 1z"/><path id="Shape" d="m14 41c-2.7614237 0-5 2.2385763-5 5s2.2385763 5 5 5 5-2.2385763 5-5c-.0033061-2.7600532-2.2399468-4.9966939-5-5zm0 8c-1.6568542 0-3-1.3431458-3-3s1.3431458-3 3-3 3 1.3431458 3 3-1.3431458 3-3 3z"/><path id="Shape" d="m40 27v-10c0-1.6568542 1.3431458-3 3-3h5.046l-1.238-1.61c-.1898126-.2450802-.4820128-.3889667-.792-.39h-8.016v22h9c.5522847 0 1 .4477153 1 1s-.4477153 1-1 1h-43v6c0 1.1045695.8954305 2 2 2h1.3c.88802818-2.9612495 3.6134643-4.989285 6.705-4.989285s5.8169718 2.0280355 6.705 4.989285h17.59c.8880282-2.9612495 3.6134643-4.989285 6.705-4.989285s5.8169718 2.0280355 6.705 4.989285h2.29c1.1045695 0 2-.8954305 2-2v-12h-13c-1.6568542 0-3-1.3431458-3-3zm-15 15h-2c-.5522847 0-1-.4477153-1-1s.4477153-1 1-1h2c.5522847 0 1 .4477153 1 1s-.4477153 1-1 1zm11 0h-7c-.5522847 0-1-.4477153-1-1s.4477153-1 1-1h7c.5522847 0 1 .4477153 1 1s-.4477153 1-1 1zm15-8h2c.5522847 0 1 .4477153 1 1s-.4477153 1-1 1h-2c-.5522847 0-1-.4477153-1-1s.4477153-1 1-1z"/><path id="Shape" d="m55.793 24.071-6.208-8.071h-6.585c-.5522847 0-1 .4477153-1 1v10c0 .5522847.4477153 1 1 1h13.0000003l-.0000003-3.319c.0001716-.2205994-.0726059-.4350647-.207-.61zm-9.793.929c0 .5522847-.4477153 1-1 1s-1-.4477153-1-1v-1c0-.5522847.4477153-1 1-1s1 .4477153 1 1zm0-5c0 .5522847-.4477153 1-1 1s-1-.4477153-1-1v-1c0-.5522847.4477153-1 1-1s1 .4477153 1 1z"/></g></g></svg>