<svg height="512" viewBox="0 0 58 60" width="512" xmlns="http://www.w3.org/2000/svg"><g id="Page-1" fill="none" fill-rule="evenodd"><g id="116---Scales" fill="rgb(0,0,0)" fill-rule="nonzero"><path id="Shape" d="m44 56h-30c-.5522847 0-1 .4477153-1 1v1c0 1.1045695.8954305 2 2 2h28c1.1045695 0 2-.8954305 2-2v-1c0-.5522847-.4477153-1-1-1z"/><path id="Shape" d="m18 54h22c0-3.3137085-2.6862915-6-6-6h-10c-3.3137085 0-6 2.6862915-6 6z"/><path id="Shape" d="m31 10v-8c.0028231-.53059053-.2101411-1.0395388-.59-1.41-.3704612-.3798589-.8794095-.59282307-1.41-.59-1.1032019.0032948-1.9967052.89679813-2 2v44h4.0000277z"/><path id="Shape" d="m2 10h4.12c.72055986.7000541 1.58932554 1.2291057 2.542 1.548l-7.312 16.452h2.19l6.46-14.54 6.46 14.54h2.19l-7.287-16.395c.9821776-.2930734 1.8660897-.8478951 2.557-1.605h11.08v-4h-12c-.6290338.00202953-1.2209561.2979907-1.6.8-.27.36-.8.97-1.28.98h-.01c-.60466748-.1347823-1.14064917-.48263797-1.51-.98-.37904389-.5020093-.97096623-.79797047-1.6-.8h-5c-1.1045695 0-2 .8954305-2 2s.8954305 2 2 2z"/><path id="Shape" d="m46.637 11.605-7.287 16.395h2.19l6.46-14.54 6.46 14.54h2.19l-7.312-16.452c.9526745-.3188943 1.8214401-.8479459 2.542-1.548h4.12c1.1045695 0 2-.8954305 2-2s-.8954305-2-2-2h-5c-.6290338.00202953-1.2209561.2979907-1.6.8-.3693508.49736203-.9053325.8452177-1.51.98h-.01c-.48-.01-1.01-.62-1.28-.98-.3790439-.5020093-.9709662-.79797047-1.6-.8h-12v4h11.08c.6909103.7571049 1.5748224 1.3119266 2.557 1.605z"/><path id="Shape" d="m20 35v-4c0-.5522847-.4477153-1-1-1h-18c-.55228475 0-1 .4477153-1 1v4c0 1.3260824.5267842 2.597852 1.46446609 3.5355339.9376819.9376819 2.20945146 1.4644661 3.53553391 1.4644661h10c2.7614237 0 5-2.2385763 5-5z"/><path id="Shape" d="m57 30h-18c-.5522847 0-1 .4477153-1 1v4c0 2.7614237 2.2385763 5 5 5h10c2.7614237 0 5-2.2385763 5-5v-4c0-.5522847-.4477153-1-1-1z"/></g></g></svg>