<svg height="512" viewBox="0 0 58 57" width="512" xmlns="http://www.w3.org/2000/svg"><g id="Page-1" fill="none" fill-rule="evenodd"><g id="120---Cloud-Disk" fill="rgb(0,0,0)" fill-rule="nonzero"><path id="Shape" d="m19 27v7c0 .5522847.4477153 1 1 1h3.18c-.1164225-.320674-.1772954-.6588568-.18-1v-7z"/><path id="Shape" d="m38 35c.5522847 0 1-.4477153 1-1v-7h-14v7c0 .5522847.4477153 1 1 1z"/><path id="Shape" d="m57 24.63c-.4004895-.8249804-.9155851-1.5892072-1.53-2.27.35495-1.1874618.5335232-2.4206281.53-3.66-.0035848-4.2035437-2.0377815-8.146385-5.4612946-10.58551402-3.4235131-2.43912905-7.8145133-3.07400778-11.7887054-1.70448598-2.7604831-4.28177754-7.63018-6.72464405-12.7128238-6.37734392-5.0826439.34730013-9.5747846 3.42986667-11.7271762 8.04734392l-1.1-.49c-3.82621622-1.45660092-8.15341324-.1472282-10.53016597 3.1863379-2.37675273 3.3335662-2.2040925 7.8512292.42016597 10.9936621-2.82218904 2.6959922-3.81795972 6.7875639-2.55026616 10.4789156 1.26769355 3.6913518 4.56716378 6.3078408 8.45026616 6.7010844h3v-10.95c.0049422-1.6548028 1.3451972-2.9950578 3-3h28c1.6548028.0049422 2.9950578 1.3451972 3 3v10.95h3c3.2503731-.3296584 6.1353473-2.2247655 7.7287258-5.076913s1.6946395-6.3024015.2712742-9.243087z"/><path id="Rectangle-path" d="m19 55h20v2h-20z"/><path id="Shape" d="m43 27h-2v7c-.0049422 1.6548028-1.3451972 2.9950578-3 3h-18c-1.6548028-.0049422-2.9950578-1.3451972-3-3v-7h-2c-.5522847 0-1 .4477153-1 1v28c0 .5522847.4477153 1 1 1h2v-2c.0032948-1.1032019.8967981-1.9967052 2-2h20c1.1032019.0032948 1.9967052.8967981 2 2v2h2c.5522847 0 1-.4477153 1-1v-28c0-.5522847-.4477153-1-1-1zm-14 24c-3.3137085 0-6-2.6862915-6-6s2.6862915-6 6-6 6 2.6862915 6 6-2.6862915 6-6 6z"/><path id="Shape" d="m29 41c-2.209139 0-4 1.790861-4 4s1.790861 4 4 4 4-1.790861 4-4-1.790861-4-4-4zm-1 4c-.5522847 0-1-.4477153-1-1s.4477153-1 1-1 1 .4477153 1 1-.4477153 1-1 1z"/></g></g></svg>