<svg height="512" viewBox="0 0 56 56" width="512" xmlns="http://www.w3.org/2000/svg"><g id="Page-1" fill="none" fill-rule="evenodd"><g id="121---Transit" fill="rgb(0,0,0)" fill-rule="nonzero" transform="translate(-1)"><path id="Shape" d="m19.93 50.2c-.3992249-2.3958867-2.4625515-4.1582929-4.8913917-4.1780196-2.4288402-.0197266-4.5205207 1.7089334-4.9586083 4.0980196-.0082328.025823-.0116231.052945-.01.08-.0485255.2638603-.07196338.5317219-.07.8.0000001 2.7614237 2.2385763 4.9999999 5 4.9999999s4.9999999-2.2385762 5-4.9999999c.0019634-.2682781-.0214745-.5361397-.07-.8zm-4.93 3.8c-1.6568542 0-3-1.3431458-3-3s1.3431458-3 3-3 3 1.3431458 3 3c-.0049422 1.6548028-1.3451972 2.9950578-3 3z"/><circle id="Oval" cx="15" cy="51" r="1"/><path id="Shape" d="m50.93 50.2c-.3992249-2.3958867-2.4625515-4.1582929-4.8913917-4.1780196-2.4288402-.0197266-4.5205207 1.7089334-4.9586083 4.0980196-.0082328.025823-.0116231.052945-.01.08-.0485255.2638603-.0719634.5317219-.07.8 0 2.7614237 2.2385763 5 5 5s5-2.2385763 5-5c.0019634-.2682781-.0214745-.5361397-.07-.8zm-4.93 3.8c-1.2133867 0-2.3072956-.7309265-2.7716386-1.8519497s-.2076757-2.4113767.6503183-3.2693706c.8579939-.857994 2.1483474-1.1146613 3.2693706-.6503183s1.8519497 1.5582519 1.8519497 2.7716386c-.0049422 1.6548028-1.3451972 2.9950578-3 3z"/><circle id="Oval" cx="46" cy="51" r="1"/><path id="Shape" d="m56.79 29.07-6.2-8.07h-6.59c-.5522847 0-1 .4477153-1 1v10c0 .5522847.4477153 1 1 1h13.0000556l-.0000556-3.32c.0023808-.2214568-.0718017-.4369392-.21-.61zm-9.79.93c0 .5522847-.4477153 1-1 1s-1-.4477153-1-1v-1c0-.5522847.4477153-1 1-1s1 .4477153 1 1zm0-5c0 .5522847-.4477153 1-1 1s-1-.4477153-1-1v-1c0-.5522847.4477153-1 1-1s1 .4477153 1 1z"/><path id="Shape" d="m44 35c-1.6548028-.0049422-2.9950578-1.3451972-3-3v-10c.0049422-1.6548028 1.3451972-2.9950578 3-3h5.05l-1.24-1.61c-.1872793-.2470861-.4799636-.3915758-.79-.39h-8.02v22h9c.5522847 0 1 .4477153 1 1s-.4477153 1-1 1h-43v6c.0032948 1.1032019.89679813 1.9967052 2 2h1.29c.88247313-2.9696569 3.6119972-5.0060341 6.71-5.0060341s5.8275269 2.0363772 6.71 5.0060341h17.58c.8824731-2.9696569 3.6119972-5.0060341 6.71-5.0060341s5.8275269 2.0363772 6.71 5.0060341h2.29c1.1032019-.0032948 1.9967052-.8967981 2-2v-12zm-18 12h-2c-.5522847 0-1-.4477153-1-1s.4477153-1 1-1h2c.5522847 0 1 .4477153 1 1s-.4477153 1-1 1zm11 0h-7c-.5522847 0-1-.4477153-1-1s.4477153-1 1-1h7c.5522847 0 1 .4477153 1 1s-.4477153 1-1 1zm17-6h-2c-.5522847 0-1-.4477153-1-1s.4477153-1 1-1h2c.5522847 0 1 .4477153 1 1s-.4477153 1-1 1z"/><path id="Shape" d="m14.71 7.71c-.3970892.3799416-1.0229108.3799416-1.42 0l-2.58-2.59c-.2860905-.28845995-.71826679-.37516186-1.09348151-.21937095-.37521471.15579091-.61888111.52310588-.61651849.92937095v16.17c0 .5522847-.44771525 1-1 1s-1-.4477153-1-1v-16.17c.00204015-.40734353-.24320592-.77521263-.62-.93-.12081031-.04816693-.24995633-.07195699-.38-.07-.26565408-.00076959-.5208504.10346553-.71.29l-2.58 2.59c-.39708917.3799416-1.02291083.3799416-1.42 0-.38997787-.39300794-.38997787-1.02699206 0-1.42l6-6c.39708917-.3799416 1.02291083-.3799416 1.42 0l6 6c.3899779.39300794.3899779 1.02699206 0 1.42z"/><path id="Shape" d="m37 16v23h-33c-1.6548028-.0049422-2.9950578-1.3451972-3-3v-20c-.00048501-2.3763431 1.67166873-4.4247314 4-4.9v10.9c.00000002 1.6568542 1.34314577 3 3 3s3-1.3431458 3-3v-11h8v3.76l-.88-.88c-1.187403-1.130159-3.052597-1.130159-4.24 0-1.1698135 1.1712702-1.1698135 3.0687298 0 4.24l6 6c.5617198.5632738 1.3245087.8798486 2.12.8798486s1.5582802-.3165748 2.12-.8798486l6-6c1.1698135-1.1712702 1.1698135-3.0687298 0-4.24-1.187403-1.130159-3.052597-1.130159-4.24 0l-.88.88v-3.76h7c2.7614237 0 5 2.2385763 5 5z"/><path id="Shape" d="m28.71 16.71-6 6c-.3970892.3799416-1.0229108.3799416-1.42 0l-6-6c-.3899779-.3930079-.3899779-1.0269921 0-1.42.3943361-.3867403 1.0256639-.3867403 1.42 0l2.58 2.59c.2860905.2884599.7182668.3751619 1.0934815.219371.3752147-.155791.6188811-.5231059.6165185-.929371v-16.17c0-.55228475.4477153-1 1-1s1 .44771525 1 1v16.17c-.0023626.4062651.2413038.77358.6165185.929371.3752147.1557909.807391.0690889 1.0934815-.219371l2.58-2.59c.3970892-.3799416 1.0229108-.3799416 1.42 0 .3899779.3930079.3899779 1.0269921 0 1.42z"/></g></g></svg>