<svg height="512" viewBox="0 0 58 57" width="512" xmlns="http://www.w3.org/2000/svg"><g id="Page-1" fill="none" fill-rule="evenodd"><g id="122---Cloud-Sync" fill="rgb(0,0,0)" fill-rule="nonzero" transform="translate(-1)"><path id="Shape" d="m59 29c0 5.5228475-4.4771525 10-10 10h-9v-4c0-1.6568542-1.3431458-3-3-3s-3 1.3431458-3 3v4h-2.78c-.0303338-.0424072-.063758-.0825163-.1-.12l-6-6c-1.187403-1.130159-3.052597-1.130159-4.24 0l-6 6c-.036242.0374837-.0696662.0775928-.1.12h-3.78c-4.08750434.0026594-7.76463225-2.4840608-9.28421228-6.2786062-1.51958002-3.7945455-.57528305-8.1319814 2.38421228-10.9513938-2.62425847-3.1424329-2.7969187-7.6600959-.42016597-10.9936621 2.37675273-3.3335661 6.70394977-4.64293882 10.53016597-3.1863379l1.1.49c2.1523916-4.61747725 6.6445323-7.70004379 11.7271762-8.04734392 5.0826438-.34730013 9.9523407 2.09556638 12.7128238 6.37734392 3.9741921-1.3695218 8.3651923-.73464307 11.7887054 1.70448598 3.4235131 2.43912902 5.4577098 6.38197032 5.4612946 10.58551402.0035232 1.2393719-.17505 2.4725382-.53 3.66.6144149.6807928 1.1295105 1.4450196 1.53 2.27.659292 1.3623791 1.0011916 2.8564805 1 4.37z"/><path id="Shape" d="m29.71 41.71c-.3970892.3799416-1.0229108.3799416-1.42 0l-2.58-2.59c-.0445142-.0424449-.0912464-.0825011-.14-.12-.2797025-.1909651-.6366654-.2285402-.95-.1-.0620624.0294777-.1221841.0628787-.18.1-.2755788.1862704-.4405011.4973739-.44.83v16.17c0 .5522847-.4477153 1-1 1s-1-.4477153-1-1v-16.17c.0005011-.3326261-.1644212-.6437296-.44-.83-.0578159-.0371213-.1179376-.0705223-.18-.1-.1208103-.0481669-.2499563-.071957-.38-.07-.2023641.0008803-.4002138.0598881-.57.17-.0487536.0374989-.0954858.0775551-.14.12l-2.58 2.59c-.3970892.3799416-1.0229108.3799416-1.42 0-.3899779-.3930079-.3899779-1.0269921 0-1.42l1.29-1.29 4.71-4.71c.3970892-.3799416 1.0229108-.3799416 1.42 0l4.71 4.71 1.29 1.29c.3899779.3930079.3899779 1.0269921 0 1.42z"/><path id="Shape" d="m43.71 50.71-6 6c-.3970892.3799416-1.0229108.3799416-1.42 0l-6-6c-.3899779-.3930079-.3899779-1.0269921 0-1.42.3943361-.3867403 1.0256639-.3867403 1.42 0l2.58 2.59c.2884024.2814037.7150276.3675115 1.09.22.3767941-.1547874.6220401-.5226565.62-.93v-16.17c0-.5522847.4477153-1 1-1s1 .4477153 1 1v16.17c-.0020401.4073435.2432059.7752126.62.93.3749724.1475115.8015976.0614037 1.09-.22l2.58-2.59c.3970892-.3799416 1.0229108-.3799416 1.42 0 .3899779.3930079.3899779 1.0269921 0 1.42z"/></g></g></svg>