<svg height="512" viewBox="0 0 60 58" width="512" xmlns="http://www.w3.org/2000/svg"><g id="Page-1" fill="none" fill-rule="evenodd"><g id="123---Monitor-Settings" fill="rgb(0,0,0)" fill-rule="nonzero"><path id="Rectangle-path" d="m23 12h2v2h-2z"/><path id="Rectangle-path" d="m31 12h2v2h-2z"/><path id="Rectangle-path" d="m27 16h2v2h-2z"/><path id="Rectangle-path" d="m7 20h2v2h-2z"/><path id="Rectangle-path" d="m23 16h2v2h-2z"/><path id="Rectangle-path" d="m23 20h2v2h-2z"/><circle id="Oval" cx="43" cy="36" r="2"/><path id="Shape" d="m29.839 45 1.327-2.653c-.4232536-.7858875-.7663166-1.6123878-1.024-2.467l-2.85-.951c-.4608218-.159406-.8409397-.4928616-1.059-.929h-24.233v2c.00330612 2.7600532 2.23994685 4.9966939 5 5z"/><path id="Shape" d="m58 34.943-3.278-1.093c-.3220811-.1075077-.5676038-.3711058-.652-.7-.2678947-1.0392578-.6813159-2.0354412-1.228-2.959-.1732633-.2924838-.1860701-.6529579-.034-.957l1.546-3.093-1.495-1.495-3.093 1.546c-.3040421.1520701-.6645162.1392633-.957-.034-.9235032-.5472681-1.9201501-.9604052-2.96-1.227-.3291294-.0845885-.5927766-.3305336-.7-.653l-1.092-3.278h-2.114l-1.092 3.278c-.1072234.3224664-.3708706.5684115-.7.653-1.0398499.2665948-2.0364968.6797319-2.96 1.227-.2924838.1732633-.6529579.1860701-.957.034l-3.093-1.546-1.495 1.495 1.546 3.093c.1520701.3040421.1392633.6645162-.034.957-.5466841.9235588-.9601053 1.9197422-1.228 2.959-.0843962.3288942-.3299189.5924923-.652.7l-3.278 1.093v2.114l3.278 1.093c.3220811.1075077.5676038.3711058.652.7.2678947 1.0392578.6813159 2.0354412 1.228 2.959.1732633.2924838.1860701.6529579.034.957l-1.546 3.093 1.495 1.495 2.466-1.233h.006l.621-.31c.3040421-.1520701.6645162-.1392633.957.034.9235032.5472681 1.9201501.9604052 2.96 1.227.3291294.0845885.5927766.3305336.7.653l1.092 3.275h2.114l1.092-3.278c.1072234-.3224664.3708706-.5684115.7-.653 1.0398499-.2665948 2.0364968-.6797319 2.96-1.227.2924838-.1732633.6529579-.1860701.957-.034l3.093 1.546 1.495-1.495-1.546-3.093c-.1520701-.3040421-.1392633-.6645162.034-.957.5466841-.9235588.9601053-1.9197422 1.228-2.959.0843962-.3288942.3299189-.5924923.652-.7l3.278-1.093zm-15 10.057c-3.2164212.002063-6.1894543-1.7125124-7.7985581-4.4974998-1.6091038-2.7849873-1.6096535-6.2169975-.0014419-9.0025002.2843876-.4596821.882589-.61017 1.3506397-.3397768s.6365131.8637835.3803603 1.3397768c-1.7017093 2.9570292-1.0182846 6.710708 1.616438 8.8782119s6.4497416 2.114554 9.0232939-.1252373c2.5735523-2.2397912 3.1525367-6.0109914 1.3694156-8.9196535-1.7831212-2.9086621-5.4065514-4.1036214-8.5701475-2.8263211-.3317703.136837-.7114266.0853969-.9948234-.1347898-.2833967-.2201867-.427072-.575352-.3764761-.930649s.2877036-.6562371.6212995-.7885612c3.3648891-1.3567657 7.2154049-.5604264 9.7660788 2.0197585 2.5506739 2.580185 3.3026681 6.4396063 1.907286 9.7886659s-4.6652444 5.5327787-8.2933648 5.5385756zm-4-9c0-2.209139 1.790861-4 4-4s4 1.790861 4 4-1.790861 4-4 4-4-1.790861-4-4z"/><path id="Rectangle-path" d="m7 28h2v2h-2z"/><path id="Rectangle-path" d="m19 16h2v2h-2z"/><path id="Shape" d="m55.747 44.173c1.4069244-.9218205 2.2541131-2.490981 2.253-4.173l.0000011-.835-2.1420011.715c-.2576834.8546122-.6007464 1.6811125-1.024 2.467z"/><path id="Rectangle-path" d="m11 20h2v2h-2z"/><path id="Rectangle-path" d="m11 24h2v2h-2z"/><path id="Rectangle-path" d="m11 16h2v2h-2z"/><path id="Rectangle-path" d="m7 12h2v2h-2z"/><path id="Rectangle-path" d="m19 20h2v2h-2z"/><path id="Shape" d="m26 34.863c-.0008552-.813455.5199432-1.5358008 1.292-1.792l2.85-.951c.2576834-.8546122.6007464-1.6811125 1.024-2.467l-1.345-2.689c-.3644673-.7273022-.2217944-1.6063125.354-2.181l1.608-1.608c.5746636-.5750429 1.4529054-.7176565 2.18-.354l2.69 1.345c.7863227-.4230709 1.6131359-.7661246 2.468-1.024l.95-2.851c.2568101-.7714679.978911-1.2916868 1.792-1.291h2.274c.8127235-.0005195 1.5345803.5191207 1.792 1.29l.95 2.852c.8548641.2578754 1.6816773.6009291 2.468 1.024l2.689-1.345c.7273516-.3641441 1.6061634-.2215034 2.181.354l1.608 1.608c.5757944.5746875.7184673 1.4536978.354 2.181l-1.345 2.689c.4232536.7858875.7663166 1.6123878 1.024 2.467l2.142.715v-26.835h-48c-.55228475 0-1-.44771525-1-1s.44771525-1 1-1h48v-1c0-1.65685425-1.3431458-3-3-3h-50c-1.65685425 0-3 1.34314575-3 3v1h3c.55228475 0 1 .44771525 1 1s-.44771525 1-1 1h-3v30h24zm4-33.863c.5522847 0 1 .44771525 1 1s-.4477153 1-1 1-1-.44771525-1-1 .4477153-1 1-1zm-7 26c0 .5522847-.4477153 1-1 1h-3v3c0 .5522847-.4477153 1-1 1h-4c-.5522847 0-1-.4477153-1-1v-3h-2v3c0 .5522847-.4477153 1-1 1h-4c-.55228475 0-1-.4477153-1-1v-4c0-.5522847.44771525-1 1-1h3v-2h-3c-.55228475 0-1-.4477153-1-1v-4c0-.5522847.44771525-1 1-1h3v-2h-3c-.55228475 0-1-.4477153-1-1v-4c0-.5522847.44771525-1 1-1h4c.5522847 0 1 .4477153 1 1v3h2v-3c0-.5522847.4477153-1 1-1h4c.5522847 0 1 .4477153 1 1v3h2v-3c0-.5522847.4477153-1 1-1h4c.5522847 0 1 .4477153 1 1v3h2v-3c0-.5522847.4477153-1 1-1h4c.5522847 0 1 .4477153 1 1v4c0 .5522847-.4477153 1-1 1h-3v3c0 .5522847-.4477153 1-1 1h-3v3c0 .5522847-.4477153 1-1 1h-3z"/><path id="Rectangle-path" d="m15 28h2v2h-2z"/><path id="Rectangle-path" d="m19 24h2v2h-2z"/><path id="Rectangle-path" d="m15 16h2v2h-2z"/><path id="Rectangle-path" d="m15 12h2v2h-2z"/><path id="Rectangle-path" d="m15 24h2v2h-2z"/><path id="Rectangle-path" d="m15 20h2v2h-2z"/><path id="Shape" d="m4 56h-3c-.55228475 0-1 .4477153-1 1s.44771525 1 1 1h3c.55228475 0 1-.4477153 1-1s-.44771525-1-1-1z"/><path id="Shape" d="m59 56h-21.457c-1.5442949-1.2094759-2.4751089-3.0396252-2.543-5v-2.339l-1.036.518c-.7271531.3654398-1.6067615.2226698-2.181-.354l-1.608-1.608c-.0575354-.0684233-.1100077-.1409487-.157-.217h-5.018v4c-.0678911 1.9603748-.9987051 3.7905241-2.543 5h-13.457c-.55228475 0-1 .4477153-1 1s.44771525 1 1 1h50c.5522847 0 1-.4477153 1-1s-.4477153-1-1-1z"/></g></g></svg>