<svg height="512" viewBox="0 0 58 40" width="512" xmlns="http://www.w3.org/2000/svg"><g id="Page-1" fill="none" fill-rule="evenodd"><g id="124---Money" fill="rgb(0,0,0)" fill-rule="nonzero"><path id="Shape" d="m53.734.986-5.4 2.514c-6.1287116 2.85392708-13.2052884 2.85392708-19.334 0-6.1284307-2.85361664-13.2045693-2.85361664-19.333 0l-7.933 3.693c-1.0574071.49219921-1.73369382 1.55265111-1.734 2.719v26.382c-.0000726 1.0248396.52301521 1.9788086 1.38714879 2.5297799.86413359.5509712 1.94973592.6227024 2.87885121.1902201l5.4-2.514c6.1287116-2.8539271 13.2052884-2.8539271 19.334 0 6.1284307 2.8536166 13.2045693 2.8536166 19.333 0l7.933-3.693c1.057735-.4923519 1.7340826-1.5532894 1.734-2.72v-26.381c.0000726-1.02483958-.5230152-1.97880862-1.3871488-2.52977987s-1.9497359-.62270243-2.8788512-.19022013zm-43.645 32.122-5.4 2.514c-.13165353.062086-.27544148.0941906-.421.094-.46851173-.0005978-.87380081-.3263938-.97507956-.7838281-.10127876-.4574344.1286072-.923862.55307956-1.1221719l5.4-2.514c.32528507-.161975.71283586-.134746 1.0122766.0711217.2994407.2058678.4636386.5579702.4288822.919686-.0347563.3617157-.2629961.6761098-.5961588.8211923zm-.089-19.108c-.55228475 0-1-.4477153-1-1 0-1.1045695-.8954305-2-2-2s-2 .8954305-2 2 .8954305 2 2 2c.55228475 0 1 .4477153 1 1s-.44771525 1-1 1c-2.209139 0-4-1.790861-4-4s1.790861-4 4-4 4 1.790861 4 4c0 .5522847-.4477153 1-1 1zm9.016 17.064c-1.2850487.0194425-2.5659325.1512785-3.828.394-.5426198.1038295-1.0666705-.2518802-1.1705-.7945s.2518802-1.0666705.7945-1.1705c1.3765671-.263976 2.7735155-.4075188 4.175-.429.542469.0157658.9825887.4441547 1.013.986.007792.551537-.4324776 1.0052296-.984 1.014zm4.984-16.064c0 1.932 1.721 3.547 4 3.919v-.919c0-.5522847.4477153-1 1-1s1 .4477153 1 1v1.068c3.387.419 6 2.915 6 5.932s-2.613 5.513-6 5.932v1.068c0 .5522847-.4477153 1-1 1s-1-.4477153-1-1v-1.068c-3.387-.419-6-2.915-6-5.932 0-.5522847.4477153-1 1-1s1 .4477153 1 1c0 1.932 1.721 3.547 4 3.919v-1.919c0-.5522847.4477153-1 1-1s1 .4477153 1 1v1.919c2.279-.372 4-1.987 4-3.919s-1.729-3.554-4.016-3.92c-.0324602.5397961-.4908851.9543758-1.0312173.9325882-.5403321-.0217876-.9638892-.4719311-.9527827-1.0125882v-.068c-3.387-.419-6-2.915-6-5.932s2.613-5.513 6-5.932v-1.068c0-.55228475.4477153-1 1-1s1 .44771525 1 1v1.068c3.387.419 6 2.915 6 5.932 0 .5522847-.4477153 1-1 1s-1-.4477153-1-1c0-1.932-1.721-3.547-4-3.919v1.919c0 .5522847-.4477153 1-1 1s-1-.4477153-1-1v-1.919c-2.279.372-4 1.987-4 3.919zm23.911-8.318 5.4-2.515c.3257198-.16495129.7154478-.13927633 1.0167128.06698019.3012649.20625652.4661757.56030678.4302152.92363741s-.2670759.67818433-.602928.8213824l-5.4 2.515c-.3252851.16197505-.7128359.13474604-1.0122766-.07112174s-.4636386-.55797017-.4288822-.91968593c.0347563-.36171575.2629961-.67610981.5961588-.82119233zm-3.678 3.388c-1.3767632.3289572-2.7798736.5357595-4.193.618h-.059c-.5522847.0157401-1.0127598-.4192153-1.0285-.9715-.0157401-.55228474.4192153-1.01275986.9715-1.0285 1.2952305-.07452064 2.581283-.26393144 3.843-.566.5370969-.12868235 1.0768177.20240308 1.2055.7395s-.2024031 1.07681765-.7395 1.2055zm9.767 17.93c-.5522847 0-1-.4477153-1-1 0-1.1045695-.8954305-2-2-2s-2 .8954305-2 2 .8954305 2 2 2c.5522847 0 1 .4477153 1 1s-.4477153 1-1 1c-2.209139 0-4-1.790861-4-4s1.790861-4 4-4 4 1.790861 4 4c0 .5522847-.4477153 1-1 1z"/></g></g></svg>