<svg height="512" viewBox="0 0 58 58" width="512" xmlns="http://www.w3.org/2000/svg"><g id="Page-1" fill="none" fill-rule="evenodd"><g id="125---Play" fill="rgb(0,0,0)" fill-rule="nonzero"><path id="Shape" d="m35.512 28.008-10.064-6.853c-.2549673-.1854891-.5944019-.2061673-.87-.053-.3719336.2138147-.5945565.6163075-.578 1.045v13.706c-.0165565.4286925.2060664.8311853.578 1.045.2757687.1524137.6147719.1317618.87-.053l10.064-6.853c.3078185-.2370179.4881676-.6035032.4881676-.992s-.1803491-.7549821-.4881676-.992z"/><path id="Shape" d="m29 0c-16.0162577 0-29 12.9837423-29 29s12.9837423 29 29 29 29-12.9837423 29-29-12.9837423-29-29-29zm-19.963 12.359c.66156482-.7915677 1.3687674-1.543847 2.118-2.253.401511-.37941962 1.0345804-.36151101 1.414.04.3794196.401511.361511 1.0345804-.04 1.414-.6922525.6550136-1.3456963 1.3498611-1.957 2.081-.2280334.2774736-.58735268.4113507-.94135344.3507344-.35400077-.0606162-.64830735-.306415-.77103169-.6439496s-.05501557-.7149586.17738513-.9887848zm19.963 42.641c-14.3527783-.0159821-25.98401786-11.6472217-26-26-.00698492-3.5798739.73241089-7.1218897 2.171-10.4.12802221-.3490447.43911608-.598253.80768661-.6470143s.73376711.1109747.94815238.4147195c.21438527.3037447.24256445.7013501.07316101 1.0322948-1.32629731 3.0263257-2.00744034 6.2958123-2 9.6 0 9.7070939 5.8474123 18.4583648 14.8155976 22.1731088 8.9681854 3.714744 19.2910132 1.6614059 26.1549651-5.2025461 6.863952-6.8639519 8.9172901-17.1867797 5.2025461-26.1549651-3.714744-8.9681853-12.4660149-14.8155976-22.1731088-14.8155976-3.3042355-.00790911-6.5738177.67325385-9.6 2-.3294859.1561038-.7178184.12051515-1.0134419-.09287666-.2956236-.21339182-.4516812-.57076379-.4072679-.93264332.0444134-.36187952.2822581-.67090802.6207098-.80648002 3.2781885-1.43800748 6.8202912-2.17639967 10.4-2.168 14.3594035 0 26 11.6405965 26 26s-11.6405965 26-26 26zm-2.426-16.5c-.8665776.6054047-2.000241.671158-2.931.17-1.028448-.5608753-1.6611629-1.6456946-1.643-2.817v-13.706c-.0170415-1.1702349.6155156-2.2536286 1.643-2.814.930759-.501158 2.0644224-.4354047 2.931.17l10.064 6.852c.8547892.6097571 1.3622101 1.5950151 1.3622101 2.645s-.5074209 2.0352429-1.3622101 2.645zm7.664 11.872c-1.7144015.4191635-3.4731016.6300195-5.238.628-.5522847 0-1-.4477153-1-1s.4477153-1 1-1c1.6045354.001111 3.2033704-.1909373 4.762-.572.3522894-.1009376.731571-.0010928.9884992.2602195.2569282.2613122.3503421.6422287.243459.9927601-.1068831.3505313-.3969401.6145209-.7559582.6880204zm4.284-3.784c1.0042316-.5475652 1.9603113-1.1791532 2.858-1.888.2802749-.2216833.6575261-.2770023.9896469-.1451188s.5686541.4309332.6205.7845c.051846.3535668-.088872.7079355-.3691469.9296188-.9873511.7789592-2.038758 1.4730952-3.143 2.075-.4828285.2473329-1.0748051.0645887-1.334198-.4118694s-.0915885-1.0728417.378198-1.3441306zm6.669-5.857c2.4846952-3.4058641 3.8189558-7.5151346 3.809-11.731 0-.5522847.4477153-1 1-1s1 .4477153 1 1c.0095163 4.6361361-1.4584925 9.1547028-4.191 12.9-.3285027.4346947-.9445425.5263997-1.385415.2062358s-.544294-.9343454-.232585-1.3812358z"/></g></g></svg>