<svg height="512" viewBox="0 0 60 59" width="512" xmlns="http://www.w3.org/2000/svg"><g id="Page-1" fill="none" fill-rule="evenodd"><g id="127---Screen-Settings" fill="rgb(0,0,0)" fill-rule="nonzero"><path id="Shape" d="m4 57h-3c-.55228475 0-1 .4477153-1 1s.44771525 1 1 1h3c.55228475 0 1-.4477153 1-1s-.44771525-1-1-1z"/><path id="Shape" d="m59 57h-19.814c-1.431-.965-3.186-2.628-3.186-5v-3h-12v3c0 2.372-1.755 4.035-3.186 5h-11.814c-.55228475 0-1 .4477153-1 1s.44771525 1 1 1h50c.5522847 0 1-.4477153 1-1s-.4477153-1-1-1z"/><circle id="Oval" cx="49" cy="19" r="4"/><path id="Shape" d="m57 20c.5522847 0 1-.4477153 1-1s-.4477153-1-1-1h-2.09c.1200121.6612656.1200121 1.3387344 0 2z"/><path id="Shape" d="m28 29c-.5522847 0-1 .4477153-1 1s.4477153 1 1 1h5.09c-.1200121-.6612656-.1200121-1.3387344 0-2z"/><path id="Shape" d="m43.812 44h-15.812c-1.6568542 0-3-1.3431458-3-3s1.3431458-3 3-3h15.812c1.0682518-1.8559567 3.0465666-2.9998902 5.188-2.9998902s4.1197482 1.1439335 5.188 2.9998902h2.812c.740399.0026037 1.4533329.2806479 2 .78v-6.56c-.5466671.4993521-1.259601.7773963-2 .78h-12.812c-1.0682518 1.8559567-3.0465666 2.9998902-5.188 2.9998902s-4.1197482-1.1439335-5.188-2.9998902h-5.812c-1.6568542 0-3-1.3431458-3-3s1.3431458-3 3-3h5.812c1.0682518-1.8559567 3.0465666-2.9998902 5.188-2.9998902s4.1197482 1.1439335 5.188 2.9998902h12.812c.740399.0026037 1.4533329.2806479 2 .78v-6.56c-.5466671.4993521-1.259601.7773963-2 .78h-2.812c-1.0682518 1.8559567-3.0465666 2.9998902-5.188 2.9998902s-4.1197482-1.1439335-5.188-2.9998902h-15.812c-1.6568542 0-3-1.3431458-3-3s1.3431458-3 3-3h15.812c1.0682518-1.8559567 3.0465666-2.9998902 5.188-2.9998902s4.1197482 1.1439335 5.188 2.9998902h2.812c.740399.0026037 1.4533329.2806479 2 .78v-9.78h-49c-.55228475 0-1-.44771525-1-1s.44771525-1 1-1h49v-1c0-2.209139-1.790861-4-4-4h-50c-2.209139 0-4 1.790861-4 4v1h4c.55228475 0 1 .44771525 1 1s-.44771525 1-1 1h-4v30h20c.5522847 0 1 .4477153 1 1s-.4477153 1-1 1h-20v2c0 3.3137085 2.6862915 6 6 6h42c-2.1406804-.0029098-4.1176608-1.1461135-5.188-3zm-13.812-42c.5522847 0 1 .44771525 1 1s-.4477153 1-1 1-1-.44771525-1-1 .4477153-1 1-1zm-25.707 10.293 3-3c.39237889-.37897221 1.01608478-.37355237 1.40181858.01218142.38573379.3857338.39115363 1.00943968.01218142 1.40181858l-3 3c-.39237889.3789722-1.01608478.3735524-1.40181858-.0121814-.38573379-.3857338-.39115363-1.0094397-.01218142-1.4018186zm10.414-1.586-9 9c-.39237889.3789722-1.01608478.3735524-1.40181858-.0121814-.38573379-.3857338-.39115363-1.0094397-.01218142-1.4018186l9-9c.3923789-.37897221 1.0160848-.37355237 1.4018186.01218142.3857338.3857338.3911536 1.00943968.0121814 1.40181858z"/><path id="Shape" d="m58.377 43.649c-.4235865.2273413-.8962719.3478297-1.377.351h-2.812c-1.0703392 1.8538865-3.0473196 2.9970902-5.188 3h4c2.2845306-.000842 4.3698701-1.3004464 5.377-3.351z"/><path id="Shape" d="m28 18c-.5522847 0-1 .4477153-1 1s.4477153 1 1 1h15.09c-.1200121-.6612656-.1200121-1.3387344 0-2z"/><path id="Shape" d="m57 42c.5522847 0 1-.4477153 1-1s-.4477153-1-1-1h-2.09c.1200121.6612656.1200121 1.3387344 0 2z"/><circle id="Oval" cx="49" cy="41" r="4"/><path id="Shape" d="m57 31c.5522847 0 1-.4477153 1-1s-.4477153-1-1-1h-12.09c.1200121.6612656.1200121 1.3387344 0 2z"/><circle id="Oval" cx="39" cy="30" r="4"/><path id="Shape" d="m28 40c-.5522847 0-1 .4477153-1 1s.4477153 1 1 1h15.09c-.1200121-.6612656-.1200121-1.3387344 0-2z"/></g></g></svg>