<svg height="512" viewBox="0 0 56 57" width="512" xmlns="http://www.w3.org/2000/svg"><g id="Page-1" fill="none" fill-rule="evenodd"><g id="128---World-Comment131" fill="rgb(0,0,0)" fill-rule="nonzero"><path id="Shape" d="m5.271 20.369c.279.269.557.538.825.813 1.94775283 2.1837811 3.6122274 4.6045601 4.954 7.205.56.99 2.052 3.619.62 5.675-.4391678.5599653-.985889 1.0264463-1.608 1.372-.39060178.2124382-.74199946.4901066-1.039.821-.21624842.3136048-.29399669.7023462-.215 1.075.15185316.7679607.58970864 1.4495856 1.225 1.907.8760596.5377337 1.8299949.9367809 2.828 1.183.553.17 1.107.341 1.641.549l.31.118c.553.211 1.138.437 1.723.672-.3498413-1.2225433-.5298617-2.4873968-.535-3.759.0062492-2.3196364.5813866-4.602331 1.675-6.648-1.2399773-.2893704-2.3795988-.9061473-3.3-1.786-1.5658651-1.5156934-2.1710924-3.7698287-1.575-5.866.6893552-2.1945802 2.8075877-3.6183647 5.1-3.428.6682845.1116554 1.3213308.3005891 1.946.563.6488776.3677401 1.4068881.4941932 2.14.357.6-.247.868-.971 1.245-2.136.141-.434.286-.882.473-1.311.4440704-.9172381.9963316-1.778027 1.645-2.564.909-1.2 1.694-2.229 1.586-3.381-.1853613-.8705815-.5816262-1.6823408-1.154-2.364-.3353583-.46688396-.6419275-.95378797-.918-1.458-1.257-2.411-1.015-5.169-.5-7.721-9.4444099 1.22034573-17.61408845 7.17351501-21.669 15.79.02468846.5550968.149353 1.1011816.368 1.612.55838457 1.0348635 1.30796132 1.9544439 2.209 2.71z"/><circle id="Oval" cx="29" cy="38" r="1"/><path id="Shape" d="m42.25 5.8c.0090297 2.98176727-.9809649 5.8806347-2.812 8.234l-.1.132c-.409.513-.872 1.095-.794 1.486.009.042.04.191.291.32.3853232.1775277.826938.1876631 1.22.028.6409091-.3554002 1.2075233-.8306908 1.669-1.4.227-.242.455-.486.692-.714 1.337-1.321 2.8-1.834 4.123-1.437.2536219.0781285.4657868.2538668.5897667.4885094.1239798.2346426.1496055.5089439.0712333.7624906-.424 1.337-.432 2.2-.026 2.563.345677.2305682.741894.374304 1.155.419.3670923.0684482.7282126.16575 1.08.291 2.383.918 3.232 3.763 2.679 5.986-.2242121.8579159-.5964661 1.6701066-1.1 2.4 1.9615922 1.3997195 3.6212447 3.1801049 4.88 5.235.079-.857.126-1.723.126-2.6.0118527-9.9037829-5.2246917-19.0723971-13.761-24.094-.018.4-.008.819 0 1.234.009.224.015.448.017.666z"/><path id="Shape" d="m27.428 8.305c.779465.95441861 1.2964856 2.0956554 1.5 3.311.18 1.93-.97 3.444-1.986 4.779-.5478476.6629277-1.0176031 1.3866867-1.4 2.157-.154.352-.277.738-.4 1.123-.4 1.225-.891 2.751-2.382 3.369-1.2003881.3736372-2.5001579.2538079-3.612-.333-.4800081-.2042861-.9810165-.3551923-1.494-.45-1.3324788-.0600971-2.5411737.7766602-2.954 2.045-.3762568 1.3758664.0331579 2.8472243 1.066 3.831.8426057.7791686 1.9153571 1.2637841 3.057 1.381 3.64-5.083 10.416-8.518 18.177-8.518 4.3241732-.0279888 8.5774882 1.0984269 12.321 3.263.3788783-.5428713.6594735-1.1480635.829-1.788.337-1.353-.165-3.137-1.45-3.631-.2564202-.0857855-.5187919-.1526318-.785-.2-.7620891-.0989275-1.4817841-.4073683-2.079-.891-.8373032-.8618283-1.1717339-2.0941203-.885-3.261-.4210863.2114114-.8053468.4893081-1.138.823-.221.214-.426.432-.63.651-.6380718.77137-1.4263881 1.404881-2.317 1.862-.9469107.4048821-2.0229762.3786099-2.949-.072-.6837395-.3304636-1.1769926-.9576366-1.337-1.7-.0971706-1.1702089.3402839-2.3215597 1.19-3.132l.1-.122c1.5512909-1.9986583 2.3891132-4.45896927 2.38-6.989 0-.2-.008-.413-.014-.625-.0422869-.77374649-.0087941-1.54977406.1-2.317-3.8338516-1.90031913-8.0570419-2.88319685-12.336-2.871-.556 0-1.061.021-1.548.053-.545 2.453-.882 4.959.185 7 .238083.4329586.5022357.85106128.791 1.252z"/><circle id="Oval" cx="37" cy="38" r="1"/><path id="Shape" d="m17.544 44.371c-1.075-.505-2.325-.987-3.446-1.416l-.316-.121c-.495-.192-1-.347-1.509-.5-1.204167-.3030341-2.35203457-.7969548-3.4-1.463-1.07114641-.7715611-1.80303652-1.9268942-2.043-3.225-.16442351-.9020847.04572473-1.8322254.582-2.576.43714404-.5355714.97150958-.9837599 1.575-1.321.39547944-.2131578.74943739-.4956467 1.045-.834.481-.69.252-1.817-.724-3.539-1.26203435-2.4507147-2.82402739-4.7349196-4.65-6.8-.25-.257-.514-.511-.778-.765-.93235681-.8265999-1.7347136-1.7890909-2.38-2.855-.99983794 2.9101793-1.50680667 5.9668628-1.5 9.044-.01225169 8.7693436 4.09033402 17.0364662 11.0815021 22.3303406 6.9911682 5.2938744 16.0609843 7.0011996 24.4984979 4.6116594-8.18-.442-15.08-4.686-18.036-10.571z"/><path id="Shape" d="m56 38c0-8.271-8.523-15-19-15s-19 6.729-19 15 8.523 15 19 15c1.2161146-.000244 2.4305059-.0914988 3.633-.273.1713937-.0265254.3445659-.0398978.518-.04.6705763-.0088446 1.3237869.213247 1.85.629 3.013 2.426 7.29 2.74 9.575 2.7-1.2199545-1.4486882-2.058984-3.1789931-2.441-5.034-.250378-1.0638834.1064972-2.1791184.928-2.9 3.0452666-2.4734741 4.8503683-6.159728 4.937-10.082zm-27 3c-1.6568542 0-3-1.3431458-3-3s1.3431458-3 3-3 3 1.3431458 3 3-1.3431458 3-3 3zm8 0c-1.6568542 0-3-1.3431458-3-3s1.3431458-3 3-3 3 1.3431458 3 3-1.3431458 3-3 3zm8 0c-1.2133867 0-2.3072956-.7309265-2.7716386-1.8519497s-.2076757-2.4113767.6503183-3.2693706c.8579939-.857994 2.1483474-1.1146613 3.2693706-.6503183s1.8519497 1.5582519 1.8519497 2.7716386c0 1.6568542-1.3431458 3-3 3zm.513-12.044c-.3294433-.1557308-.548097-.478336-.5707071-.8420305-.0226102-.3636946.1544029-.7108976.4620211-.9062332.3076182-.1953355.6971388-.2078777 1.016686-.0327363 4.746 2.418 7.579 6.465 7.579 10.825 0 .5522847-.4477153 1-1 1s-1-.4477153-1-1c0-3.593-2.425-6.974-6.487-9.044z"/><circle id="Oval" cx="45" cy="38" r="1"/></g></g></svg>