<svg height="512" viewBox="0 0 56 56" width="512" xmlns="http://www.w3.org/2000/svg"><g id="Page-1" fill="none" fill-rule="evenodd"><g id="129---World-User" fill="rgb(0,0,0)" fill-rule="nonzero"><path id="Shape" d="m47 46h-1.619c-1.3827118-1.2161092-1.8549786-3.1683587-1.181-4.882 1.4824352-.6477725 2.8043096-1.6135739 3.872-2.829l.074.046c1.5226667.9266667 3.048 1.8506667 4.576 2.772-.9811586 1.8635177-2.1729571 3.6082678-3.552 5.2-.7057078-.2019473-1.4359679-.3052606-2.17-.307zm-14.684-21.948c-.5903535-.1966145-1.1370734-.5056302-1.61-.91-.0306924-.0316016-.0641601-.0603838-.1-.086-2.012-1.809-2.539-5.154-2.644-7.465 2.622 1.809 6.8 1.63 10.879 1.454 3.344-.142 6.8-.294 8.643.812 4.222 2.534 1.605 9.72 1.578 9.793-.1147963.3072431-.0716286.6512485.115522.9206018.1871506.2693532.4944897.4298084.822478.4293982 1.1045695 0 2 .8954305 2 2s-.8954305 2-2 2c-.1149198.0005195-.2295676-.0112134-.342-.035-.500997-.1118544-1.0053152.1737964-1.167.661-1.0984742 3.7759651-4.5584998 6.3728648-8.491 6.3728648s-7.3925258-2.5968997-8.491-6.3728648c-.1352616-.408984-.5172295-.6853869-.948-.686-.0737167-.000085-.147199.0083034-.219.025-.1124324.0237866-.2270802.0355195-.342.035-1.1045695 0-2-.8954305-2-2s.8954305-2 2-2c.5522847 0 1-.4477153 1-1v-2.318c.2233959.1000788.4516844.1888576.684.266.5246705.174522 1.091478-.1093295 1.266-.634.1745219-.5246705-.1093295-1.091478-.634-1.266zm5.663 17.748c1.3339427.2719956 2.7090573.2719956 4.043 0-.3767663 2.0811175.356675 4.2083247 1.936 5.615-.1997614 2.0362778-1.9119472 3.5887153-3.958 3.5887153s-3.7582386-1.5524375-3.958-3.5887153c1.5791876-1.4067996 2.3129191-3.5337496 1.937-5.615zm18.021-13.8c.006331 3.8930871-.8091075 7.7436744-2.393 11.3-1.453-.876-2.9-1.756-4.34-2.63.3274137-.5329494.6113332-1.0914247.849-1.67 1.9328738-.0568229 3.5483473-1.4881956 3.8374888-3.4001651.2891414-1.9119694-.8308486-3.7570181-2.6604888-4.3828349.681-2.491 1.708-8.381-2.778-11.072-2.36-1.414-5.954-1.258-9.759-1.1h-.047c.1844835-.310194.3934833-.6051345.625-.882l.1-.132c1.8318329-2.3520345 2.8232159-5.24978784 2.816-8.231 0-.219-.008-.443-.014-.668-.011-.415-.021-.836 0-1.234 8.5399269 5.02229455 13.7780682 14.1947504 13.764 24.102zm-36.188-26.772c.1341113.47744933.315335.94039044.541 1.382.2770485.51199909.5866855 1.0056813.927 1.478.5677874.67658911.9609417 1.4821262 1.145 2.346.108 1.154-.678 2.19-1.589 3.39-.6448844.7865475-1.1940645 1.6469072-1.636 2.563-.1818841.4293534-.3420859.8675723-.48 1.313-.378 1.164-.65 1.889-1.243 2.138-.7288142.1339059-1.4815089.0079259-2.127-.356-.6271638-.2639439-1.2834114-.4525941-1.955-.562-2.2918808-.1963946-4.41352374 1.2227423-5.107 3.416-.59556536 2.0951928.00878652 4.3481613 1.573 5.864 1.5061513 1.4105672 3.5211369 2.1480476 5.582 2.043.7064743-.0398045 1.4100118-.1209434 2.107-.243 1.2059345-.3310155 2.4835147-.2919947 3.667.112 1.2573567.8030148 1.9464286 2.2529774 1.775 3.735-.2327188 1.7128059-.7936311 3.3646451-1.652 4.865l-.964 1.99c-.5033333 1.038-1.006 2.078-1.508 3.12-.848 1.765-1.809 3.532-3.386 4.066-.3695.1616511-.7910169.1547171-1.155-.019-.3268188-.3912428-.462764-.9075413-.371-1.409.02-.226.05-.452.08-.679.1215267-.6765642.1420835-1.3674069.061-2.05-.3-1.772-1.8-3.282-4.122-4.143-.484-.178-.981-.33-1.479-.483-1.05092036-.258022-2.05527546-.6780496-2.977-1.245-.63115255-.4523248-1.06688314-1.1275463-1.219-1.889-.08151442-.3762921-.0032997-.7695383.216-1.086.29308189-.3288091.64130759-.6039378 1.029-.813.62613347-.3447636 1.17533545-.813661 1.614-1.378 1.293-1.841.266-4.118-.616-5.665-1.17704068-2.2322941-2.57217696-4.3425843-4.165-6.3 3.29205441-7.44810833 9.6519244-13.10282583 17.434-15.501zm-19.812 26.772c-.00513182-3.1153238.51446883-6.2092634 1.537-9.152 1.20922716 1.6424979 2.29966498 3.3692194 3.263 5.167.965 1.691 1.2 2.846.719 3.53-.29467621.340485-.64918407.6241591-1.046.837-.60304994.3357808-1.1368412.7830388-1.573 1.318-.53980514.7482634-.74942245 1.685036-.58 2.592.24130166 1.293499.97423659 2.443257 2.045 3.208 1.09295634.6940155 2.29016523 1.2082143 3.546 1.523.462.142.925.283 1.371.447.772.286 2.593 1.112 2.841 2.589.0442696.4888161.0213903.9813922-.068 1.464-.035.257-.07.516-.092.788-.176234 1.1788113.257091 2.3665959 1.151 3.155.505167.3619905 1.1136293.5513678 1.735.54.4325936-.0033528.8617992-.0766318 1.271-.217 2.316-.783 3.563-3.04 4.551-5.095.5-1.0406667 1-2.0786667 1.5-3.114l.985-2.034c.9707961-1.7214947 1.592017-3.6177816 1.828-5.58.11-2.044-.74-4.58-2.882-5.639-1.5474348-.6102124-3.2482537-.7152229-4.859-.3-.6189954.1077105-1.2437071.1794973-1.871.215-1.514601.0848393-2.9991392-.4464349-4.116-1.473-1.029598-.9865483-1.43508448-2.4583566-1.056-3.833.4072251-1.2669059 1.6148976-2.1021033 2.944-2.036.5152442.0934789 1.0183858.2444214 1.5.45 1.1087171.5831821 2.4037344.7018921 3.6.33 1.484-.624 1.978-2.145 2.374-3.366.125-.385.248-.771.4-1.125.3828438-.7703689.8525645-1.4944098 1.4-2.158 1.015-1.34 2.167-2.857 1.985-4.787-.2006392-1.20855739-.7135803-2.3437154-1.488-3.293-.292556-.40472657-.5597353-.82720383-.8-1.265-.1591398-.31025215-.2890342-.63465343-.388-.969 2.0575247-.47331692 4.1617382-.71382722 6.273-.717 4.2782828-.01188665 8.5007533.97098289 12.334 2.871-.1087941.76722594-.1422869 1.54325351-.1 2.317.006.212.012.423.014.625.0080946 2.52958183-.8304159 4.989142-2.382 6.987l-.1.122c-.5793387.6229707-.9920838 1.3820778-1.2 2.207-3.866.1-7.456-.132-8.676-2.575-.1987834-.3986939-.6373345-.6178076-1.0755122-.5373591s-.7702935.441055-.8144878.8843591c-.037.37-.716 7.717 3 11.4v2.827c-1.9301688.4970711-3.1998799 2.3392973-2.9774542 4.3199936.2224258 1.9806963 1.8691116 3.4954206 3.8614542 3.5520064 1.0962882 2.7341264 3.2200137 4.9300068 5.916 6.117.6741416 1.7139446.2018815 3.666566-1.181 4.883h-1.619c-4.4162219.0049599-7.9950401 3.5837781-8 8v1c.0042909.2856969.0497589.569282.135.842-14.2604012-1.4973903-25.09895935-13.5032441-25.135-27.842zm53 27c0 .5522847-.4477153 1-1 1h-3v-2c0-.5522847-.4477153-1-1-1s-1 .4477153-1 1v2h-14v-2c0-.5522847-.4477153-1-1-1s-1 .4477153-1 1v2h-3c-.5522847 0-1-.4477153-1-1v-1c.0033074-3.3123376 2.6876624-5.9966926 6-6h1.083c.4856527 2.8893814 2.9870881 5.0054594 5.917 5.0054594s5.4313473-2.116078 5.917-5.0054594h1.083c.7398814.0011475 1.4730678.1401884 2.162.41l.017.006c2.3017989.8971916 3.8183869 3.1135296 3.821 5.584z"/></g></g></svg>