<svg height="512" viewBox="0 0 56 56" width="512" xmlns="http://www.w3.org/2000/svg"><g id="Page-1" fill="none" fill-rule="evenodd"><g id="130---World-Alert" fill="rgb(0,0,0)" fill-rule="nonzero" transform="translate(-1)"><path id="Rectangle-path" d="m37 49h2.001v2h-2.001z"/><path id="Shape" d="m17.473 47.679c.02-.285.057-.57.094-.852.0862631-.4651204.1084691-.9398581.066-1.411-.247-1.467-2.07-2.292-2.841-2.578-.467-.175-.945-.32-1.423-.467-1.2373203-.3101351-2.4169439-.8165562-3.494-1.5-1.07114641-.7715611-1.80303652-1.9268942-2.043-3.225-.16442351-.9020847.04572473-1.8322254.582-2.576.43714404-.5355714.97150958-.9837599 1.575-1.321.3954794-.2131578.7494374-.4956467 1.045-.834.481-.69.252-1.817-.724-3.539-1.26203435-2.4507147-2.82402739-4.7349196-4.65-6.8-.25-.257-.514-.511-.778-.765-.93283634-.8266774-1.73584277-1.7891389-2.382-2.855-4.64563765 13.6098087 1.78416787 28.5247608 14.869 34.491.022-.041.03-.086.053-.126l1.384-2.385c-.061-.038-.124-.071-.182-.114-.8968284-.7812634-1.331177-1.9673258-1.151-3.143z"/><path id="Shape" d="m6.271 20.369c.279.269.557.538.825.813 1.94775283 2.1837811 3.6122274 4.6045601 4.954 7.205.56.99 2.052 3.619.62 5.675-.4391678.5599653-.985889 1.0264463-1.608 1.372-.3906018.2124382-.7419995.4901066-1.039.821-.21624842.3136048-.29399669.7023462-.215 1.075.15185316.7679607.5897086 1.4495856 1.225 1.907.9057092.5551961 1.8916329.967375 2.923 1.222.516.158 1.032.317 1.534.5 1.362.505 3.711 1.714 4.116 4.131.0800496.6657811.0611787 1.3397413-.056 2-.032.243-.066.487-.083.732-.0882671.4886643.0369545.9917348.344 1.382l8.648-14.904c-.0874874-1.1652518-.7331331-2.2162423-1.733-2.821-1.1845772-.3981688-2.4605086-.4367912-3.667-.111-.6968309.1190394-1.4000344.1971731-2.106.234-2.0609765.1156636-4.0790319-.6200481-5.582-2.035-1.5651993-1.5165142-2.1689505-3.7712616-1.571-5.867.6896726-2.194343 2.8076875-3.6179812 5.1-3.428.6682845.1116554 1.3213308.3005891 1.946.563.6488776.3677401 1.4068881.4941932 2.14.357.6-.247.868-.971 1.245-2.136.141-.434.286-.882.473-1.311.4440704-.9172381.9963316-1.778027 1.645-2.564.909-1.2 1.694-2.229 1.585-3.381-.1845616-.8706619-.5805365-1.6825305-1.153-2.364-.3353583-.46688396-.6419275-.95378797-.918-1.458-1.257-2.411-1.015-5.169-.5-7.721-9.4444099 1.22034573-17.61408845 7.17351501-21.669 15.79.02468846.5550968.149353 1.1011816.368 1.612.55838457 1.0348635 1.30796132 1.9544439 2.209 2.71z"/><path id="Shape" d="m28.428 8.305c.779465.95441861 1.2964856 2.0956554 1.5 3.311.18 1.93-.97 3.444-1.986 4.779-.5478476.6629277-1.0176031 1.3866867-1.4 2.157-.154.352-.277.738-.4 1.123-.4 1.225-.891 2.751-2.382 3.369-1.2003881.3736372-2.5001579.2538079-3.612-.333-.4797153-.2041404-.9803762-.3550429-1.493-.45-1.3339442-.0644011-2.5452836.7739032-2.955 2.045-.3762568 1.3758664.0331579 2.8472243 1.066 3.831 1.1224785 1.018923 2.606295 1.545822 4.12 1.463.6285048-.0357241 1.2544971-.1068368 1.875-.213 1.6090541-.4083238 3.305503-.303432 4.852.3.9618967.5027051 1.7341026 1.3047463 2.2 2.285l5.455-9.4c.5694329-.9707226 1.6105862-1.5670427 2.736-1.5670427s2.1665671.5963201 2.736 1.5670427l4.353 7.5c.782762-1.2734404 1.7778083-2.403437 2.942-3.341l.171-.153c1.3616869-1.0497259 2.386458-2.4749504 2.948-4.1.337-1.353-.165-3.137-1.45-3.631-.2564202-.0857855-.5187919-.1526318-.785-.2-.7620891-.0989275-1.4817841-.4073683-2.079-.891-.8373032-.8618283-1.1717339-2.0941203-.885-3.261-.4210863.2114114-.8053468.4893081-1.138.823-.221.214-.426.432-.63.651-.6380718.77137-1.4263881 1.404881-2.317 1.862-.9469107.4048821-2.0229762.3786099-2.949-.072-.6837395-.3304636-1.1769926-.9576366-1.337-1.7-.0971706-1.1702089.3402839-2.3215597 1.19-3.132l.1-.122c1.5504935-1.9999888 2.3869275-4.46141393 2.376-6.992 0-.2-.008-.413-.014-.625-.0422869-.77374649-.0087941-1.54977406.1-2.317-3.8338516-1.90031913-8.0570419-2.88319685-12.336-2.871-.556 0-1.061.021-1.548.053-.545 2.453-.882 4.959.185 7 .238083.4329586.5022357.85106128.791 1.252z"/><path id="Shape" d="m38.685 33h-1.37c-.3855373-.0043822-.7553522.1526078-1.02.433-.2097663.2228098-.3154791.5239641-.291.829l.682 7.659c.0962618.6435427.6640254 1.1097656 1.314 1.079.6481474.0287184 1.2134208-.4364454 1.31-1.078l.69-7.66c.0244791-.3050359-.0812337-.6061902-.291-.829-.2655944-.2814235-.6370772-.4385056-1.024-.433z"/><path id="Shape" d="m39.006 23.571c-.2115729-.3539769-.5936133-.5707114-1.006-.5707114s-.7944271.2167345-1.006.5707114l-17.842 30.754c-.2007171.339198-.2007171.760802 0 1.1.2069296.3597246.5920298.579618 1.007.575h35.682c.4156824.0053459.8017196-.2146456 1.009-.575.2007171-.339198.2007171-.760802 0-1.1zm1.994 27.429c0 1.1045695-.8954305 2-2 2h-2c-1.1045695 0-2-.8954305-2-2v-2c0-1.1045695.8954305-2 2-2h2c1.1045695 0 2 .8954305 2 2zm.307-8.9c-.1773016 1.6812031-1.6170398 2.9437494-3.307 2.9-1.6873008.0400424-3.1228967-1.2215419-3.3-2.9l-.681-7.659c-.0774468-.8642602.2159197-1.7207302.807-2.356.6419808-.6930478 1.5443029-1.0863863 2.489-1.085h1.37c.9482156-.00498 1.855072.3878702 2.5 1.083.5910803.6352698.8844468 1.4917398.807 2.356z"/><path id="Shape" d="m53.72 41.1c-1.1466667-.6893333-2.2926667-1.3823333-3.438-2.079l2.322 4c.4013333-.6233333.7733333-1.2636667 1.116-1.921z"/><path id="Shape" d="m43.25 5.8c.0090297 2.98176727-.9809649 5.8806347-2.812 8.234l-.1.132c-.409.513-.872 1.095-.794 1.486.009.042.04.191.291.32.3853232.1775277.826938.1876631 1.22.028.6409091-.3554002 1.2075233-.8306908 1.669-1.4.227-.242.455-.486.692-.714 1.337-1.321 2.8-1.834 4.123-1.437.2536219.0781285.4657868.2538668.5897667.4885094.1239798.2346426.1496055.5089439.0712333.7624906-.424 1.337-.432 2.2-.026 2.563.345677.2305682.741894.374304 1.155.419.3670923.0684482.7282126.16575 1.08.291 2.383.918 3.232 3.763 2.679 5.986-.6475992 2.0173542-1.8856539 3.7939663-3.554 5.1l-.172.154c-1.427 1.279-2.9 2.6-2.9 4.177 0 .022 0 .042.005.063l1.565 2.7c.6728581.5484093 1.3907311 1.0391454 2.146 1.467 1.4813333.9 2.9576667 1.7933333 4.429 2.68 5.7431237-12.976494.8527176-28.1972058-11.374-35.4-.018.4-.008.819 0 1.234.009.224.015.448.017.666z"/></g></g></svg>