<svg height="512" viewBox="0 0 58 46" width="512" xmlns="http://www.w3.org/2000/svg"><g id="Page-1" fill="none" fill-rule="evenodd"><g id="131---Media" fill="rgb(0,0,0)" fill-rule="nonzero"><circle id="Oval" cx="35" cy="13" r="3"/><path id="Shape" d="m5 18.566v21.2c.01205338.6917329.5812269 1.2434691 1.273 1.234l32.366.0001201c-8.554-19.4641201-27.725-22.1001201-33.639-22.4341201z"/><path id="Shape" d="m52 0h-46c-3.3137085 0-6 2.6862915-6 6v34c0 3.3137085 2.6862915 6 6 6h46c3.3137085 0 6-2.6862915 6-6v-34c0-3.3137085-2.6862915-6-6-6zm-7.091 43h-38.636c-1.79624623.0083147-3.26033843-1.4387791-3.273-3.235v-33.53c.01266157-1.79622085 1.47675377-3.24331472 3.273-3.235.55228475 0 1 .44771525 1 1s-.44771525 1-1 1c-.69215677-.00946492-1.26149094.54287421-1.273 1.235v10.328c6.168.337 26.941 3.085 35.813 24.437h4.1c.5522847 0 1 .4477153 1 1s-.4477153 1-1 1zm-14.909-30c0-2.7614237 2.2385763-5 5-5s5 2.2385763 5 5-2.2385763 5-5 5c-2.7600532-.0033061-4.9966939-2.2399468-5-5zm25 26.765c-.0126616 1.7962209-1.4767538 3.2433147-3.273 3.235-.5522847 0-1-.4477153-1-1s.4477153-1 1-1c.6921568.0094649 1.2614909-.5428742 1.273-1.235v-19.011c-6.3349356.3401702-12.5227194 2.0381957-18.144 4.979-.3159167.1794471-.7043076.1734283-1.0145123-.0157217-.3102046-.18915-.4934121-.5316682-.4785544-.8946888.0148576-.3630205.2254424-.6894217.5500667-.8525895 5.9123546-3.0936403 12.4231087-4.87389 19.087-5.219v-12.516c-.0115091-.69212579-.5808432-1.24446492-1.273-1.235h-38.636c-.5522847 0-1-.44771525-1-1s.4477153-1 1-1h38.636c1.7962462-.00831472 3.2603384 1.43877915 3.273 3.235z"/></g></g></svg>