<svg height="512" viewBox="0 0 60 53" width="512" xmlns="http://www.w3.org/2000/svg"><g id="Page-1" fill="none" fill-rule="evenodd"><g id="134---Dictate" fill="rgb(0,0,0)" fill-rule="nonzero"><path id="Shape" d="m0 36c0 2.709.928 4.783 2 5.608v-11.216c-1.072.825-2 2.899-2 5.608z"/><path id="Shape" d="m30 24c-5.2826001.0015149-10.0390131 3.1995293-12.0337946 8.0910232s-.831233 10.5037052 2.9437946 14.1989768c-.21 1.73-1.15 3.98-3.91 6.32 0 0 7.03 1.97 10.01-2.96.9794495.2337607 1.9830423.3512382 2.99.35 7.1797017 0 13-5.8202983 13-13s-5.8202983-13-13-13zm-8 15c-1.1045695 0-2-.8954305-2-2s.8954305-2 2-2 2 .8954305 2 2-.8954305 2-2 2zm8 0c-1.1045695 0-2-.8954305-2-2s.8954305-2 2-2 2 .8954305 2 2-.8954305 2-2 2zm10-2c0 1.1045695-.8954305 2-2 2s-2-.8954305-2-2 .8954305-2 2-2 2 .8954305 2 2z"/><path id="Shape" d="m58 30.392v11.216c1.072-.825 2-2.9 2-5.608s-.928-4.783-2-5.608z"/><path id="Shape" d="m55 27h-2v-2c.0028333-4.3487909-1.2300386-8.6088748-3.555-12.284-.0494478-.0670683-.1072474-.1275563-.172-.18.7808589-1.1105791.716412-2.60763577-.157-3.647-4.7501341-5.63596767-11.7452534-8.8885586-19.116-8.8885586s-14.3658659 3.25259093-19.116 8.8885586c-.873412 1.03936423-.93785887 2.5364209-.157 3.647-.0647526.0524437-.1225522.1129317-.172.18-2.32496137 3.6751252-3.55783326 7.9352091-3.555 12.284v2h-2c-.55228475 0-1 .4477153-1 1v16c0 .5522847.44771525 1 1 1h4v-6c0-.5522847.44771525-1 1-1 .5522847 0 1 .4477153 1 1v6h1c.5522847 0 1-.4477153 1-1v-16c0-.5522847-.4477153-1-1-1h-1v2c0 .5522847-.4477153 1-1 1-.55228475 0-1-.4477153-1-1v-2-2c-.00257412-3.9705653 1.1227652-7.8601819 3.245-11.216.014065-.0326668.0264151-.0660456.037-.1 1.1527871.3603001 2.4092223-.0058318 3.188-.929 3.6101014-4.28464138 8.9272343-6.757488 14.53-6.757488s10.9198986 2.47284662 14.53 6.757488c.774229.9282032 2.0346539 1.2930735 3.185.922.0115489.0340197.0249011.0674003.04.1 2.1235091 3.3578294 3.2489009 7.2500548 3.245 11.223v2 2c0 .5522847-.4477153 1-1 1s-1-.4477153-1-1v-2h-1c-.5522847 0-1 .4477153-1 1v16c0 .5522847.4477153 1 1 1h1v-6c0-.5522847.4477153-1 1-1s1 .4477153 1 1v6h4c.5522847 0 1-.4477153 1-1v-16c0-.5522847-.4477153-1-1-1zm-45 5c.5522847 0 1 .4477153 1 1v2c0 .5522847-.4477153 1-1 1-.55228475 0-1-.4477153-1-1v-2c0-.5522847.44771525-1 1-1zm41 3c0 .5522847-.4477153 1-1 1s-1-.4477153-1-1v-2c0-.5522847.4477153-1 1-1s1 .4477153 1 1z"/></g></g></svg>