<svg height="512" viewBox="0 0 55 55" width="512" xmlns="http://www.w3.org/2000/svg"><g id="Page-1" fill="none" fill-rule="evenodd"><g id="135---Send" fill="rgb(0,0,0)" fill-rule="nonzero"><path id="Shape" d="m53.124.265-52.524 34.353c-.31019012.2034452-.48227373.5618831-.44704442.9311618s.27198222.6887135.61504442.8298382l13.043 5.362 22.789-24.424c.3772105-.4037201 1.0102798-.4252105 1.414-.048.4037201.3772105.4252105 1.0102798.048 1.414l-22.889 24.53 4.709 11.24c.1299327.2618768.3695794.4524215.654.52.2971946.0721789.6110788.0043917.852-.184l6.812-6.422 17.939-33.88c.1630135-.3232819.4880364-.5332019.8497552-.5488248s.7036308.1654918.8939108.4735147c.1902799.3080229.199205.694839.023334 1.0113101l-17.513 33.084 14.714 6.009c.283166.1155808.6036546.0952231.8699202-.0552578.2662655-.150481.4490271-.4145371.4960798-.7167422l8.186-52.488c.0607447-.39025754-.1138991-.77970847-.4457132-.99392855-.3318142-.21422007-.7586293-.21307258-1.0892868.00292855zm-39.2 37.971c-.2086862.5092955-.7896988.7542147-1.3.548l-7-2.858c-.51141568-.2087636-.75676364-.7925843-.548-1.304s.79258432-.7567636 1.304-.548l7 2.859c.5101589.2094715.7544316.7924154.546 1.303zm32.2-28.187-3.391 3.634c-.3772105.4037201-1.0102798.4252105-1.414.048-.4037201-.3772105-.4252105-1.0102798-.048-1.414l3.39-3.633c.2438338-.2613398.6085686-.37274396.9568124-.29224761.3482437.08049634.62709.34066388.7315.68250001.10441.34183614.0185214.71340782-.2253124.9747476zm-1.386 40.787c-.2086862.5092955-.7896988.7542147-1.3.548l-8.764-3.579c-.5114157-.2087636-.7567636-.7925843-.548-1.304s.7925843-.7567636 1.304-.548l8.764 3.579c.509927.2102541.7533237.7936904.544 1.304z"/></g></g></svg>