<svg height="512" viewBox="0 0 58 24" width="512" xmlns="http://www.w3.org/2000/svg"><g id="Page-1" fill="none" fill-rule="evenodd"><g id="136---Switch" fill="rgb(0,0,0)" fill-rule="nonzero"><path id="Shape" d="m12 5c-3.86599325 0-7 3.13400675-7 7 0 3.8659932 3.13400675 7 7 7 3.8659932 0 7-3.1340068 7-7-.0049584-3.86393756-3.1360624-6.99504164-7-7zm-2.4 5.2c-.33137086.4418278-.95817219.5313708-1.39999998.2-.4418278-.3313709-.53137085-.9581722-.20000002-1.4.94735505-1.25532936 2.4273235-1.99531358 4-2 .5522847 0 1 .44771525 1 1s-.4477153 1-1 1c-.9451309-.00365455-1.8358451.44170255-2.4 1.2zm6.556 4.572c-.925156 1.3914046-2.4850959 2.2276766-4.156 2.228-.5522847 0-1-.4477153-1-1s.4477153-1 1-1c1.0046319.001043 1.9430993-.5008493 2.5-1.337.3136322-.4406574.9207941-.5520789 1.3704531-.2514946.4496589.3005843.5788251.9042203.2915469 1.3624946z"/><path id="Shape" d="m46 0h-34c-6.627417 0-12 5.372583-12 12s5.372583 12 12 12h34c6.627417 0 12-5.372583 12-12s-5.372583-12-12-12zm-1 11h4c.5522847 0 1 .4477153 1 1s-.4477153 1-1 1h-4c-.5522847 0-1-.4477153-1-1s.4477153-1 1-1zm-33 10c-4.84103663.0017599-8.81619296-3.8262136-8.99699294-8.6638731-.18079997-4.83765959 3.4975371-8.95167041 8.32520034-9.31126307 4.8276631-.35959266 9.0748993 3.164075 9.6127926 7.97513617h19.059c.5522847 0 1 .4477153 1 1s-.4477153 1-1 1h-19.059c-.5134713 4.5517384-4.3603956 7.9937912-8.941 8zm39.947-2.25c-1.6419197 1.4496333-3.7567176 2.2497502-5.947 2.25h-7c-.5522847 0-1-.4477153-1-1s.4477153-1 1-1h7c1.7034148-.0002207 3.3481091-.6225374 4.625-1.75.4158202-.349063 1.0341976-.3025821 1.3931652.1047184.3589675.4073006.3273798 1.0266174-.0711652 1.3952816zm1.8-3.75c-.0846206-.0000137-.1689189-.010425-.251-.031-.2571007-.0661312-.4773552-.2317783-.612224-.4604364-.1348689-.228658-.1732827-.5015597-.106776-.7585636.1484208-.5714823.2233585-1.1595589.223-1.75 0-.5522847.4477153-1 1-1s1 .4477153 1 1c.0000302.75894-.0953851 1.5148712-.284 2.25-.1139767.4414298-.5120932.7498879-.968.75z"/></g></g></svg>