<svg height="512" viewBox="0 0 56 56" width="512" xmlns="http://www.w3.org/2000/svg"><g id="Page-1" fill="none" fill-rule="evenodd"><g id="137---Settings" fill="rgb(0,0,0)" fill-rule="nonzero"><path id="Shape" d="m55 31c.5522847 0 1-.4477153 1-1s-.4477153-1-1-1h-2.09c.1200121.6612656.1200121 1.3387344 0 2z"/><path id="Shape" d="m26 51c-.5522847 0-1 .4477153-1 1s.4477153 1 1 1h15.09c-.1200121-.6612656-.1200121-1.3387344 0-2z"/><path id="Shape" d="m27 1c0-.55228475-.4477153-1-1-1h-8c-.5522847 0-1 .44771525-1 1v2h10z"/><path id="Shape" d="m10.43 14.66c.2818423.1138372.6022726.0761395.85-.1l.81-.59c.9895088-.720152 2.3304912-.720152 3.32 0l.61.44c.285528.2100575.674472.2100575.96 0l.61-.44c.9895088-.720152 2.3304912-.720152 3.32 0l.61.44c.285528.2100575.674472.2100575.96 0l.61-.44c.9895088-.720152 2.3304912-.720152 3.32 0l.61.44c.285528.2100575.674472.2100575.96 0l.61-.44c.9895088-.720152 2.3304912-.720152 3.32 0l.81.59c.2477274.1761395.5681577.2138372.85.1.212674-.0834666.3700419-.2670626.42-.49.0083107-.0562639.011657-.1131497.01-.17v-8c0-.55228475-.4477153-1-1-1h-22c-.5522847 0-1 .44771525-1 1v8c-.00165695.0568503.0016893.1137361.01.17.0499581.2229374.207326.4065334.42.49z"/><path id="Shape" d="m43.34 28.4c-.4532962 1.0185079-.4532962 2.1814921 0 3.2.1611892.3806667.3841953.7320701.66 1.04.5273212.6023694 1.2245174 1.031145 2 1.23.3257307.0893041.6622628.1330533 1 .13 1.5896917.0022917 3.0284359-.9411471 3.66-2.4.4532962-1.0185079.4532962-2.1814921 0-3.2-.6315641-1.4588529-2.0703083-2.4022917-3.66-2.4-.3377372-.0030533-.6742693.0406959-1 .13-.7754826.198855-1.4726788.6276306-2 1.23-.2758047.3079299-.4988108.6593333-.66 1.04z"/><path id="Shape" d="m44 46.81v-2.81h-1.81c-1.0689456 1.8562997-3.0479231 3.0003513-5.19 3.0003513s-4.1210544-1.1440516-5.19-3.0003513h-5.81c-1.6568542 0-3-1.3431458-3-3s1.3431458-3 3-3h5.81c1.0689456-1.8562997 3.0479231-3.0003513 5.19-3.0003513s4.1210544 1.1440516 5.19 3.0003513h1.81v-2.81c-.9119956-.5219544-1.6680456-1.2780044-2.19-2.19h-15.81c-1.6568542 0-3-1.3431458-3-3s1.3431458-3 3-3h15.81c.5219544-.9119956 1.2780044-1.6680456 2.19-2.19v-13.81c-.0049422-1.6548028-1.3451972-2.9950578-3-3h-5v6c.0019991.1675397-.0113905.334909-.04.5-.1591178.9099793-.7804635 1.6715066-1.64 2.01-.3466609.1387199-.7166142.2099953-1.09.21-.6032625.0037979-1.1919314-.1854171-1.68-.54l-.82-.59c-.285528-.2100575-.674472-.2100575-.96 0l-.61.44c-.9895088.720152-2.3304912.720152-3.32 0l-.61-.44c-.285528-.2100575-.674472-.2100575-.96 0l-.61.44c-.9895088.720152-2.3304912.720152-3.32 0l-.61-.44c-.285528-.2100575-.674472-.2100575-.96 0l-.61.44c-.9895088.720152-2.3304912.720152-3.32 0l-.61-.44c-.285528-.2100575-.674472-.2100575-.96 0l-.82.59c-.8055372.5780257-1.8512113.7026006-2.77.33-.85953654-.3384934-1.48088222-1.1000207-1.64-2.01-.02860954-.165091-.04199909-.3324603-.04-.5v-2h-3c-.55228475 0-1 .4477153-1 1v38c0 .5522847.44771525 1 1 1h15c.5522847 0 1 .4477153 1 1s-.4477153 1-1 1h-15c-1.65685425 0-3-1.3431458-3-3v-38c0-1.6568542 1.34314575-3 3-3h3v-2h-5c-1.6548028.0049422-2.9950578 1.3451972-3 3v42c.0049422 1.6548028 1.3451972 2.9950578 3 3h38c.444546.0040499.8835497-.0988416 1.28-.3-.1748378-.2206056-.3319923-.4546656-.47-.7h-15.81c-1.6568542 0-3-1.3431458-3-3s1.3431458-3 3-3h15.81c.5219544-.9119956 1.2780044-1.6680456 2.19-2.19zm-5-36.81c1.6568542 0 3 1.3431458 3 3v11c0 .5522847-.4477153 1-1 1s-1-.4477153-1-1v-11c0-.5522847-.4477153-1-1-1s-1-.4477153-1-1 .4477153-1 1-1z"/><path id="Shape" d="m55 51h-2.09c.1200121.6612656.1200121 1.3387344 0 2h2.09c.5522847 0 1-.4477153 1-1s-.4477153-1-1-1z"/><path id="Shape" d="m47 48c-.3377372-.0030533-.6742693.0406959-1 .13-.7754826.198855-1.4726788.6276306-2 1.23-.2758047.3079299-.4988108.6593333-.66 1.04-.4532962 1.0185079-.4532962 2.1814921 0 3.2.0974269.2366897.2215644.4614793.37.67.3937496.5730238.9319108 1.0318407 1.56 1.33.5377596.2659254 1.1300888.4028802 1.73.4 1.5896917.0022917 3.0284359-.9411471 3.66-2.4.4532962-1.0185079.4532962-2.1814921 0-3.2-.6315641-1.4588529-2.0703083-2.4022917-3.66-2.4z"/><path id="Shape" d="m55 40h-12.09c.1200121.6612656.1200121 1.3387344 0 2h12.09c.5522847 0 1-.4477153 1-1s-.4477153-1-1-1z"/><path id="Shape" d="m26 40c-.5522847 0-1 .4477153-1 1s.4477153 1 1 1h5.09c-.1200121-.6612656-.1200121-1.3387344 0-2z"/><path id="Shape" d="m37 37c-1.5896917-.0022917-3.0284359.9411471-3.66 2.4-.4532962 1.0185079-.4532962 2.1814921 0 3.2.6335599 1.4571211 2.071101 2.3996229 3.66 2.3996229s3.0264401-.9425018 3.66-2.3996229c.4532962-1.0185079.4532962-2.1814921 0-3.2-.6315641-1.4588529-2.0703083-2.4022917-3.66-2.4z"/><path id="Shape" d="m26 29c-.5522847 0-1 .4477153-1 1s.4477153 1 1 1h15.09c-.1200121-.6612656-.1200121-1.3387344 0-2z"/></g></g></svg>