<svg height="512" viewBox="0 0 56 56" width="512" xmlns="http://www.w3.org/2000/svg"><g id="Page-1" fill="none" fill-rule="evenodd"><g id="138---Refresh" fill="rgb(0,0,0)" fill-rule="nonzero" transform="translate(0 -1)"><path id="Shape" d="m25 16.5c-.0025021 5.2098215 2.6139545 10.0719849 6.9633241 12.9399512s9.8490743 3.3575845 14.6366759 1.3030488h.011c7.1258177-3.0570314 10.8963401-10.9093655 8.8265978-18.3819075-2.0697423-7.47254207-9.3428931-12.26600309-17.0260693-11.22124404s-13.4122771 7.60626752-13.4115285 15.36015154zm27.231-2.141c.3540145-.4247069.985293-.4820145 1.41-.128.4247069.3540146.4820145.985293.128 1.41l-5 6c-.1899884.2285512-.4717943.3607512-.769.3607512s-.5790116-.1322-.769-.3607512l-5-6c-.3540145-.424707-.2967069-1.0559855.128-1.41.424707-.3540145 1.0559855-.2967069 1.41.128l4.231 5.079zm-12.231-7.359c4.9682782.00551113 8.9944889 4.0317218 9 9 0 .5522847-.4477153 1-1 1s-1-.4477153-1-1c0-3.8659932-3.1340068-7-7-7s-7 3.1340068-7 7 3.1340068 7 7 7c.5522847 0 1 .4477153 1 1s-.4477153 1-1 1c-4.9705627 0-9-4.0294373-9-9s4.0294373-9 9-9z"/><path id="Shape" d="m53.592 28.073c-1.5620931 1.765946-3.4639217 3.1991193-5.592 4.214v13.713c0 .5522847-.4477153 1-1 1s-1-.4477153-1-1v-12.9c-8.6530092 2.8816428-18.067611-1.371181-21.6254805-9.7687995-3.5578695-8.3976186-.0639956-18.11945388 8.0254805-22.3312005h-29.4c-1.65685425 0-3 1.34314575-3 3v46c.00495836 3.8639376 3.13606244 6.9950416 7 7h42c3.8639376-.0049584 6.9950416-3.1360624 7-7v-19c-.0004203-1.4256163-1.0091953-2.6518141-2.408-2.927zm-49.592 3.927h9c.5522847 0 1 .4477153 1 1s-.4477153 1-1 1h-9c-.55228475 0-1-.4477153-1-1s.44771525-1 1-1zm-1-4c0-.5522847.44771525-1 1-1h2c.55228475 0 1 .4477153 1 1s-.44771525 1-1 1h-2c-.55228475 0-1-.4477153-1-1zm1 9h2c.55228475 0 1 .4477153 1 1s-.44771525 1-1 1h-2c-.55228475 0-1-.4477153-1-1s.44771525-1 1-1zm0 8h9c.5522847 0 1 .4477153 1 1s-.4477153 1-1 1h-9c-.55228475 0-1-.4477153-1-1s.44771525-1 1-1zm2 7h-2c-.55228475 0-1-.4477153-1-1s.44771525-1 1-1h2c.55228475 0 1 .4477153 1 1s-.44771525 1-1 1zm14 0h-9c-.5522847 0-1-.4477153-1-1s.4477153-1 1-1h9c.5522847 0 1 .4477153 1 1s-.4477153 1-1 1zm0-5h-3c-.5522847 0-1-.4477153-1-1s.4477153-1 1-1h3c.5522847 0 1 .4477153 1 1s-.4477153 1-1 1zm0-8h-9c-.5522847 0-1-.4477153-1-1s.4477153-1 1-1h9c.5522847 0 1 .4477153 1 1s-.4477153 1-1 1zm0-5h-3c-.5522847 0-1-.4477153-1-1s.4477153-1 1-1h3c.5522847 0 1 .4477153 1 1s-.4477153 1-1 1zm0-5h-9c-.5522847 0-1-.4477153-1-1s.4477153-1 1-1h9c.5522847 0 1 .4477153 1 1s-.4477153 1-1 1zm1-15c0 .5522847-.4477153 1-1 1s-1-.4477153-1-1v-6c0-.55228475-.4477153-1-1-1h-12c-.55228475 0-1 .44771525-1 1v11c0 .5522847.44771525 1 1 1h12c.5522847 0 1-.4477153 1-1s.4477153-1 1-1 1 .4477153 1 1c0 1.6568542-1.3431458 3-3 3h-12c-1.65685425 0-3-1.3431458-3-3v-11c0-1.65685425 1.34314575-3 3-3h12c1.6568542 0 3 1.34314575 3 3zm5 31h9c.5522847 0 1 .4477153 1 1s-.4477153 1-1 1h-9c-.5522847 0-1-.4477153-1-1s.4477153-1 1-1zm2 7h-2c-.5522847 0-1-.4477153-1-1s.4477153-1 1-1h2c.5522847 0 1 .4477153 1 1s-.4477153 1-1 1zm14 0h-9c-.5522847 0-1-.4477153-1-1s.4477153-1 1-1h9c.5522847 0 1 .4477153 1 1s-.4477153 1-1 1zm0-5h-3c-.5522847 0-1-.4477153-1-1s.4477153-1 1-1h3c.5522847 0 1 .4477153 1 1s-.4477153 1-1 1zm6 6c0 .5522847-.4477153 1-1 1s-1-.4477153-1-1v-3c0-.5522847.4477153-1 1-1s1 .4477153 1 1z"/></g></g></svg>