<svg height="512" viewBox="0 0 56 56" width="512" xmlns="http://www.w3.org/2000/svg"><g id="Page-1" fill="none" fill-rule="evenodd"><g id="139---Printer-Settings" fill="rgb(0,0,0)" fill-rule="nonzero"><path id="Shape" d="m51.574 35.764c-.303269-1.1816053-.7726105-2.3142199-1.394-3.364-.1732633-.2924838-.1860701-.6529579-.034-.957l1.78-3.56-1.81-1.81-3.56 1.78c-.3040421.1520701-.6645162.1392633-.957-.034-1.0494682-.6213026-2.1817404-1.0906417-3.363-1.394-.3291294-.0845885-.5927766-.3305336-.7-.653l-1.257-3.772h-2.558l-1.258 3.773c-.1072234.3224664-.3708706.5684115-.7.653-1.1812596.3033583-2.3135318.7726974-3.363 1.394-.2924838.1732633-.6529579.1860701-.957.034l-3.56-1.78-1.81 1.81.854 1.707c0 .011.011.02.015.031l.911 1.822c.1520701.3040421.1392633.6645162-.034.957-.6213026 1.0494682-1.0906417 2.1817404-1.394 3.363-.0845885.3291294-.3305336.5927766-.653.7l-3.772 1.257v2.558l3.773 1.258c.3224664.1072234.5684115.3708706.653.7.3033583 1.1812596.7726974 2.3135318 1.394 3.363.1732633.2924838.1860701.6529579.034.957l-1.78 3.56 1.81 1.81 3.56-1.78c.3040421-.1520701.6645162-.1392633.957.034 1.0494682.6213026 2.1817404 1.0906417 3.363 1.394.3291294.0845885.5927766.3305336.7.653l1.257 3.772h2.558l1.258-3.773c.1072234-.3224664.3708706-.5684115.7-.653 1.1812596-.3033583 2.3135318-.7726974 3.363-1.394.2924838-.1732633.6529579-.1860701.957-.034l3.56 1.779 1.81-1.809-1.78-3.56c-.1520701-.3040421-.1392633-.6645162.034-.957.6213026-1.0494682 1.0906417-2.1817404 1.394-3.363.0845885-.3291294.3305336-.5927766.653-.7l3.772-1.257v-2.558l-3.773-1.258c-.3222177-.1070345-.5681138-.3702524-.653-.699zm-12.574 14.236c-6.0751322 0-11-4.9248678-11-11s4.9248678-11 11-11 11 4.9248678 11 11c-.0071635 6.0721626-4.9278374 10.9928365-11 11z"/><circle id="Oval" cx="39" cy="39" r="2"/><path id="Shape" d="m39 30c-4.9705627 0-9 4.0294373-9 9s4.0294373 9 9 9 9-4.0294373 9-9c-.0055111-4.9682782-4.0317218-8.9944889-9-9zm0 13c-2.209139 0-4-1.790861-4-4s1.790861-4 4-4 4 1.790861 4 4-1.790861 4-4 4z"/><path id="Shape" d="m53 16h-50c-1.65685425 0-3 1.3431458-3 3v24c.00525139 1.2667854.80564914 2.3937454 2 2.816v-11.816c0-.5522847.44771525-1 1-1s1 .4477153 1 1h14c.5522847 0 1 .4477153 1 1s-.4477153 1-1 1h-14v10h2v-6c0-.5522847.44771525-1 1-1s1 .4477153 1 1v11c-.06947975 2.6849222 2.0453565 4.9204784 4.73 5h22.883l-.879-2.636c-.9961696-.2959783-1.9587195-.6951416-2.872-1.191l-3.084 1.541c-.7692135.3846075-1.6981778.2344108-2.307-.373l-1.811-1.811c-.6085473-.6085249-.7595851-1.5381126-.375-2.308l1.542-3.084c-.4958584-.9132805-.8950217-1.8758304-1.191-2.872l-3.269-1.09c-.8163411-.272374-1.3669204-1.0364185-1.367-1.897v-2.558c-.0010693-.8619508.5502154-1.627624 1.368-1.9l3.268-1.089c.2959783-.9961696.6951416-1.9587195 1.191-2.872l-.427-.86h-12.4c-.5522847 0-1-.4477153-1-1s.4477153-1 1-1h11.4l-.111-.222c-.3845851-.7698874-.2335473-1.6994751.375-2.308l1.81-1.81c.6085249-.6085473 1.5381126-.7595851 2.308-.375l3.084 1.542c.9132805-.4958584 1.8758304-.8950217 2.872-1.191l1.09-3.269c.2719066-.8149466 1.0338912-1.3652017 1.893-1.367h2.558c.8619508-.0010693 1.627624.5502154 1.9 1.368l1.089 3.268c.9961696.2959783 1.9587195.6951416 2.872 1.191l3.084-1.542c.7694218-.3843528 1.6984131-.2337491 2.307.374l1.809 1.811c.6085473.6085249.7595851 1.5381126.375 2.308l-1.542 3.084c.4958584.9132805.8950217 1.8758304 1.191 2.872l2.636.879v-16.613c0-1.6568542-1.3431458-3-3-3zm-37 25h2c.5522847 0 1 .4477153 1 1s-.4477153 1-1 1h-2c-.5522847 0-1-.4477153-1-1s.4477153-1 1-1zm5 10h-5c-.5522847 0-1-.4477153-1-1s.4477153-1 1-1h5c.5522847 0 1 .4477153 1 1s-.4477153 1-1 1zm1-6c.5522847 0 1 .4477153 1 1s-.4477153 1-1 1h-6c-.5522847 0-1-.4477153-1-1s.4477153-1 1-1zm-18-15c0 .5522847-.44771525 1-1 1s-1-.4477153-1-1v-1c0-.5522847.44771525-1 1-1s1 .4477153 1 1zm1-9h-1c-.55228475 0-1-.4477153-1-1s.44771525-1 1-1h1c.55228475 0 1 .4477153 1 1s-.44771525 1-1 1zm4 10h-2c-.55228475 0-1-.4477153-1-1s.44771525-1 1-1h2c.55228475 0 1 .4477153 1 1s-.44771525 1-1 1zm1-10h-1c-.55228475 0-1-.4477153-1-1s.44771525-1 1-1h1c.5522847 0 1 .4477153 1 1s-.4477153 1-1 1z"/><path id="Shape" d="m46 5c-.0033061-2.76005315-2.2399468-4.99669388-5-5h-26c-2.7600532.00330612-4.9966939 2.23994685-5 5v9h36zm-30-1h-2c-.5522847 0-1-.44771525-1-1s.4477153-1 1-1h2c.5522847 0 1 .44771525 1 1s-.4477153 1-1 1zm23 0h-19c-.5522847 0-1-.44771525-1-1s.4477153-1 1-1h19c.5522847 0 1 .44771525 1 1s-.4477153 1-1 1z"/></g></g></svg>