<svg height="512" viewBox="0 0 58 58" width="512" xmlns="http://www.w3.org/2000/svg"><g id="Page-1" fill="none" fill-rule="evenodd"><g id="140---Dial" fill="rgb(0,0,0)" fill-rule="nonzero"><path id="Shape" d="m29 37c-3.3137085 0-6 2.6862915-6 6s2.6862915 6 6 6 6-2.6862915 6-6c-.0033074-3.3123376-2.6876624-5.9966926-6-6zm3 7c-.5522847 0-1-.4477153-1-1 0-1.1045695-.8954305-2-2-2s-2 .8954305-2 2c0 .5522847-.4477153 1-1 1s-1-.4477153-1-1c0-2.209139 1.790861-4 4-4s4 1.790861 4 4c0 .5522847-.4477153 1-1 1z"/><path id="Shape" d="m29 35c.7962036.0001184 1.5879289.1190963 2.349.353l-2.342-20.329-2.355 20.329c.760607-.2344364 1.5520834-.3534275 2.348-.353z"/><path id="Shape" d="m29 0c-16.0162577 0-29 12.9837423-29 29s12.9837423 29 29 29 29-12.9837423 29-29-12.9837423-29-29-29zm0 13c1.0422829-.0195503 1.9191791.7766715 2 1.816l2.483 21.556c2.9133786 1.9685891 4.1998732 5.6086768 3.1704749 8.9707382-1.0293983 3.3620615-4.1333523 5.6578785-7.6494749 5.6578785s-6.6200766-2.295817-7.6494749-5.6578785c-1.0293983-3.3620614.2570963-7.0021491 3.1704749-8.9707382l2.482-21.572c.0853018-1.031891.9577801-1.8198795 1.993-1.8zm-1-3v-2c0-.55228475.4477153-1 1-1s1 .44771525 1 1v2c0 .5522847-.4477153 1-1 1s-1-.4477153-1-1zm-8.634.313 1 1.733c.1814844.3095704.1831833.6926495.0044519 1.0038174-.1787315.311168-.5104885.5027136-.8693336.5019247s-.6897567-.1937913-.8671183-.5057421l-1-1.733c-.2716903-.47786-.1067416-1.0854205.3693057-1.36027453.4760473-.27485408 1.0846885-.11393908 1.3626943.36027453zm-5.95-2.113c.9844984-.74097377 2.0204447-1.41099709 3.1-2.005.3133219-.17184476.6945214-.16348061 1.0000043.02194176s.4888391.51973289.481.87700002c-.007839.35726712-.2056824.68321348-.5190043.85505822-.9961997.54863268-1.9522617 1.16718242-2.861 1.851-.172648.13067518-.3834765.2009513-.6.2-.4304304 0-.8125693-.27543009-.9486833-.68377223s.004339-.85796953.3486833-1.11622777zm-.37 10.433c.3119508.1773616.5049532.5082732.5057421.8671183s-.1907567.6906021-.5019247.8693336c-.3111679.1787314-.694247.1770325-1.0038174-.0044519l-1.733-1c-.3119508-.1773616-.50495322-.5082732-.5057421-.8671183-.00078889-.3588451.19075673-.6906021.5019247-.8693336.3111679-.1787314.694247-.1770325 1.0038174.0044519zm15.954 36.367c-10.146459.0044963-19.36767775-5.8965613-23.61410113-15.1116868-4.24642337-9.2151256-2.7414112-20.0589392 3.85410113-27.7693132.35898509-.4197364.9902636-.4689851 1.41-.11s.4689851.9902636.11 1.41c-7.69252545 9.0407353-7.59073406 22.3553327.2391188 31.2773979 7.8298528 8.9220653 21.0185128 10.7518491 30.9815579 4.2983558s13.6857333-19.2374855 8.7449884-30.0309503c-4.9407449-10.79346485-17.0498908-16.33038164-28.4456651-13.0068034-.342975.10003437-.7132646.00949498-.9713844-.23751288-.2581198-.24700785-.3648552-.61295779-.28-.96000001s.3484094-.62245275.6913844-.72248711c9.7651898-2.84380839 20.2919634.26752027 26.942097 7.963097 6.6501337 7.6955767 8.2024186 18.5622109 3.9728993 27.8119323-4.2295193 9.2497213-13.4641476 15.1839412-23.6349963 15.1879707zm8.634-42.954 1-1.733c.1773616-.3119508.5082732-.50495322.8671183-.5057421.3588451-.00078889.6906021.19075673.8693336.5019247.1787314.3111679.1770325.694247-.0044519 1.0038174l-1 1.733c-.1773616.3119508-.5082732.5049532-.8671183.5057421s-.6906021-.1907567-.8693336-.5019247c-.1787314-.3111679-.1770325-.694247.0044519-1.0038174zm7.32 6.588 1.733-1c.47786-.2716903 1.0854205-.1067416 1.3602745.3693057.2748541.4760473.1139391 1.0846885-.3602745 1.3626943l-1.733 1c-.3095704.1814844-.6926495.1831833-1.0038174.0044519-.311168-.1787315-.5027136-.5104885-.5019247-.8693336s.1937913-.6897567.5057421-.8671183z"/></g></g></svg>