<svg height="512" viewBox="0 0 58 59" width="512" xmlns="http://www.w3.org/2000/svg"><g id="Page-1" fill="none" fill-rule="evenodd"><g id="141---Calendar" fill="rgb(0,0,0)" fill-rule="nonzero"><path id="Shape" d="m0 53c0 3.3137085 2.6862915 6 6 6h46c3.3137085 0 6-2.6862915 6-6v-33h-58zm51 3h-2c-.5522847 0-1-.4477153-1-1s.4477153-1 1-1h2c.5522847 0 1 .4477153 1 1s-.4477153 1-1 1zm-12-27c.0049422-1.6548028 1.3451972-2.9950578 3-3h8c1.6548028.0049422 2.9950578 1.3451972 3 3v4c-.0049422 1.6548028-1.3451972 2.9950578-3 3-.5522847 0-1-.4477153-1-1s.4477153-1 1-1 1-.4477153 1-1v-4c0-.5522847-.4477153-1-1-1h-8c-.5522847 0-1 .4477153-1 1v4c0 .5522847.4477153 1 1 1h3c.5522847 0 1 .4477153 1 1s-.4477153 1-1 1h-3c-1.6548028-.0049422-2.9950578-1.3451972-3-3zm0 14c.0049422-1.6548028 1.3451972-2.9950578 3-3h8c1.6548028.0049422 2.9950578 1.3451972 3 3v4c-.0049422 1.6548028-1.3451972 2.9950578-3 3-.5522847 0-1-.4477153-1-1s.4477153-1 1-1 1-.4477153 1-1v-4c0-.5522847-.4477153-1-1-1h-8c-.5522847 0-1 .4477153-1 1v4c0 .5522847.4477153 1 1 1h3c.5522847 0 1 .4477153 1 1s-.4477153 1-1 1h-3c-1.6548028-.0049422-2.9950578-1.3451972-3-3zm-1 11h7c.5522847 0 1 .4477153 1 1s-.4477153 1-1 1h-7c-.5522847 0-1-.4477153-1-1s.4477153-1 1-1zm-16-25c.0049422-1.6548028 1.3451972-2.9950578 3-3h8c1.6548028.0049422 2.9950578 1.3451972 3 3v4c-.0049422 1.6548028-1.3451972 2.9950578-3 3-.5522847 0-1-.4477153-1-1s.4477153-1 1-1 1-.4477153 1-1v-4c0-.5522847-.4477153-1-1-1h-8c-.5522847 0-1 .4477153-1 1v4c0 .5522847.4477153 1 1 1h3c.5522847 0 1 .4477153 1 1s-.4477153 1-1 1h-3c-1.6548028-.0049422-2.9950578-1.3451972-3-3zm0 14c.0049422-1.6548028 1.3451972-2.9950578 3-3h8c1.6548028.0049422 2.9950578 1.3451972 3 3v4c-.0049422 1.6548028-1.3451972 2.9950578-3 3-.5522847 0-1-.4477153-1-1s.4477153-1 1-1 1-.4477153 1-1v-4c0-.5522847-.4477153-1-1-1h-8c-.5522847 0-1 .4477153-1 1v4c0 .5522847.4477153 1 1 1h3c.5522847 0 1 .4477153 1 1s-.4477153 1-1 1h-3c-1.6548028-.0049422-2.9950578-1.3451972-3-3zm-17-14c.0049422-1.6548028 1.3451972-2.9950578 3-3h8c1.6548028.0049422 2.9950578 1.3451972 3 3v4c-.0049422 1.6548028-1.3451972 2.9950578-3 3-.5522847 0-1-.4477153-1-1s.4477153-1 1-1 1-.4477153 1-1v-4c0-.5522847-.4477153-1-1-1h-8c-.55228475 0-1 .4477153-1 1v4c0 .5522847.44771525 1 1 1h3c.5522847 0 1 .4477153 1 1s-.4477153 1-1 1h-3c-1.6548028-.0049422-2.9950578-1.3451972-3-3zm0 14c.0049422-1.6548028 1.3451972-2.9950578 3-3h8c1.6548028.0049422 2.9950578 1.3451972 3 3v4c-.0049422 1.6548028-1.3451972 2.9950578-3 3-.5522847 0-1-.4477153-1-1s.4477153-1 1-1 1-.4477153 1-1v-4c0-.5522847-.4477153-1-1-1h-8c-.55228475 0-1 .4477153-1 1v4c0 .5522847.44771525 1 1 1h3c.5522847 0 1 .4477153 1 1s-.4477153 1-1 1h-3c-1.6548028-.0049422-2.9950578-1.3451972-3-3z"/><path id="Shape" d="m52 7h-3v-6c0-.55228475-.4477153-1-1-1s-1 .44771525-1 1v6h-36v-6c0-.55228475-.4477153-1-1-1-.55228475 0-1 .44771525-1 1v6h-3c-3.3137085 0-6 2.6862915-6 6v5h58v-5c0-3.3137085-2.6862915-6-6-6zm-41 6c0 .5522847-.4477153 1-1 1-.55228475 0-1-.4477153-1-1v-1c0-.5522847.44771525-1 1-1 .5522847 0 1 .4477153 1 1zm38 0c0 .5522847-.4477153 1-1 1s-1-.4477153-1-1v-1c0-.5522847.4477153-1 1-1s1 .4477153 1 1z"/></g></g></svg>