<svg height="512" viewBox="0 0 56 54" width="512" xmlns="http://www.w3.org/2000/svg"><g id="Page-1" fill="none" fill-rule="evenodd"><g id="142---Controller" fill="rgb(0,0,0)" fill-rule="nonzero" transform="translate(-1)"><path id="Shape" d="m14 40v-2h-2v2c0 .5522847-.4477153 1-1 1h-2v2h2c.5522847 0 1 .4477153 1 1v2h2v-2c0-.5522847.4477153-1 1-1h2v-2h-2c-.5522847 0-1-.4477153-1-1z"/><circle id="Oval" cx="39" cy="42" r="1"/><path id="Shape" d="m13 34c-4.418278 0-8 3.581722-8 8s3.581722 8 8 8 8-3.581722 8-8c-.0049599-4.4162219-3.5837781-7.9950401-8-8zm6 9c0 1.1045695-.8954305 2-2 2h-1v1c0 1.1045695-.8954305 2-2 2h-2c-1.1045695 0-2-.8954305-2-2v-1h-1c-1.1045695 0-2-.8954305-2-2v-2c0-1.1045695.8954305-2 2-2h1v-1c0-1.1045695.8954305-2 2-2h2c1.1045695 0 2 .8954305 2 2v1h1c1.1045695 0 2 .8954305 2 2z"/><circle id="Oval" cx="45" cy="36" r="1"/><path id="Shape" d="m32 26c0-.5522847-.4477153-1-1-1h-4c-.5522847 0-1 .4477153-1 1v2h6z"/><path id="Shape" d="m30 18c0-1.6568542 1.3431458-3 3-3h1c2.7600532-.0033061 4.9966939-2.2399468 5-5v-9c0-.55228475-.4477153-1-1-1s-1 .44771525-1 1v9c0 1.6568542-1.3431458 3-3 3h-1c-2.7600532.0033061-4.9966939 2.2399468-5 5v5h2z"/><path id="Shape" d="m45 30h-32c-5.29505583-.0015789-9.96527815 3.4675818-11.49316032 8.5374136-1.52788217 5.0698319.44776296 10.5418405 4.86195404 13.4663124s10.22342538 2.6100699 14.29620628-.773726c.1785892-.1479863.4030656-.2292927.635-.23h15.4c.2333088-.0002229.4593523.0811386.639.23 4.0731605 3.3841097 9.8830402 3.6982219 14.2973165.772987 4.4142764-2.9252348 6.3892227-8.3981641 4.860072-13.4681279-1.5291508-5.0699637-6.200841-8.5382023-11.4963885-8.5348591zm0 3c1.6568542 0 3 1.3431458 3 3s-1.3431458 3-3 3-3-1.3431458-3-3 1.3431458-3 3-3zm-32 19c-5.5228475 0-10-4.4771525-10-10s4.4771525-10 10-10 10 4.4771525 10 10c-.0060624 5.5203344-4.4796656 9.9939376-10 10zm9-19c0-.5522847.4477153-1 1-1h2c.5522847 0 1 .4477153 1 1s-.4477153 1-1 1h-2c-.5522847 0-1-.4477153-1-1zm5.707 7.707-2 2c-.3923789.3789722-1.0160848.3735524-1.4018186-.0121814s-.3911536-1.0094397-.0121814-1.4018186l2-2c.3923789-.3789722 1.0160848-.3735524 1.4018186.0121814s.3911536 1.0094397.0121814 1.4018186zm6 0-2 2c-.3923789.3789722-1.0160848.3735524-1.4018186-.0121814s-.3911536-1.0094397-.0121814-1.4018186l2-2c.3923789-.3789722 1.0160848-.3735524 1.4018186.0121814s.3911536 1.0094397.0121814 1.4018186zm1.293-6.707h-6c-.5522847 0-1-.4477153-1-1s.4477153-1 1-1h6c.5522847 0 1 .4477153 1 1s-.4477153 1-1 1zm4 11c-1.6568542 0-3-1.3431458-3-3s1.3431458-3 3-3 3 1.3431458 3 3-1.3431458 3-3 3zm6 6c-1.6568542 0-3-1.3431458-3-3s1.3431458-3 3-3 3 1.3431458 3 3-1.3431458 3-3 3zm6-6c-1.6568542 0-3-1.3431458-3-3s1.3431458-3 3-3 3 1.3431458 3 3-1.3431458 3-3 3z"/><circle id="Oval" cx="51" cy="42" r="1"/><circle id="Oval" cx="45" cy="48" r="1"/></g></g></svg>