<svg height="512" viewBox="0 0 56 55" width="512" xmlns="http://www.w3.org/2000/svg"><g id="Page-1" fill="none" fill-rule="evenodd"><g id="143---Wireless-Controller" fill="rgb(0,0,0)" fill-rule="nonzero" transform="translate(-1)"><circle id="Oval" cx="45" cy="49" r="1"/><circle id="Oval" cx="39" cy="43" r="1"/><circle id="Oval" cx="45" cy="37" r="1"/><path id="Shape" d="m14 41v-2h-2v2c0 .5522847-.4477153 1-1 1h-2v2h2c.5522847 0 1 .4477153 1 1v2h2v-2c0-.5522847.4477153-1 1-1h2v-2h-2c-.5522847 0-1-.4477153-1-1z"/><path id="Shape" d="m13 35c-4.418278 0-8 3.581722-8 8s3.581722 8 8 8 8-3.581722 8-8c-.0049599-4.4162219-3.5837781-7.9950401-8-8zm6 9c0 1.1045695-.8954305 2-2 2h-1v1c0 1.1045695-.8954305 2-2 2h-2c-1.1045695 0-2-.8954305-2-2v-1h-1c-1.1045695 0-2-.8954305-2-2v-2c0-1.1045695.8954305-2 2-2h1v-1c0-1.1045695.8954305-2 2-2h2c1.1045695 0 2 .8954305 2 2v1h1c1.1045695 0 2 .8954305 2 2z"/><path id="Shape" d="m32 27c0-.5522847-.4477153-1-1-1h-4c-.5522847 0-1 .4477153-1 1v2h6z"/><path id="Shape" d="m45 31h-32c-5.29505583-.0015789-9.96527815 3.4675818-11.49316032 8.5374136-1.52788217 5.0698319.44776296 10.5418405 4.86195404 13.4663124s10.22342538 2.6100699 14.29620628-.773726c.1785892-.1479863.4030656-.2292927.635-.23h15.4c.2333088-.0002229.4593523.0811386.639.23 4.0731605 3.3841097 9.8830402 3.6982219 14.2973165.772987 4.4142764-2.9252348 6.3892227-8.3981641 4.860072-13.4681279-1.5291508-5.0699637-6.200841-8.5382023-11.4963885-8.5348591zm0 3c1.6568542 0 3 1.3431458 3 3s-1.3431458 3-3 3-3-1.3431458-3-3 1.3431458-3 3-3zm-32 19c-5.5228475 0-10-4.4771525-10-10s4.4771525-10 10-10 10 4.4771525 10 10c-.0060624 5.5203344-4.4796656 9.9939376-10 10zm9-19c0-.5522847.4477153-1 1-1h2c.5522847 0 1 .4477153 1 1s-.4477153 1-1 1h-2c-.5522847 0-1-.4477153-1-1zm5.707 7.707-2 2c-.3923789.3789722-1.0160848.3735524-1.4018186-.0121814s-.3911536-1.0094397-.0121814-1.4018186l2-2c.3923789-.3789722 1.0160848-.3735524 1.4018186.0121814s.3911536 1.0094397.0121814 1.4018186zm6 0-2 2c-.3923789.3789722-1.0160848.3735524-1.4018186-.0121814s-.3911536-1.0094397-.0121814-1.4018186l2-2c.3923789-.3789722 1.0160848-.3735524 1.4018186.0121814s.3911536 1.0094397.0121814 1.4018186zm1.293-6.707h-6c-.5522847 0-1-.4477153-1-1s.4477153-1 1-1h6c.5522847 0 1 .4477153 1 1s-.4477153 1-1 1zm4 11c-1.6568542 0-3-1.3431458-3-3s1.3431458-3 3-3 3 1.3431458 3 3-1.3431458 3-3 3zm6 6c-1.6568542 0-3-1.3431458-3-3s1.3431458-3 3-3 3 1.3431458 3 3-1.3431458 3-3 3zm6-6c-1.6568542 0-3-1.3431458-3-3s1.3431458-3 3-3 3 1.3431458 3 3-1.3431458 3-3 3z"/><circle id="Oval" cx="51" cy="43" r="1"/><path id="Shape" d="m43.619 8.99c-.4423341.00053117-.8722631-.14617946-1.222-.417-7.8906456-6.09745169-18.9033544-6.09745169-26.794 0-.5655514.43693582-1.321245.53896307-1.9824182.26764907s-1.1273782-.87475019-1.223-1.583.1938668-1.41371325.7594182-1.85064907c9.3317508-7.20940817 22.3542492-7.20940817 31.686 0 .677527.5231625.9469965 1.41950064.6702756 2.22954223s-1.0382725 1.35416935-1.8942756 1.35345777z"/><path id="Shape" d="m38.9 15.45c-.4510845.0004542-.8889676-.1522056-1.242-.433-5.0696461-4.0226142-12.2423539-4.0226142-17.312 0-.8651541.6870422-2.1234578.5426541-2.8105-.3225s-.5426541-2.1234578.3225-2.8105c6.5268488-5.17874831 15.7611512-5.17874831 22.288 0 .6663271.529335.924725 1.4223479.6440209 2.2257112-.280704.8033633-1.0390294 1.3411218-1.8900209 1.3402888z"/><path id="Shape" d="m34.179 21.91c-.476689.0000367-.9377163-.1701888-1.3-.48-2.2345422-1.9066932-5.5234578-1.9066932-7.758 0-.8411573.6956132-2.0846963.5883292-2.7942859-.2410718s-.6231267-2.074561.1942859-2.7979282c3.7325794-3.1880583 9.2294206-3.1880583 12.962 0 .6356285.5444119.865076 1.4270186.5750614 2.212066-.2900147.7850474-1.0381578 1.3065096-1.8750614 1.306934z"/></g></g></svg>