<svg height="512" viewBox="0 0 56 56" width="512" xmlns="http://www.w3.org/2000/svg"><g id="Page-1" fill="none" fill-rule="evenodd"><g id="144---Paste" fill="rgb(0,0,0)" fill-rule="nonzero"><path id="Shape" d="m27 1c0-.55228475-.4477153-1-1-1h-8c-.5522847 0-1 .44771525-1 1v2h10z"/><path id="Shape" d="m10.431 14.658c.2809612.112925.6000619.0752507.847-.1l.813-.592c.988156-.7209096 2.328844-.7209096 3.317 0l.61.443c.2873039.209139.6766961.209139.964 0l.609-.443c.988156-.7209096 2.328844-.7209096 3.317 0l.61.443c.2873039.209139.6766961.209139.964 0l.609-.443c.988156-.7209096 2.328844-.7209096 3.317 0l.61.443c.2873039.209139.6766961.209139.964 0l.609-.443c.9880525-.7212269 2.3289475-.7212269 3.317 0l.814.592c.2470753.1748939.5659885.212546.847.1.2162682-.0780913.3749574-.2649412.417-.491.0092941-.0551816.0139769-.1110412.014-.167v-8c0-.55228475-.4477153-1-1-1h-22c-.5522847 0-1 .44771525-1 1v8c.0001069.0566185.0047888.1131357.014.169.0428754.2252105.2013881.4110923.417.489z"/><path id="Shape" d="m41.842 54c-.2588303-.000627-.5146585-.0554717-.751-.161-.6659308-.28881-1.0952493-.9471509-1.091-1.673v-4.179c-4.966053-.2596936-9.679833-2.2690548-13.306-5.672-5.106-4.867-7.694-12.376-7.694-22.315-.0005163-.5137531.3883485-.9443106.8995008-.9959422.5111523-.0516315.9782648.2924636 1.0804992.7959422.1.486 2.649 11.743 19.02 12.185v-5.152c-.0006117-.7236626.425508-1.3796393 1.0869332-1.6732455.6614253-.2936061 1.4337673-.1696257 1.9700668.3162455l.943.842v-15.318c0-1.65685425-1.3431458-3-3-3h-5v6c-.0004005.1675306-.014447.3347502-.042.5-.1586219.9084796-.7783125 1.6690778-1.636 2.008-.9214025.3724917-1.9693759.2472028-2.777-.332l-.813-.592c-.2873039-.209139-.6766961-.209139-.964 0l-.609.443c-.988156.7209096-2.328844.7209096-3.317 0l-.61-.443c-.2873039-.209139-.6766961-.209139-.964 0l-.609.443c-.988156.7209096-2.328844.7209096-3.317 0l-.61-.443c-.2873039-.209139-.6766961-.209139-.964 0l-.609.443c-.988156.7209096-2.328844.7209096-3.317 0l-.61-.443c-.2873039-.209139-.6766961-.209139-.964 0l-.813.592c-.8076241.5792028-1.8555975.7044917-2.777.332-.85715084-.3385589-1.47673939-1.0982744-1.636-2.006-.02747338-.165932-.04151892-.3338096-.042-.502v-2h-3c-.55228475 0-1 .4477153-1 1v38c0 .5522847.44771525 1 1 1h32c.5522847 0 1 .4477153 1 1s-.4477153 1-1 1h-32c-1.65685425 0-3-1.3431458-3-3v-38c0-1.6568542 1.34314575-3 3-3h3v-2h-5c-1.65685425 0-3 1.34314575-3 3v42c0 1.6568542 1.34314575 3 3 3h38c1.6568542 0 3-1.3431458 3-3v-.3l-.957.835c-.3283139.2993855-.7566785.4652385-1.201.465zm-2.842-44c1.6568542 0 3 1.3431458 3 3v9c0 .5522847-.4477153 1-1 1s-1-.4477153-1-1v-9c0-.5522847-.4477153-1-1-1s-1-.4477153-1-1 .4477153-1 1-1z"/><path id="Shape" d="m55.919 39.646-13.919-12.433v5.787c0 .5522847-.4477153 1-1 1-11.458 0-17.083-4.989-19.749-8.969.724 6.874 3 12.181 6.8 15.815 3.5102807 3.2630018 8.110673 5.1005916 12.903 5.154h.046c.5522847 0 1 .4477153 1 1v4.793z"/></g></g></svg>