<svg height="512" viewBox="0 0 56 56" width="512" xmlns="http://www.w3.org/2000/svg"><g id="Page-1" fill="none" fill-rule="evenodd"><g id="145---Trasnfer" fill="rgb(0,0,0)" fill-rule="nonzero"><path id="Shape" d="m30.293 48.293-2.586 2.586c-.2859943.2859079-.7160366.3714219-1.0896546.216678-.3736179-.1547439-.6172591-.5192821-.6173454-.923678v-16.172c0-.5522847-.4477153-1-1-1s-1 .4477153-1 1v16.172c-.0000863.4043959-.2437275.7689341-.6173454.923678-.373618.1547439-.8036603.0692299-1.0896546-.216678l-2.586-2.586c-.3923789-.3789722-1.0160848-.3735524-1.4018186.0121814s-.3911536 1.0094397-.0121814 1.4018186l2.568 2.568.044.044 3.388 3.388c.3950688.3791887 1.0189312.3791887 1.414 0l3.393-3.389.043-.043 2.569-2.568c.3903819-.3904999.3903819-1.0235001 0-1.414-.395712-.382399-1.023288-.382399-1.419 0z"/><path id="Shape" d="m17.707 40.707c.3903819-.3904999.3903819-1.0235001 0-1.414l-6-6c-.3950688-.3791887-1.0189312-.3791887-1.414 0l-6 6c-.39038194.3904999-.39038194 1.0235001 0 1.414.39506878.3791887 1.01893122.3791887 1.414 0l2.586-2.586c.28599425-.2859079.71603662-.3714219 1.08965456-.216678s.61725909.5192821.61734544.923678v16.172c0 .5522847.4477153 1 1 1s1-.4477153 1-1v-16.172c.0000863-.4043959.2437275-.7689341.6173454-.923678.373618-.1547439.8036603-.0692299 1.0896546.216678l2.586 2.586c.3950688.3791887 1.0189312.3791887 1.414 0z"/><path id="Shape" d="m11 8h45v-5c0-1.65685425-1.3431458-3-3-3h-50c-1.65685425 0-3 1.34314575-3 3v5h5c.55228475 0 1 .44771525 1 1s-.44771525 1-1 1h-5v39c0 1.6568542 1.34314575 3 3 3h5v-10.758l-.879.879c-1.18739336 1.1330821-3.05560664 1.1330821-4.243 0-1.17114581-1.1714996-1.17114581-3.0705004 0-4.242l6-6c1.1873934-1.1330821 3.0556066-1.1330821 4.243 0l6 6c1.1711458 1.1714996 1.1711458 3.0705004 0 4.242-1.1873934 1.1330821-3.0556066 1.1330821-4.243 0l-.878-.879v10.758h3.758l-.879-.879c-1.1711458-1.1714996-1.1711458-3.0705004 0-4.242 1.1873934-1.1330821 3.0556066-1.1330821 4.243 0l.878.879v-13.758c0-1.6568542 1.3431458-3 3-3s3 1.3431458 3 3v13.758l.879-.879c1.1873934-1.1330821 3.0556066-1.1330821 4.243 0 1.1711458 1.1714996 1.1711458 3.0705004 0 4.242l-.88.879h20.758c1.6568542 0 3-1.3431458 3-3v-39h-45c-.5522847 0-1-.44771525-1-1s.4477153-1 1-1zm30-5h11c.5522847 0 1 .44771525 1 1s-.4477153 1-1 1h-11c-.5522847 0-1-.44771525-1-1s.4477153-1 1-1zm-5 0h1c.5522847 0 1 .44771525 1 1s-.4477153 1-1 1h-1c-.5522847 0-1-.44771525-1-1s.4477153-1 1-1zm-24 0c.5522847 0 1 .44771525 1 1s-.4477153 1-1 1-1-.44771525-1-1 .4477153-1 1-1zm-8 2c-.55228475 0-1-.44771525-1-1s.44771525-1 1-1 1 .44771525 1 1-.44771525 1-1 1zm48 43h1c.5522847 0 1 .4477153 1 1s-.4477153 1-1 1h-1c-.5522847 0-1-.4477153-1-1s.4477153-1 1-1zm-7 0h3c.5522847 0 1 .4477153 1 1s-.4477153 1-1 1h-3c-.5522847 0-1-.4477153-1-1s.4477153-1 1-1zm-37-43c-.55228475 0-1-.44771525-1-1s.44771525-1 1-1 1 .44771525 1 1-.44771525 1-1 1z"/></g></g></svg>