<svg height="512" viewBox="0 0 56 56" width="512" xmlns="http://www.w3.org/2000/svg"><g id="Page-1" fill="none" fill-rule="evenodd"><g id="146---Minimise" fill="rgb(0,0,0)" fill-rule="nonzero"><path id="Shape" d="m26 42c0 2.209139-1.790861 4-4 4s-4-1.790861-4-4v-18c.0033074-3.3123376 2.6876624-5.9966926 6-6h18c2.209139 0 4 1.790861 4 4s-1.790861 4-4 4h-10.346l16.346 16.346v-37.346c-.0033061-2.76005315-2.2399468-4.99669388-5-5h-38c-2.76005315.00330612-4.99669388 2.23994685-5 5v38c.00330612 2.7600532 2.23994685 4.9966939 5 5h37.346l-16.346-16.346zm-7-40h24c1.6568542 0 3 1.34314575 3 3v11c0 .5522847-.4477153 1-1 1s-1-.4477153-1-1v-11c0-.55228475-.4477153-1-1-1h-24c-.5522847 0-1-.44771525-1-1s.4477153-1 1-1zm-6 0h2c.5522847 0 1 .44771525 1 1s-.4477153 1-1 1h-2c-.5522847 0-1-.44771525-1-1s.4477153-1 1-1zm3 44h-11c-1.65685425 0-3-1.3431458-3-3v-38c0-1.65685425 1.34314575-3 3-3h3c.55228475 0 1 .44771525 1 1s-.44771525 1-1 1h-3c-.55228475 0-1 .44771525-1 1v38c0 .5522847.44771525 1 1 1h11c.5522847 0 1 .4477153 1 1s-.4477153 1-1 1z"/><path id="Shape" d="m55.413 52.587-26.88-26.88c-.2859079-.2859943-.3714219-.7160366-.216678-1.0896546.1547439-.3736179.5192821-.6172591.923678-.6173454h12.76c1.1045695 0 2-.8954305 2-2s-.8954305-2-2-2h-18c-2.209139 0-4 1.790861-4 4v18c0 1.1045695.8954305 2 2 2s2-.8954305 2-2v-12.76c.0000863-.4043959.2437275-.7689341.6173454-.923678.373618-.1547439.8036603-.0692299 1.0896546.216678l26.88 26.88c.7864539.7575118 2.0303298.7601583 2.82.006l.006-.006c.7794319-.7807702.7794319-2.0452298 0-2.826z"/></g></g></svg>