<svg height="512" viewBox="0 0 57 57" width="512" xmlns="http://www.w3.org/2000/svg"><g id="Page-1" fill="none" fill-rule="evenodd"><g id="147---Maximise" fill="rgb(0,0,0)" fill-rule="nonzero"><path id="Shape" d="m44 0h-38c-3.3137085 0-6 2.6862915-6 6v38c0 3.3137085 2.6862915 6 6 6h38c.1070614.0036244.214223-.0030732.32-.02l-24.15-24.15c-.7499543-.7507884-1.1708345-1.7688148-1.17-2.83.0027681-1.6170068.978833-3.0732993 2.4734562-3.6904058 1.4946231-.6171065 3.2137842-.2736306 4.3565438.8704058l24.15 24.15c.016615-.1091707.0233091-.2196218.02-.33v-38c0-3.3137085-2.6862915-6-6-6zm-30 3h2c.5522847 0 1 .44771525 1 1s-.4477153 1-1 1h-2c-.5522847 0-1-.44771525-1-1s.4477153-1 1-1zm3 44h-11c-1.6548028-.0049422-2.9950578-1.3451972-3-3v-38c.0049422-1.6548028 1.3451972-2.9950578 3-3h3c.55228475 0 1 .44771525 1 1s-.44771525 1-1 1h-3c-.55228475 0-1 .44771525-1 1v38c0 .5522847.44771525 1 1 1h11c.5522847 0 1 .4477153 1 1s-.4477153 1-1 1zm30-30c0 .5522847-.4477153 1-1 1s-1-.4477153-1-1v-11c0-.55228475-.4477153-1-1-1h-24c-.5522847 0-1-.44771525-1-1s.4477153-1 1-1h24c1.6548028.0049422 2.9950578 1.3451972 3 3z"/><path id="Shape" d="m57 35v18c-.0027548 2.2079969-1.7920031 3.9972452-4 4h-18c-1.1045695 0-2-.8954305-2-2s.8954305-2 2-2h12.76c.4044441-.0016958.7680455-.2468472.9212679-.6211476s.0658935-.8040433-.2212679-1.0888524l-26.88-26.88c-.7754472-.7800749-.7754472-2.0399251 0-2.82l.01-.01c.7911495-.7520166 2.0342038-.7476086 2.82.01l26.88 26.88c.2881892.2823535.7171882.3652201 1.089802.2105091s.6167539-.5170681.620198-.9205091v-12.76c0-1.1045695.8954305-2 2-2s2 .8954305 2 2z"/></g></g></svg>