<svg height="512" viewBox="0 0 58 58" width="512" xmlns="http://www.w3.org/2000/svg"><g id="Page-1" fill="none" fill-rule="evenodd"><g id="148---Loop" fill="rgb(0,0,0)" fill-rule="nonzero"><path id="Shape" d="m29 0c-16.0162577 0-29 12.9837423-29 29s12.9837423 29 29 29 29-12.9837423 29-29-12.9837423-29-29-29zm-12.067 19.353 4.767-3.013c.684564-.4306842 1.5491305-.4552 2.257-.064.6371574.3337492 1.0382585.9917396 1.043 1.711 0 .5522847-.4477153 1-1 1s-1-.4477153-1-1c0 .018-.041.009-.092.009-.0480832-.0017601-.0956529.0103928-.137.035l-4.7 2.969 4.7 2.97c.0779863.0455214.1756323.0400091.248-.014-.0011543-.2614578.103507-.5122633.2901681-.6953456.1866611-.1830824.4394454-.2828693.7008319-.2766544.5561909.0147233.997307.4736622.99 1.03-.0041538.7186111-.4040045 1.3764424-1.04 1.711-.3297041.1810221-.6998705.2756278-1.076.275-.4177306.0006664-.8270177-.1176106-1.18-.341l-4.771-3.013c-.5788948-.3468478-.9331915-.97215-.9331915-1.647s.3542967-1.3001522.9331915-1.647zm17.107 22.371c-.6359955-.3345576-1.0358462-.9923889-1.04-1.711 0-.5522847.4477153-1 1-1s1 .4477153 1 1c0-.018.041-.009.092-.009.0480832.0017601.0956529-.0103928.137-.035l4.7-2.969-4.7-2.97c-.0781137-.0449882-.1754457-.0394936-.248.014.0011543.2614578-.103507.5122633-.2901681.6953456-.1866611.1830824-.4394454.2828693-.7008319.2766544-.5561909-.0147233-.997307-.4736622-.99-1.03.0041538-.7186111.4040045-1.3764424 1.04-1.711.7073491-.3918896 1.5720055-.3673604 2.256.064l4.771 3.013c.5788948.3468478.9331915.97215.9331915 1.647s-.3542967 1.3001522-.9331915 1.647l-4.767 3.014c-.6846287.4304711-1.5490779.4549836-2.257.064zm.2 8.645c-1.7149281.4203338-3.4743111.6321985-5.24.631-.5522847 0-1-.4477153-1-1s.4477153-1 1-1c1.6045354.001111 3.2033704-.1909373 4.762-.572.3522894-.1009376.731571-.0010928.9884992.2602195.2569282.2613122.3503421.6422287.243459.9927601-.1068831.3505313-.3969401.6145209-.7559582.6880204zm4.283-3.784c1.0040404-.5462187 1.9598166-1.1768236 2.857-1.885.4336897-.3339325 1.0552591-.257147 1.3946464.1722874s.2704641 1.0519247-.1546464 1.3967126c-.9863309.7793934-2.0371115 1.4735576-3.141 2.075-.484906.2645443-1.0924556.085906-1.3569999-.399-.2645444-.484906-.0859061-1.0924556.3989999-1.357zm3.477-15.585c0 .5522847-.4477153 1-1 1s-1-.4477153-1-1v-8c0-.5522847-.4477153-1-1-1h-13c-.5522847 0-1-.4477153-1-1s.4477153-1 1-1h13c1.6568542 0 3 1.3431458 3 3zm-26-4c0-.5522847.4477153-1 1-1s1 .4477153 1 1v8c0 .5522847.4477153 1 1 1h13c.5522847 0 1 .4477153 1 1s-.4477153 1-1 1h-13c-1.6568542 0-3-1.3431458-3-3zm-6.963-14.641c.66118725-.7915877 1.3680583-1.5438695 2.117-2.253.401511-.37969575 1.0348042-.36201099 1.4145.0395.3796957.401511.362011 1.0348042-.0395 1.4145-.6920237.6552417-1.3454546 1.3500755-1.957 2.081-.2280334.2774736-.58735268.4113507-.94135344.3507344-.35400077-.0606162-.64830735-.306415-.77103169-.6439496s-.05501557-.7149586.17738513-.9887848zm19.963 42.641c-14.3527783-.0159821-25.98401786-11.6472217-26-26-.00722696-3.5800019.7325338-7.1221344 2.172-10.4.12617922-.3515292.43773808-.603445.80789332-.653235.37015525-.04979.73720681.1108452.95178968.4165381s.24092888.7054884.068317 1.0366969c-1.32694271 3.0261195-2.0081144 6.2957436-2 9.6 0 9.7070939 5.8474123 18.4583648 14.8155976 22.1731088 8.9681854 3.714744 19.2910132 1.6614059 26.1549651-5.2025461 6.863952-6.8639519 8.9172901-17.1867797 5.2025461-26.1549651-3.714744-8.9681853-12.4660149-14.8155976-22.1731088-14.8155976-3.3042564-.0081144-6.5738805.67305729-9.6 2-.3294859.1561038-.7178184.12051515-1.0134419-.09287666-.2956236-.21339182-.4516812-.57076379-.4072679-.93264332.0444134-.36187952.2822581-.67090802.6207098-.80648002 3.2781616-1.43809177 6.8202823-2.1764877 10.4-2.168 14.3594035 0 26 11.6405965 26 26s-11.6405965 26-26 26zm16.191-14.272c2.4840884-3.4050365 3.8183175-7.5131593 3.809-11.728 0-.5522847.4477153-1 1-1s1 .4477153 1 1c.0095163 4.6361361-1.4584925 9.1547028-4.191 12.9-.3285027.4346947-.9445425.5263997-1.385415.2062358s-.544294-.9343454-.232585-1.3812358z"/></g></g></svg>