<svg height="512" viewBox="0 0 56 56" width="512" xmlns="http://www.w3.org/2000/svg"><g id="Page-1" fill="none" fill-rule="evenodd"><g id="149---Schedule-Save" fill="rgb(0,0,0)" fill-rule="nonzero"><path id="Shape" d="m22.12 42c-.1464913-1.2978795-.1464913-2.6081205 0-3.906-3.2391242-1.5451332-5.2481221-4.869563-5.1098832-8.4556824s2.3971972-6.7460267 5.745657-8.0372194c3.3484599-1.2911928 7.1441083-.4659901 9.6542262 2.0989018.4-.183.8-.356 1.22-.513 5.4293973-2.1136009 11.5512111-1.4198951 16.37 1.855v-22.042c0-1.65685425-1.3431458-3-3-3h-4v13c-.0033061 2.7600532-2.2399468 4.9966939-5 5h-17c-2.7600532-.0033061-4.9966939-2.2399468-5-5v-13h-7v13c0 1.6568542 1.3431458 3 3 3h1c.5522847 0 1 .4477153 1 1s-.4477153 1-1 1h-1c-2.76005315-.0033061-4.99669388-2.2399468-5-5v-13h-4c-1.65685425 0-3 1.34314575-3 3v44c0 1.6568542 1.34314575 3 3 3h3v-4c0-2.209139 1.790861-4 4-4zm22.88-39c0-.55228475.4477153-1 1-1s1 .44771525 1 1v2c0 .55228475-.4477153 1-1 1s-1-.44771525-1-1zm-41 44c0 .5522847-.44771525 1-1 1s-1-.4477153-1-1v-1c0-.5522847.44771525-1 1-1s1 .4477153 1 1zm0-4c0 .5522847-.44771525 1-1 1s-1-.4477153-1-1v-2c0-.5522847.44771525-1 1-1s1 .4477153 1 1zm1-38c0 .55228475-.44771525 1-1 1s-1-.44771525-1-1v-2c0-.55228475.44771525-1 1-1s1 .44771525 1 1z"/><path id="Shape" d="m21 16h17c1.6568542 0 3-1.3431458 3-3v-13h-23v13c0 1.6568542 1.3431458 3 3 3zm15-12h-1c-.5522847 0-1 .44771525-1 1v2c0 .55228475-.4477153 1-1 1s-1-.44771525-1-1v-2c0-1.65685425 1.3431458-3 3-3h1c1.6568542 0 3 1.34314575 3 3v6c0 1.6568542-1.3431458 3-3 3h-1c-1.6568542 0-3-1.3431458-3-3 0-.5522847.4477153-1 1-1s1 .4477153 1 1 .4477153 1 1 1h1c.5522847 0 1-.4477153 1-1v-6c0-.55228475-.4477153-1-1-1z"/><path id="Shape" d="m10 44c-1.1045695 0-2 .8954305-2 2v4h17.048c-1.2234992-1.8242682-2.1007801-3.8581499-2.588-6z"/><path id="Shape" d="m19 30c.0082578 2.4719666 1.3155053 4.7575608 3.442 6.018 1.0158675-4.7350646 3.9484812-8.8374653 8.1-11.331-2.0735612-1.7782331-4.9928981-2.1858707-7.4742519-1.0436568-2.4813537 1.1422139-4.0701585 3.625034-4.0677481 6.3566568z"/><path id="Shape" d="m50.354 27.813c-2.8482465-2.4647887-6.4873495-3.8240401-10.254-3.83-1.9696534.0043827-3.9220889.3669488-5.762 1.07-5.454877 1.9859991-9.3638194 6.8262835-10.157 12.577v.016c-.7065882 4.5720291.6271808 9.2239549 3.649 12.727 3.9041081 4.5862524 10.0538806 6.5900208 15.9104195 5.1840611s10.4264393-5.9831641 11.8230442-11.8419409-.6169823-12.0053414-5.2094637-15.9021202zm-9.647 12.894-4 4c-.3923789.3789722-1.0160848.3735524-1.4018186-.0121814s-.3911536-1.0094397-.0121814-1.4018186l3.707-3.707v-7.586c0-.5522847.4477153-1 1-1s1 .4477153 1 1v8c-.0000566.2651948-.1054506.5195073-.293.707zm.293 6.293v2c0 .5522847-.4477153 1-1 1s-1-.4477153-1-1v-2c0-.5522847.4477153-1 1-1s1 .4477153 1 1zm-7-7c0 .5522847-.4477153 1-1 1h-2c-.5522847 0-1-.4477153-1-1s.4477153-1 1-1h2c.5522847 0 1 .4477153 1 1zm-4.769-8.937c.6417408-.770841 1.3634459-1.4714279 2.153-2.09.4355346-.3174411 1.044286-.2326317 1.3764699.1917656s.2682913 1.0356981-.1444699 1.3822344c-.6777832.5327732-1.2969371 1.1361716-1.847 1.8-.3531861.4247069-.983793.482686-1.4085.1294999-.4247069-.353186-.4826861-.9837929-.1295-1.4084999zm18.222 20.783c-4.6548937 2.9365483-10.5991159 2.8707417-15.1878575-.16814-4.5887415-3.0388817-6.9691699-8.4860524-6.0821425-13.91786.1090978-.7019928.2763399-1.3937061.5-2.068.0957671-.3569027.3805502-.6319024.7405813-.7151396.3600311-.0832373.7366201.0388569.9793236.317507.2427034.2786501.3119572.6684323.1800951 1.0136326-.1885529.5744818-.3296922 1.1634544-.422 1.761-.7836372 4.7593616 1.3666321 9.5239389 5.454 12.085 3.9149422 2.4159525 8.8580578 2.4159525 12.773 0 5.1141643-3.225128 7.0301913-9.7513386 4.4711454-15.2292407s-8.7938142-8.1964033-14.5491454-6.3437593c-.5170805.1475676-1.0582834-.1401931-1.225095-.65139-.1668117-.511197.1004975-1.0627879.605095-1.24861 6.7133039-2.1607733 13.9858008 1.0093594 16.9722196 7.3983103 2.9864188 6.3889508.7542986 14.0018736-5.2092196 17.7666897zm-1.453-11.846c0-.5522847.4477153-1 1-1h2c.5522847 0 1 .4477153 1 1s-.4477153 1-1 1h-2c-.5522847 0-1-.4477153-1-1z"/></g></g></svg>