<svg height="512" viewBox="0 0 56 56" width="512" xmlns="http://www.w3.org/2000/svg"><g id="Page-1" fill="none" fill-rule="evenodd"><g id="150---Schedule-Transit" fill="rgb(0,0,0)" fill-rule="nonzero"><path id="Shape" d="m45 46c-2.7614237 0-5 2.2385763-5 5s2.2385763 5 5 5 5-2.2385763 5-5c-.0033061-2.7600532-2.2399468-4.9966939-5-5zm0 8c-1.2133867 0-2.3072956-.7309265-2.7716386-1.8519497s-.2076757-2.4113767.6503183-3.2693706c.8579939-.857994 2.1483474-1.1146613 3.2693706-.6503183s1.8519497 1.5582519 1.8519497 2.7716386c0 1.6568542-1.3431458 3-3 3z"/><circle id="Oval" cx="45" cy="51" r="1"/><path id="Shape" d="m14 46c-2.7614237 0-5 2.2385763-5 5s2.2385763 5 5 5 5-2.2385763 5-5c-.0033061-2.7600532-2.2399468-4.9966939-5-5zm0 8c-1.6568542 0-3-1.3431458-3-3s1.3431458-3 3-3 3 1.3431458 3 3-1.3431458 3-3 3z"/><path id="Shape" d="m14 28c7.7319865 0 14-6.2680135 14-14s-6.2680135-14-14-14-14 6.2680135-14 14c.00826732 7.7285595 6.27144053 13.9917327 14 14zm-3.707-11.707 2.713-2.715v-6.578c0-.55228475.4477153-1 1-1s1 .44771525 1 1v6.992c-.0000566.2651948-.1054506.5195073-.293.707l-3.006 3.008c-.3923789.3789722-1.0160848.3735524-1.4018186-.0121814-.38573377-.3857338-.39115361-1.0094397-.0121814-1.4018186zm4.713 3.707v1c0 .5522847-.4477153 1-1 1s-1-.4477153-1-1v-1c0-.5522847.4477153-1 1-1s1 .4477153 1 1zm-9.734-14.235c.65289326-.69188332 1.38531196-1.30413434 2.182-1.824.46281462-.30154747 1.08245253-.17081462 1.384.292s.17081462 1.08245253-.292 1.384c-.66369546.43298493-1.27392319.94285067-1.818 1.519-.37994593.39527758-1.0073227.41091274-1.40648655.03505173-.39916384-.37586102-.42124979-1.00304383-.04951345-1.40605173zm3.728 8.227c0 .5522847-.44771525 1-1 1h-1c-.55228475 0-1-.4477153-1-1s.44771525-1 1-1h1c.55228475 0 1 .4477153 1 1zm-6.182-4.356c.13004467-.33297154.4278491-.57127192.78123325-.62513569.35338414-.05386378.70866054.08489224.93200001.364s.28081142.65616419.15076674.98913569c-1.59457068 4.085343-.34124808 8.7329496 3.09114411 11.4626687 3.43239219 2.7297192 8.24285029 2.9045272 11.86431899.4311395 3.6214688-2.4733878 5.2088204-7.0177666 3.9149799-11.2080721-1.2938405-4.19030539-5.1669349-7.04866246-9.552443-7.0497361-.6005656.00006892-1.1999323.05361369-1.791.16-.351728.06341465-.7105693-.06563244-.941352-.33853048s-.2984453-.64818733-.1775-.98450001c.1209453-.33631269.412124-.58255487.763852-.64596951 4.9689335-.9031705 9.9715552 1.40142416 12.5142114 5.76501408 2.5426561 4.36358992 2.0810945 9.85215452-1.1546105 13.72981232-3.235705 3.8776579-8.5529551 5.3144015-13.30126385 3.5940582-4.74830875-1.7203434-7.91130705-6.2295365-7.91233705-11.2798846-.00262341-1.4930197.27484119-2.9732832.818-4.364zm16.182 4.356c0-.5522847.4477153-1 1-1h1c.5522847 0 1 .4477153 1 1s-.4477153 1-1 1h-1c-.5522847 0-1-.4477153-1-1z"/><circle id="Oval" cx="14" cy="51" r="1"/><path id="Shape" d="m31 39h5v-29c-.0033061-2.76005315-2.2399468-4.99669388-5-5h-3.782c3.3209653 4.86975417 3.6939165 11.1715238.9705251 16.398995s-8.1015473 8.5330473-13.9954895 8.602048c-5.89394221.0690008-11.34801063-3.1097616-14.1930356-8.272043v14.271c0 1.6568542 1.34314575 3 3 3z"/><path id="Shape" d="m40 32v-10c0-1.6568542 1.3431458-3 3-3h5.046l-1.238-1.61c-.1898126-.2450802-.4820128-.3889667-.792-.39h-8.016v22h9c.5522847 0 1 .4477153 1 1s-.4477153 1-1 1h-43v6c0 1.1045695.8954305 2 2 2h1.3c.88802818-2.9612495 3.6134643-4.989285 6.705-4.989285s5.8169718 2.0280355 6.705 4.989285h17.59c.8880282-2.9612495 3.6134643-4.989285 6.705-4.989285s5.8169718 2.0280355 6.705 4.989285h2.29c1.1045695 0 2-.8954305 2-2v-12h-13c-1.6568542 0-3-1.3431458-3-3zm-15 15h-2c-.5522847 0-1-.4477153-1-1s.4477153-1 1-1h2c.5522847 0 1 .4477153 1 1s-.4477153 1-1 1zm11 0h-7c-.5522847 0-1-.4477153-1-1s.4477153-1 1-1h7c.5522847 0 1 .4477153 1 1s-.4477153 1-1 1zm15-8h2c.5522847 0 1 .4477153 1 1s-.4477153 1-1 1h-2c-.5522847 0-1-.4477153-1-1s.4477153-1 1-1z"/><path id="Shape" d="m55.793 29.071-6.208-8.071h-6.585c-.5522847 0-1 .4477153-1 1v10c0 .5522847.4477153 1 1 1h13.0000003l-.0000003-3.319c.0001716-.2205994-.0726059-.4350647-.207-.61zm-9.793.929c0 .5522847-.4477153 1-1 1s-1-.4477153-1-1v-1c0-.5522847.4477153-1 1-1s1 .4477153 1 1zm0-5c0 .5522847-.4477153 1-1 1s-1-.4477153-1-1v-1c0-.5522847.4477153-1 1-1s1 .4477153 1 1z"/></g></g></svg>