<?xml version="1.0" encoding="iso-8859-1"?>
<!-- Generator: Adobe Illustrator 19.0.0, SVG Export Plug-In . SVG Version: 6.00 Build 0)  -->
<svg version="1.1" id="Capa_1" xmlns="http://www.w3.org/2000/svg" xmlns:xlink="http://www.w3.org/1999/xlink" x="0px" y="0px"
	 viewBox="0 0 511.968 511.968" style="enable-background:new 0 0 511.968 511.968;" xml:space="preserve">
<g>
	<path style="fill:#F44336;" d="M475.584,122.768C462.56,99.6,448.448,95.376,419.68,93.744S318.656,90.992,256,90.992
		s-135.04,0.8-163.744,2.752s-42.88,5.856-56,29.024S16,185.744,16,255.984v0.256c0,69.824,6.912,109.984,20.32,132.864
		c13.408,22.88,27.264,27.36,56,29.312s100.992,2.624,163.744,2.624s134.88-0.992,163.616-2.624
		c28.736-1.632,42.88-6.176,55.904-29.312c13.6-22.88,20.416-63.04,20.416-132.864v-0.256
		C496,185.744,489.184,145.936,475.584,122.768z"/>
	<polygon style="fill:#FAFAFA;" points="208,332.784 208,179.184 336,255.984 	"/>
</g>
<path d="M256,431.984c-58.656,0-134.016-0.896-164.608-2.592c-28.107,2.355-55.025-11.816-68.992-36.32
	C6.848,367.472,0,325.104,0,256.144s6.976-111.392,22.592-137.6c13.872-24.475,40.824-38.521,68.832-35.872
	c29.952-1.984,104.704-2.688,164.576-2.688s134.4,0.704,164.704,2.688c27.966-2.614,54.85,11.48,68.608,35.968
	c15.68,26.016,22.656,68.352,22.656,137.28c0,69.408-7.008,111.712-22.752,137.6c-13.889,24.31-40.611,38.364-68.512,36.032
	C389.92,431.088,314.624,431.984,256,431.984z M256,111.984c-59.392,0-133.344,0.672-162.688,2.624
	c-26.976,1.504-34.208,4.896-43.2,20.288C34.524,173.242,28.315,214.755,32,255.984c-3.703,41.127,2.474,82.543,18.016,120.8
	c9.056,15.488,16.352,18.944,43.328,20.736c52.64,2.944,272.352,2.944,325.44,0c26.88-1.76,34.112-5.216,42.976-20.48
	c15.755-38.234,22.014-79.716,18.24-120.896c3.699-41.216-2.5-82.719-18.08-121.056l-0.16-0.256
	c-8.896-15.328-16-18.72-42.976-20.224C389.184,112.656,312.672,111.984,256,111.984z"/>
<path d="M208,351.984c-8.837,0-16-7.163-16-16v-160c0-8.837,7.163-16,16-16c2.999,0,5.937,0.843,8.48,2.432l128,80
	c7.493,4.683,9.771,14.555,5.088,22.048c-1.288,2.06-3.028,3.8-5.088,5.088l-128,80C213.937,351.141,210.999,351.984,208,351.984z
	 M224,204.784v102.4l81.824-51.2L224,204.784z"/>
<g>
</g>
<g>
</g>
<g>
</g>
<g>
</g>
<g>
</g>
<g>
</g>
<g>
</g>
<g>
</g>
<g>
</g>
<g>
</g>
<g>
</g>
<g>
</g>
<g>
</g>
<g>
</g>
<g>
</g>
</svg>
