<?xml version="1.0" encoding="iso-8859-1"?>
<!-- Generator: Adobe Illustrator 19.0.0, SVG Export Plug-In . SVG Version: 6.00 Build 0)  -->
<svg version="1.1" id="Capa_1" xmlns="http://www.w3.org/2000/svg" xmlns:xlink="http://www.w3.org/1999/xlink" x="0px" y="0px"
	 viewBox="0 0 512 512" style="enable-background:new 0 0 512 512;" xml:space="preserve">
<circle style="fill:#FFC107;" cx="256" cy="256" r="256"/>
<g>
	<circle style="fill:#673AB7;" cx="176" cy="144" r="32"/>
	<circle style="fill:#673AB7;" cx="336" cy="144" r="32"/>
</g>
<path style="fill:#D32F2F;" d="M64,240v16c0,106.039,85.961,192,192,192s192-85.961,192-192v-16H64z"/>
<path style="fill:#FAFAFA;" d="M64,240v16c0.064,10.728,1.028,21.433,2.88,32h378.24c1.852-10.567,2.816-21.272,2.88-32v-16H64z"/>
<path d="M256,512C114.615,512,0,397.385,0,256S114.615,0,256,0s256,114.615,256,256C511.841,397.319,397.319,511.841,256,512z
	 M256,32C132.288,32,32,132.288,32,256s100.288,224,224,224s224-100.288,224-224C479.859,132.347,379.653,32.141,256,32z"/>
<path d="M176,192c-26.51,0-48-21.49-48-48s21.49-48,48-48s48,21.49,48,48S202.51,192,176,192z M176,128c-8.837,0-16,7.163-16,16
	s7.163,16,16,16s16-7.163,16-16S184.837,128,176,128z"/>
<path d="M336,192c-26.51,0-48-21.49-48-48s21.49-48,48-48s48,21.49,48,48S362.51,192,336,192z M336,128c-8.837,0-16,7.163-16,16
	s7.163,16,16,16s16-7.163,16-16S344.837,128,336,128z"/>
<path d="M256,448c-105.995-0.106-191.894-86.005-192-192v-16c0-8.837,7.163-16,16-16h352c8.837,0,16,7.163,16,16v16
	C447.894,361.995,361.995,447.894,256,448z M96,256c0,88.366,71.634,160,160,160s160-71.634,160-160H96z"/>
<path d="M425.28,320H86.72c-8.837,0-16-7.163-16-16s7.163-16,16-16h338.56c8.837,0,16,7.163,16,16S434.117,320,425.28,320z"/>
<g>
</g>
<g>
</g>
<g>
</g>
<g>
</g>
<g>
</g>
<g>
</g>
<g>
</g>
<g>
</g>
<g>
</g>
<g>
</g>
<g>
</g>
<g>
</g>
<g>
</g>
<g>
</g>
<g>
</g>
</svg>
