<?xml version="1.0" encoding="iso-8859-1"?>
<!-- Generator: Adobe Illustrator 19.0.0, SVG Export Plug-In . SVG Version: 6.00 Build 0)  -->
<svg version="1.1" id="Capa_1" xmlns="http://www.w3.org/2000/svg" xmlns:xlink="http://www.w3.org/1999/xlink" x="0px" y="0px"
	 viewBox="0 0 512 512" style="enable-background:new 0 0 512 512;" xml:space="preserve">
<path style="fill:#757575;" d="M256,0C114.615,0,0,114.615,0,256s114.615,256,256,256s256-114.615,256-256
	C511.841,114.681,397.319,0.159,256,0z M256,32c43.544-0.019,86.137,12.743,122.496,36.704
	c-17.188,11.194-26.383,31.292-23.616,51.616c3.327,20.532,11.487,39.979,23.808,56.736c18.139,23.651,28.473,52.358,29.568,82.144
	c-5.248,15.552-18.56,50.752-32.992,88.352L309.12,157.376c1.344-0.352,2.848-0.576,4.128-0.992
	c8.483-2.474,13.354-11.357,10.88-19.84c-2.474-8.483-11.357-13.354-19.84-10.88c-0.389,0.113-0.773,0.241-1.152,0.384
	c-17.448,3.787-35.318,5.272-53.152,4.416h-8.864c-17.823,0.852-35.682-0.633-53.12-4.416c-8.483-2.474-17.366,2.397-19.84,10.88
	c-2.342,8.031,1.898,16.511,9.728,19.456c7.444,2.246,15.101,3.715,22.848,4.384l39.36,102.4l-37.216,93.824L139.296,158.08
	c2.336-0.544,4.832-0.96,6.976-1.696c8.271-3.11,12.454-12.337,9.344-20.608c-2.945-7.83-11.425-12.07-19.456-9.728
	c-17.451,3.773-35.318,5.257-53.152,4.416h-4.384c-2.88,0-5.248-0.224-7.712-0.416C112.587,68.757,181.882,32.049,256,32z M32,256
	c0.039-24.455,4.104-48.737,12.032-71.872l98.176,264.48C74.017,408.391,32.119,335.167,32,256z M192.288,470.656L257.056,307.2
	L320,470.592c-41.631,12.501-86.017,12.501-127.648,0L192.288,470.656z M370.528,448.256c20.736-53.152,56.48-145.216,67.2-176.352
	h0.384c0.576-1.587,0.994-3.227,1.248-4.896c3.648-10.048,6.688-19.2,9.184-26.976c7.04-21.662,12.211-43.887,15.456-66.432
	c40.718,102.003,1.047,218.464-93.472,274.4V448.256z"/>
<g>
	<path d="M256,512C114.615,512,0,397.385,0,256S114.615,0,256,0s256,114.615,256,256C511.841,397.319,397.319,511.841,256,512z
		 M256,32C132.288,32,32,132.288,32,256s100.288,224,224,224s224-100.288,224-224C479.859,132.347,379.653,32.141,256,32z"/>
</g>
<g>
	<path d="M255.584,162.464h-14.368c-21.28,0.971-42.59-1.076-63.296-6.08c-8.483-2.474-13.354-11.357-10.88-19.84
		c2.474-8.483,11.357-13.354,19.84-10.88c0.389,0.113,0.773,0.241,1.152,0.384c17.422,3.816,35.275,5.301,53.088,4.416h8.864
		c17.835,0.905,35.711-0.58,53.152-4.416c8.271-3.11,17.498,1.073,20.608,9.344S322.671,152.89,314.4,156
		c-0.379,0.143-0.763,0.271-1.152,0.384C294.426,161.212,274.999,163.261,255.584,162.464z"/>
</g>
<path d="M340.8,496.32c-6.616-0.011-12.543-4.094-14.912-10.272L197.472,152.192c-3.98-7.889-0.811-17.512,7.078-21.492
	s17.512-0.811,21.492,7.078c0.487,0.965,0.875,1.978,1.158,3.021l128.544,333.76c3.186,8.242-0.913,17.507-9.155,20.693
	c-0.01,0.004-0.019,0.008-0.029,0.011C344.718,495.956,342.768,496.314,340.8,496.32z"/>
<path d="M374.4,409.92c-6.822,0.009-12.899-4.308-15.136-10.752l-86.4-248.512c-2.907-8.359,1.513-17.493,9.872-20.4
	c8.359-2.907,17.493,1.513,20.4,9.872l86.4,248.544c2.889,8.351-1.538,17.462-9.888,20.352
	C377.962,409.618,376.188,409.921,374.4,409.92z"/>
<g>
	<path d="M88.64,162.464H78.592c-13.523,0.392-26.997-1.78-39.712-6.4c-8.17-3.366-12.065-12.718-8.699-20.888
		s12.718-12.065,20.888-8.699c0.14,0.058,0.28,0.118,0.419,0.18l0,0c8.749,2.825,17.914,4.145,27.104,3.904h4.416
		c17.834,0.86,35.704-0.625,53.152-4.416c8.271-3.11,17.498,1.073,20.608,9.344c3.11,8.271-1.073,17.498-9.344,20.608
		c-0.379,0.143-0.763,0.271-1.152,0.384C127.456,161.276,108.04,163.292,88.64,162.464z"/>
</g>
<g>
	<path d="M171.168,496.576c-6.7-0.002-12.69-4.178-15.008-10.464L30.176,146.784c-3.075-8.289,1.151-17.501,9.44-20.576
		s17.501,1.151,20.576,9.44l125.952,339.36c3.059,8.28-1.165,17.472-9.44,20.544C174.937,496.231,173.061,496.578,171.168,496.576z"
		/>
</g>
<path d="M201.28,420.48c-6.971,0.009-13.145-4.495-15.264-11.136l-82.848-259.2c-2.294-8.534,2.764-17.311,11.297-19.605
	c8.027-2.158,16.37,2.19,19.199,10.005l82.88,259.2c2.686,8.418-1.96,17.42-10.379,20.107c-1.579,0.504-3.227,0.759-4.885,0.757
	L201.28,420.48z"/>
<path d="M340.8,496.32c-8.837-0.015-15.988-7.191-15.972-16.028c0.003-1.949,0.363-3.881,1.06-5.7l4.896-12.608
	C347.2,420,396.832,292.928,408.256,259.104c-1.115-29.753-11.447-58.424-29.568-82.048c-12.321-16.757-20.481-36.204-23.808-56.736
	c0-52,33.12-57.6,47.36-57.6c11.541,0.016,22.766,3.765,32,10.688c0.692,0.377,1.355,0.805,1.984,1.28
	c5.645,4.507,10.51,9.913,14.4,16c2.57,3.674,4.952,7.476,7.136,11.392c14.176,27.424,10.944,73.6-9.344,137.984
	c-2.496,7.744-5.536,16.928-9.184,26.976c-0.254,1.669-0.672,3.309-1.248,4.896c-0.388,1.122-0.904,2.195-1.536,3.2
	c-14.304,40.608-60.288,158.336-75.968,198.4l-4.864,12.448C353.281,492.155,347.397,496.259,340.8,496.32z M402.24,94.72
	c-6.4,0-15.36,0-15.36,25.6c4.291,14.474,10.882,28.163,19.52,40.544c6.88,11.744,14.4,24.544,20.672,37.856
	c9.997-26.134,10.944-54.865,2.688-81.6c-1.472-2.656-3.36-5.664-5.28-8.416c-1.811-2.793-3.96-5.351-6.4-7.616
	c-0.643-0.39-1.263-0.817-1.856-1.28C412.318,96.499,407.359,94.695,402.24,94.72z"/>
<g>
	<path d="M171.168,496.576c-8.837,0.009-16.007-7.148-16.016-15.984c-0.002-2.033,0.383-4.047,1.135-5.936L242.4,257.312
		c3.252-8.218,12.55-12.244,20.768-8.992c8.218,3.252,12.244,12.55,8.992,20.768L186.016,486.4
		C183.625,492.518,177.737,496.554,171.168,496.576z"/>
</g>
<g>
</g>
<g>
</g>
<g>
</g>
<g>
</g>
<g>
</g>
<g>
</g>
<g>
</g>
<g>
</g>
<g>
</g>
<g>
</g>
<g>
</g>
<g>
</g>
<g>
</g>
<g>
</g>
<g>
</g>
</svg>
