<?xml version="1.0" encoding="iso-8859-1"?>
<!-- Generator: Adobe Illustrator 19.0.0, SVG Export Plug-In . SVG Version: 6.00 Build 0)  -->
<svg version="1.1" id="Capa_1" xmlns="http://www.w3.org/2000/svg" xmlns:xlink="http://www.w3.org/1999/xlink" x="0px" y="0px"
	 viewBox="0 0 512.002 512.002" style="enable-background:new 0 0 512.002 512.002;" xml:space="preserve">
<path style="fill:#4CAF50;" d="M256.002,16.001L256.002,16.001C123.453,16.066,16.055,123.571,16.121,256.119
	c0.025,50.529,15.997,99.761,45.641,140.681L31.81,485.825l92.224-29.472c110.651,72.975,259.51,42.432,332.485-68.219
	s42.432-259.51-68.219-332.485C349.037,29.755,303.033,15.968,256.002,16.001z"/>
<path style="fill:#FAFAFA;" d="M391.426,352.001c-9.493,17.216-26.226,29.249-45.568,32.768c-12.16,2.592-27.968,4.64-81.344-17.472
	c-47.033-23.033-86.969-58.347-115.584-102.208c-15.713-20.162-25.279-44.427-27.552-69.888
	c-0.594-21.378,8.059-41.974,23.744-56.512c6.545-5.732,15.052-8.713,23.744-8.32c2.848,0,5.44,0,7.776,0.288
	c6.816,0.256,10.24,0.672,14.72,11.456c5.6,13.504,19.2,46.816,20.896,50.24c2.304,3.788,2.661,8.449,0.96,12.544
	c-1.927,3.928-4.465,7.525-7.52,10.656c-3.392,3.968-6.688,6.976-10.08,11.2c-3.2,3.68-6.688,7.648-2.752,14.464
	c10.176,17.333,22.82,33.093,37.536,46.784c15.864,14.514,34.319,25.913,54.4,33.6c5.476,2.579,11.972,1.551,16.384-2.592
	c6.463-7.689,12.52-15.71,18.144-24.032c3.374-5.773,10.624-7.976,16.64-5.056c6.4,2.176,39.456,18.56,46.272,21.984
	s11.328,5.056,12.8,7.904C396.941,330.664,395.686,341.837,391.426,352.001z"/>
<path d="M256.002,512.001c-47.479,0.092-94.036-13.111-134.4-38.112l-115.2,36.8l37.376-111.424
	C15.069,357.019-0.191,307.078,0.002,256.001c0.141-141.326,114.674-255.859,256-256l0,0c141.385,0,256,114.615,256,256
	S397.387,512.001,256.002,512.001z M126.498,438.785l6.4,4.224c103.282,68.099,242.213,39.578,310.313-63.704
	s39.578-242.213-63.704-310.313c-36.653-24.168-79.601-37.031-123.505-36.992l0,0c-123.661,0.123-223.877,100.339-224,224
	c-0.108,47.159,14.835,93.122,42.656,131.2l4.832,6.656l-22.4,67.2L126.498,438.785z"/>
<path d="M331.458,399.329c-25.396-1.921-50.197-8.643-73.088-19.808c-48.831-22.585-90.317-58.46-119.712-103.52
	c-18.296-22.704-29.245-50.441-31.392-79.52c-0.544-24.882,9.452-48.836,27.52-65.952c9.465-9.005,22.142-13.846,35.2-13.44
	c3.2,0,6.048,0.16,8.64,0.288c13.151-0.403,24.863,8.265,28.32,20.96l5.184,12.512c6.016,14.496,13.728,33.088,15.072,35.904
	c4.625,8.189,4.889,18.138,0.704,26.56c-2.248,4.692-5.205,9.009-8.768,12.8c-2.368,2.72-3.936,4.416-5.536,6.048
	s-2.752,2.88-4.16,4.544c8.837,14.287,19.606,27.284,32,38.624c13.731,12.525,29.657,22.408,46.976,29.152
	c5.903-4.236,10.825-9.693,14.432-16l2.848-3.68c7.639-11.423,22.283-15.858,34.976-10.592c7.872,2.72,46.784,21.952,47.168,22.144
	l3.648,1.76c6.51,2.296,12.116,6.613,16,12.32c4.391,14.786,3.439,30.645-2.688,44.8c-11.208,22.205-32.193,37.858-56.672,42.272
	C342.657,398.728,337.066,399.34,331.458,399.329z M170.114,149.089c-4.279-0.309-8.532,0.878-12.032,3.36
	c-12.465,11.179-19.353,27.296-18.816,44.032c1.865,21.484,10.212,41.894,23.936,58.528l1.92,2.72
	c25.879,40.015,62.465,71.967,105.6,92.224c50.176,20.608,62.624,17.984,70.816,16.192c13.556-2.427,25.539-10.273,33.184-21.728
	l0,0c2.043-5.54,3.324-11.331,3.808-17.216l-0.64-0.32l-4.096-1.984c-12.8-6.4-39.392-19.2-43.744-20.704l-0.928,2.944
	c-5.079,7.396-10.571,14.501-16.448,21.28c-8.883,8.991-22.406,11.54-33.952,6.4c-21.481-8.181-41.268-20.255-58.368-35.616
	c-15.828-14.44-29.417-31.156-40.32-49.6c-6.398-10.48-4.684-23.993,4.128-32.544c2.112-2.592,4.256-4.864,6.4-7.104l3.744-4.096
	c1.521-1.604,2.912-3.327,4.16-5.152c-2.528-5.76-9.952-23.552-15.808-37.6l-5.12-12.384l-0.608-1.376
	C173.922,149.185,172.098,149.089,170.114,149.089z M199.394,199.073v0.224V199.073z"/>
<g>
</g>
<g>
</g>
<g>
</g>
<g>
</g>
<g>
</g>
<g>
</g>
<g>
</g>
<g>
</g>
<g>
</g>
<g>
</g>
<g>
</g>
<g>
</g>
<g>
</g>
<g>
</g>
<g>
</g>
</svg>
