<?xml version="1.0" encoding="iso-8859-1"?>
<!-- Generator: Adobe Illustrator 19.0.0, SVG Export Plug-In . SVG Version: 6.00 Build 0)  -->
<svg version="1.1" id="Capa_1" xmlns="http://www.w3.org/2000/svg" xmlns:xlink="http://www.w3.org/1999/xlink" x="0px" y="0px"
	 viewBox="0 0 512 512" style="enable-background:new 0 0 512 512;" xml:space="preserve">
<path style="fill:#FF9800;" d="M384,61v279h-64V61H192v279h-32c-17.673,0-32-13.879-32-31V61H0v248
	c0.106,85.562,71.678,154.897,160,155l336-14l16-389H384z"/>
<path d="M496,464H160C71.678,463.894,0.106,392.322,0,304V64c0-8.837,7.163-16,16-16h96c8.837,0,16,7.163,16,16v240
	c0,17.673,14.327,32,32,32h32V64c0-8.837,7.163-16,16-16h96c8.837,0,16,7.163,16,16v272h64V64c0-8.837,7.163-16,16-16h96
	c8.837,0,16,7.163,16,16v384C512,456.837,504.837,464,496,464z M32,80v224c0,70.692,57.308,128,128,128h320V80h-64v272
	c0,8.837-7.163,16-16,16h-96c-8.837,0-16-7.163-16-16V80h-64v272c0,8.837-7.163,16-16,16h-48c-35.346,0-64-28.654-64-64V80H32z"/>
<g>
</g>
<g>
</g>
<g>
</g>
<g>
</g>
<g>
</g>
<g>
</g>
<g>
</g>
<g>
</g>
<g>
</g>
<g>
</g>
<g>
</g>
<g>
</g>
<g>
</g>
<g>
</g>
<g>
</g>
</svg>
