<?xml version="1.0" encoding="iso-8859-1"?>
<!-- Generator: Adobe Illustrator 19.0.0, SVG Export Plug-In . SVG Version: 6.00 Build 0)  -->
<svg version="1.1" id="Capa_1" xmlns="http://www.w3.org/2000/svg" xmlns:xlink="http://www.w3.org/1999/xlink" x="0px" y="0px"
	 viewBox="0 0 512.112 512.112" style="enable-background:new 0 0 512.112 512.112;" xml:space="preserve">
<path style="fill:#1E88E5;" d="M250.882,392.143h28.8c4.838-0.556,9.397-2.551,13.088-5.728c2.63-3.672,4.01-8.092,3.936-12.608
	c0,0-0.576-38.4,17.312-44.16s40.224,37.216,64.192,53.664c9.064,7.142,20.502,10.573,32,9.6l64-0.896
	c0,0,33.536-2.08,17.632-28.448c-12.609-20.971-28.726-39.62-47.648-55.136c-40.192-37.312-34.816-31.264,13.6-95.808
	c29.504-39.296,41.28-63.296,37.6-73.6c-3.68-10.304-25.216-7.2-25.216-7.2l-72.16,0.448c-3.197-0.385-6.436,0.183-9.312,1.632
	c-2.752,2.014-4.953,4.688-6.4,7.776c-7.475,19.388-16.385,38.193-26.656,56.256c-32.16,54.592-44.992,57.6-50.272,54.08
	c-12.192-7.904-9.152-31.744-9.152-48.672c0-52.896,8.032-74.944-15.616-80.64c-11.034-2.596-22.371-3.673-33.696-3.2
	c-20.167-1.87-40.505,0.217-59.872,6.144c-8.224,4-14.56,12.8-10.688,13.472c8.2,0.733,15.811,4.567,21.28,10.72
	c5.031,10.14,7.503,21.357,7.2,32.672c0,0,4.256,62.24-9.92,69.984c-9.6,5.312-23.072-5.536-51.712-55.04
	c-9.676-17.221-18.228-35.05-25.6-53.376c-1.325-3.117-3.364-5.879-5.952-8.064c-3.364-2.222-7.14-3.745-11.104-4.48l-68.864,0.448
	c0,0-10.304,0.288-14.08,4.768c-3.36,4-0.256,12.224-0.256,12.224c29.019,68.037,67.559,131.606,114.464,188.8
	c30.475,33.799,73.572,53.489,119.072,54.4L250.882,392.143z"/>
<path d="M406.21,400.367c-13.129-0.417-25.869-4.557-36.736-11.936c-11.311-8.074-21.605-17.486-30.656-28.032
	c-6.321-7.793-13.8-14.571-22.176-20.096c-2.673,8.27-4.033,16.908-4.032,25.6c0.236,8.593-2.847,16.948-8.608,23.328
	c-6.329,5.682-14.316,9.182-22.784,9.984h-29.952c-49.085-0.501-95.999-20.309-130.592-55.136
	C72.54,289.824,32.803,228.666,2.786,162.639c-4.586-9.377-3.445-20.545,2.944-28.8c6.986-6.366,16.151-9.803,25.6-9.6l68.896-0.416
	c7.197,0.699,14.126,3.09,20.224,6.976c5.058,3.674,9.054,8.62,11.584,14.336c7.162,16.53,15.415,32.565,24.704,48
	c8.582,15.553,19.121,29.942,31.36,42.816c1.567-15.781,1.813-31.666,0.736-47.488c0.334-7.427-0.978-14.835-3.84-21.696
	c-3.058-2.421-6.793-3.83-10.688-4.032l-12-1.504l-2.976-12.8c-1.984-13.056,11.424-24.256,20.96-28.8
	c21.552-6.758,44.219-9.226,66.72-7.264c12.441-0.405,24.882,0.778,37.024,3.52c31.264,7.072,30.112,33.728,28.8,61.952
	c-0.352,8.32-0.768,17.92-0.768,29.056v8.544c-0.292,5.909-0.207,11.83,0.256,17.728c11.402-12.125,21.396-25.501,29.792-39.872
	c9.719-16.003,18.182-32.736,25.312-50.048c2.877-6.283,7.54-11.581,13.408-15.232c5.898-3.082,12.597-4.288,19.2-3.456
	l70.048-0.544c6.4-0.704,32.832-2.208,40.224,16.992c5.376,14.08,0.608,33.856-40.064,84.544
	c-6.176,7.744-11.712,14.4-16.512,20.192c-7.867,8.387-14.709,17.679-20.384,27.68c6.286,6.662,13.022,12.885,20.16,18.624
	c19.97,15.883,37.407,34.711,51.712,55.84c7.411,9.292,8.958,21.966,4,32.768c-7.646,11.394-20.392,18.317-34.112,18.528
	l-64.832,0.896C408.938,400.357,407.571,400.454,406.21,400.367z M317.314,308.367c16.672,0,30.976,15.328,44.8,30.272
	c7.307,8.533,15.539,16.228,24.544,22.944c6.018,4.47,13.336,6.842,20.832,6.752l66.336-1.056c1.666-0.168,3.309-0.522,4.896-1.056
	l-0.512-0.832c-12.484-18.122-27.581-34.297-44.8-48c-43.488-37.76-40.48-48.416-4.576-91.84
	c4.704-5.728,10.112-12.256,16.192-19.84c13.295-14.999,24.5-31.726,33.312-49.728c-2.237-0.161-4.483-0.161-6.72,0l-73.792,0.512
	l0,0c-1.44,0-13.12,28.8-28.8,53.92c-23.488,37.28-48.544,69.792-72,55.744c-18.272-11.04-17.6-34.464-17.088-51.584v-7.616
	c0-11.648,0.448-21.728,0.8-30.432c1.114-9.43,0.834-18.972-0.832-28.32l0,0c-1.018-0.485-2.093-0.84-3.2-1.056
	c-9.843-2.223-19.932-3.159-30.016-2.784c-12.605-0.327-25.219-0.007-37.792,0.96c0.443,0.479,0.859,0.981,1.248,1.504
	c7.479,12.214,11.196,26.359,10.688,40.672c3.2,44.288-3.2,71.52-18.752,79.52c-26.048,13.376-48.448-18.08-72.64-57.312
	c-10.166-16.737-19.189-34.142-27.008-52.096c-1.409-1.144-3.1-1.884-4.896-2.144l-62.304,0.608
	c27.628,60.003,63.931,115.617,107.744,165.056c28.303,28.729,66.689,45.293,107.008,46.176h29.568c-0.384,0,1.6-0.64,2.272-1.056
	c-1.344-7.84-0.544-48.352,27.52-56.672C311.926,308.782,314.612,308.372,317.314,308.367z"/>
<g>
</g>
<g>
</g>
<g>
</g>
<g>
</g>
<g>
</g>
<g>
</g>
<g>
</g>
<g>
</g>
<g>
</g>
<g>
</g>
<g>
</g>
<g>
</g>
<g>
</g>
<g>
</g>
<g>
</g>
</svg>
