<?xml version="1.0" encoding="iso-8859-1"?>
<!-- Generator: Adobe Illustrator 19.0.0, SVG Export Plug-In . SVG Version: 6.00 Build 0)  -->
<svg version="1.1" id="Capa_1" xmlns="http://www.w3.org/2000/svg" xmlns:xlink="http://www.w3.org/1999/xlink" x="0px" y="0px"
	 viewBox="0 0 512.002 512.002" style="enable-background:new 0 0 512.002 512.002;" xml:space="preserve">
<path style="fill:#26A69A;" d="M460.87,212.128c11.683-27.89,17.699-57.826,17.696-88.064C478.694,45.632,439.014,0,366.278,0
	c-74.752,0-118.4,57.952-118.4,134.4c-3.567,69.688,32.296,135.478,92.8,170.24c-22.463,45.939-52.019,88.055-87.584,124.8
	C194.598,358.048,141.638,262.784,119.878,76.8h-86.4C73.382,386.496,192.39,485.056,223.846,504
	c14.753,10.283,34.242,10.687,49.408,1.024c61.592-48.915,111.132-111.318,144.8-182.4c20.459-0.119,40.845-2.458,60.8-6.976v-61.12
	c-12.168,2.858-24.621,4.328-37.12,4.384c-64,0-113.408-45.12-113.408-123.552c0-38.4,14.72-58.464,35.584-58.464
	c19.84,0,33.056,17.952,33.056,54.4c-0.596,19.282-3.826,38.393-9.6,56.8C404.132,211.104,433.75,220.787,460.87,212.128z"/>
<path d="M249.862,512c-11.438-0.227-22.587-3.64-32.192-9.856c-23.936-14.432-145.664-102.4-185.6-412
	c-0.608-4.566,0.806-9.17,3.872-12.608c3.033-3.453,7.404-5.434,12-5.44h80.864c8.16-0.055,15.054,6.039,16,14.144
	c19.2,164.992,64.896,249.6,109.632,307.904c23.252-26.329,43.286-55.334,59.68-86.4c-53.462-37.96-84.2-100.302-81.76-165.824
	C232.358,57.024,283.27,0,359.046,0S480.07,49.472,480.07,132.32c0.001,30.571-6.091,60.835-17.92,89.024
	c-2.11,4.765-6.408,8.203-11.52,9.216c-32.148,9.559-66.792-2.708-85.76-30.368c-2.176-3.786-2.686-8.304-1.408-12.48
	c4.864-15.793,7.629-32.158,8.224-48.672c0-8.192-1.056-34.944-14.848-34.944c-12.8,0-17.312,20.896-17.312,38.784
	c0,60.8,35.2,99.84,89.984,99.84c10.462-0.065,20.884-1.3,31.072-3.68c4.774-1.016,9.751,0.158,13.568,3.2
	c3.734,3.029,5.908,7.576,5.92,12.384v57.12c-0.008,7.462-5.172,13.927-12.448,15.584c-16.447,3.744-33.197,6.003-50.048,6.752
	c-32.49,66.042-79.472,123.896-137.44,169.248C270.98,508.827,260.539,511.818,249.862,512z M66.374,104.096
	C107.398,390.4,221.158,466.88,234.246,474.784c8.776,6.682,20.845,6.991,29.952,0.768c54.592-44.4,98.566-100.444,128.704-164.032
	c2.634-5.625,8.285-9.218,14.496-9.216c13.635-0.092,27.238-1.312,40.672-3.648v-25.024c-6.203,0.725-12.443,1.089-18.688,1.088
	c-72.96,0-121.984-52.96-121.984-131.84c0-52.192,25.6-70.784,49.312-70.784c10.976,0,46.848,4.832,46.848,66.944
	c-0.386,16.825-2.847,33.538-7.328,49.76c10.849,9.749,25.558,14.003,39.936,11.552c7.828-21.83,11.855-44.841,11.904-68.032
	C448.07,86.56,432.646,32,359.046,32c-57.536,0-94.688,43.136-94.688,109.92c-3.166,59.254,26.959,115.333,78.112,145.408
	c7.771,3.991,10.905,13.477,7.04,21.312c-21.704,44.621-50.324,85.531-84.8,121.216c-3.228,3.167-7.609,4.878-12.128,4.736
	c-4.538-0.21-8.773-2.339-11.648-5.856C191.206,368,137.67,281.6,114.662,104.096H66.374z"/>
<g>
</g>
<g>
</g>
<g>
</g>
<g>
</g>
<g>
</g>
<g>
</g>
<g>
</g>
<g>
</g>
<g>
</g>
<g>
</g>
<g>
</g>
<g>
</g>
<g>
</g>
<g>
</g>
<g>
</g>
</svg>
