<?xml version="1.0" encoding="iso-8859-1"?>
<!-- Generator: Adobe Illustrator 19.0.0, SVG Export Plug-In . SVG Version: 6.00 Build 0)  -->
<svg version="1.1" id="Capa_1" xmlns="http://www.w3.org/2000/svg" xmlns:xlink="http://www.w3.org/1999/xlink" x="0px" y="0px"
	 viewBox="0 0 513.304 513.304" style="enable-background:new 0 0 513.304 513.304;" xml:space="preserve">
<path style="fill:#00BCD4;" d="M10.852,157.757l19.697,26.13c0,0,40.858-32.456,54.458-16.305s65.922,212.083,83.18,248.285
	c15.063,31.719,56.866,73.693,102.573,43.725s198.194-160.928,225.636-315.745s-183.68-122.208-205.634,12.528
	c55.555-33.592,85.376,13.756,57.019,67.276s-54.732,88.77-68.301,88.77s-23.875-36.018-39.639-98.626
	c-15.825-64.819-15.825-181.684-82.632-168.42C93.758,57.964,10.852,157.757,10.852,157.757z"/>
<path d="M239.852,482.346c-6.386-0.002-12.741-0.896-18.88-2.656c-28.693-10.164-52.061-31.49-64.8-59.136
	c-8.288-17.216-23.072-65.536-38.752-116.704c-11.489-41.648-25.215-82.646-41.12-122.816
	c-11.099,4.896-21.564,11.118-31.168,18.528c-6.935,5.476-16.997,4.292-22.473-2.643c-0.062-0.078-0.123-0.157-0.183-0.237
	l-19.2-25.6c-4.485-5.883-4.353-14.073,0.32-19.808c3.456-4.224,85.856-102.048,153.056-115.2
	c15.151-3.524,31.085-0.541,43.936,8.224c30.944,21.408,39.456,72.896,47.712,122.688c2.688,16.32,5.28,32,8.608,45.472
	c6.066,28.204,14.634,55.812,25.6,82.496c20.506-22.914,37.59-48.674,50.72-76.48c12.096-22.592,10.592-41.856,2.848-49.248
	c-6.944-6.624-20.672-4.832-36.576,4.768c-7.573,4.554-17.403,2.107-21.957-5.465c-1.959-3.257-2.694-7.105-2.075-10.855
	c9.685-53.783,47.217-98.371,98.56-117.088c35.38-15.998,76.614-11.847,108.096,10.88c27.215,25.272,37.723,63.803,27.104,99.392
	c-28.448,160.416-187.84,292.512-228.96,319.104C268.297,477.953,254.245,482.259,239.852,482.346z M78.476,150.57
	c8.704-0.216,17.024,3.584,22.56,10.304c20.465,42.757,36.237,87.605,47.04,133.76c14.624,47.776,29.76,97.184,37.024,112.256
	c8.754,19.328,24.786,34.417,44.608,41.984c11.385,3.155,23.588,0.952,33.152-5.984c38.688-24.992,188.416-148.768,214.88-297.824
	c7.637-24.265,1.511-50.764-16-69.216c-22.806-14.968-51.743-17.039-76.448-5.472c-30.559,11.31-55.496,34.1-69.504,63.52
	c15.226-2.94,30.945,1.512,42.368,12c20.289,25.261,21.59,60.845,3.2,87.52c-50.88,95.168-72.96,95.168-81.28,95.168
	c-24.8,0-34.624-29.728-54.4-108.448c-3.552-14.208-6.4-30.816-9.152-48c-6.368-39.2-14.432-88.064-34.272-101.664
	c-5.728-3.863-12.858-5.032-19.52-3.2c-41.6,8.192-99.2,64.448-126.336,94.816l2.176,2.816
	C50.373,156.685,64.142,151.738,78.476,150.57z"/>
<g>
</g>
<g>
</g>
<g>
</g>
<g>
</g>
<g>
</g>
<g>
</g>
<g>
</g>
<g>
</g>
<g>
</g>
<g>
</g>
<g>
</g>
<g>
</g>
<g>
</g>
<g>
</g>
<g>
</g>
</svg>
