<?xml version="1.0" encoding="iso-8859-1"?>
<!-- Generator: Adobe Illustrator 19.0.0, SVG Export Plug-In . SVG Version: 6.00 Build 0)  -->
<svg version="1.1" id="Capa_1" xmlns="http://www.w3.org/2000/svg" xmlns:xlink="http://www.w3.org/1999/xlink" x="0px" y="0px"
	 viewBox="0 0 512 512" style="enable-background:new 0 0 512 512;" xml:space="preserve">
<path style="fill:#2196F3;" d="M380.096,290.755c63.445-0.478,114.489-52.298,114.011-115.743S441.809,60.523,378.364,61.001
	c-56.59,0.426-104.44,42.002-112.764,97.977h-3.808c-8.808-63.35-67.303-107.564-130.653-98.756S23.575,127.526,32.383,190.875
	c7.872,56.615,55.872,99.019,113.025,99.848h3.488v39.2L16,294.211v152.8l132.896-39.648v43.648h195.36l-57.28-160.256H380.096z
	 M147.2,208.323c-17.92-0.142-32.332-14.783-32.191-32.703s14.783-32.332,32.703-32.191c17.87,0.141,32.261,14.704,32.191,32.574
	C179.763,193.944,165.142,208.394,147.2,208.323 M349.76,176.003c-0.141-18.079,14.4-32.85,32.479-32.991s32.85,14.4,32.991,32.479
	s-14.4,32.85-32.479,32.991c-0.106,0.001-0.213,0.001-0.319,0.001c-17.973,0.071-32.601-14.442-32.672-32.416
	C349.76,176.046,349.76,176.024,349.76,176.003"/>
<path d="M344.256,464.003h-195.2c-8.837,0-16-7.163-16-16v-21.568L20.512,459.427c-4.841,1.394-10.056,0.46-14.112-2.528
	c-4.029-3.022-6.4-7.764-6.4-12.8v-150.4c0.006-8.837,7.174-15.995,16.011-15.989c1.379,0.001,2.752,0.18,4.085,0.533l112.8,29.824
	v-2.56c-66.121-6.725-116.69-61.96-117.568-128.416C16.189,105.068,75.175,47.327,147.2,48.003
	c48.401,0.037,92.972,26.328,116.416,68.672c23.461-42.359,68.058-68.652,116.48-68.672c72.03-0.676,131.025,57.06,131.904,129.088
	c-0.861,72.04-59.862,129.796-131.904,129.12h-70.4l49.472,136.352c3.004,8.31-1.297,17.482-9.607,20.487
	c-1.742,0.63-3.581,0.952-5.433,0.953H344.256z M165.056,432.003h156.512L272,295.683c-3.022-8.304,1.259-17.485,9.563-20.507
	c1.755-0.639,3.609-0.965,5.477-0.965h93.12c54.359,0.677,99.015-42.763,99.84-97.12c-1.731-55.272-47.941-98.676-103.213-96.945
	c-47.393,1.484-87.247,36.008-95.475,82.705c-1.186,7.816-7.902,13.595-15.808,13.6h-3.68c-7.906-0.005-14.622-5.784-15.808-13.6
	c-8.21-48.086-50.035-83.152-98.816-82.848c-54.359-0.694-99.03,42.731-99.872,97.088c0.939,53.7,44.597,96.818,98.304,97.088h3.424
	c8.774,0.088,15.84,7.226,15.84,16v38.4c0.012,8.837-7.142,16.009-15.979,16.021c-1.39,0.002-2.774-0.177-4.117-0.533L32,314.435
	v108.256l112.416-32.992c4.832-1.379,10.03-0.445,14.08,2.528c4.029,3.022,6.4,7.764,6.4,12.8L165.056,432.003z M382.656,225.091
	c-26.506-0.442-47.635-22.287-47.193-48.793c0.442-26.506,22.287-47.635,48.793-47.193c26.192,0.437,47.196,21.791,47.2,47.987
	c-0.21,26.721-22.041,48.212-48.762,48.003c-0.087-0.001-0.174-0.002-0.262-0.003H382.656z M382.656,161.091
	c-8.826,0.442-15.622,7.954-15.18,16.78s7.954,15.622,16.78,15.18c8.507-0.426,15.189-7.442,15.2-15.96
	c-0.204-9.011-7.673-16.151-16.684-15.947c-0.113,0.003-0.226,0.006-0.34,0.011L382.656,161.091z M147.424,225.091
	c-26.507-0.389-47.68-22.192-47.291-48.699c0.389-26.507,22.192-47.68,48.699-47.291c26.23,0.385,47.293,21.757,47.296,47.99
	c-0.264,26.756-22.167,48.232-48.923,47.968c-0.002,0-0.003,0-0.005,0L147.424,225.091z M147.424,161.091
	c-8.828,0.389-15.669,7.861-15.281,16.689s7.861,15.669,16.689,15.281c8.548-0.376,15.288-7.412,15.296-15.969
	c-0.242-9.045-7.771-16.182-16.817-15.939c-0.037,0.001-0.074,0.002-0.111,0.003L147.424,161.091z"/>
<g>
</g>
<g>
</g>
<g>
</g>
<g>
</g>
<g>
</g>
<g>
</g>
<g>
</g>
<g>
</g>
<g>
</g>
<g>
</g>
<g>
</g>
<g>
</g>
<g>
</g>
<g>
</g>
<g>
</g>
</svg>
