<?xml version="1.0" encoding="iso-8859-1"?>
<!-- Generator: Adobe Illustrator 19.0.0, SVG Export Plug-In . SVG Version: 6.00 Build 0)  -->
<svg version="1.1" id="Capa_1" xmlns="http://www.w3.org/2000/svg" xmlns:xlink="http://www.w3.org/1999/xlink" x="0px" y="0px"
	 viewBox="0 0 512 512" style="enable-background:new 0 0 512 512;" xml:space="preserve">
<path style="fill:#03A9F4;" d="M384,384H256c-35.346,0-64-28.654-64-64v-32h192c35.346,0,64-28.654,64-64s-28.654-64-64-64H192V64
	c0-35.346-28.654-64-64-64S64,28.654,64,64v256c0.106,105.995,86.005,191.894,192,192h128c35.346,0,64-28.654,64-64
	S419.346,384,384,384z"/>
<path d="M384,512H256c-105.995-0.106-191.894-86.005-192-192V64c0-35.346,28.654-64,64-64s64,28.654,64,64v96h192
	c35.346,0,64,28.654,64,64s-28.654,64-64,64H192v32c0,35.346,28.654,64,64,64h128c35.346,0,64,28.654,64,64S419.346,512,384,512z
	 M128,32c-17.673,0-32,14.327-32,32v256c0.106,88.322,71.678,159.894,160,160h128c17.673,0,32-14.327,32-32s-14.327-32-32-32H256
	c-53.019,0-96-42.981-96-96v-48c0-8.837,7.163-16,16-16h208c17.673,0,32-14.327,32-32s-14.327-32-32-32H176c-8.837,0-16-7.163-16-16
	V64C160,46.327,145.673,32,128,32z"/>
<g>
</g>
<g>
</g>
<g>
</g>
<g>
</g>
<g>
</g>
<g>
</g>
<g>
</g>
<g>
</g>
<g>
</g>
<g>
</g>
<g>
</g>
<g>
</g>
<g>
</g>
<g>
</g>
<g>
</g>
</svg>
