<?xml version="1.0" encoding="iso-8859-1"?>
<!-- Generator: Adobe Illustrator 19.0.0, SVG Export Plug-In . SVG Version: 6.00 Build 0)  -->
<svg version="1.1" id="Capa_1" xmlns="http://www.w3.org/2000/svg" xmlns:xlink="http://www.w3.org/1999/xlink" x="0px" y="0px"
	 viewBox="0 0 512 512" style="enable-background:new 0 0 512 512;" xml:space="preserve">
<path style="fill:#673AB7;" d="M60.992,16l-29.984,89.984V436h120v60h60l60-60h89.984l120-127.776V16H60.992z"/>
<path d="M211.2,512H160c-8.837,0-16-7.163-16-16v-48H32c-8.837,0-16-7.163-16-16V105.984c0.011-1.706,0.28-3.4,0.8-5.024
	l29.888-90.016C48.867,4.402,54.992-0.009,61.888,0H480c8.837,0,16,7.163,16,16v292.192c0,4.157-1.618,8.151-4.512,11.136
	L372.032,443.104c-3.008,3.121-7.154,4.887-11.488,4.896h-82.656l-55.008,58.912C219.859,510.152,215.63,511.994,211.2,512z
	 M176,480h28.256l54.944-58.912c3.036-3.256,7.292-5.1,11.744-5.088h82.816L464,301.728V32H73.6L48,108.608V416h112
	c8.837,0,16,7.163,16,16V480z"/>
<g>
	<path style="fill:#FAFAFA;" d="M256,256c-8.837,0-16-7.163-16-16v-96c0-8.837,7.163-16,16-16c8.837,0,16,7.163,16,16v96
		C272,248.837,264.837,256,256,256z"/>
	<path style="fill:#FAFAFA;" d="M352,256c-8.837,0-16-7.163-16-16v-96c0-8.837,7.163-16,16-16s16,7.163,16,16v96
		C368,248.837,360.837,256,352,256z"/>
</g>
<g>
</g>
<g>
</g>
<g>
</g>
<g>
</g>
<g>
</g>
<g>
</g>
<g>
</g>
<g>
</g>
<g>
</g>
<g>
</g>
<g>
</g>
<g>
</g>
<g>
</g>
<g>
</g>
<g>
</g>
</svg>
