<?xml version="1.0" encoding="iso-8859-1"?>
<!-- Generator: Adobe Illustrator 19.0.0, SVG Export Plug-In . SVG Version: 6.00 Build 0)  -->
<svg version="1.1" id="Capa_1" xmlns="http://www.w3.org/2000/svg" xmlns:xlink="http://www.w3.org/1999/xlink" x="0px" y="0px"
	 viewBox="0 0 512 512" style="enable-background:new 0 0 512 512;" xml:space="preserve">
<circle style="fill:#2196F3;" cx="256" cy="256" r="256"/>
<g>
	<polygon style="fill:#FAFAFA;" points="64,256 192,160 178.08,224 333.92,224 320,160 448,256 320,352 333.92,288 178.08,288 
		192,352 	"/>
</g>
<g>
	<path d="M256,512C114.615,512,0,397.385,0,256S114.615,0,256,0s256,114.615,256,256C511.841,397.319,397.319,511.841,256,512z
		 M256,32C132.288,32,32,132.288,32,256s100.288,224,224,224s224-100.288,224-224C479.859,132.347,379.653,32.141,256,32z"/>
</g>
<g>
	<path d="M320,352c-8.837-0.005-15.996-7.173-15.991-16.009c0.001-1.502,0.213-2.996,0.631-4.439L312.608,304H199.392l7.968,27.552
		c2.453,8.489-2.441,17.36-10.93,19.812c-4.363,1.261-9.056,0.608-12.91-1.796l-128-80c-7.493-4.683-9.771-14.555-5.088-22.048
		c1.288-2.06,3.028-3.8,5.088-5.088l128-80c7.497-4.677,17.367-2.391,22.044,5.106c2.404,3.853,3.057,8.547,1.796,12.91L199.392,208
		h113.216l-7.968-27.552c-2.453-8.489,2.441-17.36,10.93-19.812c4.363-1.261,9.056-0.608,12.91,1.796l128,80
		c7.493,4.683,9.771,14.555,5.088,22.048c-1.288,2.06-3.028,3.8-5.088,5.088l-128,80C325.937,351.157,322.999,352,320,352z
		 M178.08,272h155.84c8.837,0.005,15.996,7.173,15.991,16.009c-0.001,1.502-0.213,2.996-0.631,4.439l-2.272,7.808L417.824,256
		l-70.816-44.256l2.272,7.808c2.457,8.488-2.433,17.361-10.921,19.817c-1.443,0.418-2.937,0.63-4.439,0.631H178.08
		c-8.837-0.005-15.996-7.173-15.991-16.009c0.001-1.502,0.213-2.996,0.631-4.439l2.272-7.808L94.176,256l70.816,44.256l-2.272-7.808
		c-2.457-8.488,2.433-17.361,10.921-19.817C175.084,272.213,176.578,272.001,178.08,272z"/>
</g>
<g>
</g>
<g>
</g>
<g>
</g>
<g>
</g>
<g>
</g>
<g>
</g>
<g>
</g>
<g>
</g>
<g>
</g>
<g>
</g>
<g>
</g>
<g>
</g>
<g>
</g>
<g>
</g>
<g>
</g>
</svg>
