<?xml version="1.0" encoding="iso-8859-1"?>
<!-- Generator: Adobe Illustrator 19.0.0, SVG Export Plug-In . SVG Version: 6.00 Build 0)  -->
<svg version="1.1" id="Capa_1" xmlns="http://www.w3.org/2000/svg" xmlns:xlink="http://www.w3.org/1999/xlink" x="0px" y="0px"
	 viewBox="0 0 512 512" style="enable-background:new 0 0 512 512;" xml:space="preserve">
<circle style="fill:#8BC34A;" cx="256" cy="256" r="256"/>
<g>
	<path style="fill:#37474F;" d="M360.352,376.352c-3.288-0.004-6.495-1.021-9.184-2.912c-60-42.176-159.808-44.512-227.2-28.8
		c-8.747,1.257-16.856-4.814-18.114-13.561c-1.105-7.687,3.47-15.058,10.85-17.479c74.08-17.152,184.832-14.048,252.8,33.824
		c7.228,5.083,8.967,15.063,3.885,22.291c-2.992,4.255-7.867,6.79-13.069,6.797L360.352,376.352z"/>
</g>
<g>
	<path style="fill:#37474F;" d="M391.648,313.76c-3.353,0.001-6.621-1.051-9.344-3.008C312.736,260.8,227.2,248.384,113.12,271.68
		c-8.66,1.767-17.113-3.82-18.88-12.48c-1.767-8.66,3.82-17.113,12.48-18.88c123.456-25.152,216.928-11.104,294.4,44.416
		c7.193,5.133,8.863,15.125,3.73,22.318c-3.013,4.223-7.887,6.722-13.074,6.706L391.648,313.76z"/>
</g>
<g>
	<path style="fill:#37474F;" d="M422.976,230.4c-3.211,0.009-6.348-0.963-8.992-2.784c-88.224-59.872-222.336-60.16-309.184-29.44
		c-8.333,2.943-17.473-1.427-20.416-9.76c-2.943-8.333,1.427-17.473,9.76-20.416l0,0c94.464-33.6,240.8-32.8,337.856,33.024
		c7.317,4.955,9.231,14.903,4.276,22.22c-2.981,4.401-7.953,7.035-13.268,7.028L422.976,230.4z"/>
</g>
<g>
	<path d="M256,512C114.615,512,0,397.385,0,256S114.615,0,256,0s256,114.615,256,256C511.841,397.319,397.319,511.841,256,512z
		 M256,32C132.288,32,32,132.288,32,256s100.288,224,224,224s224-100.288,224-224C479.859,132.347,379.653,32.141,256,32z"/>
</g>
<g>
	<path d="M360.32,376.352c-3.288-0.004-6.495-1.021-9.184-2.912c-60.032-42.208-160-44.448-227.2-28.8
		c-8.751,1.226-16.839-4.874-18.065-13.625c-1.073-7.661,3.487-14.992,10.833-17.415c74.048-17.248,184.8-14.048,252.8,33.792
		c7.228,5.083,8.967,15.063,3.885,22.291c-2.999,4.265-7.887,6.801-13.101,6.797L360.32,376.352z"/>
</g>
<g>
	<path d="M391.648,313.6c-3.345,0.012-6.606-1.042-9.312-3.008C312.704,260.736,227.2,248.32,113.12,271.68
		c-8.66,1.767-17.113-3.82-18.88-12.48c-1.767-8.66,3.82-17.113,12.48-18.88c123.392-25.28,216.96-11.104,294.4,44.416
		c7.175,5.158,8.811,15.155,3.654,22.331c-3.007,4.184-7.845,6.663-12.997,6.661L391.648,313.6z"/>
</g>
<g>
	<path d="M422.944,230.4c-3.201,0.01-6.328-0.961-8.96-2.784c-88.224-59.84-222.304-60.16-309.184-29.44
		c-8.333,2.943-17.473-1.427-20.416-9.76c-2.943-8.333,1.427-17.473,9.76-20.416l0,0c94.656-33.6,240.8-32.8,337.856,33.024
		c7.317,4.955,9.231,14.903,4.276,22.22c-2.981,4.401-7.953,7.035-13.268,7.028L422.944,230.4z"/>
</g>
<g>
</g>
<g>
</g>
<g>
</g>
<g>
</g>
<g>
</g>
<g>
</g>
<g>
</g>
<g>
</g>
<g>
</g>
<g>
</g>
<g>
</g>
<g>
</g>
<g>
</g>
<g>
</g>
<g>
</g>
</svg>
