<?xml version="1.0" encoding="iso-8859-1"?>
<!-- Generator: Adobe Illustrator 19.0.0, SVG Export Plug-In . SVG Version: 6.00 Build 0)  -->
<svg version="1.1" id="Capa_1" xmlns="http://www.w3.org/2000/svg" xmlns:xlink="http://www.w3.org/1999/xlink" x="0px" y="0px"
	 viewBox="0 0 512.001 512.001" style="enable-background:new 0 0 512.001 512.001;" xml:space="preserve">
<g>
	<path style="fill:#FF9800;" d="M432,240c-5.604-0.001-11.192,0.588-16.672,1.76C407.894,168.153,345.981,112.102,272,112
		c-8.837,0-16,7.163-16,16v256c0,8.837,7.163,16,16,16h160c44.183,0,80-35.817,80-80S476.183,240,432,240z"/>
	<path style="fill:#FF9800;" d="M208,144c-8.837,0-16,7.163-16,16v224c0,8.837,7.163,16,16,16s16-7.163,16-16V160
		C224,151.164,216.837,144,208,144z"/>
	<path style="fill:#FF9800;" d="M144,208c-8.837,0-16,7.163-16,16v160c0,8.837,7.163,16,16,16s16-7.163,16-16V224
		C160,215.164,152.837,208,144,208z"/>
	<path style="fill:#FF9800;" d="M80,208c-8.837,0-16,7.163-16,16v160c0,8.837,7.163,16,16,16s16-7.163,16-16V224
		C96,215.164,88.837,208,80,208z"/>
	<path style="fill:#FF9800;" d="M16,256c-8.837,0-16,7.163-16,16v96c0,8.837,7.163,16,16,16s16-7.163,16-16v-96
		C32,263.164,24.837,256,16,256z"/>
</g>
<path d="M432,400H272c-8.837,0-16-7.163-16-16V128c0-8.837,7.163-16,16-16c73.981,0.088,135.891,56.151,143.296,129.76
	c43.211-9.217,85.712,18.341,94.928,61.552c9.217,43.211-18.341,85.712-61.552,94.928C443.192,399.409,437.604,399.999,432,400z
	 M288,368h144c26.51,0,48-21.49,48-48s-21.49-48-48-48c-8.489-0.026-16.824,2.276-24.096,6.656
	c-5.2,3.121-11.717,3.035-16.832-0.224c-5.121-3.27-7.947-9.159-7.296-15.2c0.202-2.405,0.277-4.819,0.224-7.232
	c-0.002-55.674-40.897-102.895-96-110.848V368z"/>
<path d="M208,400c-8.837,0-16-7.163-16-16V160c0-8.837,7.163-16,16-16s16,7.163,16,16v224C224,392.837,216.837,400,208,400z"/>
<path d="M144,400c-8.837,0-16-7.163-16-16V224c0-8.837,7.163-16,16-16s16,7.163,16,16v160C160,392.837,152.837,400,144,400z"/>
<path d="M80,400c-8.837,0-16-7.163-16-16V224c0-8.837,7.163-16,16-16s16,7.163,16,16v160C96,392.837,88.837,400,80,400z"/>
<path d="M16,384c-8.837,0-16-7.163-16-16v-96c0-8.837,7.163-16,16-16s16,7.163,16,16v96C32,376.837,24.837,384,16,384z"/>
<g>
</g>
<g>
</g>
<g>
</g>
<g>
</g>
<g>
</g>
<g>
</g>
<g>
</g>
<g>
</g>
<g>
</g>
<g>
</g>
<g>
</g>
<g>
</g>
<g>
</g>
<g>
</g>
<g>
</g>
</svg>
