<?xml version="1.0" encoding="iso-8859-1"?>
<!-- Generator: Adobe Illustrator 19.0.0, SVG Export Plug-In . SVG Version: 6.00 Build 0)  -->
<svg version="1.1" id="Capa_1" xmlns="http://www.w3.org/2000/svg" xmlns:xlink="http://www.w3.org/1999/xlink" x="0px" y="0px"
	 viewBox="0 0 512.004 512.004" style="enable-background:new 0 0 512.004 512.004;" xml:space="preserve">
<path style="fill:#03A9F4;" d="M487.489,258.498C486.591,132.942,384.086,31.883,258.529,32.77
	c-13.112-0.038-26.204,1.032-39.136,3.2C156.989-2.867,74.917,16.239,36.08,78.644c-12.766,20.512-19.707,44.113-20.079,68.27
	c-0.015,23.322,6.288,46.213,18.24,66.24c-3.092,14.916-4.647,30.11-4.64,45.344c0.809,125.476,103.184,226.539,228.661,225.73
	c0.089-0.001,0.178-0.001,0.267-0.002c14.069-0.001,28.109-1.265,41.952-3.776c19.327,10.247,40.876,15.587,62.752,15.552
	c72.811,0.514,132.254-58.094,132.768-130.905c0-0.002,0-0.004,0-0.007c0.026-20.195-4.699-40.112-13.792-58.144
	C485.726,291.037,487.497,274.791,487.489,258.498z"/>
<path style="fill:#FAFAFA;" d="M384.001,373.73c-12.673,16.846-29.892,29.724-49.632,37.12
	c-24.334,9.304-50.242,13.803-76.288,13.248c-30.183,1.063-60.178-5.149-87.456-18.112c-16.016-8.356-29.797-20.426-40.192-35.2
	c-9.599-12.533-15.057-27.744-15.616-43.52c-0.051-8.679,3.66-16.955,10.176-22.688c6.976-6.358,16.168-9.724,25.6-9.376
	c7.808-0.2,15.428,2.412,21.472,7.36c6.299,5.689,11.205,12.751,14.336,20.64c3.686,8.687,8.391,16.904,14.016,24.48
	c5.466,6.798,12.491,12.177,20.48,15.68c11.257,4.555,23.353,6.671,35.488,6.208c17.304,0.729,34.431-3.728,49.184-12.8
	c10.942-6.087,17.827-17.529,18.08-30.048c0.287-8.602-3.196-16.9-9.536-22.72c-7.563-6.555-16.479-11.363-26.112-14.08
	c-11.104-3.392-26.176-7.104-44.8-10.976c-21.873-4.279-43.299-10.589-64-18.848c-16.259-6.458-30.663-16.848-41.92-30.24
	c-10.707-13.77-16.255-30.854-15.68-48.288c-0.189-17.65,5.659-34.834,16.576-48.704c12.397-15.116,28.849-26.384,47.424-32.48
	c23.017-7.815,47.217-11.573,71.52-11.104c19.258-0.352,38.462,2.138,56.992,7.392c14.507,4.137,28.153,10.847,40.288,19.808
	c9.65,7.043,17.735,16.01,23.744,26.336c4.828,8.347,7.46,17.783,7.648,27.424c-0.062,8.779-3.675,17.16-10.016,23.232
	c-6.522,6.826-15.618,10.589-25.056,10.368c-7.554,0.505-15.032-1.772-21.024-6.4c-5.826-5.608-10.748-12.085-14.592-19.2
	c-5.275-10.405-12.755-19.534-21.92-26.752c-12.327-7.202-26.573-10.431-40.8-9.248c-14.799-0.705-29.487,2.872-42.304,10.304
	c-8.824,4.413-14.602,13.22-15.136,23.072c-0.14,5.11,1.615,10.091,4.928,13.984c4.005,4.636,8.959,8.358,14.528,10.912
	c6.29,3.138,12.87,5.657,19.648,7.52c6.784,1.856,18.144,4.64,33.792,8.192c19.776,4.16,37.92,8.864,53.952,13.952
	c14.715,4.372,28.781,10.689,41.824,18.784c11.387,7.21,20.835,17.098,27.52,28.8c6.912,12.982,10.331,27.538,9.92,42.24
	C401.244,339.271,395.268,358.096,384.001,373.73z"/>
<path d="M363.265,512.002c-22.599-0.017-44.906-5.102-65.28-14.88c-13.047,2.103-26.24,3.172-39.456,3.2
	C125.11,502.171,15.454,395.513,13.604,262.093c-0.215-15.482,1.06-30.949,3.805-46.188C6.003,194.697,0.022,170.995,0.001,146.914
	C0.618,65.308,67.162-0.406,148.769,0.002c25.871-0.027,51.306,6.655,73.824,19.392c11.9-1.735,23.91-2.612,35.936-2.624
	c133.563-1.678,243.197,105.236,244.875,238.798c0.207,16.509-1.276,32.995-4.427,49.202c8.655,18.927,13.099,39.508,13.024,60.32
	C511.403,446.691,444.867,512.41,363.265,512.002z M303.073,463.714l4.864,2.592c57.118,30.356,128.03,8.661,158.386-48.457
	c8.645-16.266,13.331-34.342,13.678-52.759c0.05-17.699-4.095-35.157-12.096-50.944l-2.56-5.088l1.216-5.568
	c3.269-14.774,4.911-29.861,4.896-44.992C470.436,141.843,375.187,48.024,258.529,48.77c-12.218,0.042-24.41,1.113-36.448,3.2
	l-5.952,1.024l-5.152-3.2c-18.665-11.629-40.217-17.793-62.208-17.792C84.828,31.576,32.6,82.974,32.001,146.914
	c0.031,20.434,5.557,40.484,16,58.048l3.2,5.344l-1.216,6.048c-2.868,13.865-4.315,27.986-4.32,42.144
	c1.021,116.655,96.271,210.473,212.928,209.728c13.114-0.005,26.2-1.183,39.104-3.52L303.073,463.714z"/>
<path d="M257.921,429.602c-30.872,1.009-61.531-5.446-89.376-18.816c-17.291-9.012-32.171-22.037-43.392-37.984
	c-10.911-14.415-17.042-31.88-17.536-49.952c-0.085-12.609,5.268-24.643,14.688-33.024c18.388-16.099,45.536-17.126,65.088-2.464
	c7.865,6.925,14.002,15.593,17.92,25.312c2.928,6.934,6.666,13.496,11.136,19.552c3.603,4.329,8.174,7.749,13.344,9.984
	c8.409,3.282,17.416,4.754,26.432,4.32c13.026,0.679,25.961-2.505,37.184-9.152c8.736-5.824,9.92-10.784,9.92-14.88
	c0.307-3.607-1.076-7.153-3.744-9.6c-5.356-4.473-11.608-7.747-18.336-9.6c-9.92-3.2-23.584-6.4-40.48-9.856
	c-21.527-4.305-42.601-10.626-62.944-18.88c-17.701-7.044-33.364-18.395-45.568-33.024c-12.403-15.728-18.902-35.305-18.368-55.328
	c-0.211-20.127,6.474-39.72,18.944-55.52c13.463-16.545,31.37-28.901,51.616-35.616c23.346-7.987,47.906-11.842,72.576-11.392
	c19.652-0.316,39.243,2.261,58.144,7.648c15.441,4.442,29.955,11.629,42.848,21.216c10.831,7.943,19.888,18.057,26.592,29.696
	c5.755,10.193,8.848,21.672,8.992,33.376c-0.078,12.428-5.125,24.308-14.016,32.992c-10.391,10.268-24.732,15.512-39.296,14.368
	c8.761,3.567,17.189,7.904,25.184,12.96c12.803,8.114,23.444,19.216,31.008,32.352c7.904,14.647,11.842,31.106,11.424,47.744
	c0.135,21.423-6.593,42.326-19.2,59.648c-13.534,18.236-31.998,32.225-53.216,40.32
	C310.757,425.511,284.414,430.129,257.921,429.602z M157.057,308.802c-4.738-0.286-9.396,1.313-12.96,4.448
	c-2.878,2.35-4.528,5.885-4.48,9.6c0.548,11.475,4.639,22.499,11.712,31.552c8.273,11.783,19.245,21.417,32,28.096
	c23.26,10.906,48.793,16.085,74.464,15.104c22.334,0.521,44.558-3.293,65.44-11.232c15.71-5.831,29.446-15.994,39.616-29.312l0,0
	c8.603-11.937,13.166-26.311,13.024-41.024c0.402-11.113-2.09-22.14-7.232-32c-5.021-8.644-12.059-15.944-20.512-21.28
	c-10.986-6.797-22.822-12.112-35.2-15.808c-14.912-4.704-31.392-8.96-49.088-12.8c-15.232-3.488-26.144-6.112-32.608-7.904
	c-7.355-2.014-14.493-4.747-21.312-8.16c-7.26-3.408-13.708-8.329-18.912-14.432c-5.451-6.5-8.372-14.75-8.224-23.232
	c0.332-14.751,8.554-28.189,21.536-35.2c14.665-8.579,31.51-12.704,48.48-11.872c16.864-1.303,33.699,2.872,48,11.904
	c10.449,8.158,18.989,18.501,25.024,30.304c2.68,4.96,6.089,9.49,10.112,13.44c6.943,3.507,15.322,2.429,21.152-2.72
	c3.078-2.693,4.87-6.566,4.928-10.656c-0.203-6.363-1.984-12.576-5.184-18.08c-4.602-7.72-10.745-14.409-18.048-19.648
	c-9.833-7.266-20.903-12.688-32.672-16c-15.853-4.519-32.286-6.676-48.768-6.4c-20.955-0.392-41.82,2.856-61.664,9.6
	c-14.698,4.664-27.748,13.449-37.6,25.312c-8.04,10.202-12.343,22.851-12.192,35.84c-0.477,12.684,3.496,25.136,11.232,35.2
	c8.903,10.498,20.272,18.624,33.088,23.648c18.471,7.379,37.595,13.004,57.12,16.8c18.016,3.744,32.608,7.36,43.36,10.624
	c11.289,3.291,21.72,9.014,30.56,16.768c9.286,8.521,14.422,20.649,14.08,33.248c-0.094,17.157-9.261,32.982-24.096,41.6
	c-16.472,10.235-35.63,15.306-55.008,14.56c-13.704,0.38-27.331-2.173-39.968-7.488c-9.826-4.384-18.461-11.055-25.184-19.456
	c-6.032-8.128-11.091-16.934-15.072-26.24c-1.973-5.147-5.079-9.784-9.088-13.568C164.117,309.732,160.614,308.618,157.057,308.802z
	 M252.801,165.346c-10.777-0.628-21.51,1.825-30.944,7.072c-6.944,4.48-6.944,7.296-6.944,8.224
	c1.907,3.959,5.115,7.145,9.088,9.024c4.946,2.475,10.122,4.458,15.456,5.92c6.4,1.728,16.736,4.256,31.072,7.52
	c16,3.392,31.616,7.296,45.888,11.552c-0.704-0.512-1.376-1.056-2.016-1.6c-6.717-6.33-12.388-13.685-16.8-21.792
	c-3.91-7.926-9.501-14.904-16.384-20.448C272.505,166.197,262.607,164.291,252.801,165.346z"/>
<g>
</g>
<g>
</g>
<g>
</g>
<g>
</g>
<g>
</g>
<g>
</g>
<g>
</g>
<g>
</g>
<g>
</g>
<g>
</g>
<g>
</g>
<g>
</g>
<g>
</g>
<g>
</g>
<g>
</g>
</svg>
