<?xml version="1.0" encoding="iso-8859-1"?>
<!-- Generator: Adobe Illustrator 19.0.0, SVG Export Plug-In . SVG Version: 6.00 Build 0)  -->
<svg version="1.1" id="Capa_1" xmlns="http://www.w3.org/2000/svg" xmlns:xlink="http://www.w3.org/1999/xlink" x="0px" y="0px"
	 viewBox="0 0 480 480" style="enable-background:new 0 0 480 480;" xml:space="preserve">
<g>
	<circle style="fill:#FFA000;" cx="80.012" cy="400.006" r="64"/>
	<path style="fill:#FFA000;" d="M16,165.344v85.344C133.763,250.811,229.203,346.237,229.344,464h85.312
		C314.462,299.137,180.863,165.538,16,165.344z"/>
	<path style="fill:#FFA000;" d="M16,16v85.344C216.214,101.538,378.476,263.786,378.688,464H464
		C463.735,216.686,263.314,16.265,16,16z"/>
</g>
<path d="M80,480c-44.183,0-80-35.817-80-80s35.817-80,80-80s80,35.817,80,80S124.183,480,80,480z M80,352c-26.51,0-48,21.49-48,48
	s21.49,48,48,48s48-21.49,48-48S106.51,352,80,352z"/>
<path d="M314.656,480h-85.312c-8.837,0-16-7.163-16-16C213.203,355.068,124.932,266.797,16,266.656c-8.837,0-16-7.163-16-16v-85.312
	c0-8.837,7.163-16,16-16C189.699,149.538,330.462,290.301,330.656,464C330.656,472.837,323.493,480,314.656,480z M244.768,448h53.44
	C289.918,304.552,175.448,190.082,32,181.792v53.44C145.977,243.35,236.65,334.023,244.768,448z"/>
<path d="M464,480h-85.312c-8.837,0-16-7.163-16-16C362.476,272.622,207.378,117.538,16,117.344c-8.837,0-16-7.163-16-16V16
	C0,7.163,7.163,0,16,0c256.136,0.3,463.7,207.864,464,464C480,472.837,472.837,480,464,480z M394.336,448h53.376
	C439.079,222.081,257.919,40.921,32,32.288v53.376C228.458,94.223,385.777,251.542,394.336,448z"/>
<g>
</g>
<g>
</g>
<g>
</g>
<g>
</g>
<g>
</g>
<g>
</g>
<g>
</g>
<g>
</g>
<g>
</g>
<g>
</g>
<g>
</g>
<g>
</g>
<g>
</g>
<g>
</g>
<g>
</g>
</svg>
