<?xml version="1.0" encoding="iso-8859-1"?>
<!-- Generator: Adobe Illustrator 19.0.0, SVG Export Plug-In . SVG Version: 6.00 Build 0)  -->
<svg version="1.1" id="Capa_1" xmlns="http://www.w3.org/2000/svg" xmlns:xlink="http://www.w3.org/1999/xlink" x="0px" y="0px"
	 viewBox="0 0 514.24 514.24" style="enable-background:new 0 0 514.24 514.24;" xml:space="preserve">
<g>
	<polygon style="fill:#FAFAFA;" points="192,289.188 176,289.156 176,289.188 	"/>
	<polygon style="fill:#FAFAFA;" points="336,289.188 352,289.188 336,289.156 	"/>
</g>
<path style="fill:#FF9800;" d="M514.24,241.188c0-35.346-28.654-64-64-64c-13.876-0.013-27.37,4.542-38.4,12.96
	c-39.54-25.804-85.175-40.747-132.32-43.328l26.848-62.976l78.112,18.24c2.832,26.234,26.394,45.205,52.627,42.373
	c26.234-2.832,45.205-26.394,42.373-52.627c-2.832-26.234-26.394-45.205-52.627-42.373c-14.289,1.542-27.125,9.436-34.949,21.491
	l-91.296-21.344c-7.582-1.79-15.352,2.142-18.4,9.312l-37.088,87.008c-50.971,0.859-100.697,15.883-143.616,43.392
	C90.632,181.346,77.48,177.093,64,177.188c-35.346,0-64,28.654-64,64c-0.043,22.96,12.332,44.149,32.352,55.392
	C32,299.396,32,302.276,32,305.188c0,88.224,100.48,160,224,160s224-71.776,224-160c0-2.496,0-4.96-0.256-7.424
	C500.968,286.894,514.298,265.033,514.24,241.188z"/>
<circle style="fill:#FAFAFA;" cx="432" cy="97.188" r="16"/>
<path d="M432,145.188c-26.51,0-48-21.49-48-48s21.49-48,48-48s48,21.49,48,48S458.51,145.188,432,145.188z M432,81.188
	c-8.837,0-16,7.163-16,16s7.163,16,16,16s16-7.163,16-16S440.837,81.188,432,81.188z"/>
<path d="M256,465.188c-123.52,0-224-71.776-224-160c0-2.912,0-5.76,0.352-8.608C12.337,285.332-0.036,264.146,0,241.188
	c0-35.346,28.654-64,64-64c13.48-0.095,26.632,4.158,37.504,12.128c46.029-29.603,99.775-44.955,154.496-44.128
	c55.261-0.916,109.53,14.744,155.808,44.96c11.033-8.436,24.543-12.991,38.432-12.96c35.345,0.228,63.814,29.066,63.586,64.411
	c-0.152,23.569-13.246,45.147-34.082,56.165c0,2.464,0.256,4.928,0.256,7.424C480,393.412,379.52,465.188,256,465.188z M64,209.188
	c-17.673,0-32,14.327-32,32c-0.126,13.84,8.936,26.089,22.208,30.016c8.132,2.266,13.105,10.46,11.36,18.72
	c-1.053,5.019-1.579,10.135-1.568,15.264c0,70.592,86.112,128,192,128s192-57.408,192-128c-0.05-5.138-0.51-10.263-1.376-15.328
	c-1.348-8.215,3.828-16.091,11.904-18.112c13.987-3.529,23.768-16.135,23.712-30.56c0-17.673-14.327-32-32-32
	c-9.581-0.03-18.644,4.348-24.576,11.872c-5.493,6.922-15.557,8.08-22.479,2.586c-0.038-0.03-0.075-0.06-0.113-0.09
	C360.577,192.158,308.819,175.84,256,177.188c-52.311-1.22-103.575,14.766-145.92,45.504c-3.334,2.635-7.6,3.791-11.808,3.2
	c-4.215-0.498-8.06-2.651-10.688-5.984C81.778,212.913,73.088,208.963,64,209.188z"/>
<g>
	<path style="fill:#FAFAFA;" d="M336,321.188c-17.673,0-32-14.327-32-32s14.327-32,32-32s32,14.327,32,32
		S353.673,321.188,336,321.188z"/>
	<path style="fill:#FAFAFA;" d="M176,321.188c-17.673,0-32-14.327-32-32s14.327-32,32-32s32,14.327,32,32
		S193.673,321.188,176,321.188z"/>
	<path style="fill:#FAFAFA;" d="M256,419.3c-26.536,0.006-52.396-8.371-73.888-23.936c-7.166-5.178-8.778-15.186-3.6-22.352
		c5.178-7.166,15.186-8.778,22.352-3.6c32.892,23.84,77.38,23.84,110.272,0c7.166-5.178,17.174-3.566,22.352,3.6
		c5.178,7.166,3.566,17.174-3.6,22.352l0,0C308.396,410.929,282.536,419.306,256,419.3z"/>
</g>
<path d="M256,177.188c-2.198,0.013-4.376-0.422-6.4-1.28c-8.115-3.497-11.858-12.911-8.361-21.026
	c0.014-0.031,0.027-0.063,0.041-0.094l40.928-96c3.046-7.155,10.796-11.084,18.368-9.312l104.096,24.32
	c8.607,2.015,13.951,10.625,11.936,19.232s-10.625,13.951-19.232,11.936L306.4,83.844l-35.68,83.744
	C268.167,173.437,262.382,177.21,256,177.188z"/>
<g>
</g>
<g>
</g>
<g>
</g>
<g>
</g>
<g>
</g>
<g>
</g>
<g>
</g>
<g>
</g>
<g>
</g>
<g>
</g>
<g>
</g>
<g>
</g>
<g>
</g>
<g>
</g>
<g>
</g>
</svg>
