<?xml version="1.0" encoding="iso-8859-1"?>
<!-- Generator: Adobe Illustrator 19.0.0, SVG Export Plug-In . SVG Version: 6.00 Build 0)  -->
<svg version="1.1" id="Capa_1" xmlns="http://www.w3.org/2000/svg" xmlns:xlink="http://www.w3.org/1999/xlink" x="0px" y="0px"
	 viewBox="0 0 512 512" style="enable-background:new 0 0 512 512;" xml:space="preserve">
<path style="fill:#FF5722;" d="M48,16v480h96V368h320V16H48z M352,256H160V128h192V256z"/>
<path d="M144,512H48c-8.837,0-16-7.163-16-16V16c0-8.837,7.163-16,16-16h416c8.837,0,16,7.163,16,16v352c0,8.837-7.163,16-16,16H160
	v112C160,504.837,152.837,512,144,512z M64,480h64V368c0-8.837,7.163-16,16-16h304V32H64V480z M368,288H144c-8.837,0-16-7.163-16-16
	V112c0-8.837,7.163-16,16-16h224c8.837,0,16,7.163,16,16v160C384,280.837,376.837,288,368,288z M160,256h192V128H160V256z"/>
<g>
</g>
<g>
</g>
<g>
</g>
<g>
</g>
<g>
</g>
<g>
</g>
<g>
</g>
<g>
</g>
<g>
</g>
<g>
</g>
<g>
</g>
<g>
</g>
<g>
</g>
<g>
</g>
<g>
</g>
</svg>
