<?xml version="1.0" encoding="iso-8859-1"?>
<!-- Generator: Adobe Illustrator 19.0.0, SVG Export Plug-In . SVG Version: 6.00 Build 0)  -->
<svg version="1.1" id="Capa_1" xmlns="http://www.w3.org/2000/svg" xmlns:xlink="http://www.w3.org/1999/xlink" x="0px" y="0px"
	 viewBox="0 0 512.154 512.154" style="enable-background:new 0 0 512.154 512.154;" xml:space="preserve">
<g>
	<path style="fill:#D32F2F;" d="M263.041,0C122.721,0,48.097,89.92,48.097,187.968c-0.982,48.972,24.198,94.76,66.08,120.16
		c6.176,2.784,9.6,1.6,10.912-4.128c1.216-4.352,6.56-25.312,9.152-35.2c0.938-3.141,0.106-6.543-2.176-8.896
		c-15.623-20.285-24.136-45.148-24.224-70.752c1.588-76.155,64.61-136.603,140.765-135.015c2.04,0.043,4.079,0.13,6.115,0.263
		c69.208-5.64,129.885,45.893,135.524,115.101c0.303,3.716,0.44,7.443,0.412,11.171c0,84.032-44.448,142.112-102.208,142.112
		c-25.184,2.114-47.313-16.588-49.427-41.772c-0.405-4.823-0.042-9.679,1.075-14.388c12.058-33.611,21.128-68.219,27.104-103.424
		c2.192-21.805-13.708-41.258-35.512-43.45c-1.852-0.186-3.715-0.242-5.576-0.166c-37.149,4.592-63.541,38.431-58.949,75.579
		c0.002,0.012,0.003,0.024,0.005,0.037c-0.235,15.869,3.044,31.594,9.6,46.048c0,0-32,130.08-38.112,154.368
		c-5.465,37.697-4.654,76.039,2.4,113.472c0.162,1.849,1.793,3.215,3.641,3.053c1.017-0.089,1.937-0.636,2.503-1.485
		c22.269-30.612,40.109-64.212,52.992-99.808c3.968-14.624,20.256-73.92,20.256-73.92c17.459,23.472,45.395,36.793,74.624,35.584
		c98.176-0.128,169.024-86.304,169.024-193.312C463.713,76.8,375.969,0,263.041,0"/>
</g>
<g>
	<path d="M153.057,512c-1.468,0.009-2.931-0.174-4.352-0.544c-7.434-1.84-13.089-7.884-14.432-15.424
		c-6.982-37.297-7.663-75.501-2.016-113.024l33.92-139.488c-5.482-14.296-8.25-29.489-8.16-44.8
		c-4.474-43.378,27.029-82.183,70.4-86.72c29.006-0.881,53.234,21.918,54.116,50.924c0.061,2.014,0.007,4.029-0.164,6.036
		c-1.766,21.738-6.614,43.115-14.4,63.488c-3.936,12.256-8,24.896-10.976,37.216c-2.128,7.583-0.538,15.727,4.288,21.952
		c6.123,7.215,15.215,11.225,24.672,10.88c45.408,0,78.368-49.28,78.368-117.248c1.305-55.461-42.596-101.478-98.057-102.784
		c-3.82-0.09-7.642,0.038-11.447,0.384c-62.072-3.862-115.522,43.325-119.384,105.397c-0.104,1.666-0.17,3.334-0.2,5.003
		c0.033,20.177,6.501,39.817,18.464,56.064c5.532,6.157,7.579,14.692,5.44,22.688l-8.64,33.184
		c-1.326,6.404-5.495,11.857-11.328,14.816c-6.601,3.055-14.251,2.841-20.672-0.576c-44.719-26.572-71.63-75.197-70.4-127.2
		C48.097,99.648,115.297,0,262.497,0c114.528,0,201.216,79.104,201.6,184c0,112.384-73.92,197.12-171.904,197.12
		c-21.62-0.025-42.759-6.389-60.8-18.304l-11.424,42.368c-12.489,35.253-29.841,68.588-51.552,99.04
		C164.779,509.056,159.106,511.928,153.057,512z M228.417,144c-21.536,0-38.4,24.064-38.4,54.784
		c-0.133,12.356,2.342,24.602,7.264,35.936c1.677,3.425,2.129,7.322,1.28,11.04L163.297,390.4
		c-3.881,21.684-4.528,43.823-1.92,65.696c11.648-18.555,20.977-38.469,27.776-59.296l18.688-69.312
		c1.711-6.318,7.098-10.958,13.6-11.712c6.515-0.8,12.859,2.46,16,8.224c13.254,16.601,33.623,25.894,54.848,25.024
		c79.68,0.096,139.808-70.88,139.808-164.96C431.777,97.408,358.849,32,262.497,32c-125.312,0-182.4,83.2-182.4,160.224
		c-0.125,35.75,15.46,69.75,42.624,92.992l4.544-17.824c-15.474-21.604-23.87-47.474-24.032-74.048
		c0.773-79.525,65.868-143.366,145.393-142.593c2.065,0.02,4.129,0.085,6.191,0.193c72.787-5.192,136.002,49.604,141.195,122.391
		c0.285,3.996,0.388,8.003,0.309,12.009c0,86.4-46.4,149.248-110.368,149.248c-19.264,0.383-37.63-8.128-49.792-23.072
		c-10.895-13.876-14.694-32.041-10.272-49.12c3.2-13.056,7.424-26.464,11.584-39.456c6.576-17.279,10.879-35.34,12.8-53.728
		C250.369,159.744,247.521,144,228.417,144z"/>
</g>
<g>
</g>
<g>
</g>
<g>
</g>
<g>
</g>
<g>
</g>
<g>
</g>
<g>
</g>
<g>
</g>
<g>
</g>
<g>
</g>
<g>
</g>
<g>
</g>
<g>
</g>
<g>
</g>
<g>
</g>
</svg>
