<?xml version="1.0" encoding="iso-8859-1"?>
<!-- Generator: Adobe Illustrator 19.0.0, SVG Export Plug-In . SVG Version: 6.00 Build 0)  -->
<svg version="1.1" id="Capa_1" xmlns="http://www.w3.org/2000/svg" xmlns:xlink="http://www.w3.org/1999/xlink" x="0px" y="0px"
	 viewBox="0 0 512.072 512.072" style="enable-background:new 0 0 512.072 512.072;" xml:space="preserve">
<path style="fill:#FFC107;" d="M384.031,34.544v317.472h109.216C541.3,233.769,494.662,98.201,384.031,34.544z"/>
<path style="fill:#F44336;" d="M352.031,18.8C293.34-5.151,227.803-6.236,168.351,15.76l183.68,171.424V18.8z"/>
<path style="fill:#4CAF50;" d="M160.031,493.232c118.247,48.053,253.815,1.415,317.472-109.216H160.031V493.232z"/>
<path style="fill:#9C27B0;" d="M136.415,29.744C30.89,85.042-22.16,206.139,8.735,321.2l216.064-208.96L136.415,29.744z"/>
<path style="fill:#2196F3;" d="M128.031,477.488v-227.2l-108.16,104.64C41.621,406.467,79.597,449.499,128.031,477.488z"/>
<rect x="352.031" y="44.176" width="32" height="323.84"/>
<rect x="144.031" y="352.016" width="323.84" height="32"/>
<rect x="128.031" y="212.816" width="32" height="255.04"/>
<rect x="250.275" y="-10.01" transform="matrix(-0.682 0.7314 -0.7314 -0.682 542.306 22.4373)" width="32" height="278.272"/>
<rect x="-16.69" y="203.042" transform="matrix(-0.7187 0.6953 -0.6953 -0.7187 388.2971 281.004)" width="308" height="32"/>
<path d="M256.031,512.016c-141.385,0-256-114.615-256-256s114.615-256,256-256s256,114.615,256,256
	C511.873,397.335,397.35,511.857,256.031,512.016z M256.031,32.016c-123.712,0-224,100.288-224,224s100.288,224,224,224
	s224-100.288,224-224C479.89,132.363,379.685,32.157,256.031,32.016z"/>
<g>
</g>
<g>
</g>
<g>
</g>
<g>
</g>
<g>
</g>
<g>
</g>
<g>
</g>
<g>
</g>
<g>
</g>
<g>
</g>
<g>
</g>
<g>
</g>
<g>
</g>
<g>
</g>
<g>
</g>
</svg>
