<?xml version="1.0" encoding="iso-8859-1"?>
<!-- Generator: Adobe Illustrator 19.0.0, SVG Export Plug-In . SVG Version: 6.00 Build 0)  -->
<svg version="1.1" id="Capa_1" xmlns="http://www.w3.org/2000/svg" xmlns:xlink="http://www.w3.org/1999/xlink" x="0px" y="0px"
	 viewBox="0 0 512.429 512.429" style="enable-background:new 0 0 512.429 512.429;" xml:space="preserve">
<path style="fill:#C62828;" d="M512.119,184.253C509.207,113.245,443.895-1.059,254.423,0.285
	C56.567,1.725-1.257,134.205,0.119,209.949c0.489,44.468,18.821,86.876,50.88,117.696l73.92-60.864c0,0-31.36,2.688-31.36-59.52
	c0-94.784,113.568-119.04,186.016-117.696s129.632,59.84,130.624,105.6c5.461,37.86-13.37,75.086-47.104,93.12
	c-30.144,13.913-64.665,14.895-95.552,2.72l0.704-152.864l-97.664,0.704l-0.256,269.952c-0.833,12.219-11.414,21.449-23.633,20.616
	c-0.864-0.059-1.724-0.168-2.575-0.328c-15.202-3.278-29.294-10.444-40.896-20.8v80.32c21.127,15.632,46.776,23.946,73.056,23.68
	c48.62,2.233,89.845-35.372,92.078-83.992c0.153-3.341,0.117-6.687-0.11-10.024v-52.96c18.678,7.181,38.631,10.448,58.624,9.6
	C488.503,374.685,514.327,243.805,512.119,184.253z"/>
<path d="M181.239,512.285c-28.304,0.193-55.886-8.926-78.496-25.952c-3.61-3.023-5.706-7.483-5.728-12.192v-75.328
	c-0.026-8.837,7.116-16.021,15.952-16.048c3.888-0.012,7.648,1.393,10.576,3.952c8.173,7.483,18.065,12.836,28.8,15.584
	c2.202,0.395,4.473-0.014,6.4-1.152l1.536-254.976c0.001-1.383,0.184-2.76,0.544-4.096c-6.759,4.02-13.031,8.809-18.688,14.272
	c-14.657,14.058-22.698,33.65-22.144,53.952c0,32,9.408,39.552,13.056,39.84c6.867-0.614,13.294,3.452,15.68,9.92
	c2.477,6.594,0.407,14.033-5.12,18.4l-69.6,57.088c-5.982,4.931-14.639,4.863-20.544-0.16
	c-33.581-31.856-52.825-75.956-53.344-122.24c0.27-52.602,21.09-103.016,58.016-140.48C111.109,23.051,181.886-3.053,254.391,0.285
	h3.2c181.152,0,251.328,112,254.528,187.84l0,0c2.414,52.451-15.673,103.783-50.432,143.136
	c-37.036,36.068-87.486,54.974-139.104,52.128c-13.077,0.089-26.131-1.101-38.976-3.552v28.32
	c0.412,27.81-9.456,54.793-27.712,75.776C236.123,503.49,209.01,513.787,181.239,512.285z M128.983,465.693
	c15.771,9.518,33.836,14.563,52.256,14.592c18.971,1.281,37.615-5.425,51.424-18.496c12.347-14.857,19.026-33.611,18.848-52.928
	v-50.368c0-8.837,7.163-16,15.999-16.001c2.417,0,4.802,0.547,6.977,1.601c15.386,5.48,31.681,7.957,48,7.296
	c42.889,2.69,84.953-12.657,116.032-42.336c28.872-32.983,43.789-75.9,41.6-119.68l0,0c-2.24-54.88-53.216-159.552-225.472-157.088
	c-63.987-3.632-126.683,19.024-173.568,62.72c-30.862,31.415-48.402,73.533-48.96,117.568c0.448,32.518,12.062,63.893,32.896,88.864
	l39.552-32.544c-12.65-16.787-18.676-37.645-16.928-58.592c-0.574-28.903,10.93-56.737,31.744-76.8
	c48.672-47.776,133.536-50.208,158.944-49.504c76.48,1.44,137.088,62.784,138.176,114.56c5.574,41.518-15.27,82.122-52.256,101.792
	c-32.563,15.404-70.068,16.563-103.52,3.2c-6.005-2.482-9.913-8.35-9.888-14.848l0.608-127.136l-59.52,0.384l-0.224,237.184
	c-0.42,9.74-4.635,18.929-11.744,25.6c-8.07,7.234-18.821,10.72-29.6,9.6c-7.459-0.608-14.735-2.628-21.44-5.952L128.983,465.693z
	 M282.903,277.277c21.703,6.709,45.136,4.995,65.632-4.8c26.571-14.049,41.088-43.598,35.968-73.216
	c-0.704-32.736-45.856-82.144-106.784-83.2c-31.256-0.758-62.401,4.008-92,14.08l81.696-0.512l0,0
	c4.246-0.008,8.322,1.673,11.328,4.672c3.023,3.03,4.705,7.144,4.672,11.424L282.903,277.277z"/>
<g>
</g>
<g>
</g>
<g>
</g>
<g>
</g>
<g>
</g>
<g>
</g>
<g>
</g>
<g>
</g>
<g>
</g>
<g>
</g>
<g>
</g>
<g>
</g>
<g>
</g>
<g>
</g>
<g>
</g>
</svg>
