<?xml version="1.0" encoding="iso-8859-1"?>
<!-- Generator: Adobe Illustrator 19.0.0, SVG Export Plug-In . SVG Version: 6.00 Build 0)  -->
<svg version="1.1" id="Capa_1" xmlns="http://www.w3.org/2000/svg" xmlns:xlink="http://www.w3.org/1999/xlink" x="0px" y="0px"
	 viewBox="0 0 512 512" style="enable-background:new 0 0 512 512;" xml:space="preserve">
<g>
	<path style="fill:#37474F;" d="M400,224c-30.147,0.008-59.006,12.222-80,33.856V256c0.16-52.842-42.548-95.809-95.391-95.968
		c-30.161-0.091-58.6,14.045-76.737,38.144c-23.015-37.591-72.146-49.407-109.737-26.392C14.398,186.317-0.053,212.167,0,240v112
		h128v64h160v96h224V336C512,274.144,461.856,224,400,224z"/>
	<circle style="fill:#37474F;" cx="400" cy="96" r="96"/>
	<circle style="fill:#37474F;" cx="224" cy="80" r="64"/>
	<circle style="fill:#37474F;" cx="80" cy="96" r="48"/>
</g>
<path d="M496,512H304c-8.837,0-16-7.163-16-16V336c0-61.856,50.144-112,112-112s112,50.144,112,112v160
	C512,504.837,504.837,512,496,512z M320,480h160V336c0-44.183-35.817-80-80-80s-80,35.817-80,80V480z"/>
<path d="M304,416H144c-8.837,0-16-7.163-16-16V256c0-53.019,42.981-96,96-96s96,42.981,96,96v144C320,408.837,312.837,416,304,416z
	 M160,384h128V256c0-35.346-28.654-64-64-64s-64,28.654-64,64V384z"/>
<path d="M144,352H16c-8.837,0-16-7.163-16-16v-96c0-44.183,35.817-80,80-80s80,35.817,80,80v96C160,344.837,152.837,352,144,352z
	 M32,320h96v-80c0-26.51-21.49-48-48-48s-48,21.49-48,48V320z"/>
<path d="M400,192c-53.019,0-96-42.981-96-96s42.981-96,96-96s96,42.981,96,96S453.02,192,400,192z M400,32
	c-35.346,0-64,28.654-64,64s28.654,64,64,64s64-28.654,64-64S435.346,32,400,32z"/>
<path d="M224,144c-35.346,0-64-28.654-64-64s28.654-64,64-64s64,28.654,64,64S259.346,144,224,144z M224,48
	c-17.673,0-32,14.327-32,32s14.327,32,32,32s32-14.327,32-32S241.673,48,224,48z"/>
<path d="M80,144c-26.51,0-48-21.49-48-48s21.49-48,48-48s48,21.49,48,48S106.51,144,80,144z M80,80c-8.837,0-16,7.163-16,16
	s7.163,16,16,16s16-7.163,16-16S88.837,80,80,80z"/>
<g>
</g>
<g>
</g>
<g>
</g>
<g>
</g>
<g>
</g>
<g>
</g>
<g>
</g>
<g>
</g>
<g>
</g>
<g>
</g>
<g>
</g>
<g>
</g>
<g>
</g>
<g>
</g>
<g>
</g>
</svg>
