<?xml version="1.0" encoding="iso-8859-1"?>
<!-- Generator: Adobe Illustrator 19.0.0, SVG Export Plug-In . SVG Version: 6.00 Build 0)  -->
<svg version="1.1" id="Capa_1" xmlns="http://www.w3.org/2000/svg" xmlns:xlink="http://www.w3.org/1999/xlink" x="0px" y="0px"
	 viewBox="0 0 512.022 512.022" style="enable-background:new 0 0 512.022 512.022;" xml:space="preserve">
<path style="fill:#4CAF50;" d="M340.131,256.011l111.072-122.176c29.726-32.695,27.319-83.298-5.376-113.024
	s-83.298-27.319-113.024,5.376c0,0,0,0,0,0l-132.8,146.112V80.011c0-44.183-35.817-80-80-80s-80,35.817-80,80v352
	c0,44.183,35.817,80,80,80s80-35.817,80-80v-92.256l132.8,146.08c29.726,32.695,80.329,35.102,113.024,5.376
	c32.695-29.726,35.102-80.329,5.376-113.024L340.131,256.011z"/>
<path d="M392.003,512.011c-22.543-0.023-44.038-9.522-59.232-26.176l-132.768-146.08v92.256c0,44.183-35.817,80-80,80
	s-80-35.817-80-80v-352c0-44.183,35.817-80,80-80s80,35.817,80,80v92.288l132.8-146.112c29.78-32.58,80.286-34.983,113.024-5.376
	c32.695,29.718,35.108,80.314,5.39,113.009c-0.005,0.005-0.009,0.01-0.014,0.015L340.131,256.011l111.072,122.176
	c29.726,32.688,27.326,83.284-5.362,113.01C431.111,504.593,411.914,512.014,392.003,512.011z M184.003,282.379
	c4.505-0.006,8.804,1.888,11.84,5.216l160.672,176.704c18.176,18.883,47.934,20.287,67.808,3.2
	c19.588-17.838,21.02-48.172,3.2-67.776L306.659,266.795c-5.554-6.104-5.554-15.432,0-21.536l120.832-132.96
	c18.422-19.062,17.904-49.45-1.159-67.872c-19.062-18.422-49.45-17.904-67.872,1.159c-0.67,0.693-1.318,1.406-1.945,2.137
	L195.843,224.459c-5.944,6.539-16.063,7.022-22.602,1.078c-3.342-3.038-5.245-7.346-5.238-11.862V80.011c0-26.51-21.49-48-48-48
	s-48,21.49-48,48v352c0,26.51,21.49,48,48,48s48-21.49,48-48V298.379c-0.012-6.612,4.044-12.55,10.208-14.944
	C180.06,282.728,182.024,282.37,184.003,282.379z"/>
<g>
</g>
<g>
</g>
<g>
</g>
<g>
</g>
<g>
</g>
<g>
</g>
<g>
</g>
<g>
</g>
<g>
</g>
<g>
</g>
<g>
</g>
<g>
</g>
<g>
</g>
<g>
</g>
<g>
</g>
</svg>
