<?xml version="1.0" encoding="iso-8859-1"?>
<!-- Generator: Adobe Illustrator 19.0.0, SVG Export Plug-In . SVG Version: 6.00 Build 0)  -->
<svg version="1.1" id="Capa_1" xmlns="http://www.w3.org/2000/svg" xmlns:xlink="http://www.w3.org/1999/xlink" x="0px" y="0px"
	 viewBox="0 0 512 512" style="enable-background:new 0 0 512 512;" xml:space="preserve">
<linearGradient id="SVGID_1_" gradientUnits="userSpaceOnUse" x1="-46.0043" y1="634.1207" x2="-32.9332" y2="647.1918" gradientTransform="matrix(32 0 0 -32 1519 20757)">
	<stop  offset="0" style="stop-color:#FFC107"/>
	<stop  offset="0.507" style="stop-color:#F44336"/>
	<stop  offset="0.99" style="stop-color:#9C27B0"/>
</linearGradient>
<path style="fill:url(#SVGID_1_);" d="M352,0H160C71.634,0,0,71.634,0,160v192c0,88.366,71.634,160,160,160h192
	c88.366,0,160-71.634,160-160V160C512,71.634,440.366,0,352,0z"/>
<linearGradient id="SVGID_2_" gradientUnits="userSpaceOnUse" x1="-35.5456" y1="644.5793" x2="-34.7916" y2="645.3334" gradientTransform="matrix(32 0 0 -32 1519 20757)">
	<stop  offset="0" style="stop-color:#FFC107"/>
	<stop  offset="0.507" style="stop-color:#F44336"/>
	<stop  offset="0.99" style="stop-color:#9C27B0"/>
</linearGradient>
<path style="fill:url(#SVGID_2_);" d="M393.6,101.344c-9.42,0-17.056,7.636-17.056,17.056s7.636,17.056,17.056,17.056
	s17.056-7.636,17.056-17.056l0,0c0.018-9.402-7.59-17.038-16.992-17.056C393.643,101.344,393.621,101.344,393.6,101.344z"/>
<path d="M368,512H144C64.508,511.912,0.088,447.492,0,368V144C0.088,64.508,64.508,0.088,144,0h224
	c79.492,0.088,143.912,64.508,144,144v224C511.912,447.492,447.492,511.912,368,512z M144,32C82.144,32,32,82.144,32,144v224
	c0,61.856,50.144,112,112,112h224c61.856,0,112-50.144,112-112V144c0-61.856-50.144-112-112-112H144z"/>
<g>
	<path style="fill:#FAFAFA;" d="M256,384c-70.692,0-128-57.308-128-128s57.308-128,128-128s128,57.308,128,128S326.692,384,256,384z
		 M256,160c-53.019,0-96,42.981-96,96s42.981,96,96,96s96-42.981,96-96S309.019,160,256,160z"/>
	<path style="fill:#FAFAFA;" d="M400,144c-17.673,0-32-14.327-32-32s14.327-32,32-32s32,14.327,32,32S417.673,144,400,144z"/>
</g>
<g>
</g>
<g>
</g>
<g>
</g>
<g>
</g>
<g>
</g>
<g>
</g>
<g>
</g>
<g>
</g>
<g>
</g>
<g>
</g>
<g>
</g>
<g>
</g>
<g>
</g>
<g>
</g>
<g>
</g>
</svg>
