<?xml version="1.0" encoding="iso-8859-1"?>
<!-- Generator: Adobe Illustrator 19.0.0, SVG Export Plug-In . SVG Version: 6.00 Build 0)  -->
<svg version="1.1" id="Capa_1" xmlns="http://www.w3.org/2000/svg" xmlns:xlink="http://www.w3.org/1999/xlink" x="0px" y="0px"
	 viewBox="0 0 512.341 512.341" style="enable-background:new 0 0 512.341 512.341;" xml:space="preserve">
<path style="fill:#F44336;" d="M176.341,288.17h90.528c-17.673,49.987-72.523,76.183-122.51,58.51
	c-49.987-17.673-76.183-72.523-58.51-122.51c13.559-38.35,49.815-63.992,90.491-64c22.843-0.038,44.928,8.191,62.176,23.168
	l42.048-48.256c-28.901-25.133-65.923-38.955-104.224-38.912c-88.366,0-160,71.634-160,160s71.634,160,160,160s160-71.634,160-160
	v-32h-160V288.17z"/>
<path d="M176.341,432.17C79.139,432.359,0.189,353.714,0,256.512S78.457,80.359,175.659,80.171
	c42.382-0.082,83.37,15.132,115.434,42.847c6.671,5.795,7.381,15.901,1.586,22.572c-0.006,0.007-0.012,0.013-0.018,0.02
	l-42.08,48.256c-5.794,6.544-15.767,7.228-22.4,1.536c-14.38-12.478-32.801-19.312-51.84-19.232c-44.183,0-80,35.817-80,80
	s35.817,80,80,80c25.181,0,48.892-11.856,64-32h-64c-8.837,0-16-7.163-16-16v-64c0-8.837,7.163-16,16-16h160c8.837,0,16,7.163,16,16
	v32C352.235,353.329,273.5,432.064,176.341,432.17z M176.341,112.17c-79.529,0-144,64.471-144,144s64.471,144,144,144
	s144-64.471,144-144v-16h-128v32h74.496c8.837-0.013,16.01,7.141,16.023,15.977c0.003,1.828-0.308,3.644-0.919,5.367
	c-20.625,58.316-84.619,88.871-142.935,68.247C80.69,341.137,50.135,277.143,70.76,218.826
	c15.823-44.741,58.126-74.652,105.582-74.656c21.217-0.021,41.996,6.043,59.872,17.472l21.184-24.32
	C233.556,120.909,205.286,112.137,176.341,112.17z"/>
<g>
	<path style="fill:#F44336;" d="M448.341,304.17c-8.837,0-16-7.163-16-16v-96c0-8.837,7.163-16,16-16s16,7.163,16,16v96
		C464.341,297.007,457.178,304.17,448.341,304.17z"/>
	<path style="fill:#F44336;" d="M496.341,256.17h-96c-8.837,0-16-7.163-16-16s7.163-16,16-16h96c8.837,0,16,7.163,16,16
		S505.178,256.17,496.341,256.17z"/>
</g>
<g>
</g>
<g>
</g>
<g>
</g>
<g>
</g>
<g>
</g>
<g>
</g>
<g>
</g>
<g>
</g>
<g>
</g>
<g>
</g>
<g>
</g>
<g>
</g>
<g>
</g>
<g>
</g>
<g>
</g>
</svg>
