<?xml version="1.0" encoding="iso-8859-1"?>
<!-- Generator: Adobe Illustrator 19.0.0, SVG Export Plug-In . SVG Version: 6.00 Build 0)  -->
<svg version="1.1" id="Capa_1" xmlns="http://www.w3.org/2000/svg" xmlns:xlink="http://www.w3.org/1999/xlink" x="0px" y="0px"
	 viewBox="0 0 512 512" style="enable-background:new 0 0 512 512;" xml:space="preserve">
<polygon style="fill:#FFC107;" points="128,144 0,240 192,240 240,240 "/>
<polygon style="fill:#FFA000;" points="128,144 240,240 272,192 272,144 "/>
<polygon style="fill:#4CAF50;" points="144,384 240,496 240,320 240,272 "/>
<polygon style="fill:#388E3C;" points="144,384 240,272 192,240 144,240 "/>
<polygon style="fill:#2196F3;" points="384,368 496,272 320,272 272,272 "/>
<polygon style="fill:#1976D2;" points="384,368 272,272 240,320 240,368 "/>
<polygon style="fill:#F44336;" points="368,128 272,0 272,192 272,240 "/>
<polygon style="fill:#9C27B0;" points="368,128 272,240 320,272 384,272 "/>
<path d="M240,512c-5.036,0-9.778-2.371-12.8-6.4l-96-128c-2.077-2.77-3.2-6.138-3.2-9.6V256H16c-8.837,0-16-7.163-16-16
	c0-5.036,2.371-9.778,6.4-12.8l128-96c2.77-2.077,6.138-3.2,9.6-3.2h112V16c0-8.837,7.163-16,16-16c5.036,0,9.778,2.371,12.8,6.4
	l96,128c2.077,2.77,3.2,6.138,3.2,9.6v112h112c8.837,0,16,7.163,16,16c0,5.036-2.371,9.778-6.4,12.8l-128,96
	c-2.77,2.077-6.138,3.2-9.6,3.2H256v112c-0.005,6.884-4.413,12.993-10.944,15.168C243.429,511.726,241.72,512.008,240,512z
	 M160,362.656L224,448v-80c0-8.837,7.163-16,16-16h122.688L448,288h-80c-8.837,0-16-7.163-16-16V149.344L288,64v80
	c0,8.837-7.163,16-16,16H149.344L64,224h80c8.837,0,16,7.163,16,16V362.656z"/>
<path d="M256,336c-6.884-0.005-12.993-4.413-15.168-10.944L227.2,284.8l-40.256-13.632c-8.377-2.812-12.888-11.883-10.076-20.26
	c1.595-4.751,5.324-8.481,10.076-10.076L227.2,227.2l13.504-40.384c3.779-8.377,13.634-12.104,22.011-8.325
	c3.697,1.668,6.658,4.628,8.325,8.325L284.8,227.2l40.384,13.504c8.377,2.812,12.888,11.883,10.076,20.26
	c-1.595,4.751-5.324,8.481-10.076,10.076L284.8,284.8l-13.504,40.384C269.062,331.709,262.897,336.068,256,336z M242.592,256
	l2.464,0.832c4.793,1.562,8.55,5.319,10.112,10.112l0.832,2.464l0.832-2.464c1.562-4.793,5.319-8.55,10.112-10.112l2.464-0.832
	l-2.464-0.832c-4.793-1.562-8.55-5.319-10.112-10.112L256,242.592l-0.832,2.464c-1.562,4.793-5.319,8.55-10.112,10.112L242.592,256z
	"/>
<g>
</g>
<g>
</g>
<g>
</g>
<g>
</g>
<g>
</g>
<g>
</g>
<g>
</g>
<g>
</g>
<g>
</g>
<g>
</g>
<g>
</g>
<g>
</g>
<g>
</g>
<g>
</g>
<g>
</g>
</svg>
