<?xml version="1.0" encoding="iso-8859-1"?>
<!-- Generator: Adobe Illustrator 19.0.0, SVG Export Plug-In . SVG Version: 6.00 Build 0)  -->
<svg version="1.1" id="Capa_1" xmlns="http://www.w3.org/2000/svg" xmlns:xlink="http://www.w3.org/1999/xlink" x="0px" y="0px"
	 viewBox="0 0 512.003 512.003" style="enable-background:new 0 0 512.003 512.003;" xml:space="preserve">
<path style="fill:#4CAF50;" d="M256.203,0.003C132.492-0.219,32.023,99.888,31.8,223.6
	c-0.201,111.658,81.861,206.414,192.403,222.164v66.24h16c128,0,240-134.592,240-288C480.062,100.35,379.857,0.145,256.203,0.003z"
	/>
<g>
	<path style="fill:#FAFAFA;" d="M160.203,152.003v85.344h32v42.656c17.854-5.265,30.593-21.023,32-39.584v-88.416H160.203z"/>
</g>
<g>
	<path style="fill:#FAFAFA;" d="M304.203,136.003v85.344h32v42.656c17.854-5.265,30.593-21.023,32-39.584v-88.416H304.203z"/>
</g>
<g>
	<path d="M192.203,288.003c-8.837,0-16-7.163-16-16v-32h-32c-8.837,0-16-7.163-16-16v-80c0-8.837,7.163-16,16-16h80
		c8.837,0,16,7.163,16,16v83.488c-1.815,25.506-17.379,47.999-40.608,58.688C197.314,287.373,194.778,287.999,192.203,288.003z
		 M160.203,208.003h32c8.837,0,16,7.163,16,16v-64h-48V208.003z"/>
</g>
<g>
	<path d="M336.203,288.003c-8.837,0-16-7.163-16-16v-32h-32c-8.837,0-16-7.163-16-16v-80c0-8.837,7.163-16,16-16h80
		c8.837,0,16,7.163,16,16v83.488c-1.815,25.506-17.379,47.999-40.608,58.688C341.314,287.373,338.778,287.999,336.203,288.003z
		 M304.203,208.003h32c8.837,0,16,7.163,16,16v-64h-48V208.003z"/>
</g>
<path d="M240.203,512.003c-8.837,0-16-7.163-16-16v-50.272C101.761,428.058,16.828,314.472,34.501,192.029
	S165.761-15.347,288.203,2.326c110.199,15.906,191.987,110.336,192,221.677C480.203,377.411,368.203,512.003,240.203,512.003z
	 M256.203,431.523v47.616c102.4-11.168,192-127.776,192-255.136C448.2,117.965,362.236,32.006,256.197,32.01
	C150.158,32.014,64.2,117.978,64.203,224.017c0.003,99.932,76.661,183.152,176.256,191.347c8.481,0.128,15.389,6.853,15.744,15.328
	V431.523z"/>
<g>
</g>
<g>
</g>
<g>
</g>
<g>
</g>
<g>
</g>
<g>
</g>
<g>
</g>
<g>
</g>
<g>
</g>
<g>
</g>
<g>
</g>
<g>
</g>
<g>
</g>
<g>
</g>
<g>
</g>
</svg>
