<?xml version="1.0" encoding="iso-8859-1"?>
<!-- Generator: Adobe Illustrator 19.0.0, SVG Export Plug-In . SVG Version: 6.00 Build 0)  -->
<svg version="1.1" id="Capa_1" xmlns="http://www.w3.org/2000/svg" xmlns:xlink="http://www.w3.org/1999/xlink" x="0px" y="0px"
	 viewBox="0 0 512 512" style="enable-background:new 0 0 512 512;" xml:space="preserve">
<g>
	<polygon style="fill:#009688;" points="48,512 256,0 464,512 	"/>
</g>
<path style="fill:#FAFAFA;" d="M364.032,361.12c-3.971-7.888-13.581-11.067-21.472-7.104l-54.4,27.456v-16l0,0
	c3.157,0.009,6.244-0.927,8.864-2.688l30.72-20.48c7.208-5.111,8.908-15.098,3.797-22.307c-4.9-6.911-14.339-8.804-21.525-4.317
	l-21.856,14.56V288h-64v80.352l-29.6-29.856c-5.702-6.75-15.797-7.6-22.548-1.898c-6.751,5.702-7.6,15.797-1.898,22.548
	c0.53,0.627,1.106,1.212,1.726,1.75l41.28,41.6c2.93,2.941,6.889,4.628,11.04,4.704V512h64v-96.64l0,0
	c2.501,0.018,4.97-0.563,7.2-1.696l61.728-31.072C364.915,378.564,368.018,368.969,364.032,361.12z"/>
<g>
	<path d="M448,512H288c-8.837,0-16-7.163-16-16V304h-32l0.608,192c0,8.837-7.163,16-16,16H64
		c-8.837-0.002-15.998-7.167-15.996-16.004c0-2.038,0.39-4.057,1.148-5.948l192-480c4.188-8.2,14.23-11.453,22.43-7.266
		c3.126,1.597,5.669,4.139,7.266,7.266l192,480c3.287,8.202-0.697,17.517-8.9,20.804C452.056,511.61,450.038,512,448,512z M304,480
		h120.384L256,59.072L87.616,480H208.64L208,288c0-8.837,7.163-16,16-16h64c8.837,0,16,7.163,16,16V480z"/>
</g>
<path d="M224.32,407.36c-4.267-0.001-8.356-1.706-11.36-4.736l-41.28-41.6c-6.724-5.734-7.526-15.833-1.792-22.556
	c5.734-6.724,15.833-7.526,22.556-1.792c0.696,0.593,1.339,1.245,1.923,1.948l41.28,41.6c6.221,6.276,6.177,16.406-0.099,22.627
	c-2.988,2.962-7.022,4.628-11.229,4.637V407.36z"/>
<path d="M288,365.44c-8.837-0.007-15.994-7.176-15.988-16.012c0.004-5.345,2.677-10.335,7.124-13.3l30.72-20.48
	c7.208-5.111,17.195-3.411,22.307,3.797s3.411,17.195-3.797,22.307c-0.255,0.181-0.516,0.355-0.781,0.52l-30.72,20.48
	C294.244,364.513,291.156,365.449,288,365.44z"/>
<path d="M288,415.36c-8.837,0.017-16.014-7.132-16.031-15.969c-0.012-6.066,3.408-11.617,8.831-14.335l61.76-31.04
	c7.9-3.968,17.52-0.78,21.488,7.12s0.78,17.52-7.12,21.488l0,0l-61.728,31.04C292.963,414.778,290.499,415.359,288,415.36z"/>
<g>
</g>
<g>
</g>
<g>
</g>
<g>
</g>
<g>
</g>
<g>
</g>
<g>
</g>
<g>
</g>
<g>
</g>
<g>
</g>
<g>
</g>
<g>
</g>
<g>
</g>
<g>
</g>
<g>
</g>
</svg>
