<?xml version="1.0" encoding="iso-8859-1"?>
<!-- Generator: Adobe Illustrator 19.0.0, SVG Export Plug-In . SVG Version: 6.00 Build 0)  -->
<svg version="1.1" id="Capa_1" xmlns="http://www.w3.org/2000/svg" xmlns:xlink="http://www.w3.org/1999/xlink" x="0px" y="0px"
	 viewBox="0 0 512 512" style="enable-background:new 0 0 512 512;" xml:space="preserve">
<path style="fill:#1976D2;" d="M384.002,192h-96v-64c0-17.673,14.327-32,32-32h32V16h-64c-53.019,0-96,42.981-96,96v80h-64v80h64
	v224h96V272h64L384.002,192z"/>
<path d="M288.002,512h-96c-8.837,0-16-7.163-16-16V288h-48c-8.837,0-16-7.163-16-16v-80c0-8.837,7.163-16,16-16h48v-64
	c0-61.856,50.144-112,112-112h64c8.837,0,16,7.163,16,16v80c0,8.837-7.163,16-16,16h-32c-8.837,0-16,7.163-16,16v48h80
	c8.837,0.002,15.998,7.167,15.996,16.004c0,2.038-0.39,4.057-1.148,5.948l-32,80c-2.432,6.068-8.311,10.046-14.848,10.048h-48v208
	C304.002,504.837,296.838,512,288.002,512z M208.002,480h64V272c0-8.837,7.163-16,16-16h53.184l19.2-48h-72.384
	c-8.837,0-16-7.163-16-16v-64c0-26.51,21.49-48,48-48h16V32h-48c-44.183,0-80,35.817-80,80v80c0,8.837-7.163,16-16,16h-48v48h48
	c8.837,0,16,7.163,16,16V480z"/>
<g>
</g>
<g>
</g>
<g>
</g>
<g>
</g>
<g>
</g>
<g>
</g>
<g>
</g>
<g>
</g>
<g>
</g>
<g>
</g>
<g>
</g>
<g>
</g>
<g>
</g>
<g>
</g>
<g>
</g>
</svg>
