<?xml version="1.0" encoding="iso-8859-1"?>
<!-- Generator: Adobe Illustrator 19.0.0, SVG Export Plug-In . SVG Version: 6.00 Build 0)  -->
<svg version="1.1" id="Capa_1" xmlns="http://www.w3.org/2000/svg" xmlns:xlink="http://www.w3.org/1999/xlink" x="0px" y="0px"
	 viewBox="0 0 512.142 512.142" style="enable-background:new 0 0 512.142 512.142;" xml:space="preserve">
<path style="fill:#1E88E5;" d="M256.071,16.142c-127.565-4.723-234.902,94.658-240,222.208
	c0.685,68.642,33.942,132.876,89.6,173.056v84.736l81.728-44.8c22.369,6.166,45.469,9.277,68.672,9.248
	c127.577,4.722,234.919-94.677,240-222.24C490.973,110.8,383.636,11.419,256.071,16.142z"/>
<polygon style="fill:#FAFAFA;" points="281.511,319.342 216.327,249.806 89.127,319.342 229.031,170.798 295.815,240.334 
	421.447,170.798 "/>
<path d="M105.671,512.142c-8.837,0-16-7.163-16-16v-76.8c-56.087-43.361-89.126-110.1-89.6-180.992
	c5.242-136.321,119.655-242.782,256-238.208c136.345-4.574,250.758,101.887,256,238.208c-5.242,136.326-119.649,242.796-256,238.24
	c-22.502,0.015-44.921-2.736-66.752-8.192l-76.096,41.76C110.904,511.422,108.312,512.103,105.671,512.142z M256.071,32.142
	c-118.672-4.569-218.755,87.564-224,206.208c0.583,63.586,31.407,123.096,83.008,160.256c4.029,3.022,6.4,7.764,6.4,12.8v57.6
	l58.016-31.84c3.658-2,7.952-2.494,11.968-1.376c21.042,5.826,42.774,8.786,64.608,8.8c118.684,4.569,218.772-87.583,224-206.24
	C474.826,119.706,374.743,27.573,256.071,32.142z"/>
<path d="M99.559,331.406c-8.837,0.004-16.003-7.157-16.006-15.994c-0.002-4.083,1.558-8.012,4.358-10.982l131.2-139.264
	c2.915-3.342,7.184-5.189,11.616-5.024c4.361,0,8.534,1.78,11.552,4.928l54.08,56.32l106.912-59.264
	c7.74-4.264,17.471-1.445,21.734,6.295c3.353,6.087,2.394,13.642-2.374,18.697L291.559,326.542
	c-3.025,3.208-7.239,5.026-11.648,5.024l0,0c-4.425,0.002-8.653-1.828-11.68-5.056l-52.64-56.32l-108.352,59.264
	C104.88,330.731,102.241,331.402,99.559,331.406z M218.791,234.222c4.425-0.002,8.653,1.828,11.68,5.056l49.472,52.768
	l49.248-52.256l-28.096,15.552c-6.332,3.46-14.196,2.254-19.2-2.944l-51.072-53.024l-50.56,53.568l31.008-16.768
	C213.579,234.915,216.162,234.245,218.791,234.222z"/>
<g>
</g>
<g>
</g>
<g>
</g>
<g>
</g>
<g>
</g>
<g>
</g>
<g>
</g>
<g>
</g>
<g>
</g>
<g>
</g>
<g>
</g>
<g>
</g>
<g>
</g>
<g>
</g>
<g>
</g>
</svg>
