<?xml version="1.0" encoding="iso-8859-1"?>
<!-- Generator: Adobe Illustrator 19.0.0, SVG Export Plug-In . SVG Version: 6.00 Build 0)  -->
<svg version="1.1" id="Capa_1" xmlns="http://www.w3.org/2000/svg" xmlns:xlink="http://www.w3.org/1999/xlink" x="0px" y="0px"
	 viewBox="0 0 512 512" style="enable-background:new 0 0 512 512;" xml:space="preserve">
<path style="fill:#1976D2;" d="M64,0h384c35.346,0,64,28.654,64,64v384c0,35.346-28.654,64-64,64H64c-35.346,0-64-28.654-64-64V64
	C0,28.654,28.654,0,64,0z"/>
<path style="fill:#FAFAFA;" d="M416,240h-80v-64c0-17.664,14.336-16,32-16h32V80h-64c-53.019,0-96,42.981-96,96v64h-64v80h64v192h96
	V320h48L416,240z"/>
<path d="M448,512H336c-8.837,0-16-7.163-16-16V320c0-8.837,7.163-16,16-16h37.184l19.2-48H336c-8.837,0-16-7.163-16-16v-64
	c-0.417-8.433,2.663-16.664,8.512-22.752c10.062-7.867,22.932-11.215,35.552-9.248H384V96h-48c-44.183,0-80,35.817-80,80v64
	c0,8.837-7.163,16-16,16h-48v48h48c8.837,0,16,7.163,16,16v176c0,8.837-7.163,16-16,16H64c-35.346,0-64-28.654-64-64V64
	C0,28.654,28.654,0,64,0h384c35.346,0,64,28.654,64,64v384C512,483.346,483.346,512,448,512z M352,480h96c17.673,0,32-14.327,32-32
	V64c0-17.673-14.327-32-32-32H64c-17.673,0-32,14.327-32,32v384c0,17.673,14.327,32,32,32h160V336h-48c-8.837,0-16-7.163-16-16v-80
	c0-8.837,7.163-16,16-16h48v-48c0-61.856,50.144-112,112-112h64c8.837,0,16,7.163,16,16v80c0,8.837-7.163,16-16,16h-36.16
	c-3.949-0.14-7.903-0.044-11.84,0.288V224h64c8.837,0.002,15.998,7.167,15.996,16.004c0,2.038-0.39,4.057-1.148,5.948l-32,80
	C396.416,332.02,390.537,335.998,384,336h-32V480z"/>
<g>
</g>
<g>
</g>
<g>
</g>
<g>
</g>
<g>
</g>
<g>
</g>
<g>
</g>
<g>
</g>
<g>
</g>
<g>
</g>
<g>
</g>
<g>
</g>
<g>
</g>
<g>
</g>
<g>
</g>
</svg>
