<?xml version="1.0" encoding="iso-8859-1"?>
<!-- Generator: Adobe Illustrator 19.0.0, SVG Export Plug-In . SVG Version: 6.00 Build 0)  -->
<svg version="1.1" id="Capa_1" xmlns="http://www.w3.org/2000/svg" xmlns:xlink="http://www.w3.org/1999/xlink" x="0px" y="0px"
	 viewBox="0 0 511.7 511.7" style="enable-background:new 0 0 511.7 511.7;" xml:space="preserve">
<path style="fill:#7CB342;" d="M399.987,20.583c-16.992-8.352-103.072,1.184-165.376,60.832
	c-59.011,60.979-93.112,141.804-95.616,226.624c0,0-3.2,13.248-17.024-5.984c-30.176-38.4-14.368-126.976-12.608-139.328
	c2.496-17.376-8.576-17.888-13.184-12.128c-74.184,89.416-61.835,222.04,27.581,296.224c8.299,6.885,17.115,13.122,26.371,18.656
	c75.552,46.208,224.544,46.208,283.872-84.704C507.923,217.959,421.299,31.015,399.987,20.583z"/>
<path d="M256.499,511.687c-40.313,0.433-79.983-10.121-114.752-30.528c-54.09-34.837-92.273-89.587-106.272-152.384
	c-11.819-66.755,5.539-135.375,47.68-188.48c6.431-8.817,17.995-12.194,28.16-8.224c11.79,5.875,17.65,19.376,13.888,32
	c-7.798,36.124-7.732,73.503,0.192,109.6c9.416-77.245,43.799-149.302,97.92-205.216c66.176-64,160.288-76.224,183.84-64.48l0,0
	c29.152,14.432,119.904,210.176,41.6,384.576c-23.076,54.646-69.212,96.234-125.952,113.536
	C301.298,508.55,278.954,511.785,256.499,511.687z M89.587,190.055c-23.181,39.972-31.265,86.93-22.784,132.352
	c12.085,54.187,45.051,101.422,91.744,131.456c47.012,26.881,103.021,33.213,154.848,17.504c47.841-14.668,86.687-49.844,106.016-96
	c66.752-148.48-5.408-323.2-27.04-342.944c-54.828-1.072-107.747,20.139-146.656,58.784c-55.709,58.86-87.975,136.059-90.72,217.056
	v2.016l-0.448,1.984c-1.843,8.194-8.25,14.589-16.448,16.416c-15.424,3.008-25.76-12-29.184-16.896
	C90.515,288.071,83.955,247.079,89.587,190.055z"/>
<g>
</g>
<g>
</g>
<g>
</g>
<g>
</g>
<g>
</g>
<g>
</g>
<g>
</g>
<g>
</g>
<g>
</g>
<g>
</g>
<g>
</g>
<g>
</g>
<g>
</g>
<g>
</g>
<g>
</g>
</svg>
