<?xml version="1.0" encoding="iso-8859-1"?>
<!-- Generator: Adobe Illustrator 19.0.0, SVG Export Plug-In . SVG Version: 6.00 Build 0)  -->
<svg version="1.1" id="Capa_1" xmlns="http://www.w3.org/2000/svg" xmlns:xlink="http://www.w3.org/1999/xlink" x="0px" y="0px"
	 viewBox="0 0 512 512" style="enable-background:new 0 0 512 512;" xml:space="preserve">
<circle style="fill:#EC407A;" cx="256" cy="254.272" r="240"/>
<path style="fill:#C2185B;" d="M256,0C114.615,0,0,114.615,0,256s114.615,256,256,256s256-114.615,256-256
	C511.841,114.681,397.319,0.159,256,0z M480,257.92c-53.156-14.276-108.9-16.028-162.848-5.12
	c-7.232-18.048-15.04-35.829-23.424-53.344c48.373-22.647,92.655-53.163,131.04-90.304C460.368,149.789,479.996,201.974,480,256
	C480,256.64,480,257.248,480,257.92z M402.24,86.624c-35.846,34.728-77.208,63.266-122.4,84.448
	c-24.022-45.908-51.966-89.655-83.52-130.752c72.025-20.315,149.438-2.899,205.824,46.304L402.24,86.624z M164.704,51.648
	c32.329,41.182,60.872,85.201,85.28,131.52c-67.855,26.06-141.009,35.316-213.216,26.976C51.635,139.903,99.181,81,164.704,51.648z
	 M32,256c0-4.8,0.416-9.6,0.736-14.208c18.865,2.353,37.853,3.593,56.864,3.712c59.807-0.182,119.057-11.5,174.72-33.376
	c7.701,16.043,14.912,32.267,21.632,48.672c-80.242,24.016-149.55,75.357-195.904,145.12C52.724,364.907,32.028,311.454,32,256z
	 M113.44,428.8c42.565-66.913,108.024-116.05,184.16-138.24c20.338,55.957,34.847,113.864,43.296,172.8
	c-76.308,31.333-163.675,18.031-227.2-34.592L113.44,428.8z M370.752,448c-8.711-56.154-22.726-111.355-41.856-164.864
	c49.283-9.164,100.02-6.776,148.224,6.976C466.905,355.94,427.921,413.805,370.752,448z"/>
<path d="M256,512C114.615,512,0,397.385,0,256S114.615,0,256,0s256,114.615,256,256C511.841,397.319,397.319,511.841,256,512z
	 M256,32C132.288,32,32,132.288,32,256s100.288,224,224,224s224-100.288,224-224C479.859,132.347,379.653,32.141,256,32z"/>
<path d="M342.624,475.072c-20.451-158.725-84.608-308.643-185.312-433.024l24.864-20.096
	C286.646,150.908,353.199,306.373,374.4,470.976L342.624,475.072z"/>
<path d="M89.6,245.504c-24.75-0.002-49.462-1.906-73.92-5.696l4.96-31.616c145.023,22.486,291.905-27.12,393.6-132.928
	l23.072,22.144C346.377,192.014,220.823,245.489,89.6,245.504z"/>
<path d="M106.304,439.616l-27.68-16c85.351-145.748,260.564-212.546,421.28-160.608l-9.92,30.4
	C343.627,246.067,184.04,306.881,106.304,439.616z"/>
<g>
</g>
<g>
</g>
<g>
</g>
<g>
</g>
<g>
</g>
<g>
</g>
<g>
</g>
<g>
</g>
<g>
</g>
<g>
</g>
<g>
</g>
<g>
</g>
<g>
</g>
<g>
</g>
<g>
</g>
</svg>
