<?xml version="1.0" encoding="iso-8859-1"?>
<!-- Generator: Adobe Illustrator 19.0.0, SVG Export Plug-In . SVG Version: 6.00 Build 0)  -->
<svg version="1.1" id="Capa_1" xmlns="http://www.w3.org/2000/svg" xmlns:xlink="http://www.w3.org/1999/xlink" x="0px" y="0px"
	 viewBox="0 0 512 512" style="enable-background:new 0 0 512 512;" xml:space="preserve">
<path style="fill:#1565C0;" d="M0,272V48c0-8.837,7.163-16,16-16h144v256H16C7.163,288,0,280.837,0,272z"/>
<path style="fill:#BBDEFB;" d="M448,320H320v96c0,35.346-28.654,64-64,64h-48c-8.837,0-16-7.163-16-16v-75.744l-61.888-108.32
	c-1.392-2.413-2.121-5.151-2.112-7.936V48c0-8.837,7.163-16,16-16h256.8c25.299-0.003,48.225,14.896,58.496,38.016l51.2,115.488
	c0.946,2.038,1.458,4.25,1.504,6.496v64C512,291.346,483.346,320,448,320z"/>
<path d="M144,288H16c-8.837,0-16-7.163-16-16V48c0-8.837,7.163-16,16-16h128c8.837,0,16,7.163,16,16s-7.163,16-16,16H32v192h112
	c8.837,0,16,7.163,16,16S152.837,288,144,288z"/>
<path d="M256,480h-48c-8.837,0-16-7.163-16-16v-75.744l-61.888-108.32c-1.382-2.417-2.11-5.152-2.112-7.936V48
	c0-8.837,7.163-16,16-16h256.8c25.299-0.003,48.225,14.896,58.496,38.016l51.2,115.488c0.946,2.038,1.458,4.25,1.504,6.496v64
	c0,35.346-28.654,64-64,64H320v96C320,451.346,291.346,480,256,480z M224,448h32c17.673,0,32-14.327,32-32V304
	c0-8.837,7.163-16,16-16h144c17.673,0,32-14.327,32-32v-60.608L430.048,83.008C424.912,71.448,413.449,63.998,400.8,64H160v203.744
	l61.888,108.32c1.382,2.417,2.11,5.152,2.112,7.936V448z"/>
<g>
</g>
<g>
</g>
<g>
</g>
<g>
</g>
<g>
</g>
<g>
</g>
<g>
</g>
<g>
</g>
<g>
</g>
<g>
</g>
<g>
</g>
<g>
</g>
<g>
</g>
<g>
</g>
<g>
</g>
</svg>
