<?xml version="1.0" encoding="iso-8859-1"?>
<!-- Generator: Adobe Illustrator 19.0.0, SVG Export Plug-In . SVG Version: 6.00 Build 0)  -->
<svg version="1.1" id="Capa_1" xmlns="http://www.w3.org/2000/svg" xmlns:xlink="http://www.w3.org/1999/xlink" x="0px" y="0px"
	 viewBox="0 0 512 512" style="enable-background:new 0 0 512 512;" xml:space="preserve">
<g>
	<rect x="160" y="144" style="fill:#ECEFF1;" width="64" height="192"/>
	<path d="M224,352h-64c-8.837,0-16-7.163-16-16V144c0-8.837,7.163-16,16-16h64c8.837,0,16,7.163,16,16v192
		C240,344.837,232.837,352,224,352z M176,320h32V160h-32V320z"/>
</g>
<g>
	<path style="fill:#ECEFF1;" d="M496,464H384v-64h48v-64h-64V144h128V464z M416,272h16v-64h-16V272z"/>
	<path d="M496,480H384c-8.837,0-16-7.163-16-16v-64c0-8.837,7.163-16,16-16h32v-32h-48c-8.837,0-16-7.163-16-16V144
		c0-8.837,7.163-16,16-16h128c8.837,0,16,7.163,16,16v320C512,472.837,504.837,480,496,480z M400,448h80V160h-96v160h48
		c8.837,0,16,7.163,16,16v64c0,8.837-7.163,16-16,16h-32V448z M432,288h-16c-8.837,0-16-7.163-16-16v-64c0-8.837,7.163-16,16-16h16
		c8.837,0,16,7.163,16,16v64C448,280.837,440.837,288,432,288z"/>
</g>
<g>
	<path style="fill:#ECEFF1;" d="M368,464H256v-64h48v-64h-80V144h144V464z M288,272h16v-64h-16V272z"/>
	<path d="M368,480H256c-8.837,0-16-7.163-16-16v-64c0-8.837,7.163-16,16-16h32v-32h-64c-8.837,0-16-7.163-16-16V144
		c0-8.837,7.163-16,16-16h144c8.837,0,16,7.163,16,16v320C384,472.837,376.837,480,368,480z M272,448h80V160H240v160h64
		c8.837,0,16,7.163,16,16v64c0,8.837-7.163,16-16,16h-32V448z M304,288h-16c-8.837,0-16-7.163-16-16v-64c0-8.837,7.163-16,16-16h16
		c8.837,0,16,7.163,16,16v64C320,280.837,312.837,288,304,288z"/>
</g>
<g>
	<path style="fill:#ECEFF1;" d="M160,336H16V144h80V48h64V336z M80,272h16v-64H80V272z"/>
	<path d="M160,352H16c-8.837,0-16-7.163-16-16V144c0-8.837,7.163-16,16-16h64V48c0-8.837,7.163-16,16-16h64c8.837,0,16,7.163,16,16
		v288C176,344.837,168.837,352,160,352z M32,320h112V64h-32v80c0,8.837-7.163,16-16,16H32V320z M96,288H80c-8.837,0-16-7.163-16-16
		v-64c0-8.837,7.163-16,16-16h16c8.837,0,16,7.163,16,16v64C112,280.837,104.837,288,96,288z"/>
</g>
<rect x="160" y="80" style="fill:#ECEFF1;" width="64" height="64"/>
<path d="M224,160h-64c-8.837,0-16-7.163-16-16V80c0-8.837,7.163-16,16-16h64c8.837,0,16,7.163,16,16v64
	C240,152.837,232.837,160,224,160z M176,128h32V96h-32V128z"/>
<g>
</g>
<g>
</g>
<g>
</g>
<g>
</g>
<g>
</g>
<g>
</g>
<g>
</g>
<g>
</g>
<g>
</g>
<g>
</g>
<g>
</g>
<g>
</g>
<g>
</g>
<g>
</g>
<g>
</g>
</svg>
