<?xml version="1.0" encoding="iso-8859-1"?>
<!-- Generator: Adobe Illustrator 19.0.0, SVG Export Plug-In . SVG Version: 6.00 Build 0)  -->
<svg version="1.1" id="Capa_1" xmlns="http://www.w3.org/2000/svg" xmlns:xlink="http://www.w3.org/1999/xlink" x="0px" y="0px"
	 viewBox="0 0 512 512" style="enable-background:new 0 0 512 512;" xml:space="preserve">
<path style="fill:#4CAF50;" d="M400,0h-86.4l-42.432,87.584c-2.278,5.046-7.264,8.324-12.8,8.416H112v128h68.928
	c8.809,0.697,15.385,8.403,14.689,17.212c-0.177,2.233-0.82,4.404-1.889,6.372L112,416v96h86.4l42.432-87.584
	c2.278-5.046,7.264-8.324,12.8-8.416H400V288h-68.928c-8.809-0.697-15.385-8.403-14.689-17.212c0.177-2.233,0.82-4.404,1.889-6.372
	L400,96V0z"/>
<path d="M198.4,512H112c-8.837,0-16-7.163-16-16v-89.984c0-2.561,0.614-5.085,1.792-7.36L188.064,224H112c-8.837,0-16-7.163-16-16
	v-96c0-8.837,7.163-16,16-16h142.24l45.12-87.328c2.746-5.331,8.243-8.678,14.24-8.672H400c8.837,0,16,7.163,16,16v89.984
	c0,2.561-0.614,5.085-1.792,7.36L323.936,288H400c8.837,0,16,7.163,16,16v96c0,8.837-7.163,16-16,16H257.76l-45.12,87.328
	C209.894,508.659,204.397,512.006,198.4,512z M128,480h60.8l45.152-87.328c2.72-5.28,8.141-8.619,14.08-8.672H384v-64h-86.4
	c-8.837,0.009-16.008-7.147-16.017-15.983c-0.003-2.555,0.607-5.074,1.777-7.345L384,102.112V32h-60.8l-45.024,87.328
	c-2.741,5.321-8.223,8.666-14.208,8.672H128v64h86.4c8.837-0.009,16.008,7.147,16.017,15.983c0.003,2.555-0.607,5.074-1.777,7.345
	L128,409.888V480z"/>
<g>
</g>
<g>
</g>
<g>
</g>
<g>
</g>
<g>
</g>
<g>
</g>
<g>
</g>
<g>
</g>
<g>
</g>
<g>
</g>
<g>
</g>
<g>
</g>
<g>
</g>
<g>
</g>
<g>
</g>
</svg>
