<?xml version="1.0" encoding="iso-8859-1"?>
<!-- Generator: Adobe Illustrator 19.0.0, SVG Export Plug-In . SVG Version: 6.00 Build 0)  -->
<svg version="1.1" id="Capa_1" xmlns="http://www.w3.org/2000/svg" xmlns:xlink="http://www.w3.org/1999/xlink" x="0px" y="0px"
	 viewBox="0 0 480 480" style="enable-background:new 0 0 480 480;" xml:space="preserve">
<rect x="16" y="16" style="fill:#FAFAFA;" width="224" height="224"/>
<rect x="240" y="16" style="fill:#1565C0;" width="224" height="224"/>
<rect x="16" y="240" style="fill:#37474F;" width="224" height="224"/>
<rect x="240" y="240" style="fill:#CFD8DC;" width="224" height="224"/>
<path d="M464,256H240c-8.837,0-16-7.163-16-16V16c0-8.837,7.163-16,16-16h224c8.837,0,16,7.163,16,16v224
	C480,248.837,472.837,256,464,256z M256,224h192V32H256V224z"/>
<path d="M240,480H16c-8.837,0-16-7.163-16-16V240c0-8.837,7.163-16,16-16h224c8.837,0,16,7.163,16,16v224
	C256,472.837,248.837,480,240,480z M32,448h192V256H32V448z"/>
<g>
</g>
<g>
</g>
<g>
</g>
<g>
</g>
<g>
</g>
<g>
</g>
<g>
</g>
<g>
</g>
<g>
</g>
<g>
</g>
<g>
</g>
<g>
</g>
<g>
</g>
<g>
</g>
<g>
</g>
</svg>
