<?xml version="1.0" encoding="iso-8859-1"?>
<!-- Generator: Adobe Illustrator 19.0.0, SVG Export Plug-In . SVG Version: 6.00 Build 0)  -->
<svg version="1.1" id="Capa_1" xmlns="http://www.w3.org/2000/svg" xmlns:xlink="http://www.w3.org/1999/xlink" x="0px" y="0px"
	 viewBox="0 0 512 512" style="enable-background:new 0 0 512 512;" xml:space="preserve">
<path style="fill:#2196F3;" d="M16,112v288h144c44.183,0,80-35.817,80-80l0,0c0-44.183-35.817-80-80-80h-16
	c35.346,0,64-28.654,64-64l0,0c0-35.346-28.654-64-64-64H16z"/>
<path d="M160,416H0V96h144c44.183,0.044,79.964,35.897,79.92,80.08c-0.021,21.319-8.551,41.748-23.696,56.752
	c48.142,22.214,69.16,79.248,46.947,127.389C231.481,394.225,197.449,416.001,160,416z M32,384h128c35.346,0,64-28.654,64-64
	s-28.654-64-64-64H32V384z M32,224h112c26.51,0,48-21.49,48-48s-21.49-48-48-48H32V224z"/>
<path style="fill:#2196F3;" d="M496,304H304c0-53.019,42.981-96,96-96S496,250.981,496,304z"/>
<path d="M512,320H288v-16c0-61.856,50.144-112,112-112s112,50.144,112,112V320z M321.6,288h156.8
	c-8.792-43.299-51.021-71.272-94.32-62.48C352.598,231.913,327.993,256.517,321.6,288L321.6,288z"/>
<path d="M400,416c-61.856,0-112-50.144-112-112c0-8.837,7.163-16,16-16s16,7.163,16,16c0.042,44.183,35.893,79.966,80.075,79.925
	c20.914-0.02,40.989-8.229,55.925-22.869c6.05-6.44,16.176-6.756,22.616-0.706c6.44,6.05,6.756,16.176,0.706,22.616
	c-0.295,0.314-0.603,0.616-0.922,0.905C457.534,404.514,429.35,416.063,400,416z"/>
<path d="M464,160H336c-8.837,0-16-7.163-16-16s7.163-16,16-16h128c8.837,0,16,7.163,16,16S472.837,160,464,160z"/>
<g>
</g>
<g>
</g>
<g>
</g>
<g>
</g>
<g>
</g>
<g>
</g>
<g>
</g>
<g>
</g>
<g>
</g>
<g>
</g>
<g>
</g>
<g>
</g>
<g>
</g>
<g>
</g>
<g>
</g>
</svg>
