<?xml version="1.0" encoding="iso-8859-1"?>
<!-- Generator: Adobe Illustrator 19.0.0, SVG Export Plug-In . SVG Version: 6.00 Build 0)  -->
<svg version="1.1" id="Capa_1" xmlns="http://www.w3.org/2000/svg" xmlns:xlink="http://www.w3.org/1999/xlink" x="0px" y="0px"
	 viewBox="0 0 499.374 499.374" style="enable-background:new 0 0 499.374 499.374;" xml:space="preserve">
<g>
	<path style="fill:#FF5722;" d="M163.854,413.943c-85.982-4.905-151.915-78.239-147.68-164.256
		C11.939,163.67,77.872,90.336,163.854,85.431c85.995,4.888,151.947,78.227,147.712,164.256c0,15.808,3.552,94.592,73.856,94.592
		c46.752,0,46.752-21.696,46.752-29.888c0-17.088-19.424-28.352-51.392-44.8c-33.504-17.344-75.2-38.912-75.2-84.48
		c-3.214-41.514,27.834-77.772,69.348-80.986c3.545-0.274,7.104-0.298,10.652-0.07c43.726,1.957,78.544,37.305,79.84,81.056
		c0,14.138-11.462,25.6-25.6,25.6s-25.6-11.462-25.6-25.6c-1.238-15.559-13.298-28.074-28.8-29.888
		c-23.776,0-28.8,11.936-28.8,29.888c0,13.408,18.816,24.16,47.52,39.008c35.2,18.24,79.072,40.928,79.072,90.4
		c0,39.2-25.6,81.056-97.952,81.056c-86.4,0-125.056-73.184-125.056-145.76c4.21-57.725-38.696-108.141-96.352-113.216
		c-57.662,4.993-100.631,55.359-96.48,113.088c-4.151,57.729,38.818,108.095,96.48,113.088
		c26.308-0.417,51.104-12.375,67.808-32.704c9.243-10.701,25.411-11.883,36.112-2.64c10.701,9.243,11.883,25.411,2.64,36.112l0,0
		C244.059,395.228,205.067,413.67,163.854,413.943z"/>
	<path d="M163.854,429.943C69.039,425.026-4.05,344.535,0.174,249.687C-4.05,154.839,69.039,74.348,163.854,69.431
		c54.195,0.841,104.257,29.138,132.928,75.136c14.31-35.962,49.993-58.764,88.64-56.64c52.698,1.661,94.843,44.341,95.84,97.056
		c0.034,22.105-17.225,40.376-39.296,41.6c33.892,16.412,55.969,50.179,57.408,87.808c0,44.8-29.856,97.056-113.952,97.056
		c-37.696,1.346-74.098-13.85-99.648-41.6c-0.964,1.513-2.034,2.957-3.2,4.32C253.161,409.355,209.716,429.765,163.854,429.943z
		 M163.854,101.431c-77.15,4.89-135.928,71.068-131.68,148.256c-4.248,77.188,54.53,143.366,131.68,148.256
		c36.547-0.302,71.104-16.691,94.464-44.8c3.464-4.021,3.013-10.088-1.008-13.552s-10.088-3.013-13.552,1.008
		c-19.698,23.973-48.975,38.026-80,38.4c-66.571-5.018-116.695-62.692-112.384-129.312c-4.181-66.57,45.964-124.119,112.48-129.088
		c66.529,4.952,116.693,62.506,112.512,129.088c0,59.872,28.576,129.76,109.056,129.76c76.032,0,81.952-49.76,81.952-65.056
		c0-39.712-37.408-59.072-70.4-76.16c-28.8-14.976-56.192-29.088-56.192-53.248c-3.363-21.905,11.668-42.39,33.573-45.753
		c3.717-0.571,7.497-0.616,11.227-0.135c24.375,1.795,43.59,21.477,44.8,45.888c0,5.302,4.298,9.6,9.6,9.6s9.6-4.298,9.6-9.6
		c-1.388-34.874-28.998-63.01-63.84-65.056c-32.94-2.451-61.63,22.266-64.081,55.206c-0.244,3.28-0.217,6.575,0.081,9.85
		c0,35.84,35.36,54.112,66.528,70.4c31.168,16.288,59.904,30.976,59.904,59.008c0,20.928-10.88,45.888-62.752,45.888
		c-66.336,0-89.856-59.584-89.856-110.592C299.814,172.488,241.017,106.305,163.854,101.431L163.854,101.431z M163.854,152.631
		c-48.77,5.057-84.539,48.192-80.48,97.056c-4.077,48.875,31.696,92.031,80.48,97.088c21.664-0.413,42.046-10.353,55.712-27.168
		c7.911-9.136,19.403-14.38,31.488-14.368h0.608c-4.905-18.108-7.359-36.792-7.296-55.552c4.076-48.887-31.715-92.047-80.512-97.088
		V152.631z M327.726,256.279c1.152,23.136,9.312,72.032,57.6,72.032c30.752,0,30.752-9.024,30.752-13.888
		c0-8.576-24.704-21.376-42.784-30.72c-15.988-7.756-31.24-16.946-45.568-27.456V256.279z M385.326,171.127
		c-11.712,0-12.8,1.056-12.8,13.888c8.926,8.672,19.358,15.645,30.784,20.576c-3.593-6.262-5.48-13.357-5.472-20.576
		c-1.187-6.608-5.986-11.989-12.416-13.92L385.326,171.127z"/>
</g>
<g>
</g>
<g>
</g>
<g>
</g>
<g>
</g>
<g>
</g>
<g>
</g>
<g>
</g>
<g>
</g>
<g>
</g>
<g>
</g>
<g>
</g>
<g>
</g>
<g>
</g>
<g>
</g>
<g>
</g>
</svg>
